<?xml version="1.0" encoding="utf-8"?>
<svg viewBox="0 0 500 500" xmlns="http://www.w3.org/2000/svg">
  <path d="M 308.233 227.501 L 272.928 176.482 L 237.623 227.501 C 232.852 234.503 229.989 243.507 229.989 252.51 C 229.989 276.519 249.073 296.526 272.928 296.526 C 272.928 296.526 272.928 296.526 272.928 296.526 C 296.783 296.526 315.867 276.519 315.867 252.51 C 315.867 252.51 315.867 252.51 315.867 252.51 C 315.867 243.507 313.004 234.503 308.233 227.501 Z M 296.783 256.511 L 277.699 256.511 L 277.699 256.506 L 268.157 256.513 L 268.157 256.511 L 249.073 256.511 L 249.073 246.508 L 268.157 246.508 L 268.165 246.507 L 277.699 246.508 L 296.783 246.508 L 296.783 256.511 Z" fill="var(--ion-color-primary)" style=""/>
</svg>