<svg id="svg" version="1.1" xmlns="http://www.w3.org/2000/svg" xmlns:xlink="http://www.w3.org/1999/xlink" width="400" height="400" viewBox="0, 0, 400,400"><g id="svgg"><path id="path0" d="M198.800 57.167 C 198.800 102.526,198.697 114.375,198.300 114.535 C 198.025 114.646,198.589 114.751,199.554 114.768 C 205.867 114.882,210.066 118.438,213.289 126.400 C 213.511 126.950,213.852 127.713,214.047 128.095 C 214.241 128.477,214.400 129.064,214.400 129.400 C 214.400 129.736,214.559 130.323,214.753 130.705 C 214.948 131.087,215.284 131.850,215.500 132.400 C 215.716 132.950,216.082 133.850,216.314 134.400 C 216.545 134.950,217.221 136.750,217.816 138.400 C 220.387 145.529,221.805 149.234,222.447 150.495 C 222.641 150.877,222.800 151.464,222.800 151.800 C 222.800 152.136,222.959 152.723,223.153 153.105 C 223.348 153.487,223.729 154.340,224.000 155.000 C 224.271 155.660,224.652 156.513,224.847 156.895 C 225.041 157.277,225.200 157.864,225.200 158.200 C 225.200 158.536,225.359 159.123,225.553 159.505 C 225.953 160.292,226.763 162.206,227.200 163.400 C 227.361 163.840,227.679 164.650,227.906 165.200 C 228.133 165.750,228.536 166.830,228.800 167.600 C 229.349 169.200,229.717 170.177,230.307 171.600 C 230.535 172.150,231.117 173.680,231.600 175.000 C 232.083 176.320,232.624 177.760,232.802 178.200 C 233.834 180.746,235.436 185.036,236.461 188.000 C 237.107 189.870,237.832 191.850,238.072 192.400 C 238.626 193.673,238.999 194.649,239.600 196.400 C 239.864 197.170,240.267 198.250,240.494 198.800 C 240.951 199.907,241.503 201.280,242.100 202.800 C 242.316 203.350,242.652 204.113,242.847 204.495 C 243.041 204.877,243.200 205.464,243.200 205.800 C 243.200 206.136,243.359 206.723,243.553 207.105 C 245.048 210.045,246.400 214.267,246.400 216.000 C 246.400 218.833,244.849 222.330,242.589 224.589 C 240.969 226.209,240.230 226.660,237.081 227.944 C 235.702 228.506,231.737 228.546,231.400 228.000 C 231.264 227.780,230.809 227.600,230.389 227.600 C 229.226 227.600,226.869 226.137,225.153 224.351 C 223.759 222.901,223.161 221.875,221.913 218.800 C 221.689 218.250,221.348 217.487,221.153 217.105 C 220.959 216.723,220.800 216.136,220.800 215.800 C 220.800 215.464,220.641 214.877,220.447 214.495 C 219.998 213.612,219.520 212.446,218.279 209.200 L 217.285 206.600 207.942 206.493 L 198.600 206.386 198.600 229.350 L 198.600 252.313 200.730 252.564 C 204.552 253.013,208.368 255.765,209.827 259.126 C 210.179 259.937,210.632 260.913,210.834 261.295 C 211.035 261.677,211.200 264.332,211.200 267.195 L 211.200 272.400 216.206 272.400 C 220.872 272.400,224.400 272.959,224.400 273.697 C 224.400 273.864,224.656 274.000,224.968 274.000 C 227.430 274.000,230.947 280.119,230.947 284.400 C 230.947 292.198,226.218 296.281,216.714 296.687 L 211.200 296.923 211.200 302.238 C 211.200 305.350,211.034 307.655,210.800 307.800 C 210.580 307.936,210.400 308.399,210.400 308.829 C 210.400 312.098,204.532 316.717,200.135 316.909 C 198.813 316.966,198.181 317.140,198.420 317.380 C 198.655 317.615,198.800 333.486,198.800 358.934 L 198.800 400.109 208.981 399.920 C 216.937 399.771,219.313 399.607,219.857 399.165 C 220.306 398.801,220.447 398.778,220.253 399.100 C 220.088 399.375,220.143 399.600,220.376 399.600 C 220.609 399.600,220.800 399.420,220.800 399.200 C 220.800 398.980,221.801 398.800,223.024 398.800 C 224.404 398.800,225.153 398.648,225.000 398.400 C 224.847 398.152,225.596 398.000,226.976 398.000 C 228.199 398.000,229.200 397.820,229.200 397.600 C 229.200 397.380,230.100 397.200,231.200 397.200 C 232.300 397.200,233.200 397.020,233.200 396.800 C 233.200 396.580,233.740 396.400,234.400 396.400 C 235.060 396.400,235.600 396.220,235.600 396.000 C 235.600 395.780,236.320 395.600,237.200 395.600 C 238.080 395.600,238.800 395.420,238.800 395.200 C 238.800 394.980,239.430 394.800,240.200 394.800 C 240.970 394.800,241.600 394.620,241.600 394.400 C 241.600 394.180,242.140 394.000,242.800 394.000 C 243.460 394.000,244.000 393.820,244.000 393.600 C 244.000 393.380,244.355 393.200,244.788 393.200 C 245.221 393.200,246.217 392.840,247.000 392.400 C 247.783 391.960,248.863 391.600,249.399 391.600 C 250.610 391.600,254.968 389.807,255.905 388.924 C 256.182 388.662,256.767 388.517,257.205 388.601 C 257.642 388.685,258.000 388.584,258.000 388.377 C 258.000 388.170,258.270 388.000,258.600 388.000 C 258.930 388.000,259.200 387.820,259.200 387.600 C 259.200 387.380,259.650 387.200,260.200 387.200 C 260.750 387.200,261.200 387.020,261.200 386.800 C 261.200 386.580,261.560 386.400,262.000 386.400 C 262.440 386.400,262.800 386.220,262.800 386.000 C 262.800 385.780,263.160 385.600,263.600 385.600 C 264.040 385.600,264.400 385.420,264.400 385.200 C 264.400 384.980,264.771 384.800,265.224 384.800 C 265.677 384.800,265.939 384.625,265.807 384.412 C 265.675 384.198,266.025 383.909,266.584 383.768 C 267.143 383.628,267.600 383.342,267.600 383.133 C 267.600 382.924,267.768 382.856,267.972 382.983 C 268.177 383.109,268.458 383.030,268.596 382.807 C 268.734 382.583,269.207 382.400,269.647 382.400 C 270.087 382.400,270.355 382.251,270.243 382.069 C 270.130 381.887,270.913 381.302,271.981 380.769 C 273.050 380.237,273.840 379.665,273.738 379.500 C 273.636 379.335,273.934 379.200,274.400 379.200 C 274.866 379.200,275.136 379.020,275.000 378.800 C 274.864 378.580,275.147 378.400,275.629 378.400 C 276.112 378.400,276.809 378.051,277.178 377.625 C 277.548 377.199,278.108 376.794,278.422 376.725 C 278.735 376.656,279.471 376.105,280.057 375.500 C 280.642 374.895,281.375 374.400,281.685 374.400 C 281.995 374.400,282.816 373.845,283.509 373.167 C 284.287 372.407,284.967 372.048,285.285 372.231 C 285.568 372.395,285.666 372.381,285.503 372.200 C 285.181 371.845,286.787 370.537,287.330 370.713 C 287.511 370.772,287.545 370.635,287.406 370.410 C 287.267 370.184,287.444 370.000,287.800 370.000 C 288.156 370.000,288.336 369.820,288.200 369.600 C 287.973 369.233,288.520 369.022,289.330 369.163 C 289.511 369.194,289.570 369.075,289.460 368.897 C 289.350 368.719,289.877 368.152,290.630 367.635 C 291.384 367.119,292.000 366.540,292.000 366.348 C 292.000 366.157,292.190 366.000,292.422 366.000 C 292.654 366.000,293.869 364.961,295.122 363.690 C 296.375 362.420,298.030 360.943,298.800 360.409 C 300.455 359.261,301.915 357.680,302.231 356.694 C 302.356 356.306,302.619 356.088,302.815 356.209 C 303.012 356.331,303.695 355.710,304.333 354.829 C 304.971 353.948,305.591 353.324,305.710 353.444 C 305.829 353.563,306.046 353.287,306.190 352.830 C 306.335 352.374,306.632 352.000,306.851 352.000 C 307.069 352.000,307.136 351.820,307.000 351.600 C 306.864 351.380,307.001 351.200,307.304 351.200 C 307.925 351.200,309.600 349.424,309.600 348.766 C 309.600 348.530,310.335 347.631,311.233 346.769 C 312.131 345.906,312.716 345.195,312.533 345.188 C 312.350 345.181,312.515 344.992,312.900 344.768 C 313.285 344.544,313.600 344.119,313.600 343.825 C 313.600 343.531,314.138 342.865,314.796 342.345 C 315.454 341.825,315.994 341.175,315.996 340.900 C 315.998 340.625,316.360 340.040,316.800 339.600 C 317.240 339.160,317.600 338.519,317.600 338.176 C 317.600 337.833,317.780 337.664,318.000 337.800 C 318.220 337.936,318.400 337.767,318.400 337.424 C 318.400 337.081,318.580 336.800,318.800 336.800 C 319.020 336.800,319.200 336.622,319.200 336.403 C 319.200 336.185,319.855 335.150,320.655 334.103 C 321.455 333.057,322.282 331.705,322.494 331.100 C 322.705 330.495,323.021 330.000,323.196 330.000 C 323.370 330.000,323.637 329.507,323.788 328.904 C 323.940 328.301,324.188 327.716,324.341 327.604 C 324.900 327.193,326.000 325.211,326.000 324.614 C 326.000 324.276,326.180 324.000,326.400 324.000 C 326.620 324.000,326.800 323.680,326.800 323.288 C 326.800 322.897,327.160 322.317,327.600 322.000 C 328.040 321.683,328.400 321.103,328.400 320.712 C 328.400 320.320,328.580 320.000,328.800 320.000 C 329.020 320.000,329.200 319.640,329.200 319.200 C 329.200 318.760,329.380 318.400,329.600 318.400 C 329.820 318.400,330.000 318.040,330.000 317.600 C 330.000 317.160,330.180 316.800,330.400 316.800 C 330.620 316.800,330.800 316.339,330.800 315.776 C 330.800 315.196,330.973 314.860,331.200 315.000 C 331.420 315.136,331.600 314.887,331.600 314.447 C 331.600 314.007,331.780 313.536,332.000 313.400 C 332.220 313.264,332.400 312.793,332.400 312.353 C 332.400 311.850,332.572 311.659,332.862 311.838 C 333.119 311.997,333.216 311.950,333.081 311.731 C 332.948 311.515,333.280 310.467,333.819 309.402 C 334.359 308.336,334.800 307.225,334.800 306.932 C 334.800 306.639,334.980 306.400,335.200 306.400 C 335.420 306.400,335.600 306.127,335.600 305.794 C 335.600 304.892,336.555 302.000,336.853 302.000 C 336.995 302.000,337.234 301.325,337.385 300.500 C 337.536 299.675,337.889 298.640,338.169 298.200 C 338.616 297.499,338.914 296.410,339.472 293.431 C 339.551 293.009,339.814 292.424,340.057 292.131 C 340.299 291.839,340.394 291.600,340.267 291.600 C 340.140 291.600,340.270 290.925,340.557 290.100 C 340.844 289.275,341.047 288.195,341.007 287.700 C 340.966 287.205,341.084 286.800,341.267 286.800 C 341.450 286.800,341.600 286.249,341.600 285.576 C 341.600 284.903,341.748 284.444,341.929 284.556 C 342.111 284.668,342.301 283.824,342.352 282.680 C 342.403 281.536,342.614 280.540,342.822 280.467 C 343.030 280.393,343.200 279.748,343.200 279.033 C 343.200 278.318,343.333 277.600,343.496 277.438 C 343.658 277.275,343.820 276.660,343.855 276.071 C 344.039 273.001,344.193 272.000,344.482 272.000 C 344.657 272.000,344.800 271.021,344.800 269.824 C 344.800 268.627,344.958 267.549,345.151 267.430 C 345.345 267.311,345.530 265.737,345.563 263.934 C 345.595 262.131,345.819 260.418,346.060 260.128 C 346.379 259.744,346.370 259.446,346.030 259.036 C 345.721 258.664,345.700 258.386,345.968 258.220 C 346.487 257.899,346.528 235.313,346.009 235.129 C 345.809 235.058,345.604 233.965,345.554 232.700 C 345.504 231.435,345.342 230.400,345.193 230.400 C 345.045 230.400,344.890 229.372,344.849 228.116 C 344.808 226.859,344.610 225.730,344.409 225.605 C 344.207 225.481,343.998 224.619,343.943 223.690 C 343.888 222.760,343.699 222.000,343.522 222.000 C 343.345 222.000,343.200 221.295,343.200 220.433 C 343.200 219.572,343.029 218.807,342.820 218.733 C 342.611 218.660,342.397 217.846,342.343 216.924 C 342.290 216.002,342.121 215.325,341.969 215.419 C 341.816 215.514,341.562 214.558,341.404 213.296 C 341.247 212.034,340.862 210.508,340.551 209.905 C 340.239 209.302,339.983 208.717,339.982 208.606 C 339.976 207.831,339.452 206.000,339.235 206.000 C 339.089 206.000,338.926 205.418,338.872 204.707 C 338.817 203.995,338.599 203.239,338.387 203.027 C 338.174 202.814,338.000 202.226,338.000 201.720 C 338.000 201.214,337.820 200.800,337.600 200.800 C 337.380 200.800,337.200 200.440,337.200 200.000 C 337.200 199.560,337.020 199.200,336.800 199.200 C 336.580 199.200,336.400 198.540,336.400 197.733 C 336.400 196.927,336.284 196.383,336.142 196.525 C 335.905 196.762,334.027 192.033,333.915 190.918 C 333.889 190.652,333.717 190.528,333.533 190.641 C 333.350 190.755,333.186 190.612,333.169 190.324 C 333.101 189.148,332.832 188.309,332.232 187.393 C 331.885 186.862,331.600 186.051,331.600 185.590 C 331.600 185.130,331.420 184.864,331.200 185.000 C 330.966 185.145,330.800 184.730,330.800 184.000 C 330.800 183.270,330.634 182.855,330.400 183.000 C 330.173 183.140,330.000 182.804,330.000 182.224 C 330.000 181.661,329.820 181.200,329.600 181.200 C 329.380 181.200,329.200 180.935,329.200 180.612 C 329.200 180.289,328.840 179.383,328.400 178.600 C 327.960 177.817,327.600 176.821,327.600 176.388 C 327.600 175.955,327.420 175.600,327.200 175.600 C 326.980 175.600,326.800 175.240,326.800 174.800 C 326.800 174.360,326.620 174.000,326.400 174.000 C 326.180 174.000,326.000 173.629,326.000 173.176 C 326.000 172.723,325.820 172.464,325.600 172.600 C 325.380 172.736,325.186 172.612,325.169 172.324 C 325.153 172.036,325.085 171.526,325.018 171.192 C 324.871 170.449,322.475 165.514,320.587 162.066 C 319.824 160.673,319.200 159.317,319.200 159.054 C 319.200 158.792,318.840 158.317,318.400 158.000 C 317.960 157.683,317.600 157.000,317.600 156.483 C 317.600 155.966,317.328 155.271,316.996 154.939 C 316.664 154.607,316.495 154.170,316.620 153.968 C 316.745 153.765,316.678 153.600,316.470 153.600 C 316.263 153.600,315.984 153.285,315.851 152.900 C 315.718 152.515,315.271 151.660,314.858 151.000 C 314.445 150.340,314.183 149.665,314.277 149.500 C 314.371 149.335,314.257 149.200,314.024 149.200 C 313.791 149.200,313.600 149.012,313.600 148.783 C 313.600 148.554,313.240 147.980,312.800 147.508 C 312.360 147.036,312.000 146.252,312.000 145.767 C 312.000 145.282,311.728 144.781,311.396 144.654 C 311.064 144.527,310.823 144.282,310.860 144.111 C 310.999 143.466,310.299 142.415,309.896 142.664 C 309.662 142.809,309.594 142.733,309.742 142.494 C 309.888 142.258,309.724 141.781,309.378 141.435 C 309.031 141.088,308.658 140.310,308.548 139.704 C 308.438 139.099,308.090 138.458,307.774 138.282 C 307.458 138.105,307.200 137.699,307.200 137.380 C 307.200 137.061,307.040 136.800,306.845 136.800 C 306.649 136.800,306.371 136.170,306.226 135.400 C 306.082 134.630,305.837 134.000,305.681 134.000 C 305.526 134.000,304.969 133.190,304.444 132.200 C 303.919 131.210,303.334 130.400,303.144 130.400 C 302.955 130.400,302.800 130.151,302.800 129.846 C 302.800 129.016,301.760 127.173,301.461 127.473 C 301.317 127.616,301.194 127.388,301.187 126.967 C 301.172 126.050,300.229 124.704,299.860 125.073 C 299.717 125.216,299.600 124.853,299.600 124.267 C 299.600 123.680,299.420 123.200,299.200 123.200 C 298.980 123.200,298.800 122.932,298.800 122.603 C 298.800 122.275,298.440 121.782,298.000 121.507 C 297.560 121.232,297.200 120.644,297.200 120.200 C 297.200 119.756,296.840 119.168,296.400 118.893 C 295.960 118.618,295.600 118.035,295.600 117.597 C 295.600 117.158,295.420 116.800,295.200 116.800 C 294.980 116.800,294.800 116.622,294.800 116.405 C 294.800 116.029,294.033 114.976,292.871 113.755 C 292.475 113.338,292.465 113.200,292.833 113.200 C 293.102 113.200,292.935 112.864,292.461 112.453 C 291.988 112.042,291.600 111.456,291.600 111.149 C 291.600 110.843,291.233 110.363,290.784 110.083 C 290.336 109.803,290.089 109.380,290.236 109.142 C 290.382 108.905,290.344 108.596,290.151 108.455 C 289.512 107.991,287.867 105.461,287.867 104.943 C 287.867 104.663,287.615 104.338,287.308 104.220 C 287.001 104.102,286.861 103.824,286.998 103.603 C 287.135 103.381,287.058 103.200,286.826 103.200 C 286.594 103.200,286.023 102.390,285.558 101.400 C 285.093 100.410,284.552 99.600,284.356 99.600 C 284.160 99.600,284.000 99.345,284.000 99.033 C 284.000 98.722,283.855 98.407,283.677 98.333 C 283.211 98.141,280.800 94.536,280.800 94.031 C 280.800 93.798,280.440 93.382,280.000 93.107 C 279.560 92.832,279.200 92.331,279.200 91.992 C 279.200 91.654,278.840 91.117,278.400 90.800 C 277.960 90.483,277.600 89.903,277.600 89.512 C 277.600 89.120,277.420 88.800,277.200 88.800 C 276.980 88.800,276.800 88.530,276.800 88.200 C 276.800 87.870,276.620 87.600,276.400 87.600 C 276.180 87.600,276.000 87.370,276.000 87.088 C 276.000 86.807,275.640 86.317,275.200 86.000 C 274.760 85.683,274.400 85.125,274.400 84.761 C 274.400 84.396,274.130 83.874,273.800 83.600 C 273.470 83.326,273.200 82.864,273.200 82.574 C 273.200 82.283,272.827 81.784,272.371 81.465 C 271.915 81.145,271.505 80.636,271.461 80.333 C 271.384 79.810,269.576 77.209,268.496 76.068 C 268.219 75.775,268.095 75.370,268.220 75.168 C 268.345 74.965,268.156 74.800,267.800 74.800 C 267.444 74.800,267.264 74.620,267.400 74.400 C 267.536 74.180,267.457 74.000,267.224 74.000 C 266.991 74.000,266.800 73.773,266.800 73.496 C 266.800 73.219,266.440 72.768,266.000 72.493 C 265.560 72.218,265.200 71.618,265.200 71.159 C 265.200 70.662,264.877 70.241,264.400 70.116 C 263.960 70.001,263.600 69.642,263.600 69.317 C 263.600 68.993,263.195 68.371,262.700 67.934 C 262.205 67.497,262.025 67.253,262.300 67.393 C 263.133 67.816,262.866 67.262,261.600 65.937 C 260.940 65.246,260.400 64.438,260.400 64.141 C 260.400 63.843,260.220 63.600,260.000 63.600 C 259.780 63.600,259.600 63.330,259.600 63.000 C 259.600 62.670,259.319 62.400,258.976 62.400 C 258.633 62.400,258.464 62.220,258.600 62.000 C 258.736 61.780,258.678 61.600,258.472 61.600 C 258.266 61.600,257.873 61.060,257.600 60.400 C 257.327 59.740,256.948 59.200,256.759 59.200 C 256.570 59.200,256.303 58.751,256.165 58.203 C 256.027 57.654,255.799 57.275,255.657 57.361 C 255.516 57.446,255.168 57.265,254.884 56.958 C 254.474 56.515,254.472 56.400,254.873 56.400 C 255.151 56.400,254.978 56.120,254.489 55.777 C 254.000 55.435,253.597 54.760,253.594 54.277 C 253.589 53.564,253.515 53.512,253.200 54.000 C 252.883 54.490,252.811 54.443,252.806 53.743 C 252.803 53.271,252.519 52.778,252.175 52.646 C 251.831 52.514,251.661 52.224,251.798 52.003 C 251.935 51.781,251.857 51.600,251.624 51.600 C 251.391 51.600,251.200 51.428,251.200 51.218 C 251.200 51.008,250.795 50.387,250.300 49.837 C 248.474 47.810,247.200 46.078,247.200 45.621 C 247.200 45.364,247.020 45.264,246.800 45.400 C 246.580 45.536,246.400 45.266,246.400 44.800 C 246.400 44.334,246.220 44.064,246.000 44.200 C 245.780 44.336,245.600 44.156,245.600 43.800 C 245.600 43.413,245.415 43.267,245.138 43.438 C 244.862 43.609,244.785 43.549,244.946 43.288 C 245.094 43.048,244.762 42.398,244.208 41.844 C 243.653 41.290,243.197 40.513,243.194 40.118 C 243.189 39.508,243.129 39.490,242.800 40.000 C 242.472 40.508,242.411 40.488,242.406 39.871 C 242.403 39.471,242.175 38.908,241.900 38.620 C 241.625 38.333,241.130 37.694,240.800 37.200 C 240.470 36.706,239.998 36.090,239.752 35.831 C 239.505 35.573,239.017 34.806,238.667 34.129 C 238.316 33.451,237.742 32.786,237.389 32.651 C 237.037 32.516,236.861 32.224,236.998 32.003 C 237.135 31.781,236.956 31.600,236.600 31.600 C 236.244 31.600,236.070 31.410,236.213 31.179 C 236.356 30.947,236.097 30.431,235.637 30.032 C 235.177 29.633,234.800 29.145,234.800 28.948 C 234.800 28.751,234.353 28.254,233.808 27.845 C 233.262 27.435,232.892 26.975,232.986 26.822 C 233.080 26.670,232.807 26.293,232.379 25.985 C 231.950 25.676,231.597 25.058,231.594 24.612 C 231.589 23.941,231.520 23.904,231.200 24.400 C 230.871 24.909,230.811 24.890,230.806 24.276 C 230.802 23.832,230.622 23.663,230.338 23.838 C 230.064 24.007,229.985 23.949,230.142 23.694 C 230.288 23.458,230.181 23.021,229.904 22.722 C 229.627 22.424,228.777 21.375,228.015 20.390 C 227.253 19.406,226.488 18.540,226.315 18.467 C 226.142 18.393,226.000 17.988,226.000 17.567 C 226.000 17.139,225.724 16.800,225.376 16.800 C 225.033 16.800,224.864 16.620,225.000 16.400 C 225.136 16.180,225.053 16.000,224.815 16.000 C 224.577 16.000,224.180 15.556,223.933 15.013 C 223.685 14.469,223.335 14.117,223.153 14.229 C 222.972 14.341,222.709 13.975,222.568 13.415 C 222.428 12.856,221.779 11.948,221.126 11.399 C 220.473 10.849,220.041 10.400,220.167 10.400 C 220.379 10.400,219.253 8.970,218.100 7.775 C 217.825 7.490,217.600 7.064,217.600 6.829 C 217.600 6.593,217.442 6.445,217.249 6.500 C 217.055 6.555,216.290 6.007,215.549 5.283 C 213.275 3.062,212.949 2.800,212.466 2.800 C 212.210 2.800,212.000 2.659,212.000 2.487 C 212.000 2.315,211.505 2.134,210.900 2.084 C 210.295 2.034,209.740 1.815,209.667 1.597 C 209.593 1.378,209.268 1.200,208.943 1.200 C 208.618 1.200,208.449 1.045,208.565 0.856 C 208.814 0.454,204.985 0.000,201.341 0.000 L 198.800 0.000 198.800 57.167 M198.274 158.551 C 198.158 158.854,198.234 159.274,198.444 159.484 C 198.673 159.713,198.780 164.288,198.713 170.933 L 198.600 182.001 203.100 182.000 C 207.931 182.000,208.334 181.775,207.232 179.695 C 207.030 179.313,206.472 177.920,205.993 176.600 C 204.924 173.653,204.646 172.928,204.000 171.400 C 203.519 170.263,203.093 169.212,202.377 167.400 C 200.864 163.573,199.198 158.908,199.199 158.500 C 199.200 157.826,198.538 157.863,198.274 158.551 " stroke="none" fill="#c52c69" fill-rule="evenodd"></path><path id="path1" d="M199.136 114.997 C 199.028 115.106,198.008 115.371,196.871 115.587 C 190.487 116.797,188.000 119.449,184.481 128.800 C 183.611 131.110,182.053 135.250,181.018 138.000 C 179.983 140.750,178.989 143.360,178.807 143.800 C 178.626 144.240,178.083 145.680,177.600 147.000 C 176.560 149.843,176.246 150.665,175.692 152.000 C 175.463 152.550,174.702 154.530,174.000 156.400 C 172.447 160.538,172.221 161.126,171.693 162.400 C 171.465 162.950,170.883 164.480,170.400 165.800 C 169.917 167.120,169.371 168.560,169.186 169.000 C 169.001 169.440,168.013 172.050,166.990 174.800 C 164.808 180.665,162.081 187.862,161.608 189.000 C 161.426 189.440,160.702 191.330,160.000 193.200 C 159.298 195.070,158.561 197.005,158.362 197.500 C 158.163 197.995,157.838 198.805,157.639 199.300 C 157.440 199.795,156.883 201.280,156.400 202.600 C 155.917 203.920,155.335 205.450,155.107 206.000 C 154.879 206.550,154.555 207.360,154.385 207.800 C 154.216 208.240,153.670 209.657,153.172 210.950 C 147.640 225.305,167.837 234.736,173.996 220.673 C 175.315 217.664,175.987 215.967,176.800 213.600 C 177.346 212.011,177.712 211.038,178.306 209.600 C 178.533 209.050,178.940 208.013,179.210 207.295 C 179.867 205.550,180.051 205.524,190.506 205.672 C 197.147 205.766,199.435 205.681,199.160 205.351 C 198.943 205.090,198.832 200.312,198.893 193.951 L 199.000 183.000 203.717 182.887 C 208.491 182.773,209.691 182.331,208.490 181.130 C 208.203 180.843,208.094 180.943,208.137 181.457 C 208.196 182.152,207.602 182.222,198.854 182.549 C 188.878 182.922,188.487 182.861,189.203 181.037 C 189.384 180.577,190.104 178.670,190.804 176.800 C 191.504 174.930,192.239 172.995,192.438 172.500 C 192.637 172.005,192.962 171.195,193.161 170.700 C 193.360 170.205,193.917 168.720,194.400 167.400 C 195.439 164.561,195.741 163.768,196.346 162.300 C 196.596 161.695,196.958 160.795,197.150 160.300 C 198.179 157.655,198.414 157.200,198.748 157.200 C 198.949 157.200,199.232 157.671,199.376 158.247 C 199.521 158.823,199.739 159.194,199.861 159.072 C 199.983 158.950,199.795 158.271,199.442 157.563 C 198.878 156.434,198.800 153.807,198.800 135.981 C 198.800 113.977,198.675 115.131,201.025 115.434 C 202.144 115.578,202.152 115.568,201.200 115.232 C 199.984 114.803,199.397 114.737,199.136 114.997 M203.546 116.216 C 204.286 116.537,205.006 116.794,205.146 116.786 C 205.666 116.757,203.376 115.628,202.800 115.630 C 202.470 115.631,202.806 115.894,203.546 116.216 M205.600 116.911 C 205.600 116.987,206.185 117.478,206.900 118.001 C 207.704 118.590,207.984 118.687,207.633 118.255 C 207.100 117.599,205.600 116.607,205.600 116.911 M220.575 147.892 C 221.075 149.520,222.766 153.407,222.783 152.969 C 222.792 152.732,222.332 151.382,221.760 149.969 C 220.708 147.369,220.072 146.255,220.575 147.892 M235.375 187.092 C 235.875 188.720,237.566 192.607,237.583 192.169 C 237.592 191.932,237.132 190.582,236.560 189.169 C 235.508 186.569,234.872 185.455,235.375 187.092 M238.045 194.000 C 238.053 194.330,238.406 195.320,238.829 196.200 C 239.252 197.080,239.486 197.362,239.349 196.826 C 238.973 195.361,238.029 193.314,238.045 194.000 M245.342 215.932 C 245.356 217.566,245.495 218.540,245.655 218.132 C 246.037 217.164,246.023 214.802,245.630 213.800 C 245.437 213.307,245.326 214.126,245.342 215.932 M239.620 226.031 C 238.640 226.674,238.014 227.200,238.227 227.200 C 238.664 227.200,241.600 225.272,241.600 224.986 C 241.600 224.729,241.614 224.722,239.620 226.031 M231.500 227.667 C 231.885 227.819,233.010 227.944,234.000 227.944 C 234.990 227.944,236.115 227.819,236.500 227.667 C 236.885 227.514,235.760 227.389,234.000 227.389 C 232.240 227.389,231.115 227.514,231.500 227.667 M197.800 253.069 C 190.357 254.707,187.617 258.639,187.606 267.700 L 187.600 272.800 182.762 272.800 C 175.425 272.800,171.856 274.218,169.145 278.210 C 165.360 283.784,167.535 291.997,173.490 294.617 C 174.320 294.983,175.360 295.443,175.800 295.640 C 176.240 295.837,179.030 296.044,182.000 296.099 L 187.400 296.200 187.629 302.000 C 187.983 310.984,189.515 313.523,196.000 315.879 C 199.327 317.088,199.013 320.447,198.895 284.827 L 198.790 253.254 199.895 253.087 C 200.991 252.921,200.990 252.920,199.800 252.906 C 199.140 252.899,198.240 252.972,197.800 253.069 M210.068 261.200 C 210.088 262.239,210.718 263.946,210.732 263.000 C 210.738 262.560,210.589 261.840,210.400 261.400 C 210.189 260.910,210.061 260.832,210.068 261.200 M221.200 273.200 C 221.530 273.413,222.070 273.588,222.400 273.588 C 222.933 273.588,222.933 273.545,222.400 273.200 C 222.070 272.987,221.530 272.812,221.200 272.812 C 220.667 272.812,220.667 272.855,221.200 273.200 M230.493 284.400 C 230.493 285.170,230.575 285.485,230.676 285.100 C 230.776 284.715,230.776 284.085,230.676 283.700 C 230.575 283.315,230.493 283.630,230.493 284.400 M210.799 296.300 C 210.799 296.465,212.104 296.551,213.699 296.491 C 218.947 296.293,219.468 296.136,215.100 296.067 C 212.735 296.030,210.800 296.135,210.799 296.300 M210.250 307.250 C 210.109 307.953,210.069 308.602,210.159 308.692 C 210.250 308.783,210.448 308.291,210.600 307.600 C 210.752 306.909,210.793 306.259,210.691 306.158 C 210.589 306.056,210.391 306.547,210.250 307.250 M206.600 313.468 C 205.720 314.257,205.360 314.716,205.800 314.488 C 206.541 314.104,208.751 311.979,208.370 312.017 C 208.276 312.026,207.480 312.679,206.600 313.468 " stroke="none" fill="#ffffff" fill-rule="evenodd"></path><path id="path2" d="M199.300 115.475 C 198.669 115.717,198.563 155.990,199.191 157.105 C 199.406 157.487,200.588 160.500,201.818 163.800 C 203.049 167.100,204.223 170.205,204.428 170.700 C 204.772 171.533,204.973 172.031,205.960 174.500 C 206.157 174.995,206.536 176.030,206.800 176.800 C 207.486 178.797,207.821 179.649,208.418 180.908 C 209.197 182.550,208.686 182.760,203.594 182.886 L 199.000 183.000 198.893 193.951 C 198.818 201.696,198.920 205.063,199.242 205.451 C 199.604 205.887,201.572 206.000,208.783 206.000 L 217.868 206.000 220.358 212.700 C 221.727 216.385,223.229 220.171,223.694 221.114 C 229.032 231.926,245.333 228.252,245.333 216.236 C 245.333 213.595,245.131 212.620,243.998 209.800 C 243.821 209.360,243.102 207.470,242.400 205.600 C 241.698 203.730,240.937 201.750,240.708 201.200 C 240.147 199.849,239.819 198.988,238.879 196.400 C 238.439 195.190,237.532 192.760,236.863 191.000 C 234.731 185.390,231.163 175.842,230.734 174.600 C 230.244 173.181,229.858 172.164,229.293 170.800 C 229.065 170.250,228.483 168.720,228.000 167.400 C 226.965 164.570,226.649 163.743,226.093 162.400 C 225.865 161.850,225.283 160.320,224.800 159.000 C 224.317 157.680,223.776 156.240,223.598 155.800 C 223.192 154.796,222.690 153.470,218.602 142.600 C 216.782 137.760,214.984 132.990,214.608 132.000 C 214.231 131.010,213.562 129.210,213.122 128.000 C 210.898 121.885,209.803 120.141,206.800 117.935 C 204.766 116.441,200.462 115.029,199.300 115.475 M198.898 284.700 L 199.000 316.200 200.041 316.321 C 201.402 316.479,205.070 314.841,206.846 313.282 C 209.708 310.769,210.795 307.309,210.798 300.700 L 210.800 296.000 215.900 295.994 C 223.186 295.985,225.854 294.847,228.673 290.544 C 230.261 288.122,230.996 283.120,230.034 281.295 C 229.832 280.913,229.386 279.970,229.043 279.200 C 227.052 274.733,222.954 272.800,215.472 272.800 L 210.800 272.800 210.795 268.500 C 210.785 259.111,206.676 253.236,200.098 253.206 L 198.795 253.200 198.898 284.700 " stroke="none" fill="#ffffff" fill-rule="evenodd"></path><path id="path3" d="M192.639 0.292 C 192.000 0.387,191.221 0.722,190.907 1.036 C 190.593 1.350,190.170 1.505,189.968 1.380 C 189.765 1.255,189.600 1.343,189.600 1.576 C 189.600 1.809,189.317 2.000,188.971 2.000 C 188.626 2.000,188.071 2.272,187.739 2.604 C 187.407 2.936,186.942 3.088,186.706 2.942 C 186.451 2.785,186.393 2.864,186.562 3.138 C 186.719 3.392,186.702 3.600,186.524 3.601 C 186.346 3.601,185.570 4.141,184.800 4.800 C 184.030 5.459,183.175 5.999,182.900 5.999 C 182.625 6.000,182.400 6.235,182.400 6.523 C 182.400 6.810,181.635 7.891,180.700 8.926 C 176.764 13.280,175.052 15.696,175.529 16.226 C 175.678 16.392,175.575 16.399,175.300 16.241 C 174.987 16.061,174.800 16.195,174.800 16.600 C 174.800 16.956,174.647 17.153,174.460 17.037 C 174.273 16.922,173.868 17.316,173.560 17.914 C 173.252 18.511,172.505 19.477,171.900 20.060 C 171.295 20.644,170.794 21.364,170.787 21.660 C 170.774 22.220,169.600 23.988,169.600 23.448 C 169.600 23.280,169.330 23.413,169.000 23.743 C 168.670 24.073,168.400 24.508,168.400 24.709 C 168.400 24.911,168.040 25.402,167.600 25.800 C 167.160 26.198,166.800 26.777,166.800 27.086 C 166.800 27.394,166.620 27.536,166.400 27.400 C 166.180 27.264,166.000 27.394,166.000 27.688 C 166.000 27.983,165.650 28.476,165.221 28.785 C 164.793 29.093,164.535 29.494,164.647 29.676 C 164.759 29.857,164.569 30.114,164.225 30.246 C 163.881 30.378,163.600 30.736,163.600 31.043 C 163.600 31.349,163.409 31.600,163.176 31.600 C 162.943 31.600,162.864 31.780,163.000 32.000 C 163.136 32.220,162.997 32.400,162.691 32.400 C 162.385 32.400,161.881 32.895,161.570 33.500 C 161.260 34.105,160.662 34.915,160.242 35.300 C 159.821 35.685,159.640 36.003,159.839 36.006 C 160.037 36.009,160.000 36.144,159.756 36.306 C 159.512 36.468,159.007 37.194,158.635 37.921 C 158.263 38.647,157.698 39.341,157.379 39.463 C 157.061 39.586,156.800 39.954,156.800 40.282 C 156.800 40.611,156.260 41.383,155.600 42.000 C 154.940 42.617,154.400 43.279,154.400 43.472 C 154.400 43.665,154.040 44.083,153.600 44.400 C 153.160 44.717,152.800 45.188,152.800 45.446 C 152.800 45.704,152.260 46.493,151.600 47.200 C 150.940 47.907,150.400 48.804,150.400 49.193 C 150.400 49.925,149.478 50.944,149.130 50.597 C 149.023 50.489,148.680 50.896,148.370 51.501 C 148.060 52.105,147.462 52.915,147.042 53.300 C 146.621 53.685,146.417 54.000,146.587 54.000 C 146.757 54.000,146.245 54.795,145.448 55.767 C 144.652 56.739,144.000 57.729,144.000 57.967 C 144.000 58.205,143.841 58.400,143.646 58.400 C 143.451 58.400,142.992 59.030,142.627 59.800 C 142.261 60.570,141.791 61.200,141.581 61.200 C 141.372 61.200,141.200 61.470,141.200 61.800 C 141.200 62.130,141.020 62.400,140.800 62.400 C 140.580 62.400,140.400 62.630,140.400 62.912 C 140.400 63.193,140.040 63.683,139.600 64.000 C 139.160 64.317,138.800 64.882,138.800 65.255 C 138.800 65.628,138.665 65.993,138.500 66.067 C 138.335 66.140,137.666 66.985,137.014 67.946 C 136.362 68.906,135.597 69.780,135.314 69.888 C 135.031 69.997,134.800 70.426,134.800 70.843 C 134.800 71.259,134.650 71.600,134.468 71.600 C 134.285 71.600,133.881 72.095,133.570 72.700 C 133.260 73.305,132.715 74.070,132.360 74.400 C 132.005 74.730,131.592 75.388,131.442 75.863 C 131.292 76.338,130.906 76.827,130.585 76.950 C 130.263 77.074,130.000 77.358,130.000 77.583 C 130.000 77.807,129.685 78.359,129.300 78.808 C 128.915 79.258,128.600 79.759,128.600 79.922 C 128.600 80.085,128.204 80.644,127.720 81.163 C 127.236 81.683,126.552 82.714,126.201 83.454 C 125.850 84.194,125.391 84.800,125.181 84.800 C 124.972 84.800,124.800 85.120,124.800 85.512 C 124.800 85.903,124.440 86.483,124.000 86.800 C 123.560 87.117,123.200 87.657,123.200 88.000 C 123.200 88.343,122.840 88.883,122.400 89.200 C 121.960 89.517,121.600 90.005,121.600 90.284 C 121.600 90.753,120.921 91.730,119.700 93.016 C 119.425 93.306,119.200 93.786,119.200 94.083 C 119.200 94.380,118.840 94.883,118.400 95.200 C 117.960 95.517,117.600 96.057,117.600 96.400 C 117.600 96.743,117.240 97.283,116.800 97.600 C 116.360 97.917,116.000 98.457,116.000 98.800 C 116.000 99.143,115.650 99.676,115.221 99.985 C 114.793 100.293,114.539 100.702,114.657 100.892 C 114.775 101.082,114.405 101.704,113.835 102.274 C 113.266 102.843,112.800 103.555,112.800 103.855 C 112.800 104.155,112.590 104.400,112.333 104.400 C 112.077 104.400,111.978 104.511,112.114 104.648 C 112.250 104.784,112.099 105.158,111.777 105.480 C 111.456 105.801,111.295 106.230,111.420 106.432 C 111.545 106.635,111.367 106.800,111.024 106.800 C 110.676 106.800,110.400 107.139,110.400 107.567 C 110.400 107.988,110.265 108.393,110.100 108.467 C 109.745 108.625,108.032 111.298,107.195 113.000 C 106.871 113.660,106.289 114.491,105.903 114.847 C 105.516 115.203,105.200 115.788,105.200 116.147 C 105.200 116.506,105.020 116.800,104.800 116.800 C 104.580 116.800,104.400 117.070,104.400 117.400 C 104.400 117.730,104.264 118.000,104.098 118.000 C 103.931 118.000,103.536 118.585,103.220 119.300 C 102.903 120.015,102.320 120.949,101.922 121.375 C 101.525 121.802,101.200 122.387,101.200 122.675 C 101.200 122.964,101.020 123.200,100.800 123.200 C 100.580 123.200,100.400 123.560,100.400 124.000 C 100.400 124.440,100.253 124.800,100.074 124.800 C 99.894 124.800,99.323 125.565,98.803 126.500 C 98.284 127.435,97.729 128.290,97.570 128.400 C 97.410 128.510,97.217 128.960,97.140 129.400 C 97.063 129.840,96.685 130.491,96.300 130.847 C 95.915 131.203,95.600 131.698,95.600 131.947 C 95.600 132.196,95.420 132.400,95.200 132.400 C 94.980 132.400,94.800 132.760,94.800 133.200 C 94.800 133.640,94.652 134.000,94.472 134.000 C 94.292 134.000,93.460 135.440,92.625 137.200 C 91.789 138.960,90.946 140.400,90.753 140.400 C 90.559 140.400,90.400 140.760,90.400 141.200 C 90.400 141.640,90.209 142.000,89.976 142.000 C 89.743 142.000,89.657 142.169,89.785 142.375 C 89.912 142.582,89.756 142.897,89.437 143.075 C 88.847 143.405,88.800 143.520,88.800 144.624 C 88.800 144.967,88.620 145.136,88.400 145.000 C 88.180 144.864,88.000 145.108,88.000 145.543 C 88.000 145.978,87.865 146.393,87.700 146.467 C 87.324 146.634,86.025 148.764,85.729 149.700 C 85.607 150.085,85.348 150.400,85.153 150.400 C 84.959 150.400,84.800 150.760,84.800 151.200 C 84.800 151.640,84.620 152.000,84.400 152.000 C 84.180 152.000,84.000 152.360,84.000 152.800 C 84.000 153.240,83.820 153.600,83.600 153.600 C 83.380 153.600,83.200 153.853,83.200 154.162 C 83.200 154.716,81.620 158.010,81.168 158.400 C 81.040 158.510,80.681 159.185,80.370 159.900 C 80.059 160.615,79.674 161.200,79.515 161.200 C 79.356 161.200,79.328 161.468,79.454 161.797 C 79.585 162.137,79.408 162.499,79.042 162.639 C 78.689 162.775,78.400 163.226,78.400 163.643 C 78.400 164.059,78.220 164.400,78.000 164.400 C 77.780 164.400,77.600 164.739,77.600 165.154 C 77.600 166.091,76.604 168.071,76.291 167.757 C 76.164 167.630,76.108 167.854,76.167 168.255 C 76.226 168.656,76.023 169.234,75.717 169.540 C 75.411 169.846,75.057 170.615,74.930 171.248 C 74.804 171.882,74.543 172.400,74.350 172.400 C 74.158 172.400,74.000 172.634,74.000 172.920 C 74.000 173.656,73.059 175.593,72.700 175.597 C 72.535 175.599,72.400 175.960,72.400 176.400 C 72.400 176.840,72.258 177.200,72.085 177.200 C 71.912 177.200,71.740 177.602,71.703 178.094 C 71.666 178.586,71.448 179.051,71.218 179.127 C 70.988 179.204,70.800 179.612,70.800 180.033 C 70.800 180.455,70.609 180.800,70.376 180.800 C 70.143 180.800,70.055 180.965,70.180 181.168 C 70.305 181.370,70.174 181.775,69.889 182.068 C 69.604 182.360,69.341 183.047,69.303 183.594 C 69.266 184.141,69.048 184.651,68.818 184.727 C 68.588 184.804,68.400 185.212,68.400 185.633 C 68.400 186.055,68.220 186.400,68.000 186.400 C 67.780 186.400,67.600 186.760,67.600 187.200 C 67.600 187.640,67.442 188.000,67.250 188.000 C 67.058 188.000,66.900 188.470,66.900 189.045 C 66.900 189.621,66.742 190.206,66.550 190.345 C 66.358 190.485,66.142 190.870,66.070 191.200 C 65.999 191.530,65.774 191.860,65.570 191.933 C 65.367 192.007,65.200 192.414,65.200 192.839 C 65.200 193.263,65.041 193.923,64.847 194.305 C 64.493 195.001,63.943 196.298,63.365 197.800 C 63.195 198.240,63.022 198.952,62.979 199.383 C 62.936 199.814,62.698 200.234,62.451 200.316 C 62.203 200.399,62.000 200.992,62.000 201.633 C 62.000 202.275,61.859 202.800,61.687 202.800 C 61.515 202.800,61.334 203.285,61.285 203.878 C 61.236 204.470,61.030 205.058,60.827 205.183 C 60.624 205.309,60.473 205.679,60.492 206.006 C 60.566 207.292,60.383 208.037,60.045 207.828 C 59.849 207.707,59.594 208.101,59.478 208.704 C 59.361 209.307,59.075 210.520,58.842 211.400 C 58.610 212.280,58.415 213.596,58.410 214.324 C 58.404 215.102,58.235 215.545,58.000 215.400 C 57.758 215.251,57.600 215.796,57.600 216.776 C 57.600 217.669,57.457 218.400,57.282 218.400 C 57.107 218.400,56.919 219.075,56.864 219.900 C 56.810 220.725,56.593 221.460,56.382 221.533 C 56.172 221.607,56.000 222.372,56.000 223.233 C 56.000 224.095,55.820 224.800,55.600 224.800 C 55.380 224.800,55.200 225.790,55.200 227.000 C 55.200 228.210,55.061 229.200,54.891 229.200 C 54.721 229.200,54.528 230.415,54.463 231.900 C 54.398 233.385,54.177 234.660,53.972 234.733 C 53.469 234.914,53.476 260.290,53.979 260.467 C 54.188 260.540,54.392 262.171,54.433 264.090 C 54.475 266.010,54.664 267.484,54.854 267.367 C 55.044 267.249,55.200 268.423,55.200 269.976 C 55.200 271.592,55.371 272.800,55.600 272.800 C 55.822 272.800,56.000 273.867,56.000 275.200 C 56.000 276.533,56.178 277.600,56.400 277.600 C 56.620 277.600,56.800 278.320,56.800 279.200 C 56.800 280.080,56.980 280.800,57.200 280.800 C 57.420 280.800,57.600 281.700,57.600 282.800 C 57.600 283.900,57.757 284.800,57.948 284.800 C 58.139 284.800,58.396 285.565,58.519 286.500 C 58.792 288.579,59.003 289.475,59.555 290.900 C 59.789 291.505,59.904 292.000,59.811 292.000 C 59.717 292.000,59.904 292.630,60.226 293.400 C 60.548 294.170,60.682 294.800,60.525 294.800 C 60.368 294.800,60.456 295.016,60.720 295.280 C 60.984 295.544,61.200 296.264,61.200 296.880 C 61.200 297.496,61.380 298.000,61.600 298.000 C 61.820 298.000,62.000 298.540,62.000 299.200 C 62.000 299.860,62.180 300.400,62.400 300.400 C 62.620 300.400,62.800 300.749,62.800 301.176 C 62.800 301.603,62.980 302.064,63.200 302.200 C 63.420 302.336,63.600 302.887,63.600 303.424 C 63.600 303.961,63.780 304.400,64.000 304.400 C 64.220 304.400,64.400 304.755,64.400 305.188 C 64.400 305.621,64.760 306.617,65.200 307.400 C 65.640 308.183,66.000 309.179,66.000 309.612 C 66.000 310.045,66.180 310.400,66.400 310.400 C 66.620 310.400,66.800 310.771,66.800 311.224 C 66.800 311.677,66.980 311.936,67.200 311.800 C 67.427 311.660,67.600 311.996,67.600 312.576 C 67.600 313.139,67.780 313.600,68.000 313.600 C 68.220 313.600,68.400 313.960,68.400 314.400 C 68.400 314.840,68.580 315.200,68.800 315.200 C 69.020 315.200,69.200 315.560,69.200 316.000 C 69.200 316.440,69.380 316.800,69.600 316.800 C 69.820 316.800,70.000 317.160,70.000 317.600 C 70.000 318.040,70.180 318.400,70.400 318.400 C 70.620 318.400,70.800 318.760,70.800 319.200 C 70.800 319.640,70.980 320.000,71.200 320.000 C 71.420 320.000,71.600 320.371,71.600 320.824 C 71.600 321.277,71.780 321.536,72.000 321.400 C 72.342 321.189,72.493 321.706,72.366 322.655 C 72.347 322.796,72.482 323.021,72.666 323.155 C 73.063 323.446,73.683 324.424,74.850 326.600 C 75.321 327.480,75.879 328.310,76.088 328.445 C 76.297 328.579,76.441 328.759,76.408 328.845 C 76.287 329.158,76.971 330.615,77.481 331.132 C 77.771 331.425,77.905 331.830,77.780 332.032 C 77.655 332.235,77.722 332.400,77.928 332.400 C 78.134 332.400,78.526 332.938,78.798 333.595 C 79.070 334.252,79.414 334.715,79.562 334.624 C 79.709 334.532,80.078 335.017,80.380 335.700 C 80.926 336.934,81.586 337.869,82.867 339.227 C 83.233 339.615,83.428 340.038,83.300 340.167 C 83.172 340.295,83.277 340.400,83.533 340.400 C 83.790 340.400,84.000 340.593,84.000 340.829 C 84.000 341.064,84.270 341.527,84.600 341.857 C 84.930 342.187,85.200 342.320,85.200 342.152 C 85.200 341.618,86.374 343.377,86.387 343.931 C 86.394 344.224,87.120 345.154,88.000 346.000 C 88.880 346.846,89.600 347.694,89.600 347.885 C 89.600 348.077,90.409 349.126,91.398 350.217 C 92.387 351.308,93.197 352.346,93.198 352.524 C 93.199 352.702,93.380 352.736,93.600 352.600 C 93.820 352.464,94.000 352.549,94.000 352.788 C 94.000 353.027,94.627 353.893,95.393 354.712 C 99.789 359.410,101.599 361.200,101.951 361.200 C 102.168 361.200,103.799 362.640,105.576 364.400 C 107.352 366.160,108.894 367.600,109.002 367.600 C 109.111 367.600,109.941 368.320,110.848 369.200 C 111.755 370.080,112.745 370.800,113.048 370.800 C 113.352 370.800,113.600 370.980,113.600 371.200 C 113.600 371.420,113.881 371.600,114.224 371.600 C 114.567 371.600,114.753 371.753,114.637 371.940 C 114.522 372.127,114.916 372.532,115.514 372.840 C 116.111 373.148,117.048 373.805,117.596 374.300 C 118.144 374.795,118.907 375.200,119.293 375.200 C 119.678 375.200,120.218 375.560,120.493 376.000 C 120.768 376.440,121.309 376.800,121.696 376.800 C 122.083 376.800,122.400 376.959,122.400 377.154 C 122.400 377.349,122.985 377.810,123.700 378.177 C 125.076 378.885,127.143 380.268,128.800 381.591 C 129.350 382.030,130.025 382.392,130.300 382.395 C 130.575 382.398,130.800 382.588,130.800 382.818 C 130.800 383.047,131.025 383.206,131.300 383.170 C 132.360 383.032,132.836 383.218,132.562 383.662 C 132.393 383.936,132.451 384.015,132.706 383.858 C 132.942 383.712,133.407 383.864,133.739 384.196 C 134.071 384.528,134.626 384.800,134.971 384.800 C 135.317 384.800,135.600 384.980,135.600 385.200 C 135.600 385.420,135.960 385.600,136.400 385.600 C 136.840 385.600,137.200 385.780,137.200 386.000 C 137.200 386.220,137.434 386.400,137.720 386.400 C 138.456 386.400,140.393 387.341,140.397 387.700 C 140.399 387.865,140.760 388.000,141.200 388.000 C 141.640 388.000,142.000 388.180,142.000 388.400 C 142.000 388.620,142.330 388.800,142.733 388.800 C 143.137 388.800,143.591 388.925,143.744 389.077 C 143.896 389.229,144.413 389.414,144.893 389.487 C 145.373 389.560,145.863 389.771,145.983 389.956 C 146.179 390.260,147.808 390.932,148.467 390.980 C 148.613 390.991,148.868 391.135,149.033 391.300 C 149.198 391.465,149.753 391.600,150.267 391.600 C 150.780 391.600,151.200 391.780,151.200 392.000 C 151.200 392.220,151.740 392.400,152.400 392.400 C 153.060 392.400,153.600 392.580,153.600 392.800 C 153.600 393.020,154.140 393.200,154.800 393.200 C 155.460 393.200,156.000 393.380,156.000 393.600 C 156.000 393.820,156.540 394.000,157.200 394.000 C 157.860 394.000,158.400 394.180,158.400 394.400 C 158.400 394.620,158.929 394.800,159.576 394.800 C 160.223 394.800,160.864 394.980,161.000 395.200 C 161.136 395.420,161.777 395.600,162.424 395.600 C 163.071 395.600,163.600 395.743,163.600 395.918 C 163.600 396.093,164.256 396.281,165.057 396.335 C 165.858 396.389,166.836 396.605,167.231 396.816 C 167.625 397.027,168.409 397.200,168.974 397.200 C 169.538 397.200,170.000 397.380,170.000 397.600 C 170.000 397.820,170.979 398.000,172.176 398.000 C 173.373 398.000,174.464 398.180,174.600 398.400 C 174.736 398.620,175.812 398.800,176.990 398.800 C 178.169 398.800,179.197 398.992,179.275 399.226 C 179.367 399.502,182.815 399.734,189.109 399.888 L 198.800 400.124 198.800 358.942 C 198.800 315.237,198.870 316.800,196.916 316.800 C 191.339 316.800,187.183 310.784,186.830 302.200 L 186.600 296.600 180.800 296.400 C 174.171 296.171,173.073 295.811,170.118 292.898 C 164.389 287.251,165.989 276.885,173.066 273.801 C 173.910 273.434,174.913 272.968,175.295 272.766 C 175.677 272.565,178.399 272.400,181.343 272.400 L 186.697 272.400 186.898 266.900 C 187.212 258.299,189.964 254.332,196.787 252.648 L 198.600 252.200 198.600 229.400 L 198.600 206.600 189.300 206.493 C 181.167 206.399,180.000 206.462,180.000 206.998 C 180.000 207.335,179.841 207.923,179.647 208.305 C 179.452 208.687,179.116 209.450,178.900 210.000 C 178.684 210.550,178.321 211.450,178.094 212.000 C 177.867 212.550,177.464 213.630,177.200 214.400 C 174.266 222.944,171.397 226.706,167.000 227.773 C 156.635 230.289,148.776 221.229,152.450 211.000 C 152.854 209.874,153.062 209.339,153.962 207.100 C 154.161 206.605,154.898 204.670,155.600 202.800 C 157.235 198.444,157.390 198.043,158.000 196.600 C 158.279 195.940,158.684 194.950,158.900 194.400 C 159.116 193.850,159.452 193.087,159.647 192.705 C 159.841 192.323,160.000 191.736,160.000 191.400 C 160.000 191.064,160.159 190.477,160.353 190.095 C 161.004 188.815,161.988 186.364,162.800 184.000 C 163.064 183.230,163.429 182.240,163.610 181.800 C 164.094 180.625,166.856 173.334,168.990 167.600 C 170.013 164.850,171.018 162.195,171.225 161.700 C 171.431 161.205,171.801 160.305,172.047 159.700 C 172.292 159.095,172.652 158.287,172.847 157.905 C 173.041 157.523,173.200 156.936,173.200 156.600 C 173.200 156.264,173.359 155.677,173.553 155.295 C 173.884 154.645,174.221 153.847,175.200 151.400 C 176.179 148.953,176.516 148.155,176.847 147.505 C 177.041 147.123,177.200 146.536,177.200 146.200 C 177.200 145.864,177.359 145.277,177.553 144.895 C 178.178 143.666,178.938 141.706,183.403 129.800 C 187.614 118.570,189.650 116.411,197.700 114.628 L 198.800 114.385 198.800 57.192 L 198.800 0.000 196.300 0.060 C 194.925 0.093,193.278 0.198,192.639 0.292 M216.000 5.548 C 216.000 6.097,217.103 6.881,217.339 6.499 C 217.454 6.313,217.200 5.943,216.774 5.677 C 216.348 5.411,216.000 5.353,216.000 5.548 M219.240 9.100 C 219.544 9.595,219.940 10.000,220.120 10.000 C 220.300 10.000,220.348 10.161,220.226 10.358 C 220.104 10.555,220.278 10.821,220.612 10.949 C 221.428 11.262,220.808 10.088,219.580 8.996 L 218.687 8.200 219.240 9.100 M222.406 13.051 C 222.418 13.739,223.098 14.489,223.346 14.088 C 223.481 13.869,223.323 13.468,222.996 13.196 C 222.668 12.924,222.403 12.859,222.406 13.051 M274.406 84.700 C 274.403 85.195,274.580 85.600,274.800 85.600 C 275.301 85.600,275.301 85.176,274.800 84.400 C 274.486 83.915,274.411 83.972,274.406 84.700 M306.400 136.124 C 306.400 136.496,306.559 136.800,306.753 136.800 C 306.948 136.800,307.201 137.160,307.316 137.600 C 307.431 138.040,307.767 138.386,308.063 138.368 C 308.467 138.345,308.476 138.287,308.100 138.135 C 307.825 138.024,307.594 137.723,307.587 137.467 C 307.565 136.633,306.400 135.316,306.400 136.124 M312.493 147.200 C 312.768 147.640,313.131 148.000,313.300 148.000 C 313.469 148.000,313.382 147.640,313.107 147.200 C 312.832 146.760,312.469 146.400,312.300 146.400 C 312.131 146.400,312.218 146.760,312.493 147.200 M198.000 159.725 C 198.000 160.102,197.841 160.723,197.647 161.105 C 196.996 162.385,196.012 164.836,195.200 167.200 C 194.936 167.970,194.533 169.050,194.306 169.600 C 194.079 170.150,193.761 170.960,193.600 171.400 C 193.163 172.594,192.353 174.508,191.953 175.295 C 191.759 175.677,191.600 176.264,191.600 176.600 C 191.600 176.936,191.420 177.568,191.200 178.005 C 190.980 178.442,190.620 179.158,190.400 179.595 C 189.278 181.824,189.636 182.037,194.300 181.914 L 198.600 181.800 198.707 170.827 C 198.775 163.783,198.668 159.708,198.407 159.447 C 198.131 159.171,198.000 159.261,198.000 159.725 M297.829 361.029 C 297.405 361.338,297.136 361.669,297.230 361.763 C 297.324 361.857,297.748 361.681,298.171 361.371 C 298.595 361.062,298.864 360.731,298.770 360.637 C 298.676 360.543,298.252 360.719,297.829 361.029 M283.925 372.844 C 283.196 373.528,282.962 373.905,283.404 373.681 C 284.243 373.257,285.901 371.600,285.487 371.600 C 285.356 371.600,284.653 372.160,283.925 372.844 M280.800 374.800 C 280.800 375.301,281.224 375.301,282.000 374.800 C 282.485 374.486,282.428 374.411,281.700 374.406 C 281.205 374.403,280.800 374.580,280.800 374.800 M256.000 388.800 C 255.683 388.996,255.556 389.289,255.718 389.452 C 255.881 389.614,256.223 389.537,256.480 389.280 C 257.084 388.676,256.747 388.338,256.000 388.800 " stroke="none" fill="#c52c69" fill-rule="evenodd"></path><path id="path4" d="M195.400 115.262 C 188.404 117.585,187.691 118.697,179.924 139.400 C 179.264 141.160,178.537 143.050,178.308 143.600 C 177.754 144.935,177.440 145.757,176.400 148.600 C 175.357 151.450,175.045 152.269,174.491 153.600 C 173.817 155.220,171.077 162.428,165.520 177.200 C 164.651 179.510,163.774 181.805,163.570 182.300 C 162.790 184.198,162.465 185.046,162.000 186.400 C 161.520 187.798,161.201 188.626,160.346 190.700 C 159.708 192.250,159.352 193.191,158.800 194.800 C 158.215 196.503,157.841 197.487,157.279 198.800 C 154.424 205.470,151.899 212.929,151.713 215.246 C 150.816 226.408,165.014 232.620,172.239 224.227 C 174.138 222.021,174.157 221.992,174.755 220.400 C 175.252 219.077,175.504 218.434,176.362 216.300 C 176.561 215.805,177.303 213.870,178.010 212.000 C 178.718 210.130,179.499 208.105,179.746 207.500 L 180.195 206.400 198.598 206.330 L 217.000 206.261 199.312 205.884 C 179.661 205.465,179.905 205.448,179.210 207.295 C 178.940 208.013,178.533 209.050,178.306 209.600 C 177.712 211.038,177.346 212.011,176.800 213.600 C 176.536 214.370,176.157 215.405,175.960 215.900 C 175.762 216.395,175.444 217.205,175.252 217.700 C 172.497 224.832,169.522 227.307,163.694 227.315 C 154.970 227.328,149.899 219.441,153.172 210.950 C 153.670 209.657,154.216 208.240,154.385 207.800 C 154.555 207.360,154.879 206.550,155.107 206.000 C 155.335 205.450,155.917 203.920,156.400 202.600 C 156.883 201.280,157.465 199.750,157.693 199.200 C 158.221 197.926,158.447 197.338,160.000 193.200 C 160.702 191.330,161.426 189.440,161.608 189.000 C 162.081 187.862,164.808 180.665,166.990 174.800 C 168.013 172.050,169.001 169.440,169.186 169.000 C 169.371 168.560,169.917 167.120,170.400 165.800 C 170.883 164.480,171.440 162.995,171.639 162.500 C 171.838 162.005,172.163 161.195,172.362 160.700 C 172.561 160.205,173.298 158.270,174.000 156.400 C 174.702 154.530,175.463 152.550,175.692 152.000 C 176.246 150.665,176.560 149.843,177.600 147.000 C 178.083 145.680,178.626 144.240,178.807 143.800 C 178.989 143.360,179.983 140.750,181.018 138.000 C 182.053 135.250,183.611 131.110,184.481 128.800 C 188.000 119.449,190.487 116.797,196.871 115.587 C 198.008 115.371,199.028 115.106,199.136 114.997 C 199.485 114.648,196.640 114.850,195.400 115.262 M201.200 115.200 C 202.568 115.638,203.619 115.638,202.600 115.200 C 202.160 115.011,201.440 114.862,201.000 114.868 C 200.357 114.877,200.396 114.943,201.200 115.200 M205.136 116.545 C 208.823 118.474,210.967 121.363,213.193 127.400 C 213.680 128.720,214.223 130.160,214.401 130.600 C 214.578 131.040,215.298 132.930,216.000 134.800 C 216.702 136.670,217.428 138.560,217.613 139.000 C 217.798 139.440,218.067 140.219,218.211 140.730 C 218.355 141.242,218.575 141.558,218.701 141.433 C 218.897 141.236,217.671 137.626,216.314 134.400 C 216.082 133.850,215.716 132.950,215.500 132.400 C 215.284 131.850,214.948 131.087,214.753 130.705 C 214.559 130.323,214.400 129.736,214.400 129.400 C 214.400 129.064,214.241 128.477,214.047 128.095 C 213.852 127.713,213.511 126.950,213.289 126.400 C 210.832 120.330,206.639 115.518,203.894 115.618 C 203.622 115.628,204.181 116.045,205.136 116.545 M220.412 146.400 C 220.412 146.730,220.587 147.270,220.800 147.600 C 221.145 148.133,221.188 148.133,221.188 147.600 C 221.188 147.270,221.013 146.730,220.800 146.400 C 220.455 145.867,220.412 145.867,220.412 146.400 M224.428 157.076 C 224.518 158.115,225.144 158.996,225.172 158.124 C 225.187 157.642,225.020 157.136,224.800 157.000 C 224.580 156.864,224.413 156.898,224.428 157.076 M197.942 158.300 C 197.699 158.905,197.367 159.760,197.204 160.200 C 197.041 160.640,196.703 161.495,196.454 162.100 C 195.594 164.184,195.275 165.007,194.400 167.400 C 193.917 168.720,193.335 170.250,193.107 170.800 C 192.570 172.096,192.331 172.718,190.804 176.800 C 190.104 178.670,189.384 180.577,189.203 181.037 C 188.495 182.842,188.897 182.907,198.759 182.593 C 203.850 182.430,208.106 182.152,208.217 181.973 C 208.384 181.703,206.849 177.369,205.110 173.200 C 204.585 171.942,204.370 171.383,202.800 167.200 C 202.098 165.330,201.377 163.440,201.198 163.000 C 201.019 162.560,200.762 161.859,200.627 161.443 C 200.492 161.026,200.287 160.779,200.173 160.894 C 199.995 161.072,200.439 162.379,202.383 167.400 C 202.554 167.840,202.873 168.650,203.093 169.200 C 203.313 169.750,203.673 170.650,203.893 171.200 C 204.113 171.750,204.479 172.650,204.707 173.200 C 204.935 173.750,205.514 175.280,205.993 176.600 C 206.472 177.920,207.030 179.313,207.232 179.695 C 208.447 181.988,208.401 182.000,198.573 182.000 L 189.546 182.000 189.798 181.100 C 189.937 180.605,190.219 179.795,190.425 179.300 C 191.151 177.557,191.524 176.586,192.000 175.200 C 192.264 174.430,192.667 173.350,192.894 172.800 C 193.121 172.250,193.439 171.440,193.600 171.000 C 193.761 170.560,194.097 169.705,194.346 169.100 C 195.206 167.016,195.525 166.193,196.400 163.800 C 196.883 162.480,197.429 161.040,197.614 160.600 C 197.799 160.160,198.063 159.395,198.202 158.900 C 198.340 158.405,198.622 158.000,198.827 158.000 C 199.032 158.000,199.200 157.820,199.200 157.600 C 199.200 156.777,198.367 157.240,197.942 158.300 M199.212 158.800 C 199.212 159.130,199.387 159.670,199.600 160.000 C 199.945 160.533,199.988 160.533,199.988 160.000 C 199.988 159.670,199.813 159.130,199.600 158.800 C 199.255 158.267,199.212 158.267,199.212 158.800 M226.982 163.942 C 227.484 165.526,229.166 169.401,229.177 169.000 C 229.192 168.441,228.207 165.673,227.874 165.341 C 227.723 165.190,227.600 164.747,227.600 164.357 C 227.600 163.967,227.401 163.524,227.157 163.374 C 226.860 163.190,226.802 163.376,226.982 163.942 M229.200 169.772 C 229.200 169.967,230.667 173.898,231.637 176.300 C 232.566 178.603,232.778 179.152,233.600 181.400 C 234.083 182.720,234.626 184.160,234.808 184.600 C 234.989 185.040,235.446 186.255,235.823 187.300 C 236.515 189.218,237.084 189.966,236.584 188.300 C 236.321 187.424,233.472 179.803,232.809 178.200 C 232.627 177.760,232.086 176.320,231.607 175.000 C 231.128 173.680,230.570 172.287,230.368 171.905 C 230.166 171.523,230.000 170.949,230.000 170.629 C 230.000 170.309,229.820 169.936,229.600 169.800 C 229.380 169.664,229.200 169.652,229.200 169.772 M241.808 203.224 C 242.516 205.456,243.168 206.640,243.184 205.724 C 243.193 205.242,243.020 204.736,242.800 204.600 C 242.580 204.464,242.400 204.014,242.400 203.600 C 242.400 203.186,242.201 202.724,241.957 202.574 C 241.654 202.386,241.607 202.591,241.808 203.224 M218.048 208.500 C 218.508 209.655,218.972 210.870,219.079 211.200 C 219.350 212.039,220.027 213.669,220.447 214.495 C 220.641 214.877,220.800 215.464,220.800 215.800 C 220.800 216.136,220.959 216.723,221.153 217.105 C 221.348 217.487,221.689 218.250,221.913 218.800 C 223.030 221.553,223.626 222.708,224.377 223.574 C 225.408 224.762,225.466 224.264,224.448 222.970 C 224.034 222.444,223.117 220.525,222.410 218.707 C 221.064 215.247,220.646 214.192,220.026 212.700 C 219.821 212.205,219.424 211.080,219.145 210.200 C 218.865 209.320,218.493 208.429,218.318 208.220 C 218.143 208.011,218.000 207.516,218.000 207.120 C 218.000 206.724,217.823 206.400,217.606 206.400 C 217.389 206.400,217.588 207.345,218.048 208.500 M243.600 207.892 C 243.792 208.502,244.410 210.322,244.974 211.938 C 246.414 216.062,246.058 219.235,243.779 222.593 C 242.586 224.351,242.504 224.864,243.623 223.574 C 246.846 219.857,247.115 214.534,244.353 209.105 C 244.159 208.723,244.000 208.149,244.000 207.829 C 244.000 207.509,243.832 207.143,243.626 207.016 C 243.396 206.874,243.386 207.213,243.600 207.892 M225.600 224.583 C 225.600 225.505,229.556 227.843,230.485 227.470 C 230.805 227.341,230.730 227.251,230.286 227.232 C 229.489 227.196,227.864 226.263,226.500 225.056 C 226.005 224.619,225.600 224.406,225.600 224.583 M240.600 225.812 C 239.940 226.353,239.580 226.797,239.800 226.798 C 240.020 226.798,240.723 226.349,241.362 225.800 C 242.865 224.507,242.178 224.519,240.600 225.812 M237.000 227.469 C 235.849 227.822,234.199 228.006,233.113 227.901 C 232.076 227.802,231.322 227.873,231.437 228.060 C 231.956 228.900,238.018 228.115,239.059 227.074 C 239.402 226.731,239.413 226.729,237.000 227.469 M196.075 253.001 C 189.833 254.750,187.314 258.683,186.915 267.300 L 186.679 272.400 181.886 272.400 C 172.825 272.400,168.153 275.570,166.838 282.609 C 165.330 290.678,170.940 296.097,181.042 296.328 L 186.684 296.457 186.903 302.009 C 187.307 312.210,192.746 318.057,200.776 316.924 C 204.812 316.355,210.416 311.800,210.396 309.105 C 210.394 308.827,209.873 309.500,209.239 310.600 C 204.854 318.202,194.481 318.410,189.352 311.000 C 188.052 309.121,187.873 308.187,187.629 302.000 L 187.400 296.200 182.000 296.099 C 179.030 296.044,176.240 295.837,175.800 295.640 C 175.360 295.443,174.320 294.983,173.490 294.617 C 167.535 291.997,165.360 283.784,169.145 278.210 C 171.856 274.218,175.425 272.800,182.762 272.800 L 187.600 272.800 187.606 267.700 C 187.610 264.692,187.815 262.026,188.106 261.200 C 191.635 251.199,204.668 250.102,209.561 259.394 C 210.022 260.271,210.400 260.771,210.400 260.506 C 210.400 255.785,201.946 251.355,196.075 253.001 M210.716 266.537 C 210.780 269.432,210.909 272.025,211.003 272.300 C 211.129 272.666,212.573 272.800,216.376 272.800 C 227.167 272.800,233.545 280.425,229.844 288.900 C 229.002 290.828,229.343 290.862,230.255 288.941 C 232.449 284.318,228.798 274.000,224.968 274.000 C 224.656 274.000,224.400 273.864,224.400 273.697 C 224.400 272.959,220.872 272.400,216.206 272.400 L 211.200 272.400 211.200 267.024 C 211.200 264.067,211.065 261.563,210.900 261.461 C 210.735 261.359,210.652 263.643,210.716 266.537 M227.400 292.557 C 224.740 295.327,222.745 296.014,216.444 296.328 L 211.000 296.600 210.800 302.263 C 210.690 305.377,210.735 307.842,210.900 307.739 C 211.065 307.637,211.200 305.161,211.200 302.238 L 211.200 296.923 216.714 296.687 C 221.399 296.487,222.497 296.313,224.014 295.529 C 225.714 294.652,229.497 291.350,229.160 291.038 C 229.072 290.957,228.280 291.640,227.400 292.557 " stroke="none" fill="#f4afb7" fill-rule="evenodd"></path></g></svg>