<svg id="svg" version="1.1" xmlns="http://www.w3.org/2000/svg" xmlns:xlink="http://www.w3.org/1999/xlink" width="400" height="400" viewBox="0, 0, 400,400"><g id="svgg"><path id="path0" d="M198.800 57.200 C 198.800 102.665,198.697 114.411,198.300 114.453 C 198.025 114.481,198.986 114.644,200.436 114.813 C 206.057 115.470,212.800 121.363,212.800 125.617 C 212.800 125.834,212.959 126.323,213.153 126.705 C 213.348 127.087,213.684 127.850,213.900 128.400 C 214.116 128.950,214.479 129.850,214.707 130.400 C 214.935 130.950,215.487 132.390,215.934 133.600 C 220.200 145.167,222.900 152.317,223.218 152.895 C 223.428 153.277,223.600 153.828,223.600 154.119 C 223.600 154.411,223.960 155.395,224.400 156.306 C 224.840 157.216,225.200 158.229,225.200 158.557 C 225.200 158.885,225.380 159.264,225.600 159.400 C 225.820 159.536,226.000 160.087,226.000 160.624 C 226.000 161.161,226.141 161.600,226.313 161.600 C 226.485 161.600,226.875 162.455,227.180 163.500 C 227.485 164.545,227.863 165.670,228.021 166.000 C 228.178 166.330,228.484 167.050,228.700 167.600 C 228.916 168.150,229.279 169.050,229.506 169.600 C 229.733 170.150,230.136 171.230,230.400 172.000 C 230.952 173.609,231.308 174.550,231.946 176.100 C 232.803 178.178,233.124 179.005,233.924 181.200 C 234.365 182.410,235.386 185.200,236.194 187.400 C 237.002 189.600,237.850 191.940,238.079 192.600 C 238.308 193.260,238.833 194.563,239.247 195.496 C 239.661 196.428,240.000 197.376,240.000 197.601 C 240.000 197.826,240.180 198.368,240.400 198.805 C 240.620 199.242,240.980 199.958,241.200 200.395 C 241.420 200.832,241.600 201.464,241.600 201.800 C 241.600 202.136,241.759 202.723,241.953 203.105 C 242.148 203.487,242.529 204.340,242.800 205.000 C 243.071 205.660,243.452 206.513,243.647 206.895 C 243.841 207.277,244.000 207.952,244.000 208.395 C 244.000 208.838,244.180 209.200,244.400 209.200 C 244.620 209.200,244.800 209.562,244.800 210.005 C 244.800 210.448,244.962 211.123,245.161 211.505 C 246.256 213.611,246.526 215.607,246.029 217.900 C 245.544 220.131,245.358 220.623,244.300 222.475 C 242.997 224.754,239.283 227.600,237.611 227.600 C 237.191 227.600,236.736 227.780,236.600 228.000 C 236.263 228.546,232.298 228.506,230.919 227.944 C 227.737 226.646,226.950 226.171,225.375 224.596 C 223.876 223.097,221.600 219.110,221.600 217.983 C 221.600 217.766,221.441 217.277,221.247 216.895 C 220.764 215.945,220.235 214.629,219.200 211.800 C 218.717 210.480,218.176 209.040,217.997 208.600 C 217.819 208.160,217.572 207.485,217.449 207.100 C 217.244 206.460,216.430 206.400,207.913 206.400 L 198.600 206.400 198.705 239.400 L 198.809 272.400 210.011 272.400 C 220.716 272.400,224.400 272.732,224.400 273.697 C 224.400 273.864,224.641 274.000,224.936 274.000 C 225.231 274.000,226.268 274.765,227.241 275.700 C 233.578 281.793,231.904 291.563,223.829 295.612 C 221.864 296.597,221.815 296.600,209.949 296.600 C 202.429 296.600,198.181 296.740,198.421 296.980 C 198.656 297.216,198.800 316.883,198.800 348.734 L 198.800 400.109 208.981 399.920 C 216.937 399.771,219.313 399.607,219.857 399.165 C 220.306 398.801,220.447 398.778,220.253 399.100 C 220.088 399.375,220.143 399.600,220.376 399.600 C 220.609 399.600,220.800 399.420,220.800 399.200 C 220.800 398.980,221.801 398.800,223.024 398.800 C 224.404 398.800,225.153 398.648,225.000 398.400 C 224.847 398.152,225.596 398.000,226.976 398.000 C 228.199 398.000,229.200 397.820,229.200 397.600 C 229.200 397.380,230.100 397.200,231.200 397.200 C 232.300 397.200,233.200 397.020,233.200 396.800 C 233.200 396.580,233.740 396.400,234.400 396.400 C 235.060 396.400,235.600 396.220,235.600 396.000 C 235.600 395.780,236.320 395.600,237.200 395.600 C 238.080 395.600,238.800 395.420,238.800 395.200 C 238.800 394.980,239.430 394.800,240.200 394.800 C 240.970 394.800,241.600 394.620,241.600 394.400 C 241.600 394.180,242.140 394.000,242.800 394.000 C 243.460 394.000,244.000 393.820,244.000 393.600 C 244.000 393.380,244.355 393.200,244.788 393.200 C 245.221 393.200,246.217 392.840,247.000 392.400 C 247.783 391.960,248.863 391.600,249.399 391.600 C 250.610 391.600,254.968 389.807,255.905 388.924 C 256.182 388.662,256.767 388.517,257.205 388.601 C 257.642 388.685,258.000 388.584,258.000 388.377 C 258.000 388.170,258.270 388.000,258.600 388.000 C 258.930 388.000,259.200 387.820,259.200 387.600 C 259.200 387.380,259.650 387.200,260.200 387.200 C 260.750 387.200,261.200 387.020,261.200 386.800 C 261.200 386.580,261.560 386.400,262.000 386.400 C 262.440 386.400,262.800 386.220,262.800 386.000 C 262.800 385.780,263.160 385.600,263.600 385.600 C 264.040 385.600,264.400 385.420,264.400 385.200 C 264.400 384.980,264.771 384.800,265.224 384.800 C 265.677 384.800,265.939 384.625,265.807 384.412 C 265.675 384.198,266.025 383.909,266.584 383.768 C 267.143 383.628,267.600 383.342,267.600 383.133 C 267.600 382.924,267.768 382.856,267.972 382.983 C 268.177 383.109,268.458 383.030,268.596 382.807 C 268.734 382.583,269.207 382.400,269.647 382.400 C 270.087 382.400,270.355 382.251,270.243 382.069 C 270.130 381.887,270.913 381.302,271.981 380.769 C 273.050 380.237,273.840 379.665,273.738 379.500 C 273.636 379.335,273.934 379.200,274.400 379.200 C 274.866 379.200,275.136 379.020,275.000 378.800 C 274.864 378.580,275.147 378.400,275.629 378.400 C 276.112 378.400,276.809 378.051,277.178 377.625 C 277.548 377.199,278.108 376.794,278.422 376.725 C 278.735 376.656,279.471 376.105,280.057 375.500 C 280.642 374.895,281.375 374.400,281.685 374.400 C 281.995 374.400,282.816 373.845,283.509 373.167 C 284.287 372.407,284.967 372.048,285.285 372.231 C 285.568 372.395,285.666 372.381,285.503 372.200 C 285.181 371.845,286.787 370.537,287.330 370.713 C 287.511 370.772,287.545 370.635,287.406 370.410 C 287.267 370.184,287.444 370.000,287.800 370.000 C 288.156 370.000,288.336 369.820,288.200 369.600 C 287.973 369.233,288.520 369.022,289.330 369.163 C 289.511 369.194,289.570 369.075,289.460 368.897 C 289.350 368.719,289.877 368.152,290.630 367.635 C 291.384 367.119,292.000 366.540,292.000 366.348 C 292.000 366.157,292.190 366.000,292.422 366.000 C 292.654 366.000,293.869 364.961,295.122 363.690 C 296.375 362.420,298.030 360.943,298.800 360.409 C 300.455 359.261,301.915 357.680,302.231 356.694 C 302.356 356.306,302.619 356.088,302.815 356.209 C 303.012 356.331,303.695 355.710,304.333 354.829 C 304.971 353.948,305.591 353.324,305.710 353.444 C 305.829 353.563,306.046 353.287,306.190 352.830 C 306.335 352.374,306.632 352.000,306.851 352.000 C 307.069 352.000,307.136 351.820,307.000 351.600 C 306.864 351.380,307.001 351.200,307.304 351.200 C 307.925 351.200,309.600 349.424,309.600 348.766 C 309.600 348.530,310.335 347.631,311.233 346.769 C 312.131 345.906,312.716 345.195,312.533 345.188 C 312.350 345.181,312.515 344.992,312.900 344.768 C 313.285 344.544,313.600 344.119,313.600 343.825 C 313.600 343.531,314.138 342.865,314.796 342.345 C 315.454 341.825,315.994 341.175,315.996 340.900 C 315.998 340.625,316.360 340.040,316.800 339.600 C 317.240 339.160,317.600 338.519,317.600 338.176 C 317.600 337.833,317.780 337.664,318.000 337.800 C 318.220 337.936,318.400 337.767,318.400 337.424 C 318.400 337.081,318.580 336.800,318.800 336.800 C 319.020 336.800,319.200 336.622,319.200 336.403 C 319.200 336.185,319.855 335.150,320.655 334.103 C 321.455 333.057,322.282 331.705,322.494 331.100 C 322.705 330.495,323.021 330.000,323.196 330.000 C 323.370 330.000,323.637 329.507,323.788 328.904 C 323.940 328.301,324.188 327.716,324.341 327.604 C 324.900 327.193,326.000 325.211,326.000 324.614 C 326.000 324.276,326.180 324.000,326.400 324.000 C 326.620 324.000,326.800 323.680,326.800 323.288 C 326.800 322.897,327.160 322.317,327.600 322.000 C 328.040 321.683,328.400 321.103,328.400 320.712 C 328.400 320.320,328.580 320.000,328.800 320.000 C 329.020 320.000,329.200 319.640,329.200 319.200 C 329.200 318.760,329.380 318.400,329.600 318.400 C 329.820 318.400,330.000 318.040,330.000 317.600 C 330.000 317.160,330.180 316.800,330.400 316.800 C 330.620 316.800,330.800 316.339,330.800 315.776 C 330.800 315.196,330.973 314.860,331.200 315.000 C 331.420 315.136,331.600 314.887,331.600 314.447 C 331.600 314.007,331.780 313.536,332.000 313.400 C 332.220 313.264,332.400 312.793,332.400 312.353 C 332.400 311.850,332.572 311.659,332.862 311.838 C 333.119 311.997,333.216 311.950,333.081 311.731 C 332.948 311.515,333.280 310.467,333.819 309.402 C 334.359 308.336,334.800 307.225,334.800 306.932 C 334.800 306.639,334.980 306.400,335.200 306.400 C 335.420 306.400,335.600 306.127,335.600 305.794 C 335.600 304.892,336.555 302.000,336.853 302.000 C 336.995 302.000,337.234 301.325,337.385 300.500 C 337.536 299.675,337.889 298.640,338.169 298.200 C 338.616 297.499,338.914 296.410,339.472 293.431 C 339.551 293.009,339.814 292.424,340.057 292.131 C 340.299 291.839,340.394 291.600,340.267 291.600 C 340.140 291.600,340.270 290.925,340.557 290.100 C 340.844 289.275,341.047 288.195,341.007 287.700 C 340.966 287.205,341.084 286.800,341.267 286.800 C 341.450 286.800,341.600 286.249,341.600 285.576 C 341.600 284.903,341.748 284.444,341.929 284.556 C 342.111 284.668,342.301 283.824,342.352 282.680 C 342.403 281.536,342.614 280.540,342.822 280.467 C 343.030 280.393,343.200 279.748,343.200 279.033 C 343.200 278.318,343.333 277.600,343.496 277.438 C 343.658 277.275,343.820 276.660,343.855 276.071 C 344.039 273.001,344.193 272.000,344.482 272.000 C 344.657 272.000,344.800 271.021,344.800 269.824 C 344.800 268.627,344.958 267.549,345.151 267.430 C 345.345 267.311,345.530 265.737,345.563 263.934 C 345.595 262.131,345.819 260.418,346.060 260.128 C 346.379 259.744,346.370 259.446,346.030 259.036 C 345.721 258.664,345.700 258.386,345.968 258.220 C 346.487 257.899,346.528 235.313,346.009 235.129 C 345.809 235.058,345.604 233.965,345.554 232.700 C 345.504 231.435,345.342 230.400,345.193 230.400 C 345.045 230.400,344.890 229.372,344.849 228.116 C 344.808 226.859,344.610 225.730,344.409 225.605 C 344.207 225.481,343.998 224.619,343.943 223.690 C 343.888 222.760,343.699 222.000,343.522 222.000 C 343.345 222.000,343.200 221.295,343.200 220.433 C 343.200 219.572,343.029 218.807,342.820 218.733 C 342.611 218.660,342.397 217.846,342.343 216.924 C 342.290 216.002,342.121 215.325,341.969 215.419 C 341.816 215.514,341.562 214.558,341.404 213.296 C 341.247 212.034,340.862 210.508,340.551 209.905 C 340.239 209.302,339.983 208.717,339.982 208.606 C 339.976 207.831,339.452 206.000,339.235 206.000 C 339.089 206.000,338.926 205.418,338.872 204.707 C 338.817 203.995,338.599 203.239,338.387 203.027 C 338.174 202.814,338.000 202.226,338.000 201.720 C 338.000 201.214,337.820 200.800,337.600 200.800 C 337.380 200.800,337.200 200.440,337.200 200.000 C 337.200 199.560,337.020 199.200,336.800 199.200 C 336.580 199.200,336.400 198.540,336.400 197.733 C 336.400 196.927,336.284 196.383,336.142 196.525 C 335.905 196.762,334.027 192.033,333.915 190.918 C 333.889 190.652,333.717 190.528,333.533 190.641 C 333.350 190.755,333.186 190.612,333.169 190.324 C 333.101 189.148,332.832 188.309,332.232 187.393 C 331.885 186.862,331.600 186.051,331.600 185.590 C 331.600 185.130,331.420 184.864,331.200 185.000 C 330.966 185.145,330.800 184.730,330.800 184.000 C 330.800 183.270,330.634 182.855,330.400 183.000 C 330.173 183.140,330.000 182.804,330.000 182.224 C 330.000 181.661,329.820 181.200,329.600 181.200 C 329.380 181.200,329.200 180.935,329.200 180.612 C 329.200 180.289,328.840 179.383,328.400 178.600 C 327.960 177.817,327.600 176.821,327.600 176.388 C 327.600 175.955,327.420 175.600,327.200 175.600 C 326.980 175.600,326.800 175.240,326.800 174.800 C 326.800 174.360,326.620 174.000,326.400 174.000 C 326.180 174.000,326.000 173.629,326.000 173.176 C 326.000 172.723,325.820 172.464,325.600 172.600 C 325.380 172.736,325.186 172.612,325.169 172.324 C 325.153 172.036,325.085 171.526,325.018 171.192 C 324.871 170.449,322.475 165.514,320.587 162.066 C 319.824 160.673,319.200 159.317,319.200 159.054 C 319.200 158.792,318.840 158.317,318.400 158.000 C 317.960 157.683,317.600 157.000,317.600 156.483 C 317.600 155.966,317.328 155.271,316.996 154.939 C 316.664 154.607,316.495 154.170,316.620 153.968 C 316.745 153.765,316.678 153.600,316.470 153.600 C 316.263 153.600,315.984 153.285,315.851 152.900 C 315.718 152.515,315.271 151.660,314.858 151.000 C 314.445 150.340,314.183 149.665,314.277 149.500 C 314.371 149.335,314.257 149.200,314.024 149.200 C 313.791 149.200,313.600 149.012,313.600 148.783 C 313.600 148.554,313.240 147.980,312.800 147.508 C 312.360 147.036,312.000 146.252,312.000 145.767 C 312.000 145.282,311.728 144.781,311.396 144.654 C 311.064 144.527,310.823 144.282,310.860 144.111 C 310.999 143.466,310.299 142.415,309.896 142.664 C 309.662 142.809,309.594 142.733,309.742 142.494 C 309.888 142.258,309.724 141.781,309.378 141.435 C 309.031 141.088,308.658 140.310,308.548 139.704 C 308.438 139.099,308.090 138.458,307.774 138.282 C 307.458 138.105,307.200 137.699,307.200 137.380 C 307.200 137.061,307.040 136.800,306.845 136.800 C 306.649 136.800,306.371 136.170,306.226 135.400 C 306.082 134.630,305.837 134.000,305.681 134.000 C 305.526 134.000,304.969 133.190,304.444 132.200 C 303.919 131.210,303.334 130.400,303.144 130.400 C 302.955 130.400,302.800 130.151,302.800 129.846 C 302.800 129.016,301.760 127.173,301.461 127.473 C 301.317 127.616,301.194 127.388,301.187 126.967 C 301.172 126.050,300.229 124.704,299.860 125.073 C 299.717 125.216,299.600 124.853,299.600 124.267 C 299.600 123.680,299.420 123.200,299.200 123.200 C 298.980 123.200,298.800 122.932,298.800 122.603 C 298.800 122.275,298.440 121.782,298.000 121.507 C 297.560 121.232,297.200 120.644,297.200 120.200 C 297.200 119.756,296.840 119.168,296.400 118.893 C 295.960 118.618,295.600 118.035,295.600 117.597 C 295.600 117.158,295.420 116.800,295.200 116.800 C 294.980 116.800,294.800 116.622,294.800 116.405 C 294.800 116.029,294.033 114.976,292.871 113.755 C 292.475 113.338,292.465 113.200,292.833 113.200 C 293.102 113.200,292.935 112.864,292.461 112.453 C 291.988 112.042,291.600 111.456,291.600 111.149 C 291.600 110.843,291.233 110.363,290.784 110.083 C 290.336 109.803,290.089 109.380,290.236 109.142 C 290.382 108.905,290.344 108.596,290.151 108.455 C 289.512 107.991,287.867 105.461,287.867 104.943 C 287.867 104.663,287.615 104.338,287.308 104.220 C 287.001 104.102,286.861 103.824,286.998 103.603 C 287.135 103.381,287.058 103.200,286.826 103.200 C 286.594 103.200,286.023 102.390,285.558 101.400 C 285.093 100.410,284.552 99.600,284.356 99.600 C 284.160 99.600,284.000 99.345,284.000 99.033 C 284.000 98.722,283.855 98.407,283.677 98.333 C 283.211 98.141,280.800 94.536,280.800 94.031 C 280.800 93.798,280.440 93.382,280.000 93.107 C 279.560 92.832,279.200 92.331,279.200 91.992 C 279.200 91.654,278.840 91.117,278.400 90.800 C 277.960 90.483,277.600 89.903,277.600 89.512 C 277.600 89.120,277.420 88.800,277.200 88.800 C 276.980 88.800,276.800 88.530,276.800 88.200 C 276.800 87.870,276.620 87.600,276.400 87.600 C 276.180 87.600,276.000 87.370,276.000 87.088 C 276.000 86.807,275.640 86.317,275.200 86.000 C 274.760 85.683,274.400 85.125,274.400 84.761 C 274.400 84.396,274.130 83.874,273.800 83.600 C 273.470 83.326,273.200 82.864,273.200 82.574 C 273.200 82.283,272.827 81.784,272.371 81.465 C 271.915 81.145,271.505 80.636,271.461 80.333 C 271.384 79.810,269.576 77.209,268.496 76.068 C 268.219 75.775,268.095 75.370,268.220 75.168 C 268.345 74.965,268.156 74.800,267.800 74.800 C 267.444 74.800,267.264 74.620,267.400 74.400 C 267.536 74.180,267.457 74.000,267.224 74.000 C 266.991 74.000,266.800 73.773,266.800 73.496 C 266.800 73.219,266.440 72.768,266.000 72.493 C 265.560 72.218,265.200 71.618,265.200 71.159 C 265.200 70.662,264.877 70.241,264.400 70.116 C 263.960 70.001,263.600 69.642,263.600 69.317 C 263.600 68.993,263.195 68.371,262.700 67.934 C 262.205 67.497,262.025 67.253,262.300 67.393 C 263.133 67.816,262.866 67.262,261.600 65.937 C 260.940 65.246,260.400 64.438,260.400 64.141 C 260.400 63.843,260.220 63.600,260.000 63.600 C 259.780 63.600,259.600 63.330,259.600 63.000 C 259.600 62.670,259.319 62.400,258.976 62.400 C 258.633 62.400,258.464 62.220,258.600 62.000 C 258.736 61.780,258.678 61.600,258.472 61.600 C 258.266 61.600,257.873 61.060,257.600 60.400 C 257.327 59.740,256.948 59.200,256.759 59.200 C 256.570 59.200,256.303 58.751,256.165 58.203 C 256.027 57.654,255.799 57.275,255.657 57.361 C 255.516 57.446,255.168 57.265,254.884 56.958 C 254.474 56.515,254.472 56.400,254.873 56.400 C 255.151 56.400,254.978 56.120,254.489 55.777 C 254.000 55.435,253.597 54.760,253.594 54.277 C 253.589 53.564,253.515 53.512,253.200 54.000 C 252.883 54.490,252.811 54.443,252.806 53.743 C 252.803 53.271,252.519 52.778,252.175 52.646 C 251.831 52.514,251.661 52.224,251.798 52.003 C 251.935 51.781,251.857 51.600,251.624 51.600 C 251.391 51.600,251.200 51.428,251.200 51.218 C 251.200 51.008,250.795 50.387,250.300 49.837 C 248.474 47.810,247.200 46.078,247.200 45.621 C 247.200 45.364,247.020 45.264,246.800 45.400 C 246.580 45.536,246.400 45.266,246.400 44.800 C 246.400 44.334,246.220 44.064,246.000 44.200 C 245.780 44.336,245.600 44.156,245.600 43.800 C 245.600 43.413,245.415 43.267,245.138 43.438 C 244.862 43.609,244.785 43.549,244.946 43.288 C 245.094 43.048,244.762 42.398,244.208 41.844 C 243.653 41.290,243.197 40.513,243.194 40.118 C 243.189 39.508,243.129 39.490,242.800 40.000 C 242.472 40.508,242.411 40.488,242.406 39.871 C 242.403 39.471,242.175 38.908,241.900 38.620 C 241.625 38.333,241.130 37.694,240.800 37.200 C 240.470 36.706,239.998 36.090,239.752 35.831 C 239.505 35.573,239.017 34.806,238.667 34.129 C 238.316 33.451,237.742 32.786,237.389 32.651 C 237.037 32.516,236.861 32.224,236.998 32.003 C 237.135 31.781,236.956 31.600,236.600 31.600 C 236.244 31.600,236.070 31.410,236.213 31.179 C 236.356 30.947,236.097 30.431,235.637 30.032 C 235.177 29.633,234.800 29.145,234.800 28.948 C 234.800 28.751,234.353 28.254,233.808 27.845 C 233.262 27.435,232.892 26.975,232.986 26.822 C 233.080 26.670,232.807 26.293,232.379 25.985 C 231.950 25.676,231.597 25.058,231.594 24.612 C 231.589 23.941,231.520 23.904,231.200 24.400 C 230.871 24.909,230.811 24.890,230.806 24.276 C 230.802 23.832,230.622 23.663,230.338 23.838 C 230.064 24.007,229.985 23.949,230.142 23.694 C 230.288 23.458,230.181 23.021,229.904 22.722 C 229.627 22.424,228.777 21.375,228.015 20.390 C 227.253 19.406,226.488 18.540,226.315 18.467 C 226.142 18.393,226.000 17.988,226.000 17.567 C 226.000 17.139,225.724 16.800,225.376 16.800 C 225.033 16.800,224.864 16.620,225.000 16.400 C 225.136 16.180,225.053 16.000,224.815 16.000 C 224.577 16.000,224.180 15.556,223.933 15.013 C 223.685 14.469,223.335 14.117,223.153 14.229 C 222.972 14.341,222.709 13.975,222.568 13.415 C 222.428 12.856,221.779 11.948,221.126 11.399 C 220.473 10.849,220.041 10.400,220.167 10.400 C 220.379 10.400,219.253 8.970,218.100 7.775 C 217.825 7.490,217.600 7.064,217.600 6.829 C 217.600 6.593,217.442 6.445,217.249 6.500 C 217.055 6.555,216.290 6.007,215.549 5.283 C 213.275 3.062,212.949 2.800,212.466 2.800 C 212.210 2.800,212.000 2.659,212.000 2.487 C 212.000 2.315,211.505 2.134,210.900 2.084 C 210.295 2.034,209.740 1.815,209.667 1.597 C 209.593 1.378,209.268 1.200,208.943 1.200 C 208.618 1.200,208.449 1.045,208.565 0.856 C 208.814 0.454,204.985 0.000,201.341 0.000 L 198.800 0.000 198.800 57.200 M198.600 170.000 L 198.600 181.999 203.100 182.000 C 207.931 182.000,208.312 181.788,207.247 179.695 C 207.052 179.313,206.671 178.460,206.400 177.800 C 206.129 177.140,205.748 176.287,205.553 175.905 C 205.359 175.523,205.200 174.848,205.200 174.405 C 205.200 173.962,205.059 173.600,204.887 173.600 C 204.715 173.600,204.325 172.745,204.020 171.700 C 203.715 170.655,203.337 169.530,203.179 169.200 C 202.507 167.790,200.986 163.777,199.730 160.100 C 198.632 156.887,198.600 157.168,198.600 170.000 M151.309 216.000 C 151.309 216.990,151.387 217.395,151.482 216.900 C 151.578 216.405,151.578 215.595,151.482 215.100 C 151.387 214.605,151.309 215.010,151.309 216.000 M166.501 284.600 C 166.505 285.480,166.587 285.793,166.683 285.295 C 166.779 284.798,166.775 284.078,166.675 283.695 C 166.575 283.313,166.496 283.720,166.501 284.600 " stroke="none" fill="#c52c69" fill-rule="evenodd"></path><path id="path1" d="M198.000 115.264 C 193.401 116.519,192.352 116.921,190.861 118.002 C 188.432 119.761,186.699 122.697,184.249 129.200 C 183.047 132.390,180.988 137.790,179.674 141.200 C 178.360 144.610,177.159 147.760,177.006 148.200 C 176.669 149.167,176.247 150.261,175.694 151.600 C 175.467 152.150,175.064 153.230,174.800 154.000 C 174.248 155.607,173.879 156.586,173.292 158.000 C 173.063 158.550,172.302 160.530,171.600 162.400 C 170.321 165.806,169.926 166.821,169.223 168.500 C 169.016 168.995,168.045 171.560,167.066 174.200 C 163.349 184.221,160.335 192.236,159.922 193.200 C 159.405 194.406,159.233 194.849,157.600 199.200 C 156.898 201.070,156.137 203.050,155.908 203.600 C 155.354 204.935,155.040 205.757,154.000 208.600 C 153.517 209.920,152.915 211.433,152.661 211.962 C 151.781 213.796,152.100 219.179,153.208 221.200 C 155.505 225.391,158.703 227.322,163.337 227.312 C 169.590 227.300,172.275 225.096,175.165 217.600 C 175.886 215.730,176.639 213.795,176.838 213.300 C 177.037 212.805,177.356 211.995,177.546 211.500 C 178.212 209.771,178.694 208.589,179.350 207.074 L 180.012 205.549 189.809 205.674 C 195.198 205.743,199.426 205.740,199.204 205.667 C 198.945 205.581,198.800 201.459,198.800 194.167 L 198.800 182.800 203.557 182.800 C 208.457 182.800,209.286 182.515,208.325 181.164 C 208.004 180.712,207.968 180.735,208.142 181.280 C 208.455 182.257,208.013 182.317,198.154 182.623 C 191.553 182.828,189.234 182.779,189.017 182.428 C 188.776 182.037,189.572 179.622,191.599 174.600 C 191.777 174.160,192.317 172.720,192.800 171.400 C 193.839 168.561,194.141 167.768,194.746 166.300 C 195.606 164.216,195.925 163.393,196.800 161.000 C 198.263 157.000,199.200 155.751,199.200 157.800 C 199.200 158.104,199.389 158.470,199.621 158.613 C 199.852 158.756,199.762 158.204,199.421 157.387 C 198.888 156.112,198.800 153.059,198.800 135.794 C 198.800 114.111,198.708 115.021,200.861 115.436 C 201.714 115.600,201.727 115.582,201.000 115.236 C 200.029 114.775,199.782 114.777,198.000 115.264 M202.803 115.974 C 204.174 116.391,206.434 117.560,207.393 118.348 C 208.143 118.965,208.156 118.961,207.618 118.269 C 206.913 117.361,203.477 115.588,202.513 115.634 C 202.037 115.657,202.133 115.770,202.803 115.974 M219.851 145.974 C 220.227 147.439,221.171 149.486,221.155 148.800 C 221.147 148.470,220.794 147.480,220.371 146.600 C 219.948 145.720,219.714 145.438,219.851 145.974 M221.506 150.618 C 221.610 151.165,221.828 151.694,221.990 151.794 C 222.152 151.894,222.199 151.529,222.094 150.982 C 221.990 150.435,221.772 149.906,221.610 149.806 C 221.448 149.706,221.401 150.071,221.506 150.618 M222.445 152.800 C 222.453 153.130,222.806 154.120,223.229 155.000 C 223.652 155.880,223.886 156.162,223.749 155.626 C 223.373 154.161,222.429 152.114,222.445 152.800 M239.617 198.232 C 239.608 198.470,240.042 199.730,240.583 201.032 C 241.124 202.334,241.574 203.206,241.583 202.968 C 241.592 202.730,241.158 201.470,240.617 200.168 C 240.076 198.866,239.626 197.994,239.617 198.232 M245.281 216.200 C 245.282 218.538,245.336 218.769,245.612 217.600 C 245.794 216.830,245.794 215.570,245.612 214.800 C 245.335 213.631,245.280 213.861,245.281 216.200 M222.812 220.231 C 222.797 220.754,225.104 224.293,225.699 224.661 C 225.932 224.805,225.584 224.131,224.925 223.162 C 224.266 222.193,223.524 221.040,223.276 220.600 C 223.027 220.160,222.819 219.994,222.812 220.231 M241.030 225.151 C 240.911 225.345,240.165 225.810,239.374 226.186 C 238.583 226.561,238.036 226.969,238.159 227.093 C 238.385 227.318,241.600 225.357,241.600 224.994 C 241.600 224.679,241.265 224.772,241.030 225.151 M228.200 226.400 C 228.860 226.837,229.580 227.195,229.800 227.196 C 230.020 227.196,229.611 226.838,228.890 226.399 C 227.192 225.363,226.636 225.364,228.200 226.400 M231.500 227.667 C 231.885 227.819,233.010 227.944,234.000 227.944 C 234.990 227.944,236.115 227.819,236.500 227.667 C 236.885 227.514,235.760 227.389,234.000 227.389 C 232.240 227.389,231.115 227.514,231.500 227.667 M175.272 273.581 C 165.616 276.870,164.430 290.661,173.465 294.598 C 174.309 294.966,175.313 295.432,175.695 295.634 C 176.077 295.835,181.426 296.000,187.583 296.000 L 198.776 296.000 198.888 284.400 L 199.000 272.800 188.200 272.828 C 178.872 272.852,177.110 272.955,175.272 273.581 M221.200 273.200 C 221.530 273.413,222.070 273.588,222.400 273.588 C 222.933 273.588,222.933 273.545,222.400 273.200 C 222.070 272.987,221.530 272.812,221.200 272.812 C 220.667 272.812,220.667 272.855,221.200 273.200 M223.600 273.779 C 223.600 273.889,224.140 274.259,224.800 274.600 C 225.460 274.941,226.000 275.131,226.000 275.021 C 226.000 274.911,225.460 274.541,224.800 274.200 C 224.140 273.859,223.600 273.669,223.600 273.779 M230.501 284.600 C 230.505 285.480,230.587 285.793,230.683 285.295 C 230.779 284.798,230.775 284.078,230.675 283.695 C 230.575 283.313,230.496 283.720,230.501 284.600 M229.800 288.000 C 229.650 288.473,229.617 288.950,229.727 289.060 C 229.837 289.170,230.050 288.873,230.200 288.400 C 230.350 287.927,230.383 287.450,230.273 287.340 C 230.163 287.230,229.950 287.527,229.800 288.000 M204.523 296.299 C 207.341 296.368,211.841 296.368,214.523 296.299 C 217.205 296.230,214.900 296.173,209.400 296.173 C 203.900 296.174,201.705 296.230,204.523 296.299 " stroke="none" fill="#ffffff" fill-rule="evenodd"></path><path id="path2" d="M199.300 115.469 C 198.909 115.623,198.800 120.048,198.800 135.712 L 198.800 155.757 201.426 162.778 C 202.871 166.640,204.203 170.160,204.387 170.600 C 204.571 171.040,205.117 172.480,205.600 173.800 C 206.083 175.120,206.665 176.650,206.893 177.200 C 207.121 177.750,207.441 178.560,207.604 179.000 C 207.767 179.440,208.076 180.250,208.290 180.800 C 209.013 182.660,208.682 182.800,203.567 182.800 L 198.800 182.800 198.800 194.157 C 198.800 204.144,198.876 205.544,199.433 205.757 C 199.781 205.891,204.014 206.000,208.839 206.000 L 217.613 206.000 218.176 207.300 C 218.485 208.015,219.309 210.130,220.007 212.000 C 220.705 213.870,221.439 215.805,221.638 216.300 C 221.837 216.795,222.149 217.605,222.331 218.100 C 226.287 228.866,239.543 231.111,243.947 221.759 C 244.248 221.122,244.652 220.287,244.847 219.905 C 245.287 219.041,245.315 212.698,244.882 212.180 C 244.707 211.971,244.335 211.080,244.055 210.200 C 243.556 208.628,243.320 207.995,242.492 206.000 C 242.263 205.450,241.533 203.560,240.870 201.800 C 240.207 200.040,238.950 196.710,238.078 194.400 C 237.206 192.090,235.292 186.960,233.825 183.000 C 232.358 179.040,230.963 175.350,230.725 174.800 C 230.168 173.512,229.795 172.533,229.200 170.800 C 228.936 170.030,228.533 168.950,228.306 168.400 C 227.712 166.962,227.346 165.989,226.800 164.400 C 226.536 163.630,226.157 162.595,225.960 162.100 C 225.762 161.605,225.444 160.795,225.254 160.300 C 225.063 159.805,224.721 158.950,224.493 158.400 C 224.265 157.850,223.683 156.320,223.200 155.000 C 222.717 153.680,222.170 152.240,221.983 151.800 C 221.797 151.360,220.453 147.760,218.997 143.800 C 217.541 139.840,216.199 136.240,216.014 135.800 C 215.829 135.360,215.283 133.920,214.800 132.600 C 213.765 129.771,213.236 128.455,212.753 127.505 C 212.559 127.123,212.400 126.617,212.400 126.380 C 212.400 122.802,206.654 116.863,202.200 115.838 C 201.540 115.686,200.730 115.497,200.400 115.417 C 200.070 115.337,199.575 115.360,199.300 115.469 M199.067 273.067 C 198.920 273.213,198.800 278.433,198.800 284.667 L 198.800 296.000 209.900 295.994 C 217.671 295.990,221.420 295.840,222.400 295.494 C 233.544 291.562,232.998 276.891,221.572 273.255 C 220.027 272.763,199.541 272.592,199.067 273.067 " stroke="none" fill="#ffffff" fill-rule="evenodd"></path><path id="path3" d="M192.639 0.292 C 192.000 0.387,191.221 0.722,190.907 1.036 C 190.593 1.350,190.170 1.505,189.968 1.380 C 189.765 1.255,189.600 1.343,189.600 1.576 C 189.600 1.809,189.317 2.000,188.971 2.000 C 188.626 2.000,188.071 2.272,187.739 2.604 C 187.407 2.936,186.942 3.088,186.706 2.942 C 186.451 2.785,186.393 2.864,186.562 3.138 C 186.719 3.392,186.702 3.600,186.524 3.601 C 186.346 3.601,185.570 4.141,184.800 4.800 C 184.030 5.459,183.175 5.999,182.900 5.999 C 182.625 6.000,182.400 6.235,182.400 6.523 C 182.400 6.810,181.635 7.891,180.700 8.926 C 176.764 13.280,175.052 15.696,175.529 16.226 C 175.678 16.392,175.575 16.399,175.300 16.241 C 174.987 16.061,174.800 16.195,174.800 16.600 C 174.800 16.956,174.647 17.153,174.460 17.037 C 174.273 16.922,173.868 17.316,173.560 17.914 C 173.252 18.511,172.505 19.477,171.900 20.060 C 171.295 20.644,170.794 21.364,170.787 21.660 C 170.774 22.220,169.600 23.988,169.600 23.448 C 169.600 23.280,169.330 23.413,169.000 23.743 C 168.670 24.073,168.400 24.508,168.400 24.709 C 168.400 24.911,168.040 25.402,167.600 25.800 C 167.160 26.198,166.800 26.777,166.800 27.086 C 166.800 27.394,166.620 27.536,166.400 27.400 C 166.180 27.264,166.000 27.394,166.000 27.688 C 166.000 27.983,165.650 28.476,165.221 28.785 C 164.793 29.093,164.535 29.494,164.647 29.676 C 164.759 29.857,164.569 30.114,164.225 30.246 C 163.881 30.378,163.600 30.736,163.600 31.043 C 163.600 31.349,163.409 31.600,163.176 31.600 C 162.943 31.600,162.864 31.780,163.000 32.000 C 163.136 32.220,162.997 32.400,162.691 32.400 C 162.385 32.400,161.881 32.895,161.570 33.500 C 161.260 34.105,160.662 34.915,160.242 35.300 C 159.821 35.685,159.640 36.003,159.839 36.006 C 160.037 36.009,160.000 36.144,159.756 36.306 C 159.512 36.468,159.007 37.194,158.635 37.921 C 158.263 38.647,157.698 39.341,157.379 39.463 C 157.061 39.586,156.800 39.954,156.800 40.282 C 156.800 40.611,156.260 41.383,155.600 42.000 C 154.940 42.617,154.400 43.279,154.400 43.472 C 154.400 43.665,154.040 44.083,153.600 44.400 C 153.160 44.717,152.800 45.188,152.800 45.446 C 152.800 45.704,152.260 46.493,151.600 47.200 C 150.940 47.907,150.400 48.804,150.400 49.193 C 150.400 49.925,149.478 50.944,149.130 50.597 C 149.023 50.489,148.680 50.896,148.370 51.501 C 148.060 52.105,147.462 52.915,147.042 53.300 C 146.621 53.685,146.417 54.000,146.587 54.000 C 146.757 54.000,146.245 54.795,145.448 55.767 C 144.652 56.739,144.000 57.729,144.000 57.967 C 144.000 58.205,143.841 58.400,143.646 58.400 C 143.451 58.400,142.992 59.030,142.627 59.800 C 142.261 60.570,141.791 61.200,141.581 61.200 C 141.372 61.200,141.200 61.470,141.200 61.800 C 141.200 62.130,141.020 62.400,140.800 62.400 C 140.580 62.400,140.400 62.630,140.400 62.912 C 140.400 63.193,140.040 63.683,139.600 64.000 C 139.160 64.317,138.800 64.882,138.800 65.255 C 138.800 65.628,138.665 65.993,138.500 66.067 C 138.335 66.140,137.666 66.985,137.014 67.946 C 136.362 68.906,135.597 69.780,135.314 69.888 C 135.031 69.997,134.800 70.426,134.800 70.843 C 134.800 71.259,134.650 71.600,134.468 71.600 C 134.285 71.600,133.881 72.095,133.570 72.700 C 133.260 73.305,132.715 74.070,132.360 74.400 C 132.005 74.730,131.592 75.388,131.442 75.863 C 131.292 76.338,130.906 76.827,130.585 76.950 C 130.263 77.074,130.000 77.358,130.000 77.583 C 130.000 77.807,129.685 78.359,129.300 78.808 C 128.915 79.258,128.600 79.759,128.600 79.922 C 128.600 80.085,128.204 80.644,127.720 81.163 C 127.236 81.683,126.552 82.714,126.201 83.454 C 125.850 84.194,125.391 84.800,125.181 84.800 C 124.972 84.800,124.800 85.120,124.800 85.512 C 124.800 85.903,124.440 86.483,124.000 86.800 C 123.560 87.117,123.200 87.657,123.200 88.000 C 123.200 88.343,122.840 88.883,122.400 89.200 C 121.960 89.517,121.600 90.005,121.600 90.284 C 121.600 90.753,120.921 91.730,119.700 93.016 C 119.425 93.306,119.200 93.786,119.200 94.083 C 119.200 94.380,118.840 94.883,118.400 95.200 C 117.960 95.517,117.600 96.057,117.600 96.400 C 117.600 96.743,117.240 97.283,116.800 97.600 C 116.360 97.917,116.000 98.457,116.000 98.800 C 116.000 99.143,115.650 99.676,115.221 99.985 C 114.793 100.293,114.539 100.702,114.657 100.892 C 114.775 101.082,114.405 101.704,113.835 102.274 C 113.266 102.843,112.800 103.555,112.800 103.855 C 112.800 104.155,112.590 104.400,112.333 104.400 C 112.077 104.400,111.978 104.511,112.114 104.648 C 112.250 104.784,112.099 105.158,111.777 105.480 C 111.456 105.801,111.295 106.230,111.420 106.432 C 111.545 106.635,111.367 106.800,111.024 106.800 C 110.676 106.800,110.400 107.139,110.400 107.567 C 110.400 107.988,110.265 108.393,110.100 108.467 C 109.745 108.625,108.032 111.298,107.195 113.000 C 106.871 113.660,106.289 114.491,105.903 114.847 C 105.516 115.203,105.200 115.788,105.200 116.147 C 105.200 116.506,105.020 116.800,104.800 116.800 C 104.580 116.800,104.400 117.070,104.400 117.400 C 104.400 117.730,104.264 118.000,104.098 118.000 C 103.931 118.000,103.536 118.585,103.220 119.300 C 102.903 120.015,102.320 120.949,101.922 121.375 C 101.525 121.802,101.200 122.387,101.200 122.675 C 101.200 122.964,101.020 123.200,100.800 123.200 C 100.580 123.200,100.400 123.560,100.400 124.000 C 100.400 124.440,100.253 124.800,100.074 124.800 C 99.894 124.800,99.323 125.565,98.803 126.500 C 98.284 127.435,97.729 128.290,97.570 128.400 C 97.410 128.510,97.217 128.960,97.140 129.400 C 97.063 129.840,96.685 130.491,96.300 130.847 C 95.915 131.203,95.600 131.698,95.600 131.947 C 95.600 132.196,95.420 132.400,95.200 132.400 C 94.980 132.400,94.800 132.760,94.800 133.200 C 94.800 133.640,94.652 134.000,94.472 134.000 C 94.292 134.000,93.460 135.440,92.625 137.200 C 91.789 138.960,90.946 140.400,90.753 140.400 C 90.559 140.400,90.400 140.760,90.400 141.200 C 90.400 141.640,90.209 142.000,89.976 142.000 C 89.743 142.000,89.657 142.169,89.785 142.375 C 89.912 142.582,89.756 142.897,89.437 143.075 C 88.847 143.405,88.800 143.520,88.800 144.624 C 88.800 144.967,88.620 145.136,88.400 145.000 C 88.180 144.864,88.000 145.108,88.000 145.543 C 88.000 145.978,87.865 146.393,87.700 146.467 C 87.324 146.634,86.025 148.764,85.729 149.700 C 85.607 150.085,85.348 150.400,85.153 150.400 C 84.959 150.400,84.800 150.760,84.800 151.200 C 84.800 151.640,84.620 152.000,84.400 152.000 C 84.180 152.000,84.000 152.360,84.000 152.800 C 84.000 153.240,83.820 153.600,83.600 153.600 C 83.380 153.600,83.200 153.853,83.200 154.162 C 83.200 154.716,81.620 158.010,81.168 158.400 C 81.040 158.510,80.681 159.185,80.370 159.900 C 80.059 160.615,79.674 161.200,79.515 161.200 C 79.356 161.200,79.328 161.468,79.454 161.797 C 79.585 162.137,79.408 162.499,79.042 162.639 C 78.689 162.775,78.400 163.226,78.400 163.643 C 78.400 164.059,78.220 164.400,78.000 164.400 C 77.780 164.400,77.600 164.739,77.600 165.154 C 77.600 166.091,76.604 168.071,76.291 167.757 C 76.164 167.630,76.108 167.854,76.167 168.255 C 76.226 168.656,76.023 169.234,75.717 169.540 C 75.411 169.846,75.057 170.615,74.930 171.248 C 74.804 171.882,74.543 172.400,74.350 172.400 C 74.158 172.400,74.000 172.634,74.000 172.920 C 74.000 173.656,73.059 175.593,72.700 175.597 C 72.535 175.599,72.400 175.960,72.400 176.400 C 72.400 176.840,72.258 177.200,72.085 177.200 C 71.912 177.200,71.740 177.602,71.703 178.094 C 71.666 178.586,71.448 179.051,71.218 179.127 C 70.988 179.204,70.800 179.612,70.800 180.033 C 70.800 180.455,70.609 180.800,70.376 180.800 C 70.143 180.800,70.055 180.965,70.180 181.168 C 70.305 181.370,70.174 181.775,69.889 182.068 C 69.604 182.360,69.341 183.047,69.303 183.594 C 69.266 184.141,69.048 184.651,68.818 184.727 C 68.588 184.804,68.400 185.212,68.400 185.633 C 68.400 186.055,68.220 186.400,68.000 186.400 C 67.780 186.400,67.600 186.760,67.600 187.200 C 67.600 187.640,67.442 188.000,67.250 188.000 C 67.058 188.000,66.900 188.470,66.900 189.045 C 66.900 189.621,66.742 190.206,66.550 190.345 C 66.358 190.485,66.142 190.870,66.070 191.200 C 65.999 191.530,65.774 191.860,65.570 191.933 C 65.367 192.007,65.200 192.414,65.200 192.839 C 65.200 193.263,65.041 193.923,64.847 194.305 C 64.493 195.001,63.943 196.298,63.365 197.800 C 63.195 198.240,63.022 198.952,62.979 199.383 C 62.936 199.814,62.698 200.234,62.451 200.316 C 62.203 200.399,62.000 200.992,62.000 201.633 C 62.000 202.275,61.859 202.800,61.687 202.800 C 61.515 202.800,61.334 203.285,61.285 203.878 C 61.236 204.470,61.030 205.058,60.827 205.183 C 60.624 205.309,60.473 205.679,60.492 206.006 C 60.566 207.292,60.383 208.037,60.045 207.828 C 59.849 207.707,59.594 208.101,59.478 208.704 C 59.361 209.307,59.075 210.520,58.842 211.400 C 58.610 212.280,58.415 213.596,58.410 214.324 C 58.404 215.102,58.235 215.545,58.000 215.400 C 57.758 215.251,57.600 215.796,57.600 216.776 C 57.600 217.669,57.457 218.400,57.282 218.400 C 57.107 218.400,56.919 219.075,56.864 219.900 C 56.810 220.725,56.593 221.460,56.382 221.533 C 56.172 221.607,56.000 222.372,56.000 223.233 C 56.000 224.095,55.820 224.800,55.600 224.800 C 55.380 224.800,55.200 225.790,55.200 227.000 C 55.200 228.210,55.061 229.200,54.891 229.200 C 54.721 229.200,54.528 230.415,54.463 231.900 C 54.398 233.385,54.177 234.660,53.972 234.733 C 53.469 234.914,53.476 260.290,53.979 260.467 C 54.188 260.540,54.392 262.171,54.433 264.090 C 54.475 266.010,54.664 267.484,54.854 267.367 C 55.044 267.249,55.200 268.423,55.200 269.976 C 55.200 271.592,55.371 272.800,55.600 272.800 C 55.822 272.800,56.000 273.867,56.000 275.200 C 56.000 276.533,56.178 277.600,56.400 277.600 C 56.620 277.600,56.800 278.320,56.800 279.200 C 56.800 280.080,56.980 280.800,57.200 280.800 C 57.420 280.800,57.600 281.700,57.600 282.800 C 57.600 283.900,57.757 284.800,57.948 284.800 C 58.139 284.800,58.396 285.565,58.519 286.500 C 58.792 288.579,59.003 289.475,59.555 290.900 C 59.789 291.505,59.904 292.000,59.811 292.000 C 59.717 292.000,59.904 292.630,60.226 293.400 C 60.548 294.170,60.682 294.800,60.525 294.800 C 60.368 294.800,60.456 295.016,60.720 295.280 C 60.984 295.544,61.200 296.264,61.200 296.880 C 61.200 297.496,61.380 298.000,61.600 298.000 C 61.820 298.000,62.000 298.540,62.000 299.200 C 62.000 299.860,62.180 300.400,62.400 300.400 C 62.620 300.400,62.800 300.749,62.800 301.176 C 62.800 301.603,62.980 302.064,63.200 302.200 C 63.420 302.336,63.600 302.887,63.600 303.424 C 63.600 303.961,63.780 304.400,64.000 304.400 C 64.220 304.400,64.400 304.755,64.400 305.188 C 64.400 305.621,64.760 306.617,65.200 307.400 C 65.640 308.183,66.000 309.179,66.000 309.612 C 66.000 310.045,66.180 310.400,66.400 310.400 C 66.620 310.400,66.800 310.771,66.800 311.224 C 66.800 311.677,66.980 311.936,67.200 311.800 C 67.427 311.660,67.600 311.996,67.600 312.576 C 67.600 313.139,67.780 313.600,68.000 313.600 C 68.220 313.600,68.400 313.960,68.400 314.400 C 68.400 314.840,68.580 315.200,68.800 315.200 C 69.020 315.200,69.200 315.560,69.200 316.000 C 69.200 316.440,69.380 316.800,69.600 316.800 C 69.820 316.800,70.000 317.160,70.000 317.600 C 70.000 318.040,70.180 318.400,70.400 318.400 C 70.620 318.400,70.800 318.760,70.800 319.200 C 70.800 319.640,70.980 320.000,71.200 320.000 C 71.420 320.000,71.600 320.371,71.600 320.824 C 71.600 321.277,71.780 321.536,72.000 321.400 C 72.342 321.189,72.493 321.706,72.366 322.655 C 72.347 322.796,72.482 323.021,72.666 323.155 C 73.063 323.446,73.683 324.424,74.850 326.600 C 75.321 327.480,75.879 328.310,76.088 328.445 C 76.297 328.579,76.441 328.759,76.408 328.845 C 76.287 329.158,76.971 330.615,77.481 331.132 C 77.771 331.425,77.905 331.830,77.780 332.032 C 77.655 332.235,77.722 332.400,77.928 332.400 C 78.134 332.400,78.526 332.938,78.798 333.595 C 79.070 334.252,79.414 334.715,79.562 334.624 C 79.709 334.532,80.078 335.017,80.380 335.700 C 80.926 336.934,81.586 337.869,82.867 339.227 C 83.233 339.615,83.428 340.038,83.300 340.167 C 83.172 340.295,83.277 340.400,83.533 340.400 C 83.790 340.400,84.000 340.593,84.000 340.829 C 84.000 341.064,84.270 341.527,84.600 341.857 C 84.930 342.187,85.200 342.320,85.200 342.152 C 85.200 341.618,86.374 343.377,86.387 343.931 C 86.394 344.224,87.120 345.154,88.000 346.000 C 88.880 346.846,89.600 347.694,89.600 347.885 C 89.600 348.077,90.409 349.126,91.398 350.217 C 92.387 351.308,93.197 352.346,93.198 352.524 C 93.199 352.702,93.380 352.736,93.600 352.600 C 93.820 352.464,94.000 352.549,94.000 352.788 C 94.000 353.027,94.627 353.893,95.393 354.712 C 99.789 359.410,101.599 361.200,101.951 361.200 C 102.168 361.200,103.799 362.640,105.576 364.400 C 107.352 366.160,108.894 367.600,109.002 367.600 C 109.111 367.600,109.941 368.320,110.848 369.200 C 111.755 370.080,112.745 370.800,113.048 370.800 C 113.352 370.800,113.600 370.980,113.600 371.200 C 113.600 371.420,113.881 371.600,114.224 371.600 C 114.567 371.600,114.753 371.753,114.637 371.940 C 114.522 372.127,114.916 372.532,115.514 372.840 C 116.111 373.148,117.048 373.805,117.596 374.300 C 118.144 374.795,118.907 375.200,119.293 375.200 C 119.678 375.200,120.218 375.560,120.493 376.000 C 120.768 376.440,121.309 376.800,121.696 376.800 C 122.083 376.800,122.400 376.959,122.400 377.154 C 122.400 377.349,122.985 377.810,123.700 378.177 C 125.076 378.885,127.143 380.268,128.800 381.591 C 129.350 382.030,130.025 382.392,130.300 382.395 C 130.575 382.398,130.800 382.588,130.800 382.818 C 130.800 383.047,131.025 383.206,131.300 383.170 C 132.360 383.032,132.836 383.218,132.562 383.662 C 132.393 383.936,132.451 384.015,132.706 383.858 C 132.942 383.712,133.407 383.864,133.739 384.196 C 134.071 384.528,134.626 384.800,134.971 384.800 C 135.317 384.800,135.600 384.980,135.600 385.200 C 135.600 385.420,135.960 385.600,136.400 385.600 C 136.840 385.600,137.200 385.780,137.200 386.000 C 137.200 386.220,137.434 386.400,137.720 386.400 C 138.456 386.400,140.393 387.341,140.397 387.700 C 140.399 387.865,140.760 388.000,141.200 388.000 C 141.640 388.000,142.000 388.180,142.000 388.400 C 142.000 388.620,142.330 388.800,142.733 388.800 C 143.137 388.800,143.591 388.925,143.744 389.077 C 143.896 389.229,144.413 389.414,144.893 389.487 C 145.373 389.560,145.863 389.771,145.983 389.956 C 146.179 390.260,147.808 390.932,148.467 390.980 C 148.613 390.991,148.868 391.135,149.033 391.300 C 149.198 391.465,149.753 391.600,150.267 391.600 C 150.780 391.600,151.200 391.780,151.200 392.000 C 151.200 392.220,151.740 392.400,152.400 392.400 C 153.060 392.400,153.600 392.580,153.600 392.800 C 153.600 393.020,154.140 393.200,154.800 393.200 C 155.460 393.200,156.000 393.380,156.000 393.600 C 156.000 393.820,156.540 394.000,157.200 394.000 C 157.860 394.000,158.400 394.180,158.400 394.400 C 158.400 394.620,158.929 394.800,159.576 394.800 C 160.223 394.800,160.864 394.980,161.000 395.200 C 161.136 395.420,161.777 395.600,162.424 395.600 C 163.071 395.600,163.600 395.743,163.600 395.918 C 163.600 396.093,164.256 396.281,165.057 396.335 C 165.858 396.389,166.836 396.605,167.231 396.816 C 167.625 397.027,168.409 397.200,168.974 397.200 C 169.538 397.200,170.000 397.380,170.000 397.600 C 170.000 397.820,170.979 398.000,172.176 398.000 C 173.373 398.000,174.464 398.180,174.600 398.400 C 174.736 398.620,175.812 398.800,176.990 398.800 C 178.169 398.800,179.197 398.992,179.275 399.226 C 179.367 399.502,182.815 399.734,189.109 399.888 L 198.800 400.124 198.800 348.742 C 198.800 309.312,198.688 297.248,198.320 296.880 C 197.970 296.530,194.834 296.400,186.715 296.400 C 180.596 296.400,175.277 296.241,174.895 296.047 C 174.513 295.852,173.672 295.447,173.027 295.147 C 164.608 291.221,164.714 277.407,173.191 273.742 C 173.966 273.407,174.913 272.968,175.295 272.766 C 175.677 272.565,181.123 272.400,187.397 272.400 L 198.805 272.400 198.702 239.500 L 198.600 206.600 189.383 206.493 L 180.166 206.386 179.657 207.893 C 179.119 209.482,178.825 210.247,178.000 212.200 C 177.721 212.860,177.361 213.760,177.200 214.200 C 176.763 215.394,175.953 217.308,175.553 218.095 C 175.359 218.477,175.200 219.045,175.200 219.357 C 175.200 220.916,172.706 224.404,170.479 225.961 C 167.679 227.918,161.739 229.196,161.000 228.000 C 160.864 227.780,160.409 227.600,159.989 227.600 C 155.353 227.600,150.295 219.393,151.540 213.889 C 152.039 211.682,154.527 204.906,155.647 202.705 C 155.841 202.323,156.000 201.820,156.000 201.586 C 156.000 201.352,156.360 200.416,156.800 199.506 C 157.240 198.595,157.600 197.611,157.600 197.319 C 157.600 197.028,157.759 196.477,157.953 196.095 C 158.604 194.816,159.380 192.881,160.800 189.000 C 161.283 187.680,161.824 186.240,162.001 185.800 C 162.479 184.619,165.251 177.312,167.389 171.600 C 168.418 168.850,169.409 166.240,169.591 165.800 C 169.773 165.360,170.317 163.920,170.800 162.600 C 171.283 161.280,171.840 159.795,172.039 159.300 C 172.238 158.805,172.580 157.950,172.800 157.400 C 173.779 154.953,174.116 154.155,174.447 153.505 C 174.641 153.123,174.800 152.536,174.800 152.200 C 174.800 151.864,174.959 151.277,175.153 150.895 C 175.503 150.208,176.073 148.849,176.746 147.100 C 176.937 146.605,177.297 145.705,177.546 145.100 C 178.401 143.026,178.720 142.198,179.200 140.800 C 179.464 140.030,179.867 138.950,180.094 138.400 C 180.822 136.638,181.125 135.850,182.017 133.400 C 184.600 126.302,185.162 124.834,185.971 123.061 C 187.968 118.683,191.788 115.937,197.700 114.628 L 198.800 114.385 198.800 57.192 L 198.800 0.000 196.300 0.060 C 194.925 0.093,193.278 0.198,192.639 0.292 M216.000 5.548 C 216.000 6.097,217.103 6.881,217.339 6.499 C 217.454 6.313,217.200 5.943,216.774 5.677 C 216.348 5.411,216.000 5.353,216.000 5.548 M219.240 9.100 C 219.544 9.595,219.940 10.000,220.120 10.000 C 220.300 10.000,220.348 10.161,220.226 10.358 C 220.104 10.555,220.278 10.821,220.612 10.949 C 221.428 11.262,220.808 10.088,219.580 8.996 L 218.687 8.200 219.240 9.100 M222.406 13.051 C 222.418 13.739,223.098 14.489,223.346 14.088 C 223.481 13.869,223.323 13.468,222.996 13.196 C 222.668 12.924,222.403 12.859,222.406 13.051 M274.406 84.700 C 274.403 85.195,274.580 85.600,274.800 85.600 C 275.301 85.600,275.301 85.176,274.800 84.400 C 274.486 83.915,274.411 83.972,274.406 84.700 M306.400 136.124 C 306.400 136.496,306.559 136.800,306.753 136.800 C 306.948 136.800,307.201 137.160,307.316 137.600 C 307.431 138.040,307.767 138.386,308.063 138.368 C 308.467 138.345,308.476 138.287,308.100 138.135 C 307.825 138.024,307.594 137.723,307.587 137.467 C 307.565 136.633,306.400 135.316,306.400 136.124 M312.493 147.200 C 312.768 147.640,313.131 148.000,313.300 148.000 C 313.469 148.000,313.382 147.640,313.107 147.200 C 312.832 146.760,312.469 146.400,312.300 146.400 C 312.131 146.400,312.218 146.760,312.493 147.200 M198.002 159.220 C 198.003 159.539,197.446 161.240,196.764 163.000 C 194.826 168.000,194.030 169.958,193.553 170.895 C 193.359 171.277,193.200 171.941,193.200 172.371 C 193.200 172.801,193.020 173.264,192.800 173.400 C 192.580 173.536,192.400 173.997,192.400 174.424 C 192.400 174.851,192.220 175.200,192.000 175.200 C 191.780 175.200,191.600 175.562,191.600 176.005 C 191.600 176.448,191.441 177.123,191.247 177.505 C 190.674 178.631,190.069 180.135,189.794 181.113 L 189.538 182.027 194.069 181.913 L 198.600 181.800 198.706 170.626 C 198.775 163.449,198.668 159.308,198.406 159.046 C 198.131 158.771,198.001 158.827,198.002 159.220 M297.829 361.029 C 297.405 361.338,297.136 361.669,297.230 361.763 C 297.324 361.857,297.748 361.681,298.171 361.371 C 298.595 361.062,298.864 360.731,298.770 360.637 C 298.676 360.543,298.252 360.719,297.829 361.029 M283.925 372.844 C 283.196 373.528,282.962 373.905,283.404 373.681 C 284.243 373.257,285.901 371.600,285.487 371.600 C 285.356 371.600,284.653 372.160,283.925 372.844 M280.800 374.800 C 280.800 375.301,281.224 375.301,282.000 374.800 C 282.485 374.486,282.428 374.411,281.700 374.406 C 281.205 374.403,280.800 374.580,280.800 374.800 M256.000 388.800 C 255.683 388.996,255.556 389.289,255.718 389.452 C 255.881 389.614,256.223 389.537,256.480 389.280 C 257.084 388.676,256.747 388.338,256.000 388.800 " stroke="none" fill="#c52c69" fill-rule="evenodd"></path><path id="path4" d="M194.854 115.428 C 193.893 115.729,192.216 116.548,191.127 117.247 C 187.546 119.545,186.906 120.728,181.529 135.000 C 180.866 136.760,180.161 138.605,179.962 139.100 C 179.763 139.595,179.438 140.405,179.239 140.900 C 179.040 141.395,178.483 142.880,178.000 144.200 C 177.517 145.520,176.935 147.050,176.707 147.600 C 176.479 148.150,176.113 149.050,175.893 149.600 C 175.673 150.150,175.348 150.960,175.170 151.400 C 174.992 151.840,174.043 154.360,173.061 157.000 C 172.080 159.640,170.699 163.295,169.994 165.123 C 169.289 166.951,168.818 168.551,168.947 168.680 C 169.076 168.809,169.292 168.574,169.427 168.157 C 169.562 167.741,169.819 167.040,169.998 166.600 C 170.177 166.160,170.898 164.270,171.600 162.400 C 172.302 160.530,173.039 158.595,173.238 158.100 C 174.173 155.775,174.351 155.309,174.800 154.000 C 175.357 152.378,175.728 151.396,176.310 150.000 C 176.540 149.450,176.853 148.640,177.006 148.200 C 177.159 147.760,178.360 144.610,179.674 141.200 C 180.988 137.790,183.047 132.390,184.249 129.200 C 186.699 122.697,188.432 119.761,190.861 118.002 C 192.352 116.921,193.401 116.519,198.000 115.264 L 199.400 114.882 198.000 114.880 C 197.230 114.880,195.814 115.126,194.854 115.428 M201.600 115.245 C 206.907 116.862,212.400 122.110,212.400 125.564 C 212.400 125.810,212.566 126.323,212.768 126.705 C 212.970 127.087,213.528 128.480,214.007 129.800 C 214.486 131.120,215.065 132.650,215.293 133.200 C 216.009 134.928,217.620 139.270,218.171 140.957 C 218.308 141.374,218.513 141.621,218.627 141.506 C 218.742 141.391,218.360 140.061,217.779 138.549 C 217.198 137.037,216.363 134.810,215.923 133.600 C 215.482 132.390,214.960 130.995,214.761 130.500 C 213.793 128.087,213.479 127.346,213.153 126.705 C 212.959 126.323,212.800 125.834,212.800 125.617 C 212.800 121.875,206.354 115.690,201.778 115.042 L 200.200 114.818 201.600 115.245 M218.800 142.223 C 218.800 142.777,220.910 148.023,221.069 147.864 C 221.212 147.721,219.271 142.340,218.966 142.033 C 218.875 141.942,218.800 142.027,218.800 142.223 M222.012 150.800 C 222.012 151.130,222.187 151.670,222.400 152.000 C 222.745 152.533,222.788 152.533,222.788 152.000 C 222.788 151.670,222.613 151.130,222.400 150.800 C 222.055 150.267,222.012 150.267,222.012 150.800 M224.293 157.093 C 224.648 158.133,225.001 158.796,225.079 158.564 C 225.223 158.132,224.125 155.200,223.819 155.200 C 223.725 155.200,223.939 156.052,224.293 157.093 M198.111 157.692 C 197.873 158.191,197.283 159.680,196.800 161.000 C 196.317 162.320,195.735 163.850,195.507 164.400 C 195.279 164.950,194.961 165.760,194.800 166.200 C 194.639 166.640,194.321 167.450,194.093 168.000 C 193.865 168.550,193.283 170.080,192.800 171.400 C 192.317 172.720,191.777 174.160,191.599 174.600 C 189.572 179.622,188.776 182.037,189.017 182.428 C 189.301 182.888,205.972 182.642,207.680 182.154 C 208.350 181.962,208.339 181.614,207.603 179.800 C 207.424 179.360,206.880 177.920,206.393 176.600 C 205.906 175.280,205.169 173.437,204.754 172.504 C 204.339 171.572,204.001 170.672,204.002 170.504 C 204.004 170.252,202.540 166.329,201.202 163.000 C 200.906 162.263,200.448 160.943,199.828 159.043 C 199.692 158.626,199.488 158.379,199.374 158.493 C 199.260 158.607,199.462 159.488,199.822 160.450 C 200.183 161.413,200.838 163.190,201.278 164.400 C 202.139 166.768,202.725 168.247,203.179 169.200 C 203.337 169.530,203.715 170.655,204.020 171.700 C 204.325 172.745,204.715 173.600,204.887 173.600 C 205.059 173.600,205.200 173.962,205.200 174.405 C 205.200 174.848,205.359 175.523,205.553 175.905 C 205.748 176.287,206.129 177.140,206.400 177.800 C 206.671 178.460,207.052 179.313,207.247 179.695 C 208.417 181.996,208.402 182.000,198.600 182.000 C 192.991 182.000,189.600 181.852,189.600 181.608 C 189.600 181.229,190.433 178.859,191.291 176.800 C 191.520 176.250,191.863 175.395,192.054 174.900 C 192.244 174.405,192.562 173.595,192.761 173.100 C 192.960 172.605,193.517 171.120,194.000 169.800 C 194.483 168.480,195.024 167.040,195.203 166.600 C 195.381 166.160,196.191 164.090,197.002 162.000 C 197.814 159.910,198.684 158.072,198.935 157.917 C 199.258 157.717,199.268 157.508,198.969 157.209 C 198.669 156.909,198.416 157.051,198.111 157.692 M225.228 159.476 C 225.318 160.515,225.944 161.396,225.972 160.524 C 225.987 160.042,225.820 159.536,225.600 159.400 C 225.380 159.264,225.213 159.298,225.228 159.476 M227.174 164.700 C 228.200 167.517,229.976 172.171,230.798 174.200 C 230.976 174.640,231.517 176.080,232.000 177.400 C 232.483 178.720,233.026 180.160,233.206 180.600 C 233.387 181.040,234.028 182.706,234.632 184.302 C 235.235 185.899,235.797 187.136,235.881 187.052 C 235.965 186.969,235.738 186.112,235.378 185.150 C 235.017 184.187,234.362 182.410,233.922 181.200 C 233.482 179.990,232.935 178.550,232.707 178.000 C 232.479 177.450,232.137 176.595,231.946 176.100 C 231.756 175.605,231.438 174.795,231.240 174.300 C 231.043 173.805,230.664 172.770,230.400 172.000 C 230.136 171.230,229.757 170.195,229.560 169.700 C 228.722 167.603,228.290 166.564,228.021 166.000 C 227.863 165.670,227.485 164.545,227.180 163.500 C 226.875 162.455,226.495 161.600,226.335 161.600 C 226.175 161.600,226.553 162.995,227.174 164.700 M167.405 172.077 C 166.809 173.685,165.979 175.763,165.561 176.696 C 165.142 177.628,164.801 178.528,164.802 178.696 C 164.804 178.967,162.994 183.787,161.908 186.400 C 161.321 187.814,160.952 188.793,160.400 190.400 C 159.920 191.798,159.601 192.626,158.746 194.700 C 158.171 196.097,157.956 196.655,156.400 200.800 C 155.698 202.670,154.971 204.560,154.784 205.000 C 149.330 217.842,151.454 225.559,161.060 227.799 C 168.081 229.437,172.682 225.898,176.399 216.000 C 177.102 214.130,177.839 212.195,178.038 211.700 C 178.887 209.590,179.145 208.930,179.608 207.700 L 180.097 206.400 198.549 206.326 C 216.240 206.255,216.564 206.240,206.400 205.978 C 200.570 205.827,192.242 205.681,187.894 205.652 L 179.987 205.600 179.338 207.100 C 178.981 207.925,178.534 209.005,178.345 209.500 C 178.018 210.353,177.661 211.253,176.838 213.300 C 176.639 213.795,175.886 215.730,175.165 217.600 C 172.275 225.096,169.590 227.300,163.337 227.312 C 158.703 227.322,155.505 225.391,153.208 221.200 C 152.100 219.179,151.781 213.796,152.661 211.962 C 152.915 211.433,153.517 209.920,154.000 208.600 C 155.040 205.757,155.354 204.935,155.908 203.600 C 156.137 203.050,156.898 201.070,157.600 199.200 C 159.239 194.833,159.406 194.401,159.923 193.200 C 160.160 192.650,161.155 190.040,162.134 187.400 C 163.113 184.760,165.029 179.660,166.391 176.067 C 167.753 172.474,168.782 169.449,168.677 169.344 C 168.573 169.240,168.000 170.469,167.405 172.077 M236.812 190.000 C 236.812 190.330,236.987 190.870,237.200 191.200 C 237.545 191.733,237.588 191.733,237.588 191.200 C 237.588 190.870,237.413 190.330,237.200 190.000 C 236.855 189.467,236.812 189.467,236.812 190.000 M239.212 196.400 C 239.212 196.730,239.387 197.270,239.600 197.600 C 239.945 198.133,239.988 198.133,239.988 197.600 C 239.988 197.270,239.813 196.730,239.600 196.400 C 239.255 195.867,239.212 195.867,239.212 196.400 M242.608 205.624 C 243.316 207.856,243.968 209.040,243.984 208.124 C 243.993 207.642,243.820 207.136,243.600 207.000 C 243.380 206.864,243.200 206.414,243.200 206.000 C 243.200 205.586,243.001 205.124,242.757 204.974 C 242.454 204.786,242.407 204.991,242.608 205.624 M217.441 207.079 C 217.568 207.476,217.819 208.160,217.997 208.600 C 218.176 209.040,218.717 210.480,219.200 211.800 C 220.228 214.611,220.546 215.445,221.106 216.800 C 221.333 217.350,221.746 218.430,222.024 219.200 C 222.301 219.970,222.693 220.780,222.895 221.000 C 223.214 221.348,222.627 219.534,221.602 217.000 C 221.424 216.560,220.883 215.120,220.400 213.800 C 219.365 210.971,218.836 209.655,218.353 208.705 C 218.159 208.323,218.000 207.749,218.000 207.429 C 218.000 207.109,217.822 206.737,217.605 206.603 C 217.373 206.460,217.305 206.657,217.441 207.079 M245.422 213.705 C 245.708 215.074,245.860 216.735,245.760 217.397 C 245.582 218.575,245.588 218.579,246.018 217.600 C 246.259 217.050,246.362 216.060,246.247 215.400 C 245.763 212.625,245.491 211.580,245.205 211.403 C 245.039 211.300,245.136 212.336,245.422 213.705 M245.254 219.422 C 245.171 220.687,243.116 223.667,241.191 225.315 C 240.237 226.132,239.640 226.800,239.864 226.800 C 240.328 226.800,244.000 223.427,244.000 223.001 C 244.000 222.849,244.372 222.200,244.828 221.561 C 245.297 220.901,245.581 220.010,245.482 219.499 C 245.325 218.683,245.304 218.676,245.254 219.422 M223.213 221.856 C 223.231 222.344,224.357 223.776,224.561 223.571 C 224.655 223.477,224.387 222.975,223.966 222.456 C 223.545 221.936,223.206 221.666,223.213 221.856 M226.196 225.358 C 227.593 226.621,228.400 227.100,228.400 226.668 C 228.400 226.595,227.545 225.946,226.500 225.226 L 224.600 223.916 226.196 225.358 M228.943 227.077 C 229.982 228.116,236.045 228.898,236.563 228.060 C 236.678 227.873,235.920 227.802,234.877 227.902 C 233.768 228.009,232.085 227.819,230.826 227.445 C 229.641 227.093,228.794 226.927,228.943 227.077 M174.570 273.223 C 164.794 276.984,164.167 290.861,173.572 295.310 C 177.356 297.101,220.663 297.311,224.000 295.555 C 231.944 291.374,233.518 281.735,227.241 275.700 C 226.268 274.765,225.329 274.000,225.154 274.000 C 224.978 274.000,225.712 274.821,226.784 275.824 C 233.068 281.701,231.574 291.355,223.783 295.217 L 221.800 296.200 199.200 296.092 C 186.770 296.032,176.240 295.825,175.800 295.632 C 175.360 295.439,174.309 294.977,173.465 294.606 C 164.222 290.534,165.754 276.338,175.752 273.431 C 178.940 272.505,220.740 272.482,222.951 273.405 C 223.748 273.738,224.400 273.872,224.400 273.703 C 224.400 272.105,178.622 271.664,174.570 273.223 " stroke="none" fill="#f2b0ba" fill-rule="evenodd"></path></g></svg>