<svg id="svg" version="1.1" xmlns="http://www.w3.org/2000/svg" xmlns:xlink="http://www.w3.org/1999/xlink" width="400" height="400" viewBox="0, 0, 400,400"><g id="svgg"><path id="path0" d="M251.500 161.082 C 251.995 161.178,252.805 161.178,253.300 161.082 C 253.795 160.987,253.390 160.909,252.400 160.909 C 251.410 160.909,251.005 160.987,251.500 161.082 M135.800 162.163 C 134.700 162.667,133.031 163.830,132.091 164.748 C 130.173 166.620,129.194 168.557,126.400 176.000 C 125.698 177.870,124.937 179.850,124.708 180.400 C 124.480 180.950,124.137 181.805,123.946 182.300 C 123.756 182.795,123.438 183.605,123.240 184.100 C 123.043 184.595,122.664 185.630,122.400 186.400 C 122.136 187.170,121.775 188.160,121.598 188.600 C 121.124 189.779,119.147 195.000,116.599 201.800 C 115.363 205.100,114.200 208.160,114.014 208.600 C 113.828 209.040,113.102 210.930,112.400 212.800 C 110.673 217.402,110.280 218.414,109.294 220.800 C 109.067 221.350,108.664 222.430,108.400 223.200 C 107.848 224.807,107.479 225.786,106.892 227.200 C 106.663 227.750,105.902 229.730,105.200 231.600 C 104.498 233.470,103.778 235.360,103.600 235.800 C 103.139 236.940,101.206 242.043,98.600 249.000 C 97.364 252.300,96.003 255.879,95.576 256.953 C 94.753 259.026,94.503 263.828,95.153 265.105 C 95.348 265.487,95.739 266.297,96.023 266.904 C 99.599 274.548,111.471 274.881,115.777 267.458 C 116.611 266.021,120.864 255.263,121.493 253.000 C 122.007 251.153,121.490 251.200,141.403 251.200 L 160.307 251.200 161.193 253.500 C 161.680 254.765,162.226 256.160,162.407 256.600 C 162.589 257.040,163.587 259.634,164.627 262.363 C 167.207 269.140,169.816 271.867,174.571 272.755 C 181.611 274.070,188.690 267.602,187.899 260.577 C 187.721 259.005,183.724 247.652,181.959 243.704 C 181.541 242.772,181.201 241.872,181.202 241.704 C 181.204 241.452,179.740 237.529,178.402 234.200 C 178.225 233.760,177.864 232.770,177.600 232.000 C 176.964 230.148,176.383 228.635,175.294 226.000 C 175.067 225.450,174.664 224.370,174.400 223.600 C 174.136 222.830,173.774 221.840,173.597 221.400 C 173.188 220.385,172.654 218.975,168.602 208.200 C 166.782 203.360,164.984 198.590,164.608 197.600 C 164.231 196.610,163.562 194.810,163.122 193.600 C 162.682 192.390,162.135 190.950,161.907 190.400 C 161.317 188.977,160.949 188.000,160.400 186.400 C 159.951 185.091,159.773 184.625,158.838 182.300 C 158.639 181.805,157.919 179.915,157.238 178.100 C 153.175 167.270,152.925 166.767,150.448 164.440 C 146.941 161.147,140.277 160.111,135.800 162.163 M215.578 164.300 L 214.200 165.800 215.700 164.422 C 217.096 163.138,217.384 162.800,217.078 162.800 C 217.012 162.800,216.337 163.475,215.578 164.300 M235.680 184.080 C 235.331 184.429,235.224 186.906,235.288 193.180 L 235.376 201.800 235.588 193.000 L 235.800 184.200 243.200 183.986 L 250.600 183.773 243.380 183.686 C 238.197 183.624,236.025 183.735,235.680 184.080 M281.693 190.400 C 281.693 191.170,281.775 191.485,281.876 191.100 C 281.976 190.715,281.976 190.085,281.876 189.700 C 281.775 189.315,281.693 189.630,281.693 190.400 M239.500 201.898 C 241.535 201.971,244.865 201.971,246.900 201.898 C 248.935 201.825,247.270 201.766,243.200 201.766 C 239.130 201.766,237.465 201.825,239.500 201.898 M142.400 203.420 C 142.400 203.745,142.566 204.323,142.768 204.705 C 142.970 205.087,143.528 206.480,144.007 207.800 C 144.486 209.120,145.027 210.560,145.209 211.000 C 145.578 211.892,148.017 218.349,150.000 223.686 C 150.713 225.604,151.190 227.449,151.061 227.786 C 150.802 228.460,132.737 228.729,131.706 228.074 C 131.157 227.725,131.113 227.858,136.189 214.600 C 139.081 207.048,140.800 202.388,140.800 202.100 C 140.800 202.029,141.160 202.165,141.600 202.400 C 142.040 202.635,142.400 203.094,142.400 203.420 M254.900 225.076 C 255.285 225.176,255.915 225.176,256.300 225.076 C 256.685 224.975,256.370 224.893,255.600 224.893 C 254.830 224.893,254.515 224.975,254.900 225.076 M235.286 237.276 C 235.238 244.028,235.335 249.636,235.500 249.739 C 235.665 249.841,235.754 246.297,235.698 241.862 C 235.503 226.525,235.371 225.051,235.286 237.276 M289.734 237.200 C 289.734 238.850,289.805 239.525,289.891 238.700 C 289.978 237.875,289.978 236.525,289.891 235.700 C 289.805 234.875,289.734 235.550,289.734 237.200 M262.581 246.500 L 261.000 248.200 262.700 246.619 C 264.281 245.148,264.584 244.800,264.281 244.800 C 264.216 244.800,263.451 245.565,262.581 246.500 M279.381 262.500 L 277.800 264.200 279.500 262.619 C 281.081 261.148,281.384 260.800,281.081 260.800 C 281.016 260.800,280.251 261.565,279.381 262.500 M249.900 273.095 C 251.055 273.176,252.945 273.176,254.100 273.095 C 255.255 273.014,254.310 272.948,252.000 272.948 C 249.690 272.948,248.745 273.014,249.900 273.095 M197.400 292.843 C 196.740 293.052,195.570 293.425,194.800 293.671 C 189.949 295.222,187.600 299.608,187.600 307.114 C 187.600 313.296,188.161 312.800,181.179 312.800 C 173.518 312.800,170.082 314.726,168.048 320.163 C 166.415 324.527,167.384 328.912,170.675 332.058 C 173.550 334.806,175.102 335.304,181.600 335.566 L 187.400 335.800 187.629 341.400 C 187.915 348.363,188.212 349.336,190.972 352.334 C 192.583 354.085,197.950 356.583,198.632 355.901 C 198.864 355.670,199.031 292.395,198.800 292.432 C 198.690 292.449,198.060 292.634,197.400 292.843 M205.000 294.252 C 205.220 294.445,206.120 295.232,206.999 296.001 L 208.598 297.400 207.399 296.066 C 206.740 295.332,205.840 294.545,205.400 294.317 C 204.960 294.089,204.780 294.060,205.000 294.252 M213.300 335.896 C 214.565 335.975,216.635 335.975,217.900 335.896 C 219.165 335.816,218.130 335.751,215.600 335.751 C 213.070 335.751,212.035 335.816,213.300 335.896 " stroke="none" fill="#ffffff" fill-rule="evenodd"></path><path id="path1" d="M192.500 0.271 C 191.785 0.370,191.200 0.619,191.200 0.825 C 191.200 1.031,190.840 1.200,190.400 1.200 C 189.960 1.200,189.600 1.380,189.600 1.600 C 189.600 1.820,189.317 2.000,188.971 2.000 C 188.626 2.000,188.071 2.272,187.739 2.604 C 187.407 2.936,186.942 3.088,186.706 2.942 C 186.451 2.785,186.393 2.864,186.562 3.138 C 186.719 3.392,186.655 3.600,186.420 3.600 C 186.185 3.600,185.428 4.140,184.737 4.800 C 184.046 5.460,183.238 6.000,182.941 6.000 C 182.643 6.000,182.400 6.232,182.400 6.515 C 182.400 6.798,181.594 7.923,180.610 9.015 C 177.878 12.044,177.720 12.237,176.210 14.386 C 175.434 15.489,174.800 16.584,174.800 16.820 C 174.800 17.055,174.647 17.153,174.460 17.037 C 174.273 16.922,173.868 17.316,173.560 17.914 C 173.252 18.511,172.505 19.477,171.900 20.060 C 171.295 20.644,170.800 21.337,170.800 21.600 C 170.800 21.863,170.260 22.583,169.600 23.200 C 168.940 23.817,168.400 24.491,168.400 24.698 C 168.400 24.906,168.040 25.402,167.600 25.800 C 167.160 26.198,166.800 26.777,166.800 27.086 C 166.800 27.394,166.620 27.536,166.400 27.400 C 166.180 27.264,166.000 27.394,166.000 27.688 C 166.000 27.983,165.640 28.483,165.200 28.800 C 164.760 29.117,164.400 29.607,164.400 29.888 C 164.400 30.170,164.220 30.400,164.000 30.400 C 163.780 30.400,163.600 30.582,163.600 30.804 C 163.600 31.026,163.060 31.772,162.400 32.463 C 161.740 33.154,161.200 33.922,161.200 34.171 C 161.200 34.420,160.850 34.876,160.421 35.185 C 159.993 35.493,159.734 35.893,159.845 36.073 C 159.956 36.253,159.869 36.400,159.651 36.400 C 159.432 36.400,159.138 36.766,158.996 37.213 C 158.854 37.660,158.302 38.462,157.769 38.995 C 157.236 39.528,156.800 40.170,156.800 40.421 C 156.800 40.673,156.260 41.383,155.600 42.000 C 154.940 42.617,154.400 43.279,154.400 43.472 C 154.400 43.665,154.040 44.083,153.600 44.400 C 153.160 44.717,152.800 45.188,152.800 45.446 C 152.800 45.704,152.260 46.493,151.600 47.200 C 150.940 47.907,150.400 48.647,150.400 48.846 C 150.400 49.045,149.860 49.772,149.200 50.463 C 148.540 51.154,148.000 51.896,148.000 52.112 C 148.000 52.329,147.612 52.842,147.139 53.253 C 146.665 53.664,146.417 54.000,146.587 54.000 C 146.757 54.000,146.245 54.795,145.448 55.767 C 144.652 56.739,144.000 57.729,144.000 57.967 C 144.000 58.205,143.848 58.400,143.663 58.400 C 143.478 58.400,142.987 59.030,142.572 59.800 C 142.157 60.570,141.679 61.200,141.509 61.200 C 141.339 61.200,141.200 61.470,141.200 61.800 C 141.200 62.130,141.020 62.400,140.800 62.400 C 140.580 62.400,140.400 62.630,140.400 62.912 C 140.400 63.193,140.040 63.683,139.600 64.000 C 139.160 64.317,138.800 64.882,138.800 65.255 C 138.800 65.628,138.655 65.993,138.477 66.067 C 138.299 66.140,137.570 67.055,136.857 68.100 C 136.145 69.145,135.390 70.000,135.181 70.000 C 134.971 70.000,134.800 70.360,134.800 70.800 C 134.800 71.240,134.650 71.600,134.468 71.600 C 134.285 71.600,133.881 72.095,133.570 72.700 C 133.260 73.305,132.689 74.091,132.303 74.447 C 131.916 74.803,131.600 75.270,131.600 75.485 C 131.600 75.700,131.240 76.202,130.800 76.600 C 130.360 76.998,130.000 77.484,130.000 77.679 C 130.000 77.874,129.640 78.420,129.200 78.892 C 128.760 79.364,128.400 79.987,128.400 80.275 C 128.400 80.564,128.257 80.800,128.083 80.800 C 127.908 80.800,127.233 81.696,126.583 82.792 C 125.932 83.888,125.265 84.788,125.100 84.792 C 124.935 84.796,124.800 85.120,124.800 85.512 C 124.800 85.903,124.440 86.483,124.000 86.800 C 123.560 87.117,123.200 87.657,123.200 88.000 C 123.200 88.343,122.840 88.883,122.400 89.200 C 121.960 89.517,121.600 90.005,121.600 90.284 C 121.600 90.753,120.921 91.730,119.700 93.016 C 119.425 93.306,119.200 93.786,119.200 94.083 C 119.200 94.380,118.840 94.883,118.400 95.200 C 117.960 95.517,117.600 96.057,117.600 96.400 C 117.600 96.743,117.240 97.283,116.800 97.600 C 116.360 97.917,116.000 98.457,116.000 98.800 C 116.000 99.143,115.650 99.676,115.221 99.985 C 114.793 100.293,114.519 100.669,114.613 100.821 C 114.706 100.972,114.337 101.614,113.792 102.248 C 113.247 102.882,112.801 103.625,112.800 103.900 C 112.800 104.175,112.642 104.400,112.449 104.400 C 112.255 104.400,111.873 104.940,111.600 105.600 C 111.327 106.260,110.945 106.800,110.751 106.800 C 110.558 106.800,110.400 107.145,110.400 107.567 C 110.400 107.988,110.265 108.393,110.100 108.467 C 109.745 108.625,108.032 111.298,107.195 113.000 C 106.871 113.660,106.289 114.491,105.903 114.847 C 105.516 115.203,105.200 115.788,105.200 116.147 C 105.200 116.506,105.020 116.800,104.800 116.800 C 104.580 116.800,104.400 117.070,104.400 117.400 C 104.400 117.730,104.264 118.000,104.098 118.000 C 103.931 118.000,103.536 118.585,103.220 119.300 C 102.903 120.015,102.320 120.949,101.922 121.375 C 101.525 121.802,101.200 122.387,101.200 122.675 C 101.200 122.964,101.020 123.200,100.800 123.200 C 100.580 123.200,100.400 123.560,100.400 124.000 C 100.400 124.440,100.253 124.800,100.074 124.800 C 99.894 124.800,99.323 125.565,98.803 126.500 C 98.284 127.435,97.746 128.290,97.607 128.400 C 97.468 128.510,97.118 129.185,96.829 129.900 C 96.540 130.615,96.145 131.200,95.951 131.200 C 95.758 131.200,95.600 131.470,95.600 131.800 C 95.600 132.130,95.420 132.400,95.200 132.400 C 94.980 132.400,94.800 132.760,94.800 133.200 C 94.800 133.640,94.652 134.000,94.472 134.000 C 94.292 134.000,93.460 135.440,92.625 137.200 C 91.789 138.960,90.946 140.400,90.753 140.400 C 90.559 140.400,90.400 140.760,90.400 141.200 C 90.400 141.640,90.209 142.000,89.976 142.000 C 89.743 142.000,89.665 142.181,89.802 142.403 C 89.939 142.624,89.769 142.914,89.425 143.046 C 89.081 143.178,88.800 143.626,88.800 144.043 C 88.800 144.459,88.620 144.800,88.400 144.800 C 88.180 144.800,88.000 145.145,88.000 145.567 C 88.000 145.988,87.865 146.393,87.700 146.467 C 87.324 146.634,86.025 148.764,85.729 149.700 C 85.607 150.085,85.348 150.400,85.153 150.400 C 84.959 150.400,84.800 150.760,84.800 151.200 C 84.800 151.640,84.620 152.000,84.400 152.000 C 84.180 152.000,84.000 152.360,84.000 152.800 C 84.000 153.240,83.820 153.600,83.600 153.600 C 83.380 153.600,83.200 153.960,83.200 154.400 C 83.200 154.840,83.020 155.200,82.800 155.200 C 82.580 155.200,82.400 155.472,82.400 155.805 C 82.400 156.392,81.640 157.994,81.168 158.400 C 81.040 158.510,80.681 159.185,80.370 159.900 C 80.059 160.615,79.669 161.200,79.502 161.200 C 79.336 161.200,79.200 161.560,79.200 162.000 C 79.200 162.440,79.020 162.800,78.800 162.800 C 78.580 162.800,78.400 163.160,78.400 163.600 C 78.400 164.040,78.220 164.400,78.000 164.400 C 77.780 164.400,77.600 164.760,77.600 165.200 C 77.600 165.640,77.409 166.000,77.176 166.000 C 76.943 166.000,76.855 166.165,76.980 166.368 C 77.105 166.570,76.923 167.020,76.575 167.368 C 76.227 167.715,76.049 168.000,76.180 168.000 C 76.310 168.000,76.053 168.713,75.608 169.584 C 75.164 170.455,74.800 171.445,74.800 171.784 C 74.800 172.123,74.620 172.400,74.400 172.400 C 74.180 172.400,74.000 172.634,74.000 172.920 C 74.000 173.656,73.059 175.593,72.700 175.597 C 72.535 175.599,72.400 175.960,72.400 176.400 C 72.400 176.840,72.258 177.200,72.085 177.200 C 71.912 177.200,71.740 177.602,71.703 178.094 C 71.666 178.586,71.448 179.051,71.218 179.127 C 70.988 179.204,70.800 179.612,70.800 180.033 C 70.800 180.455,70.620 180.800,70.400 180.800 C 70.180 180.800,70.000 181.160,70.000 181.600 C 70.000 182.040,69.820 182.400,69.600 182.400 C 69.380 182.400,69.200 182.940,69.200 183.600 C 69.200 184.260,69.020 184.800,68.800 184.800 C 68.580 184.800,68.400 185.160,68.400 185.600 C 68.400 186.040,68.220 186.400,68.000 186.400 C 67.780 186.400,67.600 186.760,67.600 187.200 C 67.600 187.640,67.420 188.000,67.200 188.000 C 66.980 188.000,66.800 188.540,66.800 189.200 C 66.800 189.860,66.620 190.400,66.400 190.400 C 66.180 190.400,66.000 190.760,66.000 191.200 C 66.000 191.640,65.820 192.000,65.600 192.000 C 65.380 192.000,65.200 192.362,65.200 192.805 C 65.200 193.248,65.041 193.923,64.847 194.305 C 64.652 194.687,64.271 195.540,64.000 196.200 C 63.729 196.860,63.348 197.713,63.153 198.095 C 62.959 198.477,62.800 199.152,62.800 199.595 C 62.800 200.038,62.620 200.400,62.400 200.400 C 62.180 200.400,62.000 200.940,62.000 201.600 C 62.000 202.260,61.859 202.800,61.687 202.800 C 61.515 202.800,61.334 203.285,61.285 203.878 C 61.236 204.470,61.053 205.055,60.879 205.178 C 60.704 205.300,60.534 205.834,60.501 206.364 C 60.467 206.894,60.278 207.434,60.080 207.564 C 59.881 207.694,59.615 208.250,59.487 208.800 C 59.360 209.350,59.067 210.520,58.837 211.400 C 58.607 212.280,58.415 213.596,58.410 214.324 C 58.404 215.102,58.235 215.545,58.000 215.400 C 57.758 215.251,57.600 215.796,57.600 216.776 C 57.600 217.669,57.420 218.400,57.200 218.400 C 56.980 218.400,56.800 219.120,56.800 220.000 C 56.800 220.880,56.620 221.600,56.400 221.600 C 56.180 221.600,56.000 222.320,56.000 223.200 C 56.000 224.080,55.820 224.800,55.600 224.800 C 55.380 224.800,55.200 225.790,55.200 227.000 C 55.200 228.210,55.061 229.200,54.891 229.200 C 54.721 229.200,54.528 230.415,54.463 231.900 C 54.398 233.385,54.177 234.660,53.972 234.733 C 53.469 234.914,53.476 260.290,53.979 260.467 C 54.188 260.540,54.392 262.171,54.433 264.090 C 54.475 266.010,54.664 267.484,54.854 267.367 C 55.044 267.249,55.200 268.423,55.200 269.976 C 55.200 271.592,55.371 272.800,55.600 272.800 C 55.822 272.800,56.000 273.867,56.000 275.200 C 56.000 276.533,56.178 277.600,56.400 277.600 C 56.620 277.600,56.800 278.320,56.800 279.200 C 56.800 280.080,56.980 280.800,57.200 280.800 C 57.420 280.800,57.600 281.700,57.600 282.800 C 57.600 283.900,57.757 284.800,57.948 284.800 C 58.139 284.800,58.396 285.565,58.519 286.500 C 58.792 288.579,59.003 289.475,59.555 290.900 C 59.789 291.505,59.904 292.000,59.811 292.000 C 59.717 292.000,59.904 292.630,60.226 293.400 C 60.548 294.170,60.682 294.800,60.525 294.800 C 60.368 294.800,60.456 295.016,60.720 295.280 C 60.984 295.544,61.200 296.264,61.200 296.880 C 61.200 297.496,61.380 298.000,61.600 298.000 C 61.820 298.000,62.000 298.540,62.000 299.200 C 62.000 299.860,62.180 300.400,62.400 300.400 C 62.620 300.400,62.800 300.749,62.800 301.176 C 62.800 301.603,62.980 302.064,63.200 302.200 C 63.420 302.336,63.600 302.887,63.600 303.424 C 63.600 303.961,63.780 304.400,64.000 304.400 C 64.220 304.400,64.400 304.755,64.400 305.188 C 64.400 305.621,64.760 306.617,65.200 307.400 C 65.640 308.183,66.000 309.179,66.000 309.612 C 66.000 310.045,66.180 310.400,66.400 310.400 C 66.620 310.400,66.800 310.760,66.800 311.200 C 66.800 311.640,66.980 312.000,67.200 312.000 C 67.420 312.000,67.600 312.360,67.600 312.800 C 67.600 313.240,67.780 313.600,68.000 313.600 C 68.220 313.600,68.400 313.960,68.400 314.400 C 68.400 314.840,68.580 315.200,68.800 315.200 C 69.020 315.200,69.200 315.560,69.200 316.000 C 69.200 316.440,69.380 316.800,69.600 316.800 C 69.820 316.800,70.000 317.160,70.000 317.600 C 70.000 318.040,70.180 318.400,70.400 318.400 C 70.620 318.400,70.800 318.760,70.800 319.200 C 70.800 319.640,70.980 320.000,71.200 320.000 C 71.420 320.000,71.600 320.371,71.600 320.824 C 71.600 321.277,71.780 321.536,72.000 321.400 C 72.227 321.260,72.400 321.596,72.400 322.176 C 72.400 322.739,72.537 323.200,72.705 323.200 C 72.873 323.200,73.188 323.537,73.405 323.948 C 74.963 326.899,75.759 328.233,76.088 328.445 C 76.297 328.579,76.441 328.759,76.408 328.845 C 76.287 329.158,76.971 330.615,77.481 331.132 C 77.771 331.425,77.905 331.830,77.780 332.032 C 77.655 332.235,77.731 332.400,77.949 332.400 C 78.168 332.400,78.453 332.738,78.584 333.151 C 78.716 333.564,79.267 334.419,79.811 335.051 C 80.354 335.683,80.799 336.425,80.800 336.700 C 80.800 336.975,80.938 337.200,81.106 337.200 C 81.274 337.200,81.856 337.920,82.400 338.800 C 82.944 339.680,83.526 340.400,83.694 340.400 C 83.862 340.400,84.000 340.598,84.000 340.840 C 84.000 341.081,84.540 341.783,85.200 342.400 C 85.860 343.017,86.400 343.733,86.400 343.992 C 86.400 344.251,87.120 345.154,88.000 346.000 C 88.880 346.846,89.600 347.696,89.600 347.890 C 89.600 348.085,90.236 348.954,91.013 349.822 C 97.952 357.571,101.441 361.200,101.951 361.200 C 102.168 361.200,103.799 362.640,105.576 364.400 C 107.352 366.160,108.894 367.600,109.002 367.600 C 109.111 367.600,109.941 368.320,110.848 369.200 C 111.755 370.080,112.656 370.800,112.852 370.800 C 113.047 370.800,113.772 371.340,114.463 372.000 C 115.154 372.660,115.880 373.200,116.077 373.200 C 116.274 373.200,116.920 373.650,117.513 374.200 C 118.107 374.750,118.869 375.200,119.208 375.200 C 119.546 375.200,120.083 375.560,120.400 376.000 C 120.717 376.440,121.214 376.800,121.505 376.800 C 121.796 376.800,122.420 377.160,122.892 377.600 C 123.364 378.040,123.987 378.400,124.275 378.400 C 124.564 378.400,124.800 378.547,124.800 378.726 C 124.800 378.906,125.565 379.482,126.500 380.006 C 127.435 380.531,128.549 381.284,128.975 381.680 C 129.402 382.076,129.987 382.400,130.275 382.400 C 130.564 382.400,130.800 382.580,130.800 382.800 C 130.800 383.020,131.216 383.200,131.725 383.200 C 132.233 383.200,133.036 383.560,133.508 384.000 C 133.980 384.440,134.644 384.800,134.983 384.800 C 135.322 384.800,135.600 384.980,135.600 385.200 C 135.600 385.420,135.960 385.600,136.400 385.600 C 136.840 385.600,137.200 385.780,137.200 386.000 C 137.200 386.220,137.434 386.400,137.720 386.400 C 138.456 386.400,140.393 387.341,140.397 387.700 C 140.399 387.865,140.760 388.000,141.200 388.000 C 141.640 388.000,142.000 388.180,142.000 388.400 C 142.000 388.620,142.349 388.800,142.776 388.800 C 143.203 388.800,143.664 388.980,143.800 389.200 C 143.936 389.420,144.487 389.600,145.024 389.600 C 145.561 389.600,146.000 389.744,146.000 389.921 C 146.000 390.301,149.491 391.605,150.500 391.602 C 150.885 391.601,151.200 391.780,151.200 392.000 C 151.200 392.220,151.740 392.400,152.400 392.400 C 153.060 392.400,153.600 392.580,153.600 392.800 C 153.600 393.020,154.140 393.200,154.800 393.200 C 155.460 393.200,156.000 393.380,156.000 393.600 C 156.000 393.820,156.540 394.000,157.200 394.000 C 157.860 394.000,158.400 394.180,158.400 394.400 C 158.400 394.620,158.929 394.800,159.576 394.800 C 160.223 394.800,160.864 394.980,161.000 395.200 C 161.136 395.420,161.777 395.600,162.424 395.600 C 163.071 395.600,163.600 395.743,163.600 395.918 C 163.600 396.093,164.256 396.281,165.057 396.335 C 165.858 396.389,166.836 396.605,167.231 396.816 C 167.625 397.027,168.409 397.200,168.974 397.200 C 169.538 397.200,170.000 397.380,170.000 397.600 C 170.000 397.820,170.979 398.000,172.176 398.000 C 173.373 398.000,174.464 398.180,174.600 398.400 C 174.736 398.620,175.812 398.800,176.990 398.800 C 178.349 398.800,179.194 398.983,179.300 399.300 C 179.543 400.029,220.531 400.029,221.260 399.300 C 221.535 399.025,222.613 398.800,223.656 398.800 C 224.699 398.800,225.664 398.620,225.800 398.400 C 225.936 398.180,226.937 398.000,228.024 398.000 C 229.111 398.000,230.000 397.820,230.000 397.600 C 230.000 397.380,230.720 397.200,231.600 397.200 C 232.480 397.200,233.200 397.020,233.200 396.800 C 233.200 396.580,233.920 396.400,234.800 396.400 C 235.680 396.400,236.400 396.220,236.400 396.000 C 236.400 395.780,237.030 395.600,237.800 395.600 C 238.570 395.600,239.200 395.420,239.200 395.200 C 239.200 394.980,239.740 394.800,240.400 394.800 C 241.060 394.800,241.600 394.620,241.600 394.400 C 241.600 394.180,242.140 394.000,242.800 394.000 C 243.460 394.000,244.000 393.820,244.000 393.600 C 244.000 393.380,244.540 393.200,245.200 393.200 C 245.860 393.200,246.400 393.020,246.400 392.800 C 246.400 392.580,246.940 392.400,247.600 392.400 C 248.260 392.400,248.800 392.240,248.800 392.045 C 248.800 391.850,249.610 391.569,250.600 391.421 C 251.590 391.272,252.400 390.982,252.400 390.775 C 252.400 390.569,252.850 390.400,253.400 390.400 C 253.950 390.400,254.400 390.220,254.400 390.000 C 254.400 389.780,254.805 389.596,255.300 389.591 C 255.795 389.586,256.650 389.230,257.200 388.800 C 257.750 388.370,258.515 388.014,258.900 388.009 C 259.285 388.004,259.600 387.820,259.600 387.600 C 259.600 387.380,259.960 387.200,260.400 387.200 C 260.840 387.200,261.200 387.020,261.200 386.800 C 261.200 386.580,261.560 386.400,262.000 386.400 C 262.440 386.400,262.800 386.220,262.800 386.000 C 262.800 385.780,263.160 385.600,263.600 385.600 C 264.040 385.600,264.400 385.420,264.400 385.200 C 264.400 384.980,264.760 384.800,265.200 384.800 C 265.640 384.800,266.001 384.665,266.003 384.500 C 266.007 384.141,267.944 383.200,268.680 383.200 C 268.966 383.200,269.200 383.020,269.200 382.800 C 269.200 382.580,269.436 382.400,269.725 382.400 C 270.013 382.400,270.598 382.085,271.025 381.700 C 271.451 381.315,272.340 380.731,273.000 380.403 C 273.660 380.074,274.491 379.489,274.847 379.103 C 275.203 378.716,275.748 378.400,276.059 378.400 C 276.369 378.400,276.883 378.040,277.200 377.600 C 277.517 377.160,278.057 376.800,278.400 376.800 C 278.743 376.800,279.283 376.440,279.600 376.000 C 279.917 375.560,280.460 375.200,280.807 375.200 C 281.432 375.200,282.114 374.757,284.543 372.775 C 285.235 372.210,286.430 371.313,287.200 370.780 C 287.970 370.247,289.021 369.314,289.536 368.706 C 290.050 368.097,290.644 367.600,290.855 367.600 C 291.066 367.600,292.481 366.340,294.000 364.800 C 295.519 363.260,296.939 362.000,297.156 362.000 C 297.567 362.000,303.139 356.455,306.600 352.601 C 307.700 351.376,309.005 349.938,309.500 349.405 C 309.995 348.872,310.400 348.234,310.400 347.987 C 310.400 347.740,311.120 346.846,312.000 346.000 C 312.880 345.154,313.600 344.251,313.600 343.992 C 313.600 343.733,314.140 343.017,314.800 342.400 C 315.460 341.783,316.000 341.121,316.000 340.928 C 316.000 340.735,316.360 340.317,316.800 340.000 C 317.240 339.683,317.600 339.238,317.601 339.012 C 317.601 338.785,318.141 337.970,318.800 337.200 C 319.459 336.430,319.999 335.657,319.999 335.483 C 320.000 335.309,320.360 334.780,320.800 334.308 C 321.240 333.836,321.600 333.213,321.600 332.925 C 321.600 332.636,321.780 332.400,322.000 332.400 C 322.220 332.400,322.400 332.122,322.400 331.783 C 322.400 331.444,322.760 330.780,323.200 330.308 C 323.640 329.836,324.000 329.213,324.000 328.925 C 324.000 328.636,324.166 328.400,324.368 328.400 C 324.571 328.400,324.855 327.860,325.000 327.200 C 325.145 326.540,325.429 326.000,325.632 326.000 C 325.834 326.000,326.000 325.730,326.000 325.400 C 326.000 325.070,326.180 324.800,326.400 324.800 C 326.620 324.800,326.800 324.566,326.800 324.280 C 326.800 323.544,327.741 321.607,328.100 321.603 C 328.265 321.601,328.400 321.240,328.400 320.800 C 328.400 320.360,328.580 320.000,328.800 320.000 C 329.020 320.000,329.200 319.640,329.200 319.200 C 329.200 318.760,329.380 318.400,329.600 318.400 C 329.820 318.400,330.000 318.040,330.000 317.600 C 330.000 317.160,330.180 316.800,330.400 316.800 C 330.620 316.800,330.800 316.440,330.800 316.000 C 330.800 315.560,330.980 315.200,331.200 315.200 C 331.420 315.200,331.600 314.840,331.600 314.400 C 331.600 313.960,331.780 313.600,332.000 313.600 C 332.220 313.600,332.400 313.366,332.400 313.080 C 332.400 312.344,333.341 310.407,333.700 310.403 C 333.865 310.401,334.000 309.950,334.000 309.400 C 334.000 308.850,334.180 308.400,334.400 308.400 C 334.620 308.400,334.800 308.051,334.800 307.624 C 334.800 307.197,334.980 306.736,335.200 306.600 C 335.420 306.464,335.600 305.913,335.600 305.376 C 335.600 304.839,335.780 304.400,336.000 304.400 C 336.220 304.400,336.400 304.051,336.400 303.624 C 336.400 303.197,336.580 302.736,336.800 302.600 C 337.020 302.464,337.200 301.913,337.200 301.376 C 337.200 300.839,337.380 300.400,337.600 300.400 C 337.820 300.400,338.000 299.860,338.000 299.200 C 338.000 298.540,338.180 298.000,338.400 298.000 C 338.620 298.000,338.800 297.460,338.800 296.800 C 338.800 296.140,338.941 295.600,339.113 295.600 C 339.285 295.600,339.466 295.113,339.515 294.518 C 339.564 293.922,339.784 293.256,340.002 293.038 C 340.221 292.819,340.400 292.147,340.400 291.544 C 340.400 290.941,340.566 290.345,340.769 290.219 C 340.971 290.094,341.263 288.821,341.416 287.390 C 341.569 285.959,341.853 284.691,342.047 284.571 C 342.241 284.451,342.400 283.553,342.400 282.576 C 342.400 281.599,342.580 280.800,342.800 280.800 C 343.020 280.800,343.200 279.979,343.200 278.976 C 343.200 277.973,343.348 277.244,343.529 277.356 C 343.711 277.468,343.901 276.624,343.952 275.480 C 344.004 274.336,344.215 273.229,344.423 273.020 C 344.630 272.811,344.800 271.506,344.800 270.120 C 344.800 268.707,344.976 267.600,345.200 267.600 C 345.437 267.600,345.600 266.133,345.600 264.000 C 345.600 261.867,345.763 260.400,346.000 260.400 C 346.258 260.400,346.400 255.867,346.400 247.600 C 346.400 239.333,346.258 234.800,346.000 234.800 C 345.771 234.800,345.600 233.600,345.600 232.000 C 345.600 230.400,345.429 229.200,345.200 229.200 C 344.980 229.200,344.800 228.210,344.800 227.000 C 344.800 225.790,344.620 224.800,344.400 224.800 C 344.180 224.800,344.000 224.080,344.000 223.200 C 344.000 222.320,343.820 221.600,343.600 221.600 C 343.380 221.600,343.200 220.880,343.200 220.000 C 343.200 219.120,343.020 218.400,342.800 218.400 C 342.580 218.400,342.400 217.680,342.400 216.800 C 342.400 215.920,342.241 215.200,342.047 215.200 C 341.852 215.200,341.568 214.032,341.415 212.604 C 341.262 211.177,340.971 209.906,340.769 209.781 C 340.566 209.655,340.400 209.113,340.400 208.576 C 340.400 208.039,340.220 207.600,340.000 207.600 C 339.780 207.600,339.600 207.060,339.600 206.400 C 339.600 205.740,339.420 205.200,339.200 205.200 C 338.980 205.200,338.800 204.660,338.800 204.000 C 338.800 203.340,338.620 202.800,338.400 202.800 C 338.180 202.800,338.000 202.260,338.000 201.600 C 338.000 200.940,337.820 200.400,337.600 200.400 C 337.380 200.400,337.200 200.038,337.200 199.595 C 337.200 198.817,337.058 198.431,336.062 196.505 C 335.808 196.013,335.600 195.338,335.600 195.005 C 335.600 194.672,335.420 194.400,335.200 194.400 C 334.980 194.400,334.800 193.860,334.800 193.200 C 334.800 192.540,334.620 192.000,334.400 192.000 C 334.180 192.000,334.000 191.640,334.000 191.200 C 334.000 190.760,333.820 190.400,333.600 190.400 C 333.380 190.400,333.200 189.860,333.200 189.200 C 333.200 188.540,333.020 188.000,332.800 188.000 C 332.580 188.000,332.400 187.640,332.400 187.200 C 332.400 186.760,332.220 186.400,332.000 186.400 C 331.780 186.400,331.600 186.051,331.600 185.624 C 331.600 185.197,331.420 184.736,331.200 184.600 C 330.980 184.464,330.800 183.913,330.800 183.376 C 330.800 182.839,330.620 182.400,330.400 182.400 C 330.180 182.400,330.000 182.040,330.000 181.600 C 330.000 181.160,329.820 180.800,329.600 180.800 C 329.380 180.800,329.200 180.440,329.200 180.000 C 329.200 179.560,329.020 179.200,328.800 179.200 C 328.580 179.200,328.400 178.750,328.400 178.200 C 328.400 177.650,328.220 177.200,328.000 177.200 C 327.780 177.200,327.600 176.840,327.600 176.400 C 327.600 175.960,327.420 175.600,327.200 175.600 C 326.980 175.600,326.800 175.240,326.800 174.800 C 326.800 174.360,326.620 174.000,326.400 174.000 C 326.180 174.000,326.000 173.640,326.000 173.200 C 326.000 172.760,325.836 172.400,325.635 172.400 C 325.434 172.400,325.149 171.680,325.000 170.800 C 324.851 169.920,324.566 169.200,324.365 169.200 C 324.164 169.200,324.000 168.840,324.000 168.400 C 324.000 167.960,323.820 167.600,323.600 167.600 C 323.380 167.600,323.200 167.240,323.200 166.800 C 323.200 166.360,323.020 166.000,322.800 166.000 C 322.580 166.000,322.400 165.640,322.400 165.200 C 322.400 164.760,322.220 164.400,322.000 164.400 C 321.780 164.400,321.600 164.040,321.600 163.600 C 321.600 163.160,321.420 162.800,321.200 162.800 C 320.980 162.800,320.800 162.440,320.800 162.000 C 320.800 161.560,320.620 161.200,320.400 161.200 C 320.180 161.200,320.000 160.840,320.000 160.400 C 320.000 159.960,319.820 159.600,319.600 159.600 C 319.380 159.600,319.200 159.330,319.200 159.000 C 319.200 158.670,319.020 158.400,318.800 158.400 C 318.580 158.400,318.400 158.040,318.400 157.600 C 318.400 157.160,318.220 156.800,318.000 156.800 C 317.780 156.800,317.600 156.440,317.600 156.000 C 317.600 155.560,317.420 155.200,317.200 155.200 C 316.980 155.200,316.800 154.840,316.800 154.400 C 316.800 153.960,316.620 153.600,316.400 153.600 C 316.180 153.600,316.000 153.240,316.000 152.800 C 316.000 152.360,315.820 152.000,315.600 152.000 C 315.380 152.000,315.200 151.640,315.200 151.200 C 315.200 150.760,315.020 150.400,314.800 150.400 C 314.580 150.400,314.400 150.040,314.400 149.600 C 314.400 149.160,314.220 148.800,314.000 148.800 C 313.780 148.800,313.600 148.564,313.600 148.275 C 313.600 147.987,313.285 147.393,312.900 146.955 C 311.911 145.830,311.200 144.514,311.200 143.805 C 311.200 143.472,311.020 143.200,310.800 143.200 C 310.580 143.200,310.400 142.930,310.400 142.600 C 310.400 142.270,310.220 142.000,310.000 142.000 C 309.780 142.000,309.600 141.717,309.600 141.371 C 309.600 141.026,309.330 140.473,309.000 140.143 C 308.670 139.813,308.400 139.196,308.400 138.771 C 308.400 138.347,308.220 138.000,308.000 138.000 C 307.780 138.000,307.600 137.816,307.600 137.592 C 307.600 137.368,307.110 136.423,306.510 135.492 C 305.085 133.279,304.400 131.995,304.400 131.538 C 304.400 131.334,304.040 130.780,303.600 130.308 C 303.160 129.836,302.800 129.213,302.800 128.925 C 302.800 128.636,302.664 128.400,302.498 128.400 C 302.331 128.400,301.971 127.894,301.697 127.275 C 301.424 126.656,300.840 125.764,300.400 125.292 C 299.960 124.820,299.600 124.156,299.600 123.817 C 299.600 123.478,299.420 123.200,299.200 123.200 C 298.980 123.200,298.800 122.880,298.800 122.488 C 298.800 122.097,298.440 121.517,298.000 121.200 C 297.560 120.883,297.200 120.303,297.200 119.912 C 297.200 119.520,297.020 119.200,296.800 119.200 C 296.580 119.200,296.400 118.930,296.400 118.600 C 296.400 118.270,296.220 118.000,296.000 118.000 C 295.780 118.000,295.600 117.730,295.600 117.400 C 295.600 117.070,295.420 116.800,295.200 116.800 C 294.980 116.800,294.800 116.506,294.800 116.147 C 294.800 115.788,294.484 115.203,294.097 114.847 C 293.711 114.491,293.126 113.660,292.797 113.000 C 292.469 112.340,291.975 111.562,291.700 111.271 C 291.425 110.981,291.200 110.520,291.200 110.247 C 291.200 109.974,290.885 109.402,290.499 108.975 C 290.114 108.549,289.366 107.345,288.837 106.300 C 288.307 105.255,287.723 104.400,287.537 104.400 C 287.352 104.400,287.200 104.106,287.200 103.747 C 287.200 103.388,286.884 102.803,286.497 102.447 C 286.111 102.091,285.540 101.305,285.230 100.700 C 284.919 100.095,284.515 99.600,284.332 99.600 C 284.150 99.600,284.000 99.280,284.000 98.888 C 284.000 98.497,283.640 97.917,283.200 97.600 C 282.760 97.283,282.400 96.786,282.400 96.495 C 282.400 96.204,282.040 95.580,281.600 95.108 C 281.160 94.636,280.800 94.013,280.800 93.725 C 280.800 93.436,280.620 93.200,280.400 93.200 C 280.180 93.200,280.000 92.970,280.000 92.688 C 280.000 92.407,279.640 91.917,279.200 91.600 C 278.760 91.283,278.400 90.743,278.400 90.400 C 278.400 90.057,278.040 89.517,277.600 89.200 C 277.160 88.883,276.800 88.343,276.800 88.000 C 276.800 87.657,276.440 87.117,276.000 86.800 C 275.560 86.483,275.200 85.931,275.200 85.574 C 275.200 85.217,274.750 84.401,274.200 83.762 C 273.651 83.123,273.201 82.375,273.200 82.100 C 273.200 81.825,273.016 81.600,272.791 81.600 C 272.567 81.600,272.166 81.105,271.901 80.500 C 271.635 79.895,271.143 79.130,270.807 78.800 C 270.470 78.470,269.940 77.705,269.630 77.100 C 269.319 76.495,268.915 76.000,268.732 76.000 C 268.550 76.000,268.400 75.812,268.400 75.582 C 268.400 75.352,267.964 74.728,267.431 74.195 C 266.898 73.662,266.346 72.860,266.204 72.413 C 266.062 71.966,265.778 71.600,265.573 71.600 C 265.368 71.600,265.200 71.280,265.200 70.888 C 265.200 70.497,264.840 69.917,264.400 69.600 C 263.960 69.283,263.600 68.793,263.600 68.512 C 263.600 68.230,263.420 68.000,263.200 68.000 C 262.980 68.000,262.800 67.796,262.800 67.547 C 262.800 67.298,262.484 66.803,262.097 66.447 C 261.711 66.091,261.140 65.305,260.830 64.700 C 260.519 64.095,260.115 63.600,259.932 63.600 C 259.750 63.600,259.600 63.392,259.600 63.138 C 259.600 62.884,259.150 62.086,258.600 61.364 C 258.050 60.643,257.600 59.927,257.600 59.774 C 257.600 59.620,257.251 59.191,256.825 58.822 C 256.399 58.452,255.994 57.903,255.925 57.602 C 255.856 57.302,255.305 56.521,254.700 55.868 C 254.095 55.216,253.600 54.504,253.600 54.288 C 253.600 54.071,253.251 53.591,252.825 53.222 C 252.399 52.852,251.994 52.292,251.925 51.978 C 251.856 51.665,251.314 50.937,250.719 50.361 C 250.125 49.786,249.585 49.064,249.519 48.757 C 249.454 48.451,249.130 47.930,248.800 47.600 C 247.871 46.670,245.600 43.678,245.600 43.384 C 245.600 43.239,245.060 42.617,244.400 42.000 C 243.740 41.383,243.200 40.657,243.200 40.386 C 243.200 40.116,242.867 39.603,242.459 39.247 C 242.052 38.891,241.395 37.970,241.000 37.200 C 240.605 36.430,239.948 35.509,239.541 35.153 C 239.133 34.797,238.800 34.304,238.800 34.057 C 238.800 33.809,238.272 33.103,237.628 32.487 C 236.983 31.871,236.398 31.106,236.328 30.787 C 236.257 30.468,235.705 29.729,235.100 29.143 C 234.495 28.558,234.000 27.897,234.000 27.673 C 234.000 27.450,233.460 26.758,232.800 26.135 C 232.140 25.512,231.600 24.849,231.600 24.662 C 231.600 24.474,231.060 23.817,230.400 23.200 C 229.740 22.583,229.200 21.863,229.200 21.600 C 229.200 21.337,228.660 20.617,228.000 20.000 C 227.340 19.383,226.800 18.673,226.800 18.421 C 226.800 18.170,226.395 17.547,225.900 17.037 C 225.405 16.527,224.730 15.705,224.400 15.209 C 223.815 14.330,222.693 12.823,221.716 11.604 C 221.449 11.272,220.509 10.211,219.626 9.247 C 218.742 8.282,217.922 7.186,217.803 6.811 C 217.684 6.435,217.095 5.874,216.493 5.564 C 215.892 5.254,214.923 4.505,214.340 3.900 C 213.756 3.295,212.991 2.800,212.640 2.800 C 212.288 2.800,212.000 2.620,212.000 2.400 C 212.000 2.180,211.640 2.000,211.200 2.000 C 210.760 2.000,210.400 1.820,210.400 1.600 C 210.400 1.380,210.055 1.200,209.633 1.200 C 209.212 1.200,208.792 0.975,208.700 0.700 C 208.533 0.197,195.530 -0.147,192.500 0.271 M255.400 160.597 C 256.500 160.751,257.571 161.040,257.780 161.239 C 257.989 161.437,258.664 161.600,259.280 161.600 C 259.896 161.600,260.400 161.780,260.400 162.000 C 260.400 162.220,260.725 162.400,261.121 162.400 C 263.968 162.400,272.630 168.674,275.481 172.800 C 275.861 173.350,276.493 174.149,276.886 174.575 C 277.279 175.002,277.600 175.572,277.600 175.842 C 277.600 176.112,277.735 176.393,277.900 176.467 C 278.413 176.695,280.455 181.180,281.148 183.600 C 282.231 187.385,282.400 188.620,282.400 192.741 C 282.400 198.436,281.305 203.037,278.832 207.739 L 277.736 209.823 280.117 212.212 C 286.532 218.646,290.814 229.153,290.464 237.600 C 289.719 255.588,277.909 269.839,261.200 272.913 C 258.339 273.440,221.667 273.745,220.600 273.251 C 220.160 273.047,219.202 272.655,218.471 272.380 C 215.814 271.378,213.317 268.259,212.061 264.372 C 211.455 262.493,211.395 170.174,212.000 169.800 C 212.220 169.664,212.400 169.149,212.400 168.655 C 212.400 168.161,212.910 166.953,213.533 165.970 C 215.294 163.193,217.089 161.877,221.000 160.495 C 222.332 160.025,251.951 160.112,255.400 160.597 M147.411 161.643 C 151.578 163.594,154.031 167.136,156.800 175.200 C 157.064 175.970,157.467 177.050,157.694 177.600 C 158.288 179.038,158.654 180.011,159.200 181.600 C 159.464 182.370,159.843 183.405,160.040 183.900 C 160.238 184.395,160.556 185.205,160.746 185.700 C 160.937 186.195,161.280 187.050,161.508 187.600 C 162.137 189.112,164.054 194.204,167.006 202.200 C 168.468 206.160,169.812 209.760,169.993 210.200 C 170.174 210.640,170.717 212.080,171.200 213.400 C 171.683 214.720,172.265 216.250,172.493 216.800 C 173.083 218.223,173.451 219.200,174.000 220.800 C 174.480 222.198,174.799 223.026,175.654 225.100 C 176.292 226.650,176.648 227.591,177.200 229.200 C 177.680 230.598,178.066 231.602,178.777 233.300 C 179.178 234.259,185.854 252.039,187.449 256.398 C 188.433 259.086,188.754 263.693,188.057 265.105 C 186.127 269.015,185.121 270.283,182.800 271.728 C 179.857 273.561,175.821 274.164,173.319 273.144 C 168.341 271.114,166.647 269.409,164.829 264.600 C 163.572 261.274,163.366 260.742,162.893 259.600 C 162.665 259.050,162.078 257.520,161.590 256.200 C 161.101 254.880,160.499 253.305,160.253 252.700 L 159.805 251.600 141.294 251.600 L 122.783 251.600 122.342 252.700 C 122.099 253.305,121.756 254.160,121.580 254.600 C 121.404 255.040,120.518 257.380,119.612 259.800 C 117.177 266.298,116.751 267.269,115.688 268.724 C 114.432 270.447,111.242 272.777,110.124 272.790 C 109.642 272.796,109.136 272.980,109.000 273.200 C 107.881 275.011,99.720 272.606,97.182 269.718 C 94.608 266.788,93.122 259.605,94.657 257.512 C 94.864 257.231,95.263 256.280,95.543 255.400 C 95.823 254.520,96.245 253.350,96.480 252.800 C 96.992 251.601,97.175 251.128,98.726 247.000 C 99.387 245.240,100.949 241.100,102.197 237.800 C 103.444 234.500,105.008 230.360,105.671 228.600 C 107.180 224.593,107.386 224.059,107.946 222.700 C 108.806 220.616,109.125 219.793,110.000 217.400 C 111.035 214.570,111.351 213.743,111.907 212.400 C 112.135 211.850,112.687 210.410,113.133 209.200 C 113.579 207.990,115.137 203.850,116.595 200.000 C 120.727 189.089,121.652 186.661,122.000 185.800 C 122.178 185.360,122.898 183.470,123.600 181.600 C 125.602 176.267,126.198 174.781,126.847 173.505 C 127.041 173.123,127.200 172.536,127.200 172.200 C 127.200 171.864,127.360 171.277,127.556 170.895 C 127.752 170.513,128.337 169.300,128.856 168.200 C 131.949 161.646,140.763 158.531,147.411 161.643 M236.000 193.000 L 236.000 201.200 243.567 201.200 C 251.833 201.200,253.452 200.861,255.617 198.681 C 257.451 196.834,258.769 193.036,258.045 191.684 C 257.800 191.227,257.600 190.522,257.600 190.117 C 257.600 189.029,255.345 186.490,253.577 185.588 C 252.192 184.882,251.203 184.800,244.016 184.800 L 236.000 184.800 236.000 193.000 M140.842 204.076 C 140.645 204.584,140.179 205.810,139.805 206.800 C 139.431 207.790,138.977 208.960,138.796 209.400 C 138.615 209.840,137.821 211.910,137.031 214.000 C 136.241 216.090,134.805 219.870,133.840 222.400 C 132.875 224.930,132.167 227.135,132.266 227.300 C 132.480 227.654,150.155 227.712,150.507 227.360 C 150.747 227.119,150.522 226.450,149.143 223.304 C 148.735 222.372,148.400 221.451,148.400 221.258 C 148.400 220.918,147.715 219.093,145.640 213.900 C 145.443 213.405,145.064 212.370,144.800 211.600 C 143.988 209.236,143.004 206.785,142.353 205.505 C 142.159 205.123,142.000 204.549,142.000 204.229 C 142.000 203.217,141.213 203.113,140.842 204.076 M236.196 226.067 C 236.081 226.366,236.035 231.648,236.094 237.805 L 236.200 249.000 246.175 249.107 C 254.315 249.195,256.493 249.101,258.011 248.596 C 267.861 245.325,268.797 232.001,259.542 226.817 C 257.405 225.621,236.623 224.953,236.196 226.067 M202.305 292.353 C 202.687 292.548,203.540 292.944,204.200 293.233 C 207.099 294.505,210.400 298.080,210.400 299.948 C 210.400 300.391,210.580 300.864,210.800 301.000 C 211.033 301.144,211.200 303.396,211.200 306.400 L 211.200 311.553 215.900 311.718 C 222.955 311.966,224.169 312.370,227.560 315.600 C 229.892 317.822,230.965 320.373,230.984 323.741 C 231.000 326.544,230.200 330.000,229.536 330.000 C 229.351 330.000,229.200 330.233,229.200 330.517 C 229.200 331.100,226.323 333.942,224.800 334.864 C 223.057 335.918,220.180 336.400,215.623 336.400 L 211.200 336.400 211.200 341.805 C 211.200 344.778,211.041 347.523,210.847 347.905 C 210.652 348.287,210.247 349.137,209.947 349.794 C 208.060 353.916,204.013 356.400,199.183 356.400 C 197.646 356.400,196.077 356.240,195.695 356.044 C 195.313 355.849,194.312 355.354,193.472 354.944 C 188.944 352.739,187.465 349.687,187.200 342.000 L 187.000 336.200 181.200 336.000 C 171.801 335.676,167.353 332.260,166.888 325.009 C 166.355 316.707,171.060 312.431,181.106 312.085 C 187.790 311.856,187.126 312.573,187.291 305.400 C 187.438 299.032,189.395 295.355,193.622 293.510 C 194.380 293.179,195.450 292.716,196.000 292.481 C 197.230 291.956,201.359 291.872,202.305 292.353 " stroke="none" fill="#c52c69" fill-rule="evenodd"></path><path id="path2" d="M221.600 161.150 C 217.735 161.988,214.224 165.164,213.055 168.880 C 212.007 172.212,212.237 263.830,213.299 266.085 C 216.153 272.147,219.355 273.208,234.720 273.183 C 257.764 273.146,263.472 272.490,270.193 269.106 C 291.890 258.181,296.323 228.778,278.831 211.819 C 276.874 209.922,276.878 209.970,278.453 206.756 C 287.010 189.294,277.837 167.944,259.400 162.413 C 258.520 162.149,257.260 161.744,256.600 161.515 C 255.178 161.019,223.715 160.691,221.600 161.150 M253.683 184.763 C 260.367 188.179,260.578 196.876,254.071 200.700 C 252.175 201.813,239.356 202.628,236.199 201.836 L 235.200 201.585 235.200 193.072 C 235.200 186.801,235.332 184.426,235.700 184.050 C 236.708 183.023,251.419 183.605,253.683 184.763 M257.481 225.256 C 260.473 226.476,261.181 226.875,262.662 228.173 C 269.590 234.246,267.355 245.890,258.635 249.153 C 256.464 249.965,255.745 250.007,245.867 249.907 L 235.400 249.800 235.294 237.627 C 235.212 228.155,235.300 225.383,235.694 225.133 C 236.509 224.616,256.183 224.727,257.481 225.256 M199.043 293.033 C 198.909 293.381,198.800 307.691,198.800 324.833 L 198.800 356.000 199.785 356.000 C 202.943 356.000,207.609 352.959,209.082 349.940 C 210.367 347.308,210.495 346.623,210.758 341.000 L 211.000 335.800 216.400 335.595 C 225.695 335.242,230.400 331.345,230.400 324.000 C 230.400 316.724,225.633 312.833,216.300 312.490 L 210.800 312.288 210.782 307.844 C 210.749 299.373,207.806 294.548,201.691 292.934 C 199.261 292.293,199.328 292.291,199.043 293.033 " stroke="none" fill="#ffffff" fill-rule="evenodd"></path><path id="path3" d="M229.273 160.699 C 233.604 160.764,240.804 160.764,245.273 160.700 C 249.743 160.635,246.200 160.582,237.400 160.582 C 228.600 160.582,224.943 160.635,229.273 160.699 M139.891 161.089 C 140.601 161.177,141.861 161.179,142.691 161.092 C 143.521 161.005,142.940 160.933,141.400 160.931 C 139.860 160.929,139.181 161.000,139.891 161.089 M219.400 161.200 C 219.108 161.673,219.499 161.673,220.600 161.200 C 221.371 160.869,221.369 160.855,220.524 160.828 C 220.042 160.813,219.536 160.980,219.400 161.200 M254.033 160.944 C 254.125 161.024,255.010 161.206,256.000 161.350 C 257.258 161.533,257.619 161.491,257.200 161.212 C 256.660 160.853,253.632 160.597,254.033 160.944 M215.568 163.968 C 214.266 165.270,213.211 166.575,213.224 166.868 C 213.237 167.178,213.446 167.067,213.724 166.602 C 214.339 165.571,217.171 162.739,218.202 162.124 C 218.667 161.846,218.778 161.637,218.468 161.624 C 218.175 161.611,216.870 162.666,215.568 163.968 M258.033 161.744 C 258.125 161.823,258.740 162.008,259.400 162.156 C 260.276 162.352,260.438 162.315,260.000 162.018 C 259.460 161.653,257.632 161.398,258.033 161.744 M267.000 165.757 C 268.502 166.724,270.991 168.749,272.531 170.257 C 274.082 171.778,274.942 172.435,274.460 171.732 C 273.002 169.606,265.922 164.000,264.694 164.000 C 264.460 164.000,265.498 164.791,267.000 165.757 M211.850 171.250 C 211.490 173.049,211.635 261.165,212.000 262.600 C 212.168 263.260,212.327 242.695,212.353 216.900 C 212.379 191.105,212.332 170.000,212.250 170.000 C 212.168 170.000,211.988 170.563,211.850 171.250 M276.142 174.500 C 277.452 176.233,279.373 180.105,280.218 182.716 C 280.594 183.879,280.998 184.735,281.115 184.618 C 281.794 183.940,276.501 173.221,275.480 173.205 C 275.303 173.202,275.601 173.785,276.142 174.500 M235.867 184.267 C 235.497 184.637,235.529 201.600,235.900 201.600 C 236.065 201.601,236.148 197.734,236.085 193.009 L 235.970 184.417 243.685 184.300 L 251.400 184.182 243.767 184.091 C 239.568 184.041,236.013 184.120,235.867 184.267 M255.154 186.276 C 255.899 186.863,256.924 188.256,257.431 189.371 C 258.337 191.364,258.768 191.419,258.018 189.447 C 257.548 188.211,254.875 185.198,254.253 185.204 C 254.004 185.207,254.409 185.689,255.154 186.276 M281.280 186.400 C 281.280 186.950,281.424 187.850,281.600 188.400 L 281.920 189.400 281.920 188.400 C 281.920 187.850,281.776 186.950,281.600 186.400 L 281.280 185.400 281.280 186.400 M282.131 193.000 C 282.133 194.540,282.205 195.121,282.292 194.291 C 282.379 193.461,282.377 192.201,282.289 191.491 C 282.200 190.781,282.129 191.460,282.131 193.000 M258.493 192.800 C 258.493 193.570,258.575 193.885,258.676 193.500 C 258.776 193.115,258.776 192.485,258.676 192.100 C 258.575 191.715,258.493 192.030,258.493 192.800 M257.833 195.479 C 257.369 197.546,254.920 199.953,252.400 200.818 C 251.137 201.252,250.590 201.579,251.116 201.587 C 253.926 201.627,259.002 196.740,258.287 194.682 C 258.195 194.417,257.991 194.776,257.833 195.479 M281.382 198.182 C 281.229 199.202,281.194 200.127,281.304 200.237 C 281.414 200.347,281.629 199.602,281.782 198.582 C 281.935 197.561,281.970 196.637,281.860 196.527 C 281.750 196.417,281.535 197.161,281.382 198.182 M280.587 202.058 C 280.271 203.496,280.302 203.421,278.438 207.269 L 277.145 209.938 279.588 212.420 C 282.407 215.283,283.988 217.468,286.085 221.400 C 286.907 222.940,287.581 224.020,287.584 223.800 C 287.603 222.240,283.270 215.779,279.512 211.765 L 277.607 209.730 278.770 207.565 C 280.060 205.166,281.421 201.287,281.089 200.956 C 280.972 200.839,280.746 201.335,280.587 202.058 M236.094 225.133 C 235.700 225.383,235.612 228.155,235.694 237.627 L 235.800 249.800 245.316 249.907 C 250.550 249.966,255.410 249.847,256.116 249.641 C 256.977 249.391,253.906 249.290,246.800 249.334 L 236.200 249.400 236.200 237.400 L 236.200 225.400 245.400 225.189 L 254.600 224.977 245.600 224.895 C 240.650 224.849,236.372 224.957,236.094 225.133 M256.800 225.651 C 261.143 226.991,264.133 229.615,265.567 233.343 C 266.002 234.474,266.366 235.130,266.375 234.800 C 266.468 231.497,260.917 225.992,256.930 225.433 L 255.400 225.218 256.800 225.651 M150.832 227.093 L 150.800 227.986 141.300 228.100 L 131.800 228.215 141.313 228.308 C 151.226 228.404,151.716 228.324,151.069 226.713 C 150.956 226.431,150.849 226.602,150.832 227.093 M288.434 227.200 C 288.446 227.530,288.611 228.160,288.800 228.600 L 289.144 229.400 289.166 228.600 C 289.178 228.160,289.013 227.530,288.800 227.200 C 288.455 226.667,288.415 226.667,288.434 227.200 M289.488 231.800 C 289.611 233.120,289.776 234.275,289.856 234.367 C 290.135 234.689,289.916 231.388,289.593 230.400 C 289.389 229.779,289.349 230.309,289.488 231.800 M265.852 240.657 C 265.689 241.348,265.004 242.783,264.331 243.845 C 263.657 244.907,263.411 245.523,263.784 245.213 C 264.741 244.419,266.476 240.867,266.297 240.068 C 266.206 239.656,266.035 239.881,265.852 240.657 M289.672 241.250 C 289.632 242.048,289.505 243.308,289.389 244.050 C 289.197 245.285,289.215 245.316,289.608 244.415 C 289.844 243.874,289.971 242.614,289.891 241.615 C 289.762 240.018,289.736 239.975,289.672 241.250 M288.846 246.067 C 288.821 246.434,288.696 247.064,288.570 247.467 C 288.352 248.162,288.363 248.163,288.797 247.487 C 289.048 247.096,289.173 246.466,289.073 246.087 C 288.911 245.468,288.888 245.466,288.846 246.067 M261.949 246.665 C 261.647 247.031,260.620 247.676,259.667 248.098 C 258.713 248.521,258.021 248.954,258.128 249.061 C 258.432 249.365,261.315 247.779,262.162 246.843 C 262.581 246.379,262.828 246.000,262.711 246.000 C 262.594 246.000,262.251 246.299,261.949 246.665 M286.583 252.446 C 284.664 256.726,280.151 262.485,276.639 265.135 C 276.000 265.617,275.569 266.103,275.681 266.214 C 276.835 267.368,288.114 252.941,287.499 251.097 C 287.426 250.879,287.014 251.486,286.583 252.446 M94.514 261.400 C 94.517 262.500,94.595 262.903,94.687 262.295 C 94.779 261.686,94.777 260.786,94.682 260.295 C 94.587 259.803,94.511 260.300,94.514 261.400 M212.428 265.076 C 212.413 265.558,212.580 266.064,212.800 266.200 C 213.273 266.492,213.273 266.101,212.800 265.000 C 212.469 264.229,212.455 264.231,212.428 265.076 M213.221 267.009 C 213.160 268.206,218.324 272.827,219.672 272.782 C 219.962 272.773,219.543 272.418,218.740 271.993 C 217.136 271.146,214.950 269.158,213.910 267.600 C 213.543 267.050,213.233 266.784,213.221 267.009 M269.400 269.622 C 267.640 270.477,266.429 271.181,266.710 271.188 C 267.290 271.202,272.800 268.494,272.800 268.195 C 272.800 267.949,273.128 267.812,269.400 269.622 M167.200 268.525 C 167.200 268.594,167.785 269.179,168.500 269.825 L 169.800 271.000 168.625 269.700 C 167.530 268.488,167.200 268.216,167.200 268.525 M261.200 272.400 L 260.200 272.720 261.200 272.754 C 261.750 272.773,262.470 272.613,262.800 272.400 C 263.564 271.906,262.742 271.906,261.200 272.400 M221.339 273.294 C 221.897 273.650,256.507 273.611,258.182 273.253 C 258.832 273.114,250.704 273.000,240.121 273.000 C 229.537 273.000,221.086 273.132,221.339 273.294 M198.833 292.143 C 198.925 292.222,199.720 292.397,200.600 292.532 C 201.690 292.699,202.009 292.655,201.600 292.395 C 201.053 292.046,198.445 291.809,198.833 292.143 M207.037 295.604 C 208.692 297.473,209.863 299.226,210.107 300.200 C 210.281 300.895,210.313 300.904,210.354 300.272 C 210.410 299.391,208.514 296.574,206.942 295.204 C 205.833 294.237,205.836 294.248,207.037 295.604 M210.717 306.336 C 210.870 313.008,210.357 312.415,215.887 312.314 L 220.600 312.228 215.900 312.101 L 211.200 311.975 211.194 307.087 C 211.191 304.399,211.056 301.991,210.894 301.736 C 210.732 301.481,210.652 303.551,210.717 306.336 M178.900 312.697 C 180.385 312.774,182.815 312.774,184.300 312.697 C 185.785 312.620,184.570 312.557,181.600 312.557 C 178.630 312.557,177.415 312.620,178.900 312.697 M224.568 313.724 C 226.470 314.903,228.591 317.142,229.283 318.700 C 230.214 320.799,230.637 320.961,229.805 318.900 C 229.176 317.344,225.126 313.182,224.281 313.224 C 224.017 313.236,224.146 313.461,224.568 313.724 M230.532 324.000 C 230.532 326.529,230.599 326.965,230.793 325.700 C 230.936 324.765,230.936 323.235,230.793 322.300 C 230.599 321.035,230.532 321.471,230.532 324.000 M228.300 330.979 C 227.695 331.737,227.200 332.482,227.200 332.634 C 227.200 332.786,227.740 332.231,228.400 331.400 C 229.511 330.002,229.757 329.600,229.500 329.600 C 229.445 329.600,228.905 330.220,228.300 330.979 M225.600 333.600 C 225.050 334.030,224.797 334.386,225.038 334.391 C 225.279 334.396,225.802 334.040,226.200 333.600 C 227.112 332.592,226.888 332.592,225.600 333.600 M220.800 335.600 C 219.996 335.857,219.957 335.923,220.600 335.932 C 221.040 335.938,221.760 335.789,222.200 335.600 C 223.219 335.162,222.168 335.162,220.800 335.600 M210.886 341.081 C 210.839 343.986,210.595 346.866,210.344 347.481 C 209.095 350.544,208.704 351.190,207.236 352.615 C 206.364 353.461,205.054 354.472,204.325 354.860 C 203.596 355.249,203.194 355.574,203.431 355.583 C 204.213 355.614,207.396 353.273,208.406 351.924 C 210.813 348.711,211.271 346.825,211.108 340.800 L 210.973 335.800 210.886 341.081 M189.600 351.325 C 189.600 351.394,190.185 351.979,190.900 352.625 L 192.200 353.800 191.025 352.500 C 189.930 351.288,189.600 351.016,189.600 351.325 M200.200 356.000 L 198.200 356.274 200.076 356.337 C 201.108 356.372,202.064 356.220,202.200 356.000 C 202.336 355.780,202.392 355.628,202.324 355.663 C 202.256 355.697,201.300 355.849,200.200 356.000 " stroke="none" fill="#ea88af" fill-rule="evenodd"></path><path id="path4" d="M229.474 160.299 C 233.694 160.364,240.714 160.364,245.074 160.300 C 249.433 160.235,245.980 160.182,237.400 160.182 C 228.820 160.182,225.253 160.235,229.474 160.299 M142.051 160.772 C 146.951 161.293,151.272 163.859,153.056 167.309 C 153.388 167.950,153.753 168.380,153.868 168.265 C 154.269 167.865,151.518 164.346,149.865 163.144 C 147.310 161.287,145.683 160.745,142.200 160.590 L 139.000 160.448 142.051 160.772 M136.590 161.216 C 136.421 161.489,136.723 161.538,137.466 161.360 C 138.999 160.992,139.144 160.800,137.890 160.800 C 137.317 160.800,136.732 160.987,136.590 161.216 M134.115 162.386 C 132.059 163.640,129.875 166.058,128.856 168.208 C 128.337 169.304,127.752 170.513,127.556 170.895 C 127.360 171.277,127.206 171.907,127.213 172.295 C 127.220 172.683,127.767 171.719,128.429 170.153 C 129.827 166.847,131.829 164.344,134.363 162.737 C 136.362 161.470,136.138 161.153,134.115 162.386 M215.178 163.900 L 213.800 165.400 215.300 164.022 C 216.696 162.738,216.984 162.400,216.678 162.400 C 216.612 162.400,215.937 163.075,215.178 163.900 M154.800 170.920 C 154.800 171.012,155.537 173.047,156.437 175.443 C 157.338 177.840,158.576 181.150,159.189 182.800 C 159.802 184.450,160.792 187.060,161.391 188.600 C 161.989 190.140,163.000 192.795,163.639 194.500 C 166.501 202.141,167.297 204.252,167.602 205.000 C 167.781 205.440,168.038 206.141,168.173 206.557 C 168.308 206.974,168.509 207.224,168.620 207.114 C 168.797 206.936,167.736 203.974,163.134 191.800 C 162.468 190.040,161.737 188.150,161.508 187.600 C 161.280 187.050,160.961 186.240,160.800 185.800 C 160.639 185.360,160.321 184.550,160.094 184.000 C 159.867 183.450,159.464 182.370,159.200 181.600 C 158.727 180.223,158.365 179.280,157.626 177.500 C 157.421 177.005,157.024 175.880,156.745 175.000 C 156.465 174.120,156.093 173.229,155.918 173.020 C 155.743 172.811,155.600 172.327,155.600 171.944 C 155.600 171.561,155.420 171.136,155.200 171.000 C 154.980 170.864,154.800 170.828,154.800 170.920 M126.573 173.843 C 126.438 174.259,126.140 175.050,125.910 175.600 C 125.386 176.857,125.171 177.415,123.600 181.600 C 122.898 183.470,122.178 185.360,122.000 185.800 C 121.652 186.661,120.727 189.089,116.595 200.000 C 115.137 203.850,113.573 207.951,113.119 209.114 C 112.666 210.277,112.374 211.307,112.470 211.404 C 112.566 211.500,113.681 208.838,114.948 205.489 C 116.214 202.140,117.959 197.555,118.825 195.300 C 119.691 193.045,121.102 189.355,121.961 187.100 C 122.820 184.845,124.358 180.863,125.380 178.252 C 126.401 175.640,127.143 173.410,127.028 173.295 C 126.913 173.180,126.708 173.426,126.573 173.843 M239.900 184.698 C 242.155 184.770,245.845 184.770,248.100 184.698 C 250.355 184.627,248.510 184.569,244.000 184.569 C 239.490 184.569,237.645 184.627,239.900 184.698 M282.101 189.000 C 282.105 189.880,282.187 190.193,282.283 189.695 C 282.379 189.198,282.375 188.478,282.275 188.095 C 282.175 187.713,282.096 188.120,282.101 189.000 M282.093 196.800 C 282.093 197.570,282.175 197.885,282.276 197.500 C 282.376 197.115,282.376 196.485,282.276 196.100 C 282.175 195.715,282.093 196.030,282.093 196.800 M239.680 201.498 C 241.594 201.571,244.834 201.571,246.880 201.498 C 248.926 201.426,247.360 201.366,243.400 201.365 C 239.440 201.365,237.766 201.424,239.680 201.498 M140.076 204.855 C 139.588 206.212,139.255 207.389,139.337 207.470 C 139.418 207.551,139.804 206.759,140.195 205.709 C 141.082 203.324,141.501 202.842,141.823 203.833 C 141.960 204.255,142.220 204.960,142.400 205.400 C 142.580 205.840,142.838 206.541,142.973 206.957 C 143.108 207.374,143.313 207.620,143.428 207.505 C 143.726 207.207,141.857 202.686,141.369 202.523 C 141.146 202.449,140.564 203.498,140.076 204.855 M168.812 208.000 C 168.812 208.330,168.987 208.870,169.200 209.200 C 169.545 209.733,169.588 209.733,169.588 209.200 C 169.588 208.870,169.413 208.330,169.200 208.000 C 168.855 207.467,168.812 207.467,168.812 208.000 M137.020 212.820 C 136.410 214.374,135.993 215.726,136.092 215.825 C 136.191 215.924,136.770 214.734,137.380 213.180 C 137.990 211.626,138.407 210.274,138.308 210.175 C 138.209 210.076,137.630 211.266,137.020 212.820 M144.439 210.200 C 144.400 210.782,145.396 213.532,145.776 213.893 C 145.954 214.062,145.965 213.750,145.800 213.200 C 145.346 211.681,144.469 209.748,144.439 210.200 M111.773 212.643 C 111.638 213.059,111.381 213.760,111.203 214.200 C 111.024 214.640,110.483 216.080,110.000 217.400 C 108.818 220.632,108.285 222.009,107.292 224.400 C 107.063 224.950,106.334 226.840,105.671 228.600 C 105.008 230.360,103.440 234.464,102.187 237.721 C 100.934 240.978,99.990 243.724,100.090 243.824 C 100.190 243.923,100.765 242.699,101.368 241.102 C 102.629 237.767,102.933 236.984,103.508 235.600 C 103.737 235.050,104.463 233.160,105.122 231.400 C 106.796 226.931,109.258 220.479,110.979 216.052 C 111.781 213.990,112.343 212.209,112.228 212.094 C 112.113 211.979,111.908 212.226,111.773 212.643 M170.650 212.800 C 171.025 214.305,171.934 216.284,171.938 215.600 C 171.939 215.270,171.594 214.280,171.171 213.400 C 170.748 212.520,170.514 212.250,170.650 212.800 M134.817 218.692 C 133.252 222.705,131.600 227.310,131.600 227.662 C 131.600 227.848,135.920 228.000,141.200 228.000 C 146.480 228.000,150.800 227.865,150.800 227.700 C 150.801 227.535,146.721 227.452,141.735 227.515 C 136.749 227.578,132.538 227.488,132.376 227.315 C 132.214 227.142,132.972 224.684,134.060 221.852 C 135.148 219.021,135.966 216.633,135.878 216.544 C 135.789 216.456,135.312 217.422,134.817 218.692 M146.862 216.800 C 146.861 217.130,147.206 218.120,147.629 219.000 C 148.052 219.880,148.286 220.150,148.150 219.600 C 147.775 218.095,146.866 216.116,146.862 216.800 M173.001 219.174 C 173.456 220.650,174.367 222.653,174.378 222.200 C 174.393 221.589,173.391 218.855,173.024 218.507 C 172.846 218.338,172.836 218.638,173.001 219.174 M148.428 221.051 C 148.388 221.694,149.610 224.524,149.832 224.302 C 149.934 224.200,149.666 223.325,149.237 222.358 C 148.808 221.391,148.444 220.803,148.428 221.051 M174.400 222.974 C 174.400 223.095,175.047 224.861,175.839 226.897 C 176.630 228.934,177.800 231.995,178.439 233.700 C 181.329 241.414,182.098 243.453,182.400 244.200 C 182.578 244.640,183.265 246.440,183.927 248.200 C 186.903 256.118,187.338 257.195,187.495 257.039 C 187.586 256.947,186.546 253.931,185.184 250.336 C 183.821 246.741,181.907 241.640,180.930 239.000 C 179.953 236.360,178.960 233.750,178.723 233.200 C 178.164 231.900,177.790 230.918,177.200 229.200 C 176.618 227.507,176.029 226.040,175.553 225.105 C 175.359 224.723,175.200 224.149,175.200 223.829 C 175.200 223.509,175.020 223.136,174.800 223.000 C 174.580 222.864,174.400 222.852,174.400 222.974 M150.012 225.200 C 150.012 225.530,150.187 226.070,150.400 226.400 C 150.745 226.933,150.788 226.933,150.788 226.400 C 150.788 226.070,150.613 225.530,150.400 225.200 C 150.055 224.667,150.012 224.667,150.012 225.200 M236.262 225.500 C 236.161 225.665,240.734 225.800,246.426 225.800 C 252.117 225.800,256.465 225.678,256.087 225.528 C 255.141 225.154,236.492 225.127,236.262 225.500 M266.124 237.400 C 266.126 238.720,266.201 239.212,266.290 238.493 C 266.379 237.774,266.377 236.694,266.286 236.093 C 266.195 235.492,266.122 236.080,266.124 237.400 M290.093 239.200 C 290.093 239.970,290.175 240.285,290.276 239.900 C 290.376 239.515,290.376 238.885,290.276 238.500 C 290.175 238.115,290.093 238.430,290.093 239.200 M98.620 247.220 C 98.010 248.774,97.593 250.126,97.692 250.225 C 97.791 250.324,98.370 249.134,98.980 247.580 C 99.590 246.026,100.007 244.674,99.908 244.575 C 99.809 244.476,99.230 245.666,98.620 247.220 M236.349 249.310 C 236.520 249.481,239.617 249.570,243.230 249.509 L 249.800 249.398 242.919 249.199 C 239.134 249.090,236.178 249.140,236.349 249.310 M122.251 252.100 C 121.577 253.169,120.955 255.138,121.436 254.681 C 121.621 254.505,121.958 253.785,122.186 253.081 L 122.600 251.800 141.252 251.696 L 159.905 251.592 160.136 252.479 C 160.264 252.966,160.480 253.253,160.617 253.117 C 160.753 252.980,160.664 252.493,160.418 252.034 C 159.976 251.207,159.817 251.200,141.395 251.200 L 122.818 251.200 122.251 252.100 M96.172 253.443 C 96.036 253.859,95.738 254.701,95.509 255.313 C 95.280 255.925,95.186 256.520,95.301 256.635 C 95.416 256.749,95.800 255.993,96.154 254.954 C 96.508 253.915,96.712 252.979,96.608 252.875 C 96.504 252.771,96.308 253.026,96.172 253.443 M160.800 253.880 C 160.800 254.107,161.144 255.172,161.565 256.247 C 161.985 257.321,162.440 258.541,162.574 258.957 C 162.709 259.374,162.912 259.622,163.025 259.508 C 163.139 259.395,162.769 258.074,162.204 256.573 C 161.171 253.827,160.800 253.116,160.800 253.880 M119.820 258.020 C 119.210 259.574,118.793 260.926,118.892 261.025 C 118.991 261.124,119.570 259.934,120.180 258.380 C 120.790 256.826,121.207 255.474,121.108 255.375 C 121.009 255.276,120.430 256.466,119.820 258.020 M94.667 257.467 C 94.520 257.613,94.415 258.198,94.434 258.767 C 94.468 259.781,94.475 259.779,94.821 258.620 C 95.185 257.403,95.131 257.002,94.667 257.467 M187.800 261.400 C 187.800 263.447,187.935 265.040,188.100 264.938 C 188.487 264.699,188.481 258.747,188.094 258.138 C 187.932 257.884,187.800 259.352,187.800 261.400 M94.093 261.600 C 94.093 262.370,94.175 262.685,94.276 262.300 C 94.376 261.915,94.376 261.285,94.276 260.900 C 94.175 260.515,94.093 260.830,94.093 261.600 M117.810 263.491 C 116.266 267.667,114.069 270.503,111.200 272.023 C 110.430 272.431,110.070 272.768,110.400 272.772 C 112.895 272.805,120.124 263.191,118.686 261.753 C 118.592 261.659,118.198 262.441,117.810 263.491 M211.606 262.433 C 211.609 262.965,211.789 263.670,212.006 264.000 C 212.282 264.422,212.323 264.185,212.142 263.200 C 211.825 261.475,211.598 261.149,211.606 262.433 M279.381 263.300 L 277.800 265.000 279.500 263.419 C 281.081 261.948,281.384 261.600,281.081 261.600 C 281.016 261.600,280.251 262.365,279.381 263.300 M164.000 262.347 C 164.000 265.179,167.863 270.559,171.146 272.299 C 173.092 273.330,172.919 272.746,170.942 271.612 C 168.292 270.092,166.660 268.082,165.336 264.708 C 164.329 262.141,164.000 261.560,164.000 262.347 M94.441 264.062 C 94.327 267.019,99.410 272.857,102.035 272.784 C 102.346 272.776,102.034 272.522,101.342 272.221 C 98.492 270.981,95.557 267.396,94.775 264.200 C 94.486 263.019,94.481 263.017,94.441 264.062 M186.827 266.734 C 186.142 268.389,183.641 270.949,181.719 271.963 C 180.884 272.404,180.470 272.772,180.800 272.780 C 182.449 272.823,187.938 267.214,187.508 265.924 C 187.423 265.670,187.117 266.035,186.827 266.734 M103.338 273.294 C 103.946 273.681,108.700 273.686,108.938 273.300 C 109.040 273.135,107.718 273.000,106.000 273.000 C 104.282 273.000,103.084 273.132,103.338 273.294 M173.738 273.294 C 173.992 273.456,175.280 273.588,176.600 273.588 C 177.920 273.588,179.208 273.456,179.462 273.294 C 179.716 273.132,178.428 273.000,176.600 273.000 C 174.772 273.000,173.484 273.132,173.738 273.294 M196.000 292.481 C 195.450 292.716,194.380 293.179,193.622 293.510 C 189.395 295.355,187.438 299.032,187.291 305.400 C 187.126 312.589,187.620 311.951,182.096 312.108 L 177.400 312.241 182.400 312.221 L 187.400 312.200 187.600 306.600 C 187.913 297.847,189.819 294.981,196.800 292.770 C 198.175 292.334,198.625 292.069,198.000 292.064 C 197.450 292.058,196.550 292.246,196.000 292.481 M206.400 294.525 C 206.400 294.594,206.985 295.179,207.700 295.825 L 209.000 297.000 207.825 295.700 C 206.730 294.488,206.400 294.216,206.400 294.525 M212.200 311.852 C 214.970 312.138,221.090 312.177,220.663 311.906 C 220.408 311.744,218.130 311.638,215.600 311.670 C 213.070 311.702,211.540 311.784,212.200 311.852 M173.094 313.467 C 168.991 315.672,166.746 319.604,166.866 324.371 L 166.932 327.000 167.210 324.000 C 167.760 318.057,170.063 314.861,175.138 312.994 C 176.020 312.670,176.283 312.453,175.800 312.449 C 175.360 312.445,174.142 312.903,173.094 313.467 M167.220 327.520 C 167.168 328.877,170.361 333.123,172.157 334.084 C 172.611 334.327,172.080 333.643,170.977 332.563 C 169.874 331.483,168.582 329.790,168.106 328.800 C 167.629 327.810,167.231 327.234,167.220 327.520 M173.200 334.610 C 173.200 335.290,176.113 335.790,181.200 335.981 L 187.000 336.200 187.200 342.000 C 187.417 348.285,187.940 350.115,190.205 352.513 C 191.427 353.807,194.156 355.602,194.892 355.596 C 195.171 355.594,194.500 355.073,193.400 354.439 C 188.773 351.770,187.600 349.190,187.600 341.685 C 187.600 335.062,188.148 335.607,181.467 335.582 C 178.277 335.571,176.049 335.366,175.000 334.988 C 173.157 334.325,173.200 334.334,173.200 334.610 M223.600 335.033 C 223.042 335.343,222.865 335.585,223.200 335.581 C 223.530 335.578,224.149 335.310,224.576 334.987 C 225.539 334.259,224.945 334.287,223.600 335.033 M213.500 336.296 C 214.875 336.374,217.125 336.374,218.500 336.296 C 219.875 336.218,218.750 336.154,216.000 336.154 C 213.250 336.154,212.125 336.218,213.500 336.296 M195.800 356.000 C 195.936 356.220,196.622 356.382,197.324 356.360 C 198.543 356.322,198.555 356.306,197.600 356.000 C 196.164 355.540,195.516 355.540,195.800 356.000 " stroke="none" fill="#fcb8b8" fill-rule="evenodd"></path></g></svg>