<svg id="svg" version="1.1" xmlns="http://www.w3.org/2000/svg" xmlns:xlink="http://www.w3.org/1999/xlink" width="400" height="400" viewBox="0, 0, 400,400"><g id="svgg"><path id="path0" d="M138.984 161.162 C 134.365 161.933,130.504 165.532,128.432 171.000 C 127.931 172.320,127.377 173.760,127.199 174.200 C 127.022 174.640,126.302 176.530,125.600 178.400 C 124.898 180.270,124.161 182.205,123.962 182.700 C 123.763 183.195,123.438 184.005,123.239 184.500 C 123.040 184.995,122.518 186.390,122.079 187.600 C 121.639 188.810,120.730 191.240,120.058 193.000 C 119.387 194.760,117.469 199.800,115.797 204.200 C 110.648 217.750,110.334 218.576,110.001 219.400 C 109.823 219.840,109.283 221.280,108.800 222.600 C 107.978 224.848,107.766 225.397,106.837 227.700 C 105.869 230.099,104.271 234.307,103.989 235.200 C 103.816 235.750,102.289 239.800,100.598 244.200 C 98.906 248.600,97.375 252.650,97.197 253.200 C 97.019 253.750,96.406 255.459,95.836 256.998 C 91.440 268.870,105.137 278.363,114.134 269.680 C 116.078 267.804,116.592 266.781,119.397 259.200 C 120.659 255.790,121.945 252.595,122.255 252.100 L 122.818 251.200 141.542 251.200 L 160.265 251.200 160.694 252.100 C 160.931 252.595,161.666 254.440,162.329 256.200 C 162.992 257.960,164.215 261.200,165.046 263.400 C 168.708 273.087,177.448 276.033,184.262 269.877 C 189.059 265.544,189.072 262.002,184.339 249.600 C 183.457 247.290,182.373 244.410,181.929 243.200 C 180.964 240.569,180.640 239.722,180.094 238.400 C 179.867 237.850,179.464 236.770,179.200 236.000 C 178.936 235.230,178.557 234.195,178.360 233.700 C 178.162 233.205,177.838 232.395,177.639 231.900 C 177.440 231.405,176.883 229.920,176.400 228.600 C 175.917 227.280,175.377 225.840,175.199 225.400 C 174.832 224.491,173.319 220.477,170.600 213.200 C 167.881 205.923,166.368 201.909,166.001 201.000 C 165.823 200.560,165.283 199.120,164.800 197.800 C 163.772 194.989,163.454 194.155,162.894 192.800 C 162.667 192.250,162.264 191.170,162.000 190.400 C 161.736 189.630,161.375 188.640,161.199 188.200 C 161.022 187.760,160.483 186.320,160.000 185.000 C 159.517 183.680,158.973 182.240,158.791 181.800 C 158.609 181.360,157.719 179.020,156.813 176.600 C 153.640 168.125,153.123 167.088,151.018 164.985 C 147.785 161.755,143.529 160.403,138.984 161.162 M251.500 161.082 C 251.995 161.178,252.805 161.178,253.300 161.082 C 253.795 160.987,253.390 160.909,252.400 160.909 C 251.410 160.909,251.005 160.987,251.500 161.082 M216.887 163.100 C 215.930 164.035,215.914 164.081,216.781 163.406 C 218.488 162.076,218.569 162.000,218.286 162.000 C 218.136 162.000,217.506 162.495,216.887 163.100 M272.000 170.200 C 273.195 171.410,274.263 172.400,274.373 172.400 C 274.483 172.400,273.595 171.410,272.400 170.200 C 271.205 168.990,270.137 168.000,270.027 168.000 C 269.917 168.000,270.805 168.990,272.000 170.200 M235.680 184.080 C 235.331 184.429,235.224 186.906,235.288 193.180 L 235.376 201.800 235.588 193.000 L 235.800 184.200 243.200 183.986 L 250.600 183.773 243.380 183.686 C 238.197 183.624,236.025 183.735,235.680 184.080 M258.514 193.000 C 258.517 194.100,258.595 194.503,258.687 193.895 C 258.779 193.286,258.777 192.386,258.682 191.895 C 258.587 191.403,258.511 191.900,258.514 193.000 M281.701 193.000 C 281.705 193.880,281.787 194.193,281.883 193.695 C 281.979 193.198,281.975 192.478,281.875 192.095 C 281.775 191.713,281.696 192.120,281.701 193.000 M239.500 201.898 C 241.535 201.971,244.865 201.971,246.900 201.898 C 248.935 201.825,247.270 201.766,243.200 201.766 C 239.130 201.766,237.465 201.825,239.500 201.898 M142.577 203.900 C 142.954 204.945,143.412 206.160,143.594 206.600 C 144.579 208.972,147.146 215.823,150.211 224.261 L 151.540 227.922 150.670 228.156 C 149.292 228.525,132.659 228.425,132.057 228.044 C 131.519 227.703,131.620 226.798,132.395 225.000 C 132.731 224.222,133.921 221.081,137.774 210.800 C 138.805 208.050,139.818 205.487,140.024 205.105 C 140.231 204.723,140.400 204.151,140.400 203.834 C 140.400 203.345,141.408 202.000,141.774 202.000 C 141.839 202.000,142.200 202.855,142.577 203.900 M279.600 212.925 C 279.600 212.994,280.185 213.579,280.900 214.225 L 282.200 215.400 281.025 214.100 C 279.930 212.888,279.600 212.616,279.600 212.925 M235.467 225.067 C 235.097 225.437,235.129 249.509,235.500 249.738 C 235.665 249.841,235.750 244.364,235.689 237.569 L 235.578 225.213 246.089 225.100 L 256.600 224.986 246.167 224.893 C 240.428 224.842,235.613 224.920,235.467 225.067 M266.514 237.400 C 266.517 238.500,266.595 238.903,266.687 238.295 C 266.779 237.686,266.777 236.786,266.682 236.295 C 266.587 235.803,266.511 236.300,266.514 237.400 M214.400 268.525 C 214.400 268.594,214.985 269.179,215.700 269.825 L 217.000 271.000 215.825 269.700 C 214.730 268.488,214.400 268.216,214.400 268.525 M249.900 273.095 C 251.055 273.176,252.945 273.176,254.100 273.095 C 255.255 273.014,254.310 272.948,252.000 272.948 C 249.690 272.948,248.745 273.014,249.900 273.095 M176.200 309.380 C 168.723 311.600,165.364 318.468,168.462 325.200 C 169.019 326.410,170.088 327.997,170.837 328.727 C 172.104 329.960,172.753 330.335,175.719 331.544 C 176.464 331.848,180.542 332.000,187.919 332.000 L 199.000 332.000 199.000 320.400 L 199.000 308.800 188.400 308.852 C 181.529 308.886,177.237 309.072,176.200 309.380 M204.300 332.299 C 206.995 332.368,211.405 332.368,214.100 332.299 C 216.795 332.230,214.590 332.173,209.200 332.173 C 203.810 332.173,201.605 332.230,204.300 332.299 " stroke="none" fill="#ffffff" fill-rule="evenodd"></path><path id="path1" d="M192.500 0.271 C 191.785 0.370,191.200 0.619,191.200 0.825 C 191.200 1.031,190.840 1.200,190.400 1.200 C 189.960 1.200,189.600 1.380,189.600 1.600 C 189.600 1.820,189.240 2.000,188.800 2.000 C 188.360 2.000,188.000 2.180,188.000 2.400 C 188.000 2.620,187.712 2.800,187.360 2.800 C 187.009 2.800,186.244 3.308,185.660 3.929 C 185.077 4.550,184.105 5.381,183.500 5.775 C 182.895 6.169,182.400 6.665,182.400 6.877 C 182.400 7.089,181.680 7.954,180.800 8.800 C 179.920 9.646,179.200 10.531,179.200 10.769 C 179.200 11.006,179.020 11.200,178.800 11.200 C 178.580 11.200,178.445 11.335,178.500 11.500 C 178.555 11.665,178.420 11.860,178.200 11.932 C 177.786 12.069,176.468 13.972,176.422 14.498 C 176.408 14.662,175.857 15.312,175.198 15.941 C 174.539 16.571,174.000 17.310,174.000 17.583 C 174.000 17.856,173.460 18.583,172.800 19.200 C 172.140 19.817,171.600 20.485,171.600 20.685 C 171.600 20.885,171.285 21.398,170.900 21.825 C 170.515 22.251,169.390 23.590,168.400 24.800 C 167.410 26.010,166.465 27.060,166.300 27.133 C 166.135 27.207,166.000 27.433,166.000 27.637 C 166.000 27.841,165.460 28.572,164.800 29.263 C 164.140 29.954,163.600 30.696,163.600 30.912 C 163.600 31.129,163.212 31.642,162.739 32.053 C 162.265 32.464,162.002 32.800,162.155 32.800 C 162.307 32.800,162.241 33.025,162.008 33.300 C 160.483 35.102,159.864 35.927,159.095 37.182 C 158.617 37.962,157.905 38.949,157.513 39.375 C 157.121 39.802,156.800 40.295,156.800 40.471 C 156.800 40.834,155.985 41.884,154.100 43.945 C 153.385 44.727,152.800 45.559,152.800 45.795 C 152.800 46.031,152.440 46.483,152.000 46.800 C 151.560 47.117,151.200 47.588,151.200 47.846 C 151.200 48.104,150.660 48.893,150.000 49.600 C 149.340 50.307,148.800 51.047,148.800 51.246 C 148.800 51.445,148.260 52.172,147.600 52.863 C 146.940 53.554,146.400 54.360,146.400 54.656 C 146.400 54.951,146.040 55.418,145.600 55.693 C 145.160 55.968,144.800 56.419,144.800 56.696 C 144.800 56.973,144.465 57.535,144.055 57.945 C 143.646 58.354,142.977 59.254,142.569 59.945 C 142.161 60.635,141.686 61.200,141.514 61.200 C 141.341 61.200,141.200 61.520,141.200 61.912 C 141.200 62.303,140.840 62.883,140.400 63.200 C 139.960 63.517,139.600 64.007,139.600 64.288 C 139.600 64.570,139.420 64.800,139.200 64.800 C 138.980 64.800,138.800 65.030,138.800 65.312 C 138.800 65.593,138.440 66.083,138.000 66.400 C 137.560 66.717,137.200 67.257,137.200 67.600 C 137.200 67.943,136.840 68.483,136.400 68.800 C 135.960 69.117,135.600 69.697,135.600 70.088 C 135.600 70.480,135.465 70.801,135.300 70.803 C 135.135 70.804,134.552 71.479,134.004 72.303 C 133.456 73.126,132.904 73.890,132.777 74.000 C 132.651 74.110,131.938 75.100,131.193 76.200 C 130.448 77.300,129.616 78.426,129.345 78.702 C 129.074 78.979,128.738 79.564,128.599 80.002 C 128.460 80.441,128.200 80.800,128.022 80.800 C 127.843 80.800,127.473 81.340,127.200 82.000 C 126.927 82.660,126.545 83.200,126.351 83.200 C 126.158 83.200,126.000 83.560,126.000 84.000 C 126.000 84.440,125.861 84.800,125.691 84.800 C 125.521 84.800,125.026 85.475,124.591 86.300 C 124.156 87.125,123.485 88.149,123.100 88.575 C 122.715 89.002,122.400 89.547,122.400 89.787 C 122.400 90.027,122.040 90.483,121.600 90.800 C 121.160 91.117,120.800 91.607,120.800 91.888 C 120.800 92.170,120.620 92.400,120.400 92.400 C 120.180 92.400,120.000 92.670,120.000 93.000 C 120.000 93.330,119.820 93.600,119.600 93.600 C 119.380 93.600,119.200 93.870,119.200 94.200 C 119.200 94.530,119.020 94.800,118.800 94.800 C 118.580 94.800,118.400 95.070,118.400 95.400 C 118.400 95.730,118.220 96.000,118.000 96.000 C 117.780 96.000,117.600 96.270,117.600 96.600 C 117.600 96.930,117.441 97.200,117.247 97.200 C 117.052 97.200,116.793 97.515,116.671 97.900 C 116.341 98.942,115.096 100.909,114.300 101.646 C 113.915 102.002,113.600 102.548,113.600 102.859 C 113.600 103.169,113.240 103.683,112.800 104.000 C 112.360 104.317,112.000 104.897,112.000 105.288 C 112.000 105.680,111.790 106.000,111.533 106.000 C 111.277 106.000,111.178 106.111,111.314 106.248 C 111.450 106.384,111.345 106.738,111.081 107.034 C 109.790 108.480,109.578 108.840,109.803 109.205 C 109.937 109.422,109.858 109.600,109.626 109.600 C 109.394 109.600,108.823 110.410,108.358 111.400 C 107.893 112.390,107.352 113.200,107.156 113.200 C 106.960 113.200,106.800 113.470,106.800 113.800 C 106.800 114.130,106.620 114.400,106.400 114.400 C 106.180 114.400,106.000 114.720,106.000 115.112 C 106.000 115.503,105.640 116.083,105.200 116.400 C 104.760 116.717,104.400 117.297,104.400 117.688 C 104.400 118.080,104.220 118.400,104.000 118.400 C 103.780 118.400,103.600 118.636,103.600 118.925 C 103.600 119.213,103.240 119.836,102.800 120.308 C 102.360 120.780,102.000 121.444,102.000 121.783 C 102.000 122.122,101.820 122.400,101.600 122.400 C 101.380 122.400,101.200 122.636,101.200 122.925 C 101.200 123.213,100.851 123.824,100.424 124.282 C 99.997 124.740,99.732 125.198,99.834 125.300 C 99.936 125.402,99.745 125.714,99.410 125.992 C 99.074 126.270,98.800 126.718,98.800 126.987 C 98.800 127.256,98.440 127.802,98.000 128.200 C 97.560 128.598,97.200 129.267,97.200 129.686 C 97.200 130.104,97.020 130.336,96.800 130.200 C 96.580 130.064,96.400 130.323,96.400 130.776 C 96.400 131.229,96.220 131.600,96.000 131.600 C 95.780 131.600,95.600 131.797,95.600 132.038 C 95.600 132.279,95.228 132.999,94.773 133.638 C 94.318 134.277,94.093 134.806,94.273 134.813 C 94.453 134.820,94.267 135.078,93.860 135.386 C 93.453 135.694,93.239 136.140,93.385 136.376 C 93.531 136.612,93.376 136.911,93.041 137.040 C 92.705 137.169,92.318 137.662,92.180 138.137 C 91.716 139.730,91.007 141.200,90.702 141.200 C 90.536 141.200,90.400 141.470,90.400 141.800 C 90.400 142.130,90.220 142.400,90.000 142.400 C 89.780 142.400,89.600 142.678,89.600 143.017 C 89.600 143.356,89.240 144.020,88.800 144.492 C 88.360 144.964,88.000 145.587,88.000 145.875 C 88.000 146.164,87.820 146.400,87.600 146.400 C 87.380 146.400,87.200 146.760,87.200 147.200 C 87.200 147.640,87.020 148.000,86.800 148.000 C 86.580 148.000,86.400 148.234,86.400 148.520 C 86.400 149.256,85.459 151.193,85.100 151.197 C 84.935 151.199,84.800 151.560,84.800 152.000 C 84.800 152.440,84.665 152.801,84.500 152.803 C 84.335 152.805,84.009 153.210,83.775 153.703 C 82.958 155.431,80.598 159.802,80.376 160.000 C 80.060 160.282,77.114 166.501,77.033 167.059 C 76.995 167.312,76.732 167.800,76.448 168.142 C 76.164 168.485,76.064 168.981,76.227 169.244 C 76.406 169.533,76.354 169.619,76.099 169.461 C 75.841 169.301,75.473 169.982,75.162 171.199 C 74.879 172.300,74.503 173.200,74.324 173.200 C 74.146 173.200,74.000 173.560,74.000 174.000 C 74.000 174.440,73.854 174.800,73.675 174.800 C 73.319 174.800,72.210 177.376,72.369 177.830 C 72.424 177.984,72.318 178.221,72.134 178.355 C 71.603 178.744,70.800 180.332,70.800 180.995 C 70.800 181.328,70.620 181.600,70.400 181.600 C 70.180 181.600,70.000 182.061,70.000 182.624 C 70.000 183.204,69.827 183.540,69.600 183.400 C 69.380 183.264,69.200 183.513,69.200 183.953 C 69.200 184.393,69.020 184.864,68.800 185.000 C 68.580 185.136,68.400 185.687,68.400 186.224 C 68.400 186.761,68.220 187.200,68.000 187.200 C 67.780 187.200,67.600 187.560,67.600 188.000 C 67.600 188.440,67.420 188.800,67.200 188.800 C 66.980 188.800,66.800 189.340,66.800 190.000 C 66.800 190.660,66.620 191.200,66.400 191.200 C 66.180 191.200,66.000 191.560,66.000 192.000 C 66.000 192.440,65.820 192.800,65.600 192.800 C 65.380 192.800,65.200 193.250,65.200 193.800 C 65.200 194.350,65.020 194.800,64.800 194.800 C 64.580 194.800,64.400 195.340,64.400 196.000 C 64.400 196.660,64.220 197.200,64.000 197.200 C 63.780 197.200,63.600 197.549,63.600 197.976 C 63.600 198.403,63.420 198.864,63.200 199.000 C 62.980 199.136,62.800 199.687,62.800 200.224 C 62.800 200.761,62.642 201.200,62.450 201.200 C 62.258 201.200,62.100 201.688,62.100 202.283 C 62.100 202.879,61.898 203.434,61.650 203.517 C 61.403 203.599,61.200 204.192,61.200 204.833 C 61.200 205.475,61.020 206.000,60.800 206.000 C 60.580 206.000,60.400 206.630,60.400 207.400 C 60.400 208.170,60.240 208.800,60.045 208.800 C 59.683 208.800,59.235 210.528,59.085 212.500 C 59.039 213.105,58.866 213.600,58.701 213.600 C 58.535 213.600,58.400 214.129,58.400 214.776 C 58.400 215.423,58.220 216.064,58.000 216.200 C 57.780 216.336,57.600 217.067,57.600 217.824 C 57.600 218.581,57.420 219.200,57.200 219.200 C 56.980 219.200,56.800 220.100,56.800 221.200 C 56.800 222.300,56.620 223.200,56.400 223.200 C 56.180 223.200,56.000 224.010,56.000 225.000 C 56.000 225.990,55.820 226.800,55.600 226.800 C 55.380 226.800,55.200 227.689,55.200 228.776 C 55.200 229.863,55.020 230.864,54.800 231.000 C 54.580 231.136,54.400 232.867,54.400 234.847 C 54.400 237.215,54.259 238.360,53.988 238.193 C 53.710 238.021,53.589 240.864,53.615 246.962 C 53.637 252.064,53.816 256.086,54.027 256.217 C 54.232 256.343,54.400 258.417,54.400 260.824 C 54.400 263.475,54.558 265.200,54.800 265.200 C 55.028 265.200,55.200 266.392,55.200 267.976 C 55.200 269.503,55.380 270.864,55.600 271.000 C 55.820 271.136,56.000 272.126,56.000 273.200 C 56.000 274.274,56.180 275.264,56.400 275.400 C 56.620 275.536,56.800 276.436,56.800 277.400 C 56.800 278.364,56.980 279.264,57.200 279.400 C 57.420 279.536,57.600 280.457,57.600 281.447 C 57.600 282.437,57.754 283.152,57.943 283.035 C 58.132 282.918,58.395 283.987,58.528 285.409 C 58.661 286.832,58.939 288.312,59.145 288.698 C 59.352 289.084,59.610 289.940,59.718 290.600 C 59.827 291.260,60.202 292.610,60.552 293.600 C 60.902 294.590,61.191 295.726,61.194 296.124 C 61.197 296.522,61.380 296.736,61.600 296.600 C 61.935 296.393,62.228 298.158,62.047 299.300 C 62.021 299.465,62.147 299.600,62.328 299.600 C 62.508 299.600,62.900 300.500,63.200 301.600 C 63.500 302.700,63.892 303.600,64.072 303.600 C 64.253 303.600,64.400 303.879,64.400 304.219 C 64.400 304.560,64.760 305.584,65.200 306.494 C 65.640 307.405,66.000 308.476,66.000 308.875 C 66.000 309.274,66.180 309.600,66.400 309.600 C 66.620 309.600,66.800 309.960,66.800 310.400 C 66.800 310.840,66.980 311.200,67.200 311.200 C 67.420 311.200,67.600 311.472,67.600 311.805 C 67.600 312.138,67.757 312.723,67.950 313.105 C 69.448 316.080,70.000 317.353,70.000 317.838 C 70.000 318.147,70.180 318.400,70.400 318.400 C 70.620 318.400,70.800 318.771,70.800 319.224 C 70.800 319.677,70.980 319.936,71.200 319.800 C 71.420 319.664,71.600 319.923,71.600 320.376 C 71.600 320.829,71.746 321.200,71.925 321.200 C 72.104 321.200,72.498 321.830,72.800 322.600 C 73.102 323.370,73.496 324.000,73.675 324.000 C 73.854 324.000,74.000 324.270,74.000 324.600 C 74.000 324.930,74.180 325.200,74.400 325.200 C 74.620 325.200,74.800 325.479,74.800 325.820 C 74.800 326.441,75.897 328.824,76.356 329.200 C 76.490 329.310,77.040 330.210,77.578 331.200 C 78.115 332.190,78.790 333.238,79.078 333.529 C 79.365 333.819,79.600 334.196,79.600 334.366 C 79.600 334.536,80.050 335.199,80.600 335.838 C 81.149 336.477,81.599 337.135,81.600 337.300 C 81.600 337.465,81.915 337.943,82.300 338.362 C 82.685 338.781,83.630 339.992,84.400 341.053 C 85.170 342.114,86.295 343.508,86.900 344.151 C 87.505 344.793,88.000 345.486,88.000 345.691 C 88.000 345.895,88.720 346.754,89.600 347.600 C 90.480 348.446,91.200 349.346,91.200 349.600 C 91.200 349.855,91.913 350.769,92.784 351.631 C 93.656 352.494,94.277 353.200,94.165 353.200 C 93.956 353.200,96.378 355.557,103.824 362.600 C 109.683 368.142,112.767 370.800,113.339 370.800 C 113.463 370.800,113.981 371.205,114.492 371.700 C 115.910 373.075,117.760 374.382,119.532 375.258 C 120.414 375.695,121.688 376.580,122.364 377.226 C 123.040 377.872,123.864 378.400,124.196 378.400 C 124.528 378.400,124.800 378.580,124.800 378.800 C 124.800 379.020,125.070 379.200,125.400 379.200 C 125.730 379.200,126.000 379.380,126.000 379.600 C 126.000 379.820,126.270 380.000,126.600 380.000 C 126.930 380.000,127.200 380.180,127.200 380.400 C 127.200 380.620,127.590 380.800,128.067 380.800 C 128.543 380.800,128.818 380.915,128.677 381.056 C 128.421 381.313,130.389 382.616,131.700 383.058 C 132.085 383.187,132.400 383.452,132.400 383.647 C 132.400 383.841,132.760 384.000,133.200 384.000 C 133.640 384.000,134.000 384.180,134.000 384.400 C 134.000 384.620,134.234 384.800,134.520 384.800 C 135.256 384.800,137.193 385.741,137.197 386.100 C 137.199 386.265,137.560 386.400,138.000 386.400 C 138.440 386.400,138.800 386.580,138.800 386.800 C 138.800 387.020,139.160 387.200,139.600 387.200 C 140.040 387.200,140.400 387.380,140.400 387.600 C 140.400 387.820,140.760 388.000,141.200 388.000 C 141.640 388.000,142.000 388.147,142.000 388.328 C 142.000 388.508,142.900 388.900,144.000 389.200 C 145.100 389.500,146.000 389.892,146.000 390.072 C 146.000 390.253,146.135 390.362,146.300 390.315 C 146.465 390.268,146.963 390.432,147.407 390.680 C 147.851 390.927,148.888 391.255,149.712 391.410 C 150.535 391.564,151.307 391.850,151.428 392.045 C 151.549 392.240,152.087 392.400,152.624 392.400 C 153.161 392.400,153.600 392.580,153.600 392.800 C 153.600 393.020,154.140 393.200,154.800 393.200 C 155.460 393.200,156.000 393.380,156.000 393.600 C 156.000 393.820,156.540 394.000,157.200 394.000 C 157.860 394.000,158.400 394.180,158.400 394.400 C 158.400 394.620,158.929 394.800,159.576 394.800 C 160.223 394.800,160.864 394.980,161.000 395.200 C 161.136 395.420,161.957 395.600,162.824 395.600 C 163.691 395.600,164.400 395.780,164.400 396.000 C 164.400 396.220,164.940 396.400,165.600 396.400 C 166.260 396.400,166.800 396.580,166.800 396.800 C 166.800 397.020,167.509 397.200,168.376 397.200 C 169.243 397.200,170.064 397.380,170.200 397.600 C 170.336 397.820,171.427 398.000,172.624 398.000 C 173.821 398.000,174.800 398.180,174.800 398.400 C 174.800 398.620,175.775 398.800,176.967 398.800 C 178.344 398.800,179.194 398.982,179.300 399.300 C 179.544 400.031,220.856 400.031,221.100 399.300 C 221.203 398.990,222.016 398.800,223.233 398.800 C 224.315 398.800,225.200 398.620,225.200 398.400 C 225.200 398.178,226.267 398.000,227.600 398.000 C 228.933 398.000,230.000 397.822,230.000 397.600 C 230.000 397.380,230.619 397.200,231.376 397.200 C 232.133 397.200,232.864 397.020,233.000 396.800 C 233.136 396.580,233.957 396.400,234.824 396.400 C 235.691 396.400,236.400 396.220,236.400 396.000 C 236.400 395.780,236.940 395.600,237.600 395.600 C 238.260 395.600,238.800 395.420,238.800 395.200 C 238.800 394.980,239.430 394.800,240.200 394.800 C 240.970 394.800,241.600 394.620,241.600 394.400 C 241.600 394.180,242.140 394.000,242.800 394.000 C 243.460 394.000,244.000 393.820,244.000 393.600 C 244.000 393.380,244.540 393.200,245.200 393.200 C 245.860 393.200,246.400 393.020,246.400 392.800 C 246.400 392.580,246.940 392.400,247.600 392.400 C 248.260 392.400,248.800 392.244,248.800 392.052 C 248.800 391.861,249.396 391.608,250.125 391.490 C 251.462 391.273,253.390 390.490,257.824 388.363 C 259.157 387.723,260.462 387.200,260.724 387.200 C 260.986 387.200,261.200 387.020,261.200 386.800 C 261.200 386.580,261.560 386.400,262.000 386.400 C 262.440 386.400,262.800 386.220,262.800 386.000 C 262.800 385.780,263.160 385.600,263.600 385.600 C 264.040 385.600,264.400 385.420,264.400 385.200 C 264.400 384.980,264.678 384.800,265.017 384.800 C 265.356 384.800,266.020 384.440,266.492 384.000 C 266.964 383.560,267.701 383.200,268.129 383.200 C 268.556 383.200,269.197 382.876,269.553 382.480 C 269.909 382.083,270.850 381.457,271.645 381.087 C 272.440 380.717,273.317 380.141,273.594 379.807 C 273.871 379.473,274.346 379.200,274.649 379.200 C 274.952 379.200,275.200 379.020,275.200 378.800 C 275.200 378.580,275.520 378.400,275.912 378.400 C 276.303 378.400,276.883 378.040,277.200 377.600 C 277.517 377.160,278.031 376.800,278.341 376.800 C 278.652 376.800,279.197 376.466,279.553 376.057 C 279.909 375.649,280.560 375.200,281.000 375.060 C 281.440 374.919,282.323 374.354,282.962 373.802 C 283.601 373.251,284.268 372.800,284.444 372.800 C 284.620 372.800,285.177 372.391,285.682 371.891 C 286.187 371.392,287.221 370.543,287.981 370.006 C 288.740 369.470,289.955 368.401,290.681 367.632 C 291.406 366.863,292.000 366.363,292.000 366.521 C 292.000 366.680,293.878 364.962,296.173 362.705 C 298.469 360.447,301.790 357.205,303.555 355.500 C 305.320 353.795,306.647 352.400,306.505 352.400 C 306.362 352.400,306.820 351.924,307.523 351.342 C 308.225 350.760,308.800 350.041,308.800 349.744 C 308.800 349.447,309.700 348.285,310.800 347.161 C 311.900 346.038,312.800 344.939,312.800 344.720 C 312.800 344.501,313.340 343.817,314.000 343.200 C 314.660 342.583,315.200 341.881,315.200 341.640 C 315.200 341.398,315.341 341.200,315.514 341.200 C 315.686 341.200,316.121 340.705,316.479 340.100 C 316.837 339.495,317.596 338.460,318.165 337.800 C 318.734 337.140,319.199 336.457,319.200 336.283 C 319.200 336.109,319.560 335.580,320.000 335.108 C 320.440 334.636,320.800 334.013,320.800 333.725 C 320.800 333.436,320.958 333.200,321.151 333.200 C 321.345 333.200,321.727 332.660,322.000 332.000 C 322.273 331.340,322.655 330.800,322.849 330.800 C 323.042 330.800,323.200 330.440,323.200 330.000 C 323.200 329.560,323.347 329.200,323.526 329.200 C 323.924 329.200,325.200 326.599,325.200 325.786 C 325.200 325.464,325.380 325.200,325.600 325.200 C 325.820 325.200,326.000 324.945,326.000 324.633 C 326.000 324.322,326.135 324.007,326.300 323.933 C 326.676 323.766,327.975 321.636,328.271 320.700 C 328.393 320.315,328.652 320.000,328.847 320.000 C 329.041 320.000,329.200 319.640,329.200 319.200 C 329.200 318.760,329.380 318.400,329.600 318.400 C 329.820 318.400,330.000 317.939,330.000 317.376 C 330.000 316.796,330.173 316.460,330.400 316.600 C 330.620 316.736,330.800 316.600,330.800 316.299 C 330.800 315.997,331.160 315.005,331.600 314.094 C 332.040 313.184,332.400 312.160,332.400 311.819 C 332.400 311.479,332.580 311.200,332.800 311.200 C 333.020 311.200,333.200 310.840,333.200 310.400 C 333.200 309.960,333.380 309.600,333.600 309.600 C 333.820 309.600,334.000 309.251,334.000 308.824 C 334.000 308.397,334.180 307.936,334.400 307.800 C 334.620 307.664,334.800 307.203,334.800 306.776 C 334.800 306.349,334.980 306.000,335.200 306.000 C 335.420 306.000,335.600 305.460,335.600 304.800 C 335.600 304.140,335.780 303.600,336.000 303.600 C 336.220 303.600,336.400 303.251,336.400 302.824 C 336.400 302.397,336.580 301.936,336.800 301.800 C 337.020 301.664,337.200 301.113,337.200 300.576 C 337.200 300.039,337.380 299.600,337.600 299.600 C 337.820 299.600,338.000 298.970,338.000 298.200 C 338.000 297.430,338.180 296.800,338.400 296.800 C 338.620 296.800,338.800 296.361,338.800 295.824 C 338.800 295.287,338.959 294.749,339.154 294.629 C 339.349 294.508,339.601 293.913,339.716 293.305 C 339.830 292.697,340.299 290.760,340.757 289.000 C 341.216 287.240,341.593 285.215,341.595 284.500 C 341.598 283.785,341.780 283.200,342.000 283.200 C 342.220 283.200,342.400 282.491,342.400 281.624 C 342.400 280.757,342.580 279.936,342.800 279.800 C 343.020 279.664,343.200 278.573,343.200 277.376 C 343.200 276.179,343.380 275.200,343.600 275.200 C 343.820 275.200,344.000 274.300,344.000 273.200 C 344.000 272.100,344.153 271.200,344.339 271.200 C 344.526 271.200,344.716 269.895,344.761 268.300 C 344.807 266.705,345.014 265.340,345.222 265.267 C 345.430 265.193,345.600 263.179,345.600 260.790 C 345.600 258.326,345.773 256.340,346.000 256.200 C 346.545 255.863,346.545 238.000,346.000 238.000 C 345.765 238.000,345.600 236.608,345.600 234.624 C 345.600 232.767,345.420 231.136,345.200 231.000 C 344.980 230.864,344.800 229.853,344.800 228.753 C 344.800 227.521,344.646 226.848,344.400 227.000 C 344.153 227.152,344.000 226.471,344.000 225.224 C 344.000 224.111,343.820 223.200,343.600 223.200 C 343.380 223.200,343.200 222.300,343.200 221.200 C 343.200 220.100,343.020 219.200,342.800 219.200 C 342.580 219.200,342.400 218.480,342.400 217.600 C 342.400 216.720,342.238 216.000,342.039 216.000 C 341.841 216.000,341.553 214.920,341.400 213.599 C 341.247 212.279,340.959 211.098,340.761 210.976 C 340.562 210.853,340.400 210.223,340.400 209.576 C 340.400 208.929,340.220 208.400,340.000 208.400 C 339.780 208.400,339.600 207.860,339.600 207.200 C 339.600 206.540,339.420 206.000,339.200 206.000 C 338.980 206.000,338.800 205.460,338.800 204.800 C 338.800 204.140,338.620 203.600,338.400 203.600 C 338.180 203.600,338.000 203.060,338.000 202.400 C 338.000 201.740,337.820 201.200,337.600 201.200 C 337.380 201.200,337.200 200.838,337.200 200.395 C 337.200 199.952,337.041 199.277,336.847 198.895 C 336.652 198.513,336.271 197.660,336.000 197.000 C 335.729 196.340,335.348 195.487,335.153 195.105 C 334.959 194.723,334.800 194.048,334.800 193.605 C 334.800 193.162,334.620 192.800,334.400 192.800 C 334.180 192.800,334.000 192.440,334.000 192.000 C 334.000 191.560,333.820 191.200,333.600 191.200 C 333.380 191.200,333.200 190.660,333.200 190.000 C 333.200 189.340,333.020 188.800,332.800 188.800 C 332.580 188.800,332.400 188.440,332.400 188.000 C 332.400 187.560,332.220 187.200,332.000 187.200 C 331.780 187.200,331.600 186.660,331.600 186.000 C 331.600 185.340,331.420 184.800,331.200 184.800 C 330.980 184.800,330.800 184.440,330.800 184.000 C 330.800 183.560,330.620 183.200,330.400 183.200 C 330.180 183.200,330.000 182.840,330.000 182.400 C 330.000 181.960,329.820 181.600,329.600 181.600 C 329.380 181.600,329.200 181.150,329.200 180.600 C 329.200 180.050,329.020 179.600,328.800 179.600 C 328.580 179.600,328.400 179.139,328.400 178.576 C 328.400 177.996,328.227 177.660,328.000 177.800 C 327.773 177.940,327.600 177.604,327.600 177.024 C 327.600 176.461,327.420 176.000,327.200 176.000 C 326.980 176.000,326.800 175.730,326.800 175.400 C 326.800 175.070,326.620 174.800,326.400 174.800 C 326.180 174.800,326.000 174.440,326.000 174.000 C 326.000 173.560,325.840 173.200,325.645 173.200 C 325.449 173.200,325.170 172.563,325.024 171.785 C 324.878 171.007,324.048 168.947,323.179 167.206 C 322.311 165.466,321.600 163.852,321.600 163.621 C 321.600 163.389,321.420 163.200,321.200 163.200 C 320.980 163.200,320.800 162.966,320.800 162.680 C 320.800 161.944,319.859 160.007,319.500 160.003 C 319.335 160.001,319.200 159.629,319.200 159.176 C 319.200 158.723,319.020 158.464,318.800 158.600 C 318.573 158.740,318.400 158.404,318.400 157.824 C 318.400 157.261,318.265 156.797,318.100 156.794 C 317.935 156.790,317.360 155.890,316.821 154.794 C 316.283 153.697,315.698 152.800,315.521 152.800 C 315.345 152.800,315.200 152.440,315.200 152.000 C 315.200 151.560,315.020 151.200,314.800 151.200 C 314.580 151.200,314.400 150.840,314.400 150.400 C 314.400 149.960,314.265 149.599,314.100 149.597 C 313.741 149.593,312.800 147.656,312.800 146.920 C 312.800 146.634,312.620 146.400,312.400 146.400 C 312.180 146.400,312.000 146.164,312.000 145.875 C 312.000 145.587,311.640 144.964,311.200 144.492 C 310.760 144.020,310.400 143.356,310.400 143.017 C 310.400 142.678,310.220 142.400,310.000 142.400 C 309.780 142.400,309.600 142.130,309.600 141.800 C 309.600 141.470,309.420 141.200,309.200 141.200 C 308.980 141.200,308.800 140.913,308.800 140.562 C 308.800 139.856,307.573 137.477,307.100 137.267 C 306.935 137.193,306.800 136.788,306.800 136.367 C 306.800 135.945,306.620 135.600,306.400 135.600 C 306.180 135.600,306.000 135.240,306.000 134.800 C 306.000 134.360,305.820 134.000,305.600 134.000 C 305.380 134.000,305.200 133.764,305.200 133.475 C 305.200 133.187,304.840 132.564,304.400 132.092 C 303.960 131.620,303.600 130.956,303.600 130.617 C 303.600 130.278,303.420 130.000,303.200 130.000 C 302.980 130.000,302.800 129.730,302.800 129.400 C 302.800 129.070,302.620 128.800,302.400 128.800 C 302.180 128.800,302.000 128.530,302.000 128.200 C 302.000 127.870,301.820 127.600,301.600 127.600 C 301.380 127.600,301.200 127.240,301.200 126.800 C 301.200 126.360,301.020 126.000,300.800 126.000 C 300.580 126.000,300.400 125.730,300.400 125.400 C 300.400 125.070,300.220 124.800,300.000 124.800 C 299.780 124.800,299.600 124.564,299.600 124.275 C 299.600 123.987,299.285 123.402,298.899 122.975 C 298.514 122.549,297.766 121.345,297.237 120.300 C 296.707 119.255,296.123 118.400,295.937 118.400 C 295.752 118.400,295.600 118.080,295.600 117.688 C 295.600 117.297,295.240 116.717,294.800 116.400 C 294.360 116.083,294.000 115.503,294.000 115.112 C 294.000 114.720,293.820 114.400,293.600 114.400 C 293.380 114.400,293.200 114.164,293.200 113.875 C 293.200 113.587,292.840 112.964,292.400 112.492 C 291.960 112.020,291.600 111.356,291.600 111.017 C 291.600 110.678,291.423 110.400,291.208 110.400 C 290.992 110.400,290.702 109.950,290.564 109.400 C 290.426 108.850,290.165 108.400,289.984 108.400 C 289.802 108.400,289.546 108.061,289.415 107.648 C 289.284 107.234,288.825 106.490,288.396 105.996 C 287.968 105.501,287.693 104.973,287.787 104.821 C 287.881 104.670,287.607 104.293,287.179 103.985 C 286.750 103.676,286.400 103.143,286.400 102.800 C 286.400 102.457,286.040 101.917,285.600 101.600 C 285.160 101.283,284.800 100.786,284.800 100.495 C 284.800 100.204,284.440 99.580,284.000 99.108 C 283.560 98.636,283.200 98.013,283.200 97.725 C 283.200 97.436,283.020 97.200,282.800 97.200 C 282.580 97.200,282.400 96.958,282.400 96.662 C 282.400 96.366,282.040 95.798,281.600 95.400 C 281.160 95.002,280.800 94.434,280.800 94.138 C 280.800 93.842,280.620 93.600,280.400 93.600 C 280.180 93.600,280.000 93.330,280.000 93.000 C 280.000 92.670,279.820 92.400,279.600 92.400 C 279.380 92.400,279.200 92.196,279.200 91.947 C 279.200 91.698,278.884 91.203,278.497 90.847 C 278.111 90.491,277.540 89.705,277.230 89.100 C 276.919 88.495,276.515 88.000,276.332 88.000 C 276.150 88.000,276.000 87.640,276.000 87.200 C 276.000 86.760,275.855 86.400,275.677 86.400 C 275.499 86.400,275.036 85.680,274.648 84.800 C 274.260 83.920,273.775 83.200,273.571 83.200 C 273.367 83.200,273.200 82.964,273.200 82.675 C 273.200 82.387,272.840 81.764,272.400 81.292 C 271.960 80.820,271.600 80.340,271.600 80.225 C 271.600 80.110,270.881 79.068,270.002 77.908 C 269.123 76.749,268.403 75.657,268.402 75.482 C 268.401 75.307,267.950 74.714,267.400 74.164 C 266.850 73.614,266.400 73.000,266.400 72.800 C 266.400 72.600,265.995 72.023,265.500 71.518 C 265.005 71.013,264.345 70.105,264.032 69.500 C 263.720 68.895,263.315 68.400,263.132 68.400 C 262.950 68.400,262.800 68.164,262.800 67.875 C 262.800 67.587,262.440 66.964,262.000 66.492 C 261.560 66.020,261.200 65.446,261.200 65.217 C 261.200 64.988,261.020 64.800,260.800 64.800 C 260.580 64.800,260.400 64.570,260.400 64.288 C 260.400 64.007,260.040 63.517,259.600 63.200 C 259.160 62.883,258.800 62.448,258.800 62.233 C 258.800 61.822,256.950 58.970,256.100 58.071 C 255.825 57.781,255.600 57.384,255.600 57.190 C 255.600 56.995,255.154 56.390,254.609 55.845 C 254.064 55.300,253.569 54.619,253.509 54.331 C 253.449 54.043,252.905 53.329,252.300 52.743 C 251.695 52.158,251.200 51.431,251.200 51.128 C 251.200 50.825,250.840 50.317,250.400 50.000 C 249.960 49.683,249.600 49.220,249.600 48.971 C 249.600 48.722,249.060 47.954,248.400 47.263 C 247.740 46.572,247.200 45.725,247.200 45.380 C 247.200 45.035,247.020 44.864,246.800 45.000 C 246.580 45.136,246.400 45.059,246.400 44.828 C 246.400 44.386,245.596 43.316,244.100 41.768 C 243.605 41.256,243.200 40.682,243.200 40.494 C 243.200 40.305,242.859 39.785,242.443 39.338 C 242.026 38.891,241.369 37.912,240.983 37.162 C 240.597 36.413,239.948 35.509,239.541 35.153 C 239.133 34.797,238.800 34.394,238.800 34.258 C 238.800 34.013,237.884 32.820,236.900 31.784 C 236.625 31.494,236.400 31.156,236.400 31.033 C 236.400 30.810,235.449 29.583,234.500 28.584 C 234.225 28.294,234.000 27.945,234.000 27.807 C 234.000 27.669,233.461 26.981,232.802 26.278 C 232.143 25.575,231.603 24.847,231.602 24.660 C 231.601 24.474,231.060 23.817,230.400 23.200 C 229.740 22.583,229.200 21.903,229.200 21.688 C 229.200 21.473,228.525 20.589,227.700 19.723 C 226.875 18.858,225.854 17.531,225.430 16.775 C 225.007 16.019,224.541 15.310,224.396 15.200 C 224.251 15.090,223.967 14.709,223.766 14.354 C 223.079 13.141,221.002 10.602,219.300 8.894 C 218.365 7.956,217.600 7.051,217.600 6.883 C 217.600 6.545,216.127 5.200,215.756 5.200 C 215.627 5.200,215.017 4.660,214.400 4.000 C 213.783 3.340,212.991 2.800,212.640 2.800 C 212.288 2.800,212.000 2.620,212.000 2.400 C 212.000 2.180,211.640 2.000,211.200 2.000 C 210.760 2.000,210.400 1.820,210.400 1.600 C 210.400 1.380,210.055 1.200,209.633 1.200 C 209.212 1.200,208.792 0.975,208.700 0.700 C 208.533 0.197,195.530 -0.147,192.500 0.271 M144.200 160.602 C 146.756 161.013,149.244 162.395,151.463 164.639 C 153.598 166.797,154.489 168.399,156.000 172.800 C 156.546 174.389,156.912 175.362,157.506 176.800 C 157.733 177.350,158.136 178.430,158.400 179.200 C 158.664 179.970,159.043 181.005,159.240 181.500 C 159.438 181.995,159.780 182.850,160.000 183.400 C 160.220 183.950,160.562 184.805,160.760 185.300 C 160.957 185.795,161.336 186.830,161.600 187.600 C 161.864 188.370,162.226 189.360,162.404 189.800 C 163.046 191.391,164.750 195.912,166.777 201.400 C 168.804 206.889,170.960 212.613,171.598 214.200 C 171.775 214.640,172.136 215.630,172.400 216.400 C 172.664 217.170,173.043 218.205,173.240 218.700 C 173.438 219.195,173.762 220.005,173.960 220.500 C 174.157 220.995,174.536 222.030,174.800 222.800 C 175.064 223.570,175.467 224.650,175.694 225.200 C 175.921 225.750,176.239 226.560,176.400 227.000 C 176.561 227.440,176.879 228.250,177.107 228.800 C 177.335 229.350,177.917 230.880,178.400 232.200 C 178.883 233.520,179.429 234.960,179.614 235.400 C 179.800 235.840,181.681 240.880,183.795 246.600 C 185.909 252.320,187.810 257.413,188.019 257.919 C 188.781 259.756,188.470 264.226,187.424 266.489 C 183.432 275.121,172.423 276.088,166.690 268.309 C 165.787 267.084,165.272 265.886,163.161 260.100 C 162.700 258.835,162.135 257.350,161.907 256.800 C 161.474 255.755,161.206 255.065,160.390 252.896 L 159.900 251.592 141.525 251.696 L 123.149 251.800 122.622 252.800 C 121.968 254.038,121.610 254.911,119.998 259.200 C 117.420 266.061,117.082 266.841,115.949 268.552 C 108.619 279.618,89.908 270.011,94.850 257.719 C 95.568 255.931,95.872 255.137,96.728 252.800 C 97.172 251.590,98.456 248.170,99.581 245.200 C 100.707 242.230,102.267 238.090,103.047 236.000 C 103.828 233.910,104.632 231.795,104.833 231.300 C 105.666 229.256,105.942 228.533,106.400 227.200 C 106.664 226.430,107.067 225.350,107.294 224.800 C 107.521 224.250,107.863 223.395,108.054 222.900 C 108.244 222.405,108.556 221.595,108.746 221.100 C 108.937 220.605,109.279 219.750,109.506 219.200 C 109.733 218.650,110.136 217.570,110.400 216.800 C 110.949 215.200,111.317 214.223,111.907 212.800 C 112.135 212.250,112.717 210.720,113.200 209.400 C 113.683 208.080,114.229 206.640,114.414 206.200 C 114.598 205.760,116.122 201.710,117.800 197.200 C 119.478 192.690,121.019 188.595,121.225 188.100 C 121.950 186.360,122.330 185.378,123.200 183.000 C 124.239 180.161,124.541 179.368,125.146 177.900 C 125.396 177.295,125.801 176.305,126.047 175.700 C 126.292 175.095,126.652 174.287,126.847 173.905 C 127.041 173.523,127.200 172.936,127.200 172.600 C 127.200 172.264,127.360 171.677,127.556 171.295 C 127.752 170.913,128.335 169.700,128.852 168.600 C 131.123 163.765,137.609 159.567,141.800 160.221 C 142.240 160.289,143.320 160.461,144.200 160.602 M255.400 160.597 C 256.500 160.751,257.571 161.040,257.780 161.239 C 257.989 161.437,258.563 161.600,259.056 161.600 C 259.549 161.600,260.064 161.780,260.200 162.000 C 260.336 162.220,260.782 162.400,261.190 162.400 C 263.792 162.400,275.200 170.751,275.200 172.655 C 275.200 172.918,275.345 173.193,275.523 173.267 C 276.027 173.474,278.131 176.787,279.166 179.000 C 280.612 182.092,280.790 182.647,281.959 187.706 C 282.526 190.156,282.526 195.844,281.959 198.294 C 281.285 201.213,280.682 203.358,280.411 203.800 C 280.277 204.020,279.925 204.920,279.629 205.800 C 279.333 206.680,278.732 207.911,278.293 208.536 L 277.494 209.672 279.882 212.136 C 296.915 229.714,292.110 258.798,270.353 269.824 C 267.719 271.159,265.138 272.007,261.000 272.897 C 258.444 273.447,221.719 273.769,220.600 273.251 C 220.160 273.047,219.205 272.656,218.477 272.382 C 215.959 271.434,212.400 267.206,212.400 265.162 C 212.400 264.769,212.220 264.336,212.000 264.200 C 211.139 263.668,211.486 170.901,212.358 168.515 C 213.920 164.242,216.087 162.230,221.000 160.495 C 222.332 160.025,251.951 160.112,255.400 160.597 M236.000 193.000 L 236.000 201.200 243.350 201.200 C 248.943 201.200,251.116 201.053,252.444 200.584 C 258.729 198.367,259.779 189.854,254.231 186.100 L 252.310 184.800 244.155 184.800 L 236.000 184.800 236.000 193.000 M141.351 203.656 C 141.120 203.955,140.524 205.280,140.026 206.600 C 139.529 207.920,138.960 209.405,138.761 209.900 C 138.562 210.395,138.238 211.205,138.039 211.700 C 137.840 212.195,137.316 213.590,136.873 214.800 C 136.430 216.010,135.242 219.144,134.234 221.766 C 133.225 224.387,132.400 226.772,132.400 227.066 C 132.400 227.620,149.961 227.905,150.507 227.360 C 150.639 227.228,150.594 226.733,150.408 226.260 C 150.221 225.787,149.496 223.870,148.796 222.000 C 148.096 220.130,147.379 218.240,147.202 217.800 C 147.025 217.360,146.664 216.370,146.400 215.600 C 145.588 213.236,144.604 210.785,143.953 209.505 C 143.759 209.123,143.600 208.536,143.600 208.200 C 143.600 207.864,143.441 207.277,143.247 206.895 C 142.752 205.922,142.085 204.302,141.915 203.656 C 141.793 203.198,141.705 203.198,141.351 203.656 M236.197 226.063 C 236.082 226.364,236.035 231.648,236.094 237.805 L 236.200 249.000 246.800 249.000 C 256.530 249.000,257.531 248.935,259.000 248.214 C 266.393 244.580,268.139 235.383,262.599 229.251 C 261.778 228.343,260.858 227.600,260.553 227.600 C 260.249 227.600,260.000 227.420,260.000 227.200 C 260.000 226.980,259.655 226.800,259.233 226.800 C 258.812 226.800,258.392 226.575,258.300 226.300 C 258.043 225.529,236.491 225.298,236.197 226.063 M222.200 308.800 C 222.336 309.020,222.887 309.200,223.424 309.200 C 223.961 309.200,224.400 309.380,224.400 309.600 C 224.400 309.820,224.641 310.000,224.936 310.000 C 225.231 310.000,226.268 310.765,227.241 311.700 C 233.445 317.665,231.850 327.482,224.000 331.645 L 222.200 332.600 199.200 332.600 L 176.200 332.600 174.000 331.554 C 164.728 327.145,164.410 313.742,173.484 309.793 C 174.318 309.430,175.270 308.979,175.600 308.790 C 176.473 308.291,221.891 308.300,222.200 308.800 " stroke="none" fill="#c52c69" fill-rule="evenodd"></path><path id="path2" d="M221.600 161.152 C 218.146 161.895,215.122 164.281,213.526 167.521 L 212.600 169.400 212.600 217.000 C 212.600 261.478,212.646 264.697,213.299 266.085 C 214.905 269.496,218.096 271.967,221.920 272.760 C 226.122 273.632,258.951 273.050,262.060 272.049 C 267.465 270.308,268.900 269.749,271.200 268.488 C 292.009 257.073,295.785 229.299,278.862 212.118 C 276.685 209.907,276.633 209.607,278.065 207.538 C 278.469 206.954,278.800 206.225,278.800 205.918 C 278.800 205.611,278.949 205.189,279.130 204.980 C 279.312 204.771,279.693 203.790,279.977 202.800 C 280.261 201.810,280.691 200.463,280.934 199.806 C 281.567 198.092,281.499 187.755,280.841 185.571 C 277.096 173.148,269.317 165.197,257.720 161.938 C 254.444 161.017,225.185 160.381,221.600 161.152 M253.200 184.641 C 260.102 187.867,260.568 196.882,254.031 200.723 C 252.174 201.814,239.312 202.617,236.199 201.836 L 235.200 201.585 235.200 193.072 C 235.200 186.799,235.332 184.427,235.700 184.054 C 236.624 183.118,250.972 183.600,253.200 184.641 M257.354 225.275 C 268.690 228.543,269.909 243.407,259.287 248.836 C 257.428 249.786,257.237 249.800,246.400 249.800 L 235.400 249.800 235.294 237.804 C 235.236 231.207,235.275 225.582,235.381 225.304 C 235.647 224.612,254.965 224.586,257.354 225.275 M198.981 309.306 C 198.874 309.584,198.835 314.759,198.893 320.806 L 199.000 331.800 209.600 331.915 C 220.756 332.036,222.692 331.827,225.000 330.250 C 233.373 324.532,231.681 312.792,222.000 309.436 C 219.601 308.604,199.294 308.489,198.981 309.306 " stroke="none" fill="#ffffff" fill-rule="evenodd"></path><path id="path3" d="M229.273 160.699 C 233.604 160.764,240.804 160.764,245.273 160.700 C 249.743 160.635,246.200 160.582,237.400 160.582 C 228.600 160.582,224.943 160.635,229.273 160.699 M219.400 161.200 C 219.108 161.673,219.499 161.673,220.600 161.200 C 221.371 160.869,221.369 160.855,220.524 160.828 C 220.042 160.813,219.536 160.980,219.400 161.200 M254.033 160.944 C 254.125 161.024,255.010 161.206,256.000 161.350 C 257.258 161.533,257.619 161.491,257.200 161.212 C 256.660 160.853,253.632 160.597,254.033 160.944 M258.600 162.000 C 259.796 162.514,260.795 162.514,260.000 162.000 C 259.670 161.787,259.040 161.622,258.600 161.634 L 257.800 161.656 258.600 162.000 M215.954 163.300 C 214.679 164.398,212.397 167.924,212.409 168.778 C 212.414 169.120,212.760 168.646,213.179 167.724 C 213.597 166.802,214.696 165.227,215.621 164.224 C 217.460 162.229,217.577 161.905,215.954 163.300 M131.775 164.900 L 130.600 166.200 131.900 165.025 C 133.112 163.930,133.384 163.600,133.075 163.600 C 133.006 163.600,132.421 164.185,131.775 164.900 M264.400 164.190 C 264.400 164.294,264.985 164.665,265.700 165.014 L 267.000 165.648 266.000 164.833 C 265.037 164.048,264.400 163.792,264.400 164.190 M268.400 166.698 C 270.957 168.687,273.622 171.322,275.067 173.292 C 275.853 174.362,276.593 175.141,276.711 175.022 C 277.320 174.413,268.544 165.589,267.344 165.604 C 267.155 165.607,267.630 166.099,268.400 166.698 M211.843 170.633 C 211.477 171.586,211.630 262.046,212.000 263.200 C 212.176 263.750,212.338 243.005,212.360 217.100 C 212.382 191.195,212.329 170.000,212.243 170.000 C 212.156 170.000,211.976 170.285,211.843 170.633 M278.115 178.000 C 278.853 179.430,279.791 181.722,280.202 183.093 C 280.612 184.464,281.024 185.509,281.118 185.415 C 281.629 184.904,278.847 177.972,277.419 176.200 C 277.065 175.760,277.378 176.570,278.115 178.000 M235.867 184.267 C 235.497 184.637,235.529 201.600,235.900 201.600 C 236.065 201.601,236.148 197.734,236.085 193.009 L 235.970 184.417 243.685 184.300 L 251.400 184.182 243.767 184.091 C 239.568 184.041,236.013 184.120,235.867 184.267 M253.000 185.187 C 255.700 186.485,257.155 188.199,257.934 191.000 L 258.380 192.600 258.162 191.050 C 257.765 188.214,254.181 184.374,251.965 184.409 C 251.654 184.414,252.120 184.764,253.000 185.187 M281.277 187.000 C 281.267 187.660,281.403 189.010,281.580 190.000 L 281.900 191.800 281.903 190.000 C 281.904 189.010,281.768 187.660,281.600 187.000 L 281.295 185.800 281.277 187.000 M257.881 194.321 C 257.517 196.431,255.929 198.910,254.253 199.984 C 253.564 200.425,253.193 200.790,253.428 200.793 C 255.240 200.822,258.662 195.760,258.323 193.552 C 258.217 192.859,258.096 193.068,257.881 194.321 M281.413 197.013 C 281.257 198.471,281.220 199.753,281.330 199.863 C 281.440 199.973,281.657 198.871,281.813 197.413 C 281.969 195.956,282.007 194.674,281.897 194.564 C 281.787 194.454,281.569 195.556,281.413 197.013 M280.027 203.100 C 279.565 204.585,278.740 206.583,278.194 207.541 C 276.872 209.857,276.887 209.925,279.237 212.215 C 281.664 214.579,284.054 217.921,286.080 221.780 C 286.894 223.331,287.569 224.442,287.580 224.249 C 287.665 222.742,282.837 215.279,279.791 212.208 C 277.355 209.753,277.291 209.572,278.332 208.062 C 279.534 206.317,281.654 200.400,281.077 200.400 C 280.961 200.400,280.489 201.615,280.027 203.100 M251.000 201.200 C 249.893 201.482,249.877 201.509,250.800 201.547 C 251.350 201.569,252.070 201.413,252.400 201.200 C 253.081 200.760,252.729 200.760,251.000 201.200 M287.612 225.200 C 287.612 225.530,287.787 226.070,288.000 226.400 C 288.345 226.933,288.388 226.933,288.388 226.400 C 288.388 226.070,288.213 225.530,288.000 225.200 C 287.655 224.667,287.612 224.667,287.612 225.200 M235.694 237.500 L 235.800 249.800 245.035 249.907 C 250.115 249.966,254.975 249.847,255.835 249.642 C 256.908 249.387,254.065 249.290,246.800 249.335 L 236.200 249.400 236.200 237.300 C 236.200 230.645,236.062 225.200,235.894 225.200 C 235.726 225.200,235.636 230.735,235.694 237.500 M256.400 225.635 C 260.197 226.765,262.455 228.397,264.346 231.378 C 265.735 233.570,266.087 233.418,264.758 231.200 C 262.872 228.055,259.811 225.900,256.578 225.442 L 255.000 225.218 256.400 225.635 M288.434 227.600 C 288.446 227.930,288.611 228.560,288.800 229.000 L 289.144 229.800 289.166 229.000 C 289.178 228.560,289.013 227.930,288.800 227.600 C 288.455 227.067,288.415 227.067,288.434 227.600 M136.923 228.299 C 139.520 228.369,143.660 228.368,146.123 228.298 C 148.585 228.228,146.460 228.171,141.400 228.172 C 136.340 228.172,134.325 228.229,136.923 228.299 M289.400 237.642 C 289.400 241.387,289.517 244.034,289.660 243.525 C 290.007 242.291,290.017 232.384,289.672 231.516 C 289.522 231.140,289.400 233.897,289.400 237.642 M265.646 234.000 C 265.665 234.330,265.824 235.050,266.000 235.600 L 266.320 236.600 266.354 235.600 C 266.373 235.050,266.213 234.330,266.000 234.000 C 265.655 233.467,265.616 233.467,265.646 234.000 M265.800 240.000 C 265.648 240.691,265.614 241.347,265.724 241.457 C 265.834 241.567,266.048 241.091,266.200 240.400 C 266.352 239.709,266.386 239.053,266.276 238.943 C 266.166 238.833,265.952 239.309,265.800 240.000 M263.256 245.130 C 262.589 245.971,260.999 247.226,259.722 247.919 C 258.445 248.612,257.620 249.183,257.888 249.189 C 259.209 249.218,263.517 246.007,264.447 244.300 C 265.083 243.132,264.537 243.512,263.256 245.130 M288.629 246.229 C 288.481 246.815,288.451 247.384,288.561 247.494 C 288.671 247.604,288.881 247.215,289.029 246.629 C 289.176 246.042,289.206 245.473,289.096 245.363 C 288.986 245.253,288.776 245.642,288.629 246.229 M284.986 255.300 L 284.352 256.600 285.167 255.600 C 285.952 254.637,286.208 254.000,285.810 254.000 C 285.706 254.000,285.335 254.585,284.986 255.300 M282.672 258.700 C 280.702 261.381,276.175 265.653,273.677 267.191 C 272.512 267.907,271.646 268.580,271.752 268.685 C 271.992 268.925,275.181 266.767,277.719 264.646 C 279.992 262.747,284.948 256.800,284.258 256.800 C 284.153 256.800,283.440 257.655,282.672 258.700 M213.224 267.009 C 213.155 268.193,218.296 272.806,219.672 272.796 C 219.962 272.794,219.280 272.265,218.155 271.620 C 216.265 270.535,214.912 269.233,213.724 267.354 C 213.461 266.939,213.236 266.784,213.224 267.009 M113.978 269.900 L 112.600 271.400 114.100 270.022 C 115.496 268.738,115.784 268.400,115.478 268.400 C 115.412 268.400,114.737 269.075,113.978 269.900 M167.200 268.525 C 167.200 268.594,167.785 269.179,168.500 269.825 L 169.800 271.000 168.625 269.700 C 167.530 268.488,167.200 268.216,167.200 268.525 M269.653 269.453 C 268.913 269.776,268.401 270.134,268.516 270.250 C 268.737 270.471,271.200 269.315,271.200 268.990 C 271.200 268.763,271.313 268.729,269.653 269.453 M264.400 271.600 C 263.867 271.945,263.867 271.988,264.400 271.988 C 264.730 271.988,265.270 271.813,265.600 271.600 C 266.133 271.255,266.133 271.212,265.600 271.212 C 265.270 271.212,264.730 271.387,264.400 271.600 M261.200 272.400 L 260.200 272.720 261.200 272.754 C 261.750 272.773,262.470 272.613,262.800 272.400 C 263.564 271.906,262.742 271.906,261.200 272.400 M221.062 273.300 C 221.287 273.665,257.021 273.627,258.326 273.260 C 258.835 273.117,250.618 273.000,240.065 273.000 C 229.511 273.000,220.960 273.135,221.062 273.300 M202.600 308.682 C 212.581 308.965,221.909 308.974,221.739 308.700 C 221.636 308.535,216.388 308.438,210.076 308.484 C 203.764 308.531,200.400 308.620,202.600 308.682 M222.998 309.495 C 227.008 310.509,230.064 314.992,230.431 320.400 L 230.662 323.800 230.731 320.712 C 230.848 315.491,226.453 309.025,222.938 309.246 C 222.280 309.288,222.286 309.315,222.998 309.495 M229.354 325.599 C 228.990 326.508,227.739 328.090,226.457 329.265 C 225.216 330.401,224.560 331.124,225.000 330.872 C 227.300 329.554,231.504 324.000,230.202 324.000 C 230.087 324.000,229.706 324.720,229.354 325.599 M198.940 332.494 C 199.513 332.860,217.942 332.840,220.400 332.470 C 221.390 332.322,216.863 332.200,210.340 332.200 C 203.817 332.200,198.687 332.332,198.940 332.494 " stroke="none" fill="#e68bb7" fill-rule="evenodd"></path><path id="path4" d="M140.000 160.401 C 139.264 160.636,139.678 160.731,141.567 160.760 C 142.978 160.782,144.058 160.734,143.967 160.653 C 143.546 160.282,140.899 160.114,140.000 160.401 M229.474 160.299 C 233.694 160.364,240.714 160.364,245.074 160.300 C 249.433 160.235,245.980 160.182,237.400 160.182 C 228.820 160.182,225.253 160.235,229.474 160.299 M135.170 161.840 C 132.842 163.051,130.060 166.028,128.852 168.600 C 128.335 169.700,127.752 170.913,127.556 171.295 C 127.360 171.677,127.202 172.307,127.205 172.695 C 127.208 173.083,127.822 171.997,128.571 170.282 C 130.756 165.278,133.072 162.912,137.202 161.467 C 138.448 161.031,138.693 160.846,138.000 160.863 C 137.450 160.877,136.177 161.317,135.170 161.840 M145.200 161.174 C 149.813 162.582,152.800 165.641,154.839 171.042 C 155.540 172.900,156.202 174.331,156.311 174.223 C 156.539 173.995,155.765 171.805,154.204 168.262 C 152.836 165.157,147.401 160.741,145.062 160.834 C 144.281 160.866,144.295 160.898,145.200 161.174 M272.800 170.125 C 272.800 170.194,273.385 170.779,274.100 171.425 L 275.400 172.600 274.225 171.300 C 273.130 170.088,272.800 169.816,272.800 170.125 M126.573 174.243 C 126.438 174.659,126.140 175.450,125.910 176.000 C 124.946 178.310,124.391 179.745,123.200 183.000 C 122.330 185.378,121.950 186.360,121.225 188.100 C 119.722 191.710,114.765 205.298,114.901 205.435 C 114.995 205.528,115.565 204.299,116.168 202.702 C 116.772 201.106,117.413 199.440,117.595 199.000 C 117.776 198.560,118.463 196.760,119.122 195.000 C 120.654 190.910,123.577 183.241,124.001 182.200 C 125.819 177.740,127.198 173.864,127.028 173.694 C 126.913 173.579,126.708 173.826,126.573 174.243 M156.400 174.972 C 156.400 175.093,156.868 176.408,157.439 177.896 C 158.010 179.383,159.000 181.995,159.639 183.700 C 162.470 191.260,163.297 193.451,163.600 194.200 C 163.778 194.640,164.465 196.440,165.127 198.200 C 168.099 206.107,168.538 207.195,168.691 207.042 C 168.845 206.889,164.578 195.188,162.404 189.800 C 162.226 189.360,161.864 188.370,161.600 187.600 C 161.336 186.830,160.933 185.750,160.706 185.200 C 160.479 184.650,160.137 183.795,159.946 183.300 C 159.756 182.805,159.432 181.995,159.226 181.500 C 159.021 181.005,158.624 179.880,158.345 179.000 C 158.065 178.120,157.693 177.229,157.518 177.020 C 157.343 176.811,157.200 176.327,157.200 175.944 C 157.200 175.561,157.020 175.136,156.800 175.000 C 156.580 174.864,156.400 174.852,156.400 174.972 M239.921 184.699 C 242.188 184.770,245.788 184.770,247.921 184.698 C 250.055 184.626,248.200 184.568,243.800 184.568 C 239.400 184.568,237.655 184.627,239.921 184.699 M282.114 190.600 C 282.117 191.700,282.195 192.103,282.287 191.495 C 282.379 190.886,282.377 189.986,282.282 189.495 C 282.187 189.003,282.111 189.500,282.114 190.600 M282.124 195.000 C 282.126 196.320,282.201 196.812,282.290 196.093 C 282.379 195.374,282.377 194.294,282.286 193.693 C 282.195 193.092,282.122 193.680,282.124 195.000 M239.700 201.498 C 241.625 201.571,244.775 201.571,246.700 201.498 C 248.625 201.425,247.050 201.365,243.200 201.365 C 239.350 201.365,237.775 201.425,239.700 201.498 M140.749 203.500 C 139.703 206.171,139.203 207.736,139.349 207.882 C 139.435 207.968,139.836 207.120,140.240 205.996 C 141.022 203.823,142.000 202.578,142.000 203.756 C 142.000 204.116,142.167 204.723,142.371 205.105 C 142.575 205.487,142.849 206.141,142.980 206.557 C 143.111 206.974,143.308 207.225,143.418 207.115 C 143.713 206.820,141.948 202.400,141.535 202.400 C 141.340 202.400,140.986 202.895,140.749 203.500 M114.171 206.643 C 114.035 207.059,113.558 208.351,113.110 209.514 C 112.662 210.677,112.386 211.719,112.496 211.829 C 112.606 211.939,113.175 210.738,113.760 209.160 C 114.345 207.582,114.733 206.199,114.621 206.088 C 114.510 205.977,114.308 206.226,114.171 206.643 M143.621 208.105 C 143.609 208.493,143.759 209.123,143.953 209.505 C 144.400 210.383,145.054 211.974,145.373 212.957 C 145.508 213.374,145.712 213.622,145.825 213.508 C 145.939 213.395,145.494 211.974,144.836 210.351 C 144.179 208.728,143.632 207.717,143.621 208.105 M168.800 207.845 C 168.800 208.430,172.559 217.974,172.724 217.809 C 172.889 217.644,172.524 216.481,171.592 214.200 C 171.412 213.760,170.772 212.095,170.169 210.500 C 169.179 207.879,168.800 207.144,168.800 207.845 M111.773 213.043 C 111.638 213.459,111.382 214.160,111.204 214.600 C 111.026 215.040,110.664 216.030,110.400 216.800 C 110.136 217.570,109.757 218.605,109.560 219.100 C 109.362 219.595,109.044 220.405,108.854 220.900 C 108.415 222.039,107.824 223.517,107.294 224.800 C 107.067 225.350,106.664 226.430,106.400 227.200 C 106.136 227.970,105.733 229.050,105.506 229.600 C 104.409 232.256,101.382 240.284,101.001 241.550 C 100.805 242.201,100.854 242.414,101.157 242.226 C 101.401 242.076,101.599 241.738,101.598 241.476 C 101.597 241.214,102.137 239.605,102.798 237.900 C 103.459 236.195,104.557 233.315,105.238 231.500 C 105.919 229.685,106.622 227.840,106.801 227.400 C 106.979 226.960,107.844 224.710,108.723 222.400 C 109.602 220.090,110.797 216.963,111.378 215.451 C 111.960 213.939,112.342 212.609,112.227 212.494 C 112.113 212.379,111.908 212.626,111.773 213.043 M136.615 214.215 C 136.230 215.224,135.998 216.132,136.100 216.233 C 136.201 216.335,136.600 215.593,136.985 214.585 C 137.370 213.576,137.602 212.668,137.500 212.567 C 137.399 212.465,137.000 213.207,136.615 214.215 M146.000 214.315 C 146.000 214.561,146.202 215.266,146.450 215.881 C 147.303 218.004,147.539 218.611,148.632 221.502 C 149.235 223.099,149.804 224.330,149.896 224.237 C 150.061 224.072,146.536 214.402,146.182 214.048 C 146.082 213.948,146.000 214.068,146.000 214.315 M134.259 220.655 C 133.428 222.825,132.579 224.913,132.374 225.295 C 132.168 225.677,132.000 226.442,132.000 226.995 L 132.000 228.000 141.600 228.000 C 151.988 228.000,151.688 228.073,150.578 225.800 C 150.052 224.724,150.013 225.033,150.451 226.800 C 150.580 227.318,149.353 227.415,141.500 227.508 C 134.013 227.596,132.400 227.518,132.400 227.068 C 132.400 226.766,133.210 224.468,134.199 221.960 C 135.189 219.452,135.947 217.245,135.884 217.055 C 135.822 216.866,135.090 218.486,134.259 220.655 M172.800 218.572 C 172.800 218.693,173.268 220.008,173.839 221.496 C 174.410 222.983,175.418 225.640,176.077 227.400 C 176.737 229.160,177.422 230.960,177.599 231.400 C 177.777 231.840,178.317 233.280,178.800 234.600 C 179.283 235.920,179.840 237.405,180.039 237.900 C 180.238 238.395,180.562 239.205,180.761 239.700 C 180.960 240.195,181.485 241.590,181.929 242.800 C 182.373 244.010,183.448 246.890,184.319 249.200 C 185.189 251.510,186.219 254.259,186.608 255.309 C 186.997 256.359,187.393 257.140,187.489 257.045 C 187.626 256.908,181.000 238.695,179.614 235.400 C 179.429 234.960,178.883 233.520,178.400 232.200 C 177.917 230.880,177.335 229.350,177.107 228.800 C 176.879 228.250,176.537 227.395,176.346 226.900 C 176.156 226.405,175.832 225.595,175.626 225.100 C 175.421 224.605,175.024 223.480,174.745 222.600 C 174.465 221.720,174.093 220.829,173.918 220.620 C 173.743 220.411,173.600 219.927,173.600 219.544 C 173.600 219.161,173.420 218.736,173.200 218.600 C 172.980 218.464,172.800 218.452,172.800 218.572 M236.262 225.500 C 236.161 225.665,240.644 225.800,246.226 225.800 C 251.807 225.800,256.065 225.678,255.687 225.528 C 254.741 225.154,236.492 225.127,236.262 225.500 M266.093 237.600 C 266.093 238.370,266.175 238.685,266.276 238.300 C 266.376 237.915,266.376 237.285,266.276 236.900 C 266.175 236.515,266.093 236.830,266.093 237.600 M98.630 247.698 C 98.025 249.294,97.163 251.551,96.713 252.714 C 96.263 253.877,95.983 254.916,96.090 255.023 C 96.197 255.130,97.133 252.947,98.171 250.171 C 99.210 247.396,99.985 245.051,99.894 244.960 C 99.803 244.869,99.234 246.101,98.630 247.698 M236.349 249.311 C 236.521 249.481,239.527 249.571,243.031 249.509 L 249.400 249.398 242.719 249.199 C 239.044 249.089,236.178 249.140,236.349 249.311 M122.382 252.034 C 122.136 252.493,122.025 252.959,122.135 253.069 C 122.245 253.179,122.536 252.893,122.782 252.434 C 123.224 251.607,123.387 251.600,141.566 251.600 L 159.903 251.600 160.392 252.900 C 160.661 253.615,161.026 254.560,161.204 255.000 C 161.382 255.440,161.638 256.141,161.773 256.557 C 161.908 256.974,162.108 257.225,162.218 257.115 C 162.444 256.889,160.861 252.464,160.281 251.700 C 159.511 250.685,122.931 251.008,122.382 252.034 M95.377 256.243 C 95.244 256.659,94.970 257.413,94.767 257.919 C 93.607 260.820,94.813 266.775,97.095 269.415 C 98.056 270.527,101.422 272.804,102.072 272.782 C 102.362 272.773,101.928 272.410,101.108 271.977 C 96.015 269.288,93.508 262.963,95.404 257.588 C 95.737 256.646,95.921 255.788,95.814 255.680 C 95.707 255.573,95.510 255.826,95.377 256.243 M120.215 257.415 C 119.830 258.424,119.598 259.332,119.700 259.433 C 119.801 259.535,120.200 258.793,120.585 257.785 C 120.970 256.776,121.202 255.868,121.100 255.767 C 120.999 255.665,120.600 256.407,120.215 257.415 M162.514 258.300 C 162.955 259.789,165.166 265.607,165.795 266.932 C 166.907 269.276,170.951 272.800,172.528 272.800 C 172.768 272.800,171.990 272.215,170.799 271.500 C 167.812 269.707,166.406 267.669,164.418 262.250 C 162.986 258.344,161.797 255.879,162.514 258.300 M187.800 261.601 C 187.800 263.759,187.932 265.316,188.094 265.062 C 188.256 264.808,188.388 263.250,188.388 261.600 C 188.388 259.950,188.256 258.393,188.094 258.139 C 187.932 257.886,187.800 259.444,187.800 261.601 M117.470 264.693 C 116.149 268.061,114.158 270.493,111.656 271.796 C 110.635 272.328,110.084 272.771,110.431 272.781 C 111.470 272.812,114.622 270.501,115.729 268.897 C 116.981 267.083,118.885 262.855,118.700 262.300 C 118.626 262.079,118.073 263.156,117.470 264.693 M186.079 267.938 C 184.955 269.673,183.354 271.061,181.000 272.341 C 180.560 272.580,180.438 272.781,180.728 272.788 C 182.067 272.819,185.860 269.618,187.038 267.463 C 188.083 265.549,187.411 265.882,186.079 267.938 M103.329 273.288 C 103.936 273.674,108.457 273.679,109.061 273.294 C 109.314 273.132,108.023 272.997,106.190 272.994 C 104.357 272.991,103.070 273.123,103.329 273.288 M173.738 273.294 C 173.992 273.456,175.280 273.588,176.600 273.588 C 177.920 273.588,179.208 273.456,179.462 273.294 C 179.716 273.132,178.428 273.000,176.600 273.000 C 174.772 273.000,173.484 273.132,173.738 273.294 M175.600 308.790 C 175.270 308.979,174.318 309.430,173.484 309.793 C 170.626 311.037,167.130 315.221,167.223 317.287 C 167.236 317.569,167.646 316.957,168.134 315.926 C 169.580 312.873,172.254 310.400,175.200 309.390 C 175.750 309.202,181.330 308.940,187.600 308.809 L 199.000 308.570 187.600 308.509 C 181.330 308.475,175.930 308.601,175.600 308.790 M166.967 321.000 C 167.052 325.719,169.559 329.471,174.000 331.526 C 176.383 332.628,200.353 333.499,198.800 332.426 C 198.423 332.166,194.192 332.010,187.428 332.006 C 175.886 332.000,175.102 331.892,172.111 329.901 C 169.160 327.937,167.355 324.473,167.056 320.200 C 166.979 319.100,166.939 319.460,166.967 321.000 " stroke="none" fill="#ffffff" fill-rule="evenodd"></path></g></svg>