<svg id="svg" version="1.1" xmlns="http://www.w3.org/2000/svg" xmlns:xlink="http://www.w3.org/1999/xlink" width="400" height="400" viewBox="0, 0, 400,400"><g id="svgg"><path id="path0" d="M198.703 57.768 L 198.600 115.535 200.200 115.718 C 205.331 116.302,210.901 118.094,213.662 120.048 C 214.246 120.462,214.851 120.800,215.006 120.800 C 215.823 120.800,220.914 125.532,222.753 128.000 C 223.326 128.770,223.900 129.490,224.028 129.600 C 224.155 129.710,224.696 130.610,225.230 131.600 C 225.763 132.590,226.335 133.460,226.500 133.533 C 226.665 133.607,226.800 133.924,226.800 134.239 C 226.800 134.553,227.008 135.213,227.262 135.705 C 228.249 137.614,228.400 138.013,228.400 138.715 C 228.400 139.114,228.563 139.611,228.761 139.820 C 230.009 141.133,229.998 155.860,228.748 156.632 C 228.557 156.750,228.400 157.199,228.400 157.629 C 228.400 158.059,228.220 158.768,228.000 159.205 C 227.780 159.642,227.420 160.358,227.200 160.795 C 226.980 161.232,226.800 161.862,226.800 162.195 C 226.800 162.528,226.664 162.800,226.498 162.800 C 224.819 162.800,225.241 165.259,227.274 167.327 C 229.767 169.862,230.233 170.421,231.847 172.809 C 234.125 176.181,235.502 179.556,237.165 185.846 C 238.928 192.516,236.885 204.604,232.896 211.108 C 229.923 215.954,223.373 222.800,221.708 222.800 C 221.429 222.800,221.200 222.937,221.200 223.104 C 221.200 223.393,216.929 225.659,214.800 226.499 C 214.250 226.716,213.487 227.052,213.105 227.247 C 212.723 227.441,211.994 227.600,211.485 227.600 C 210.976 227.600,210.389 227.763,210.180 227.961 C 209.718 228.401,206.968 228.782,202.300 229.053 L 198.800 229.257 198.800 252.028 L 198.800 274.800 209.776 274.800 C 216.663 274.800,220.845 274.949,221.000 275.200 C 221.136 275.420,221.651 275.600,222.144 275.600 C 223.179 275.600,225.192 276.457,225.197 276.900 C 225.199 277.065,225.435 277.200,225.722 277.200 C 226.008 277.200,226.797 277.785,227.473 278.500 C 233.870 285.261,231.338 295.749,222.584 298.747 L 219.819 299.695 198.810 299.517 C 187.254 299.419,182.525 299.401,188.300 299.476 L 198.800 299.613 198.800 349.861 L 198.800 400.109 208.981 399.920 C 216.937 399.771,219.313 399.607,219.857 399.165 C 220.306 398.801,220.447 398.778,220.253 399.100 C 220.088 399.375,220.143 399.600,220.376 399.600 C 220.609 399.600,220.800 399.420,220.800 399.200 C 220.800 398.980,221.801 398.800,223.024 398.800 C 224.404 398.800,225.153 398.648,225.000 398.400 C 224.846 398.151,225.604 398.000,227.000 398.000 C 228.396 398.000,229.154 397.849,229.000 397.600 C 228.847 397.352,229.596 397.200,230.976 397.200 C 232.199 397.200,233.200 397.020,233.200 396.800 C 233.200 396.580,233.740 396.400,234.400 396.400 C 235.060 396.400,235.600 396.220,235.600 396.000 C 235.600 395.780,236.320 395.600,237.200 395.600 C 238.080 395.600,238.800 395.420,238.800 395.200 C 238.800 394.980,239.430 394.800,240.200 394.800 C 240.970 394.800,241.600 394.620,241.600 394.400 C 241.600 394.180,242.140 394.000,242.800 394.000 C 243.460 394.000,244.000 393.820,244.000 393.600 C 244.000 393.380,244.355 393.200,244.788 393.200 C 245.221 393.200,246.217 392.840,247.000 392.400 C 247.783 391.960,248.847 391.600,249.363 391.600 C 250.713 391.600,254.871 389.899,255.905 388.924 C 256.182 388.662,256.767 388.517,257.205 388.601 C 257.642 388.685,258.000 388.584,258.000 388.377 C 258.000 388.170,258.281 388.000,258.624 388.000 C 258.967 388.000,259.136 387.820,259.000 387.600 C 258.856 387.367,259.263 387.200,259.976 387.200 C 260.649 387.200,261.200 387.020,261.200 386.800 C 261.200 386.580,261.560 386.400,262.000 386.400 C 262.440 386.400,262.800 386.220,262.800 386.000 C 262.800 385.780,263.160 385.600,263.600 385.600 C 264.040 385.600,264.400 385.420,264.400 385.200 C 264.400 384.980,264.771 384.800,265.224 384.800 C 265.677 384.800,265.939 384.625,265.807 384.412 C 265.675 384.198,266.025 383.909,266.584 383.768 C 267.143 383.628,267.600 383.342,267.600 383.133 C 267.600 382.924,267.768 382.856,267.972 382.983 C 268.177 383.109,268.458 383.030,268.596 382.807 C 268.734 382.583,269.207 382.400,269.647 382.400 C 270.087 382.400,270.355 382.251,270.243 382.069 C 270.130 381.887,270.913 381.302,271.981 380.769 C 273.050 380.237,273.840 379.665,273.738 379.500 C 273.636 379.335,273.934 379.200,274.400 379.200 C 274.866 379.200,275.136 379.020,275.000 378.800 C 274.864 378.580,275.147 378.400,275.629 378.400 C 276.112 378.400,276.809 378.051,277.178 377.625 C 277.548 377.199,278.108 376.794,278.422 376.725 C 278.735 376.656,279.471 376.105,280.057 375.500 C 280.642 374.895,281.375 374.400,281.685 374.400 C 281.995 374.400,282.816 373.845,283.509 373.167 C 284.287 372.407,284.967 372.048,285.285 372.231 C 285.568 372.395,285.666 372.381,285.503 372.200 C 285.181 371.845,286.787 370.537,287.330 370.713 C 287.511 370.772,287.545 370.635,287.406 370.410 C 287.267 370.184,287.444 370.000,287.800 370.000 C 288.156 370.000,288.336 369.820,288.200 369.600 C 287.973 369.233,288.520 369.022,289.330 369.163 C 289.511 369.194,289.570 369.075,289.460 368.897 C 289.350 368.719,289.877 368.152,290.630 367.635 C 291.384 367.119,292.000 366.540,292.000 366.348 C 292.000 366.157,292.178 366.000,292.395 366.000 C 292.613 366.000,293.828 364.960,295.095 363.688 C 296.363 362.416,298.030 360.940,298.800 360.407 C 300.453 359.263,301.915 357.681,302.231 356.694 C 302.356 356.306,302.619 356.088,302.815 356.209 C 303.012 356.331,303.695 355.710,304.333 354.829 C 304.971 353.948,305.591 353.324,305.710 353.444 C 305.829 353.563,306.046 353.287,306.190 352.830 C 306.335 352.374,306.632 352.000,306.851 352.000 C 307.069 352.000,307.136 351.820,307.000 351.600 C 306.864 351.380,307.001 351.200,307.304 351.200 C 307.925 351.200,309.600 349.424,309.600 348.766 C 309.600 348.530,310.335 347.631,311.233 346.769 C 312.131 345.906,312.716 345.195,312.533 345.188 C 312.350 345.181,312.515 344.992,312.900 344.768 C 313.285 344.544,313.600 344.119,313.600 343.825 C 313.600 343.531,314.138 342.865,314.796 342.345 C 315.454 341.825,315.994 341.104,315.996 340.743 C 315.998 340.381,316.267 339.983,316.593 339.858 C 316.961 339.717,317.087 339.371,316.925 338.950 C 316.748 338.489,316.815 338.362,317.132 338.558 C 317.416 338.733,317.600 338.592,317.600 338.200 C 317.600 337.844,317.780 337.664,318.000 337.800 C 318.220 337.936,318.400 337.767,318.400 337.424 C 318.400 337.081,318.580 336.800,318.800 336.800 C 319.020 336.800,319.200 336.622,319.200 336.403 C 319.200 336.185,319.855 335.150,320.655 334.103 C 321.455 333.057,322.282 331.705,322.494 331.100 C 322.705 330.495,323.026 330.000,323.207 330.000 C 323.388 330.000,323.655 329.460,323.800 328.800 C 323.945 328.140,324.229 327.600,324.432 327.600 C 324.634 327.600,324.800 327.352,324.800 327.049 C 324.800 326.746,325.070 326.274,325.400 326.000 C 325.730 325.726,326.000 325.164,326.000 324.751 C 326.000 324.338,326.180 324.000,326.400 324.000 C 326.620 324.000,326.800 323.680,326.800 323.288 C 326.800 322.897,327.160 322.317,327.600 322.000 C 328.040 321.683,328.400 321.103,328.400 320.712 C 328.400 320.320,328.580 320.000,328.800 320.000 C 329.020 320.000,329.200 319.640,329.200 319.200 C 329.200 318.760,329.380 318.400,329.600 318.400 C 329.820 318.400,330.000 318.040,330.000 317.600 C 330.000 317.160,330.180 316.800,330.400 316.800 C 330.620 316.800,330.800 316.339,330.800 315.776 C 330.800 315.196,330.973 314.860,331.200 315.000 C 331.547 315.214,331.809 314.057,331.637 313.070 C 331.606 312.889,331.765 312.855,331.990 312.994 C 332.221 313.136,332.400 312.877,332.400 312.400 C 332.400 311.861,332.568 311.657,332.862 311.838 C 333.119 311.997,333.216 311.950,333.081 311.731 C 332.948 311.515,333.280 310.467,333.819 309.402 C 334.359 308.336,334.800 307.240,334.800 306.966 C 334.800 306.691,334.977 306.407,335.193 306.333 C 335.409 306.260,335.634 305.543,335.693 304.739 C 335.752 303.935,335.935 303.361,336.100 303.463 C 336.265 303.564,336.400 303.277,336.400 302.824 C 336.400 302.371,336.560 302.000,336.755 302.000 C 336.951 302.000,337.234 301.325,337.385 300.500 C 337.536 299.675,337.889 298.640,338.169 298.200 C 338.616 297.499,338.914 296.410,339.472 293.431 C 339.551 293.009,339.814 292.424,340.057 292.131 C 340.299 291.839,340.394 291.600,340.267 291.600 C 340.140 291.600,340.270 290.925,340.557 290.100 C 340.844 289.275,341.047 288.195,341.007 287.700 C 340.966 287.205,341.084 286.800,341.267 286.800 C 341.450 286.800,341.600 286.249,341.600 285.576 C 341.600 284.843,341.764 284.454,342.010 284.606 C 342.235 284.745,342.394 284.711,342.363 284.530 C 342.138 283.236,342.465 279.993,342.800 280.200 C 343.037 280.346,343.200 279.893,343.200 279.090 C 343.200 278.344,343.333 277.600,343.496 277.438 C 343.658 277.275,343.820 276.660,343.855 276.071 C 344.031 273.133,344.186 272.000,344.410 272.000 C 344.546 272.000,344.699 271.055,344.751 269.900 C 344.803 268.745,345.015 267.629,345.223 267.420 C 345.786 266.853,345.687 265.903,345.100 266.235 C 344.700 266.461,344.700 266.410,345.100 265.979 C 345.386 265.670,345.600 264.398,345.600 263.000 C 345.600 261.658,345.808 260.352,346.063 260.097 C 346.414 259.746,346.409 259.493,346.044 259.053 C 345.738 258.684,345.706 258.382,345.957 258.227 C 346.599 257.830,346.554 236.002,345.911 235.994 C 345.556 235.990,345.583 235.870,346.000 235.600 C 346.400 235.342,346.433 235.210,346.100 235.206 C 345.767 235.202,345.600 234.530,345.600 233.200 C 345.600 231.870,345.433 231.198,345.100 231.194 C 344.767 231.190,344.800 231.058,345.200 230.800 C 345.530 230.587,345.603 230.409,345.362 230.406 C 345.105 230.403,344.893 229.455,344.849 228.116 C 344.808 226.859,344.610 225.730,344.409 225.605 C 344.207 225.481,343.998 224.619,343.943 223.690 C 343.888 222.760,343.699 222.000,343.522 222.000 C 343.345 222.000,343.200 221.280,343.200 220.400 C 343.200 219.520,343.020 218.800,342.800 218.800 C 342.580 218.800,342.400 218.159,342.400 217.376 C 342.400 216.344,342.263 216.035,341.900 216.253 C 341.609 216.428,341.650 216.239,342.000 215.800 C 342.330 215.386,342.388 215.173,342.129 215.329 C 341.801 215.526,341.574 214.914,341.379 213.305 C 341.224 212.037,340.847 210.507,340.541 209.904 C 340.235 209.301,339.983 208.717,339.982 208.606 C 339.976 207.831,339.452 206.000,339.235 206.000 C 339.089 206.000,338.926 205.418,338.872 204.707 C 338.817 203.995,338.599 203.239,338.387 203.027 C 338.174 202.814,338.000 202.226,338.000 201.720 C 338.000 201.214,337.820 200.800,337.600 200.800 C 337.380 200.800,337.200 200.440,337.200 200.000 C 337.200 199.560,337.020 199.200,336.800 199.200 C 336.580 199.200,336.400 198.540,336.400 197.733 C 336.400 196.927,336.284 196.383,336.142 196.525 C 335.905 196.762,334.027 192.033,333.915 190.918 C 333.889 190.652,333.717 190.528,333.533 190.641 C 333.251 190.816,333.165 190.488,333.208 189.396 C 333.213 189.284,332.950 188.676,332.624 188.047 C 332.298 187.417,332.160 186.760,332.316 186.587 C 332.472 186.413,332.375 186.401,332.100 186.559 C 331.751 186.760,331.598 186.508,331.594 185.724 C 331.589 184.851,331.501 184.734,331.200 185.200 C 330.912 185.645,330.811 185.407,330.806 184.276 C 330.802 183.364,330.640 182.852,330.400 183.000 C 330.052 183.215,329.810 182.404,329.953 181.500 C 329.979 181.335,329.820 181.200,329.600 181.200 C 329.380 181.200,329.200 180.935,329.200 180.612 C 329.200 180.289,328.840 179.383,328.400 178.600 C 327.960 177.817,327.600 176.898,327.600 176.559 C 327.600 176.220,327.328 175.671,326.996 175.339 C 326.664 175.007,326.495 174.570,326.620 174.368 C 326.745 174.165,326.657 174.000,326.424 174.000 C 326.191 174.000,326.000 173.629,326.000 173.176 C 326.000 172.723,325.820 172.464,325.600 172.600 C 325.380 172.736,325.186 172.612,325.169 172.324 C 325.082 170.831,323.536 167.150,322.472 165.900 C 322.144 165.515,322.016 165.200,322.187 165.200 C 322.358 165.200,322.308 164.971,322.075 164.691 C 321.396 163.872,319.200 159.563,319.200 159.048 C 319.200 158.789,318.840 158.317,318.400 158.000 C 317.960 157.683,317.600 157.000,317.600 156.483 C 317.600 155.966,317.328 155.271,316.996 154.939 C 316.664 154.607,316.495 154.170,316.620 153.968 C 316.745 153.765,316.678 153.600,316.470 153.600 C 316.263 153.600,315.985 153.285,315.852 152.900 C 315.720 152.515,315.252 151.615,314.814 150.900 C 314.375 150.185,314.137 149.600,314.285 149.600 C 314.432 149.600,314.204 149.336,313.776 149.013 C 313.349 148.690,313.142 148.420,313.316 148.413 C 313.489 148.406,313.264 148.006,312.816 147.525 C 312.367 147.043,312.000 146.252,312.000 145.767 C 312.000 145.282,311.728 144.781,311.396 144.654 C 311.064 144.527,310.823 144.282,310.860 144.111 C 310.999 143.466,310.299 142.415,309.896 142.664 C 309.662 142.809,309.594 142.733,309.742 142.494 C 309.888 142.258,309.724 141.781,309.378 141.435 C 309.031 141.088,308.658 140.310,308.548 139.704 C 308.438 139.099,308.090 138.458,307.774 138.282 C 307.458 138.105,307.200 137.782,307.200 137.563 C 307.200 137.345,306.860 136.802,306.445 136.356 C 306.013 135.893,305.776 135.214,305.891 134.772 C 306.002 134.348,305.937 134.000,305.746 134.000 C 305.555 134.000,304.969 133.190,304.444 132.200 C 303.919 131.210,303.334 130.400,303.144 130.400 C 302.955 130.400,302.800 130.151,302.800 129.846 C 302.800 129.016,301.760 127.173,301.461 127.473 C 301.317 127.616,301.194 127.388,301.187 126.967 C 301.172 126.050,300.229 124.704,299.860 125.073 C 299.717 125.216,299.600 124.853,299.600 124.267 C 299.600 123.680,299.420 123.200,299.200 123.200 C 298.980 123.200,298.800 122.932,298.800 122.603 C 298.800 122.275,298.440 121.782,298.000 121.507 C 297.560 121.232,297.200 120.644,297.200 120.200 C 297.200 119.756,296.840 119.168,296.400 118.893 C 295.960 118.618,295.600 118.035,295.600 117.597 C 295.600 117.158,295.420 116.800,295.200 116.800 C 294.980 116.800,294.800 116.622,294.800 116.405 C 294.800 116.029,294.033 114.976,292.871 113.755 C 292.475 113.338,292.465 113.200,292.833 113.200 C 293.102 113.200,292.935 112.864,292.461 112.453 C 291.988 112.042,291.600 111.456,291.600 111.149 C 291.600 110.843,291.233 110.363,290.784 110.083 C 290.336 109.803,290.082 109.390,290.221 109.166 C 290.360 108.941,290.069 108.407,289.576 107.979 C 289.082 107.550,288.808 107.200,288.968 107.200 C 289.127 107.200,288.887 106.729,288.434 106.153 C 287.982 105.577,287.697 104.966,287.803 104.795 C 287.909 104.624,287.715 104.376,287.372 104.245 C 287.030 104.113,286.861 103.824,286.998 103.603 C 287.135 103.381,287.058 103.200,286.826 103.200 C 286.594 103.200,286.023 102.390,285.558 101.400 C 285.093 100.410,284.552 99.600,284.356 99.600 C 284.160 99.600,284.000 99.319,284.000 98.976 C 284.000 98.633,283.820 98.464,283.600 98.600 C 283.380 98.736,283.200 98.644,283.200 98.396 C 283.200 98.147,282.660 97.159,282.000 96.200 C 281.340 95.241,280.800 94.273,280.800 94.051 C 280.800 93.828,280.485 93.410,280.100 93.123 C 279.715 92.835,279.145 92.105,278.832 91.500 C 278.520 90.895,278.115 90.400,277.932 90.400 C 277.750 90.400,277.600 90.040,277.600 89.600 C 277.600 89.160,277.420 88.800,277.200 88.800 C 276.980 88.800,276.800 88.530,276.800 88.200 C 276.800 87.870,276.620 87.600,276.400 87.600 C 276.180 87.600,276.000 87.370,276.000 87.088 C 276.000 86.807,275.640 86.317,275.200 86.000 C 274.760 85.683,274.400 85.125,274.400 84.761 C 274.400 84.396,274.130 83.874,273.800 83.600 C 273.470 83.326,273.200 82.864,273.200 82.574 C 273.200 82.283,272.827 81.784,272.371 81.465 C 271.915 81.145,271.505 80.636,271.461 80.333 C 271.384 79.810,269.576 77.209,268.496 76.068 C 268.219 75.775,268.095 75.370,268.220 75.168 C 268.345 74.965,268.156 74.800,267.800 74.800 C 267.444 74.800,267.264 74.620,267.400 74.400 C 267.536 74.180,267.457 74.000,267.224 74.000 C 266.991 74.000,266.800 73.773,266.800 73.496 C 266.800 73.219,266.440 72.768,266.000 72.493 C 265.560 72.218,265.200 71.618,265.200 71.159 C 265.200 70.662,264.877 70.241,264.400 70.116 C 263.960 70.001,263.600 69.642,263.600 69.317 C 263.600 68.993,263.195 68.371,262.700 67.934 C 262.205 67.497,262.025 67.253,262.300 67.393 C 263.133 67.816,262.866 67.262,261.600 65.937 C 260.940 65.246,260.400 64.438,260.400 64.141 C 260.400 63.843,260.220 63.600,260.000 63.600 C 259.780 63.600,259.600 63.330,259.600 63.000 C 259.600 62.670,259.319 62.400,258.976 62.400 C 258.633 62.400,258.464 62.220,258.600 62.000 C 258.736 61.780,258.678 61.600,258.472 61.600 C 258.266 61.600,257.873 61.060,257.600 60.400 C 257.327 59.740,256.948 59.200,256.759 59.200 C 256.570 59.200,256.300 58.742,256.160 58.181 C 256.019 57.621,255.814 57.253,255.704 57.362 C 255.261 57.805,253.604 55.247,253.594 54.105 C 253.589 53.504,253.531 53.488,253.200 54.000 C 252.883 54.490,252.811 54.443,252.806 53.743 C 252.803 53.271,252.519 52.778,252.175 52.646 C 251.831 52.514,251.661 52.224,251.798 52.003 C 251.935 51.781,251.857 51.600,251.624 51.600 C 251.391 51.600,251.200 51.422,251.200 51.203 C 251.200 50.985,250.662 50.293,250.005 49.665 C 249.348 49.037,248.897 48.436,249.004 48.330 C 249.110 48.223,248.748 47.714,248.198 47.199 C 247.649 46.683,247.200 46.011,247.200 45.707 C 247.200 45.402,247.020 45.264,246.800 45.400 C 246.580 45.536,246.400 45.266,246.400 44.800 C 246.400 44.334,246.220 44.064,246.000 44.200 C 245.780 44.336,245.600 44.156,245.600 43.800 C 245.600 43.413,245.415 43.267,245.138 43.438 C 244.862 43.609,244.785 43.549,244.946 43.288 C 245.094 43.048,244.762 42.398,244.208 41.844 C 243.653 41.290,243.197 40.513,243.194 40.118 C 243.189 39.578,243.105 39.531,242.853 39.928 C 242.612 40.309,242.318 40.036,241.805 38.953 C 241.132 37.536,240.834 37.087,239.752 35.867 C 239.505 35.588,239.003 34.779,238.635 34.067 C 238.267 33.356,237.794 32.880,237.583 33.011 C 237.238 33.224,237.029 32.685,237.153 31.900 C 237.179 31.735,236.975 31.645,236.700 31.700 C 236.425 31.755,236.251 31.556,236.314 31.259 C 236.376 30.961,236.061 30.400,235.614 30.012 C 235.166 29.624,234.800 29.145,234.800 28.948 C 234.800 28.751,234.353 28.254,233.808 27.845 C 233.262 27.435,232.892 26.975,232.986 26.822 C 233.080 26.670,232.807 26.293,232.379 25.985 C 231.950 25.676,231.586 25.058,231.568 24.612 C 231.551 24.165,231.448 24.020,231.339 24.288 C 231.183 24.673,231.029 24.673,230.613 24.288 C 230.322 24.020,230.157 23.680,230.246 23.532 C 230.335 23.385,230.181 23.025,229.904 22.732 C 229.627 22.440,228.893 21.521,228.273 20.691 C 227.653 19.861,226.713 18.749,226.184 18.220 C 225.536 17.572,225.382 17.195,225.711 17.061 C 225.981 16.952,225.876 16.849,225.476 16.832 C 225.078 16.814,224.864 16.620,225.000 16.400 C 225.136 16.180,225.053 16.000,224.815 16.000 C 224.577 16.000,224.180 15.556,223.933 15.013 C 223.685 14.469,223.335 14.117,223.153 14.229 C 222.972 14.341,222.709 13.975,222.568 13.415 C 222.428 12.856,221.779 11.948,221.126 11.399 C 220.473 10.849,220.042 10.400,220.169 10.400 C 220.296 10.400,220.085 10.067,219.700 9.660 C 218.404 8.291,217.600 7.193,217.600 6.795 C 217.600 6.578,217.442 6.445,217.249 6.500 C 217.055 6.555,216.290 6.007,215.549 5.283 C 213.275 3.062,212.949 2.800,212.466 2.800 C 212.210 2.800,212.000 2.659,212.000 2.487 C 212.000 2.315,211.505 2.134,210.900 2.084 C 210.295 2.034,209.740 1.815,209.667 1.597 C 209.593 1.378,209.268 1.200,208.943 1.200 C 208.618 1.200,208.449 1.045,208.565 0.856 C 208.814 0.454,204.985 -0.000,201.344 0.000 L 198.805 0.000 198.703 57.768 M187.100 139.898 C 188.915 139.972,191.885 139.972,193.700 139.898 C 195.515 139.823,194.030 139.763,190.400 139.763 C 186.770 139.763,185.285 139.823,187.100 139.898 M198.717 147.839 C 198.794 153.013,198.687 155.854,198.403 156.197 C 197.581 157.187,200.909 155.750,202.468 154.441 C 206.845 150.766,205.362 140.800,200.438 140.800 C 200.197 140.800,200.000 140.620,200.000 140.400 C 200.000 140.180,199.685 140.000,199.300 140.000 C 198.653 139.999,198.609 140.595,198.717 147.839 M198.712 192.591 L 198.823 204.383 191.112 204.530 C 186.870 204.611,188.087 204.629,193.817 204.571 C 204.013 204.468,204.280 204.444,206.455 203.449 C 218.604 197.892,213.826 180.802,200.123 180.800 L 198.600 180.800 198.712 192.591 M188.719 229.098 C 190.544 229.172,193.424 229.172,195.119 229.097 C 196.814 229.022,195.320 228.961,191.800 228.962 C 188.280 228.962,186.894 229.024,188.719 229.098 M182.524 275.099 C 185.562 275.167,190.422 275.167,193.324 275.099 C 196.226 275.031,193.740 274.975,187.800 274.975 C 181.860 274.975,179.486 275.031,182.524 275.099 M166.493 287.200 C 166.493 287.970,166.575 288.285,166.676 287.900 C 166.776 287.515,166.776 286.885,166.676 286.500 C 166.575 286.115,166.493 286.430,166.493 287.200 " stroke="none" fill="#c52c69" fill-rule="evenodd"></path><path id="path1" d="M183.200 116.389 C 165.899 116.626,166.178 116.580,163.109 119.741 C 161.600 121.296,160.959 122.452,160.061 125.228 C 159.393 127.298,159.405 216.262,160.074 219.269 C 160.818 222.610,162.937 225.367,166.200 227.241 C 167.850 228.188,201.952 229.179,205.395 228.380 C 206.097 228.218,205.013 228.121,202.800 228.150 L 199.000 228.200 198.894 216.909 L 198.788 205.618 199.694 205.416 C 200.192 205.304,201.320 205.141,202.200 205.054 C 203.080 204.966,202.630 204.978,201.200 205.079 C 199.770 205.181,195.090 205.295,190.800 205.332 L 183.000 205.400 182.894 192.900 L 182.789 180.400 190.894 180.400 L 199.000 180.400 198.888 168.953 C 198.784 158.369,198.829 157.465,199.488 156.966 C 199.880 156.669,199.986 156.420,199.724 156.413 C 199.462 156.406,199.136 156.580,199.000 156.800 C 198.849 157.045,195.663 157.200,190.776 157.200 L 182.800 157.200 182.800 148.200 L 182.800 139.200 190.351 139.200 C 196.188 139.200,198.231 139.337,199.351 139.805 C 200.148 140.138,200.800 140.314,200.800 140.195 C 200.800 140.077,200.347 139.808,199.794 139.598 L 198.788 139.215 198.894 127.911 L 199.000 116.608 200.200 116.351 C 201.371 116.101,201.366 116.096,200.000 116.136 C 199.230 116.159,191.670 116.272,183.200 116.389 M202.033 116.543 C 202.125 116.622,202.920 116.797,203.800 116.932 C 204.890 117.099,205.209 117.055,204.800 116.795 C 204.253 116.446,201.645 116.209,202.033 116.543 M216.400 122.461 C 218.612 124.667,222.010 127.576,220.600 126.056 C 219.720 125.108,218.280 123.777,217.400 123.097 C 216.520 122.418,216.070 122.132,216.400 122.461 M223.004 129.400 C 224.607 131.626,225.050 132.039,224.157 130.473 C 223.741 129.743,223.052 128.843,222.626 128.473 C 222.176 128.082,222.334 128.469,223.004 129.400 M228.012 140.000 C 228.012 140.330,228.187 140.870,228.400 141.200 C 228.745 141.733,228.788 141.733,228.788 141.200 C 228.788 140.870,228.613 140.330,228.400 140.000 C 228.055 139.467,228.012 139.467,228.012 140.000 M228.999 148.443 C 228.998 151.652,229.107 153.115,229.276 152.165 C 229.620 150.227,229.611 145.320,229.260 144.078 C 229.117 143.571,229.000 145.535,228.999 148.443 M205.714 148.200 C 205.717 149.300,205.795 149.703,205.887 149.095 C 205.979 148.486,205.977 147.586,205.882 147.095 C 205.787 146.603,205.711 147.100,205.714 148.200 M226.800 167.835 C 228.010 169.152,229.068 170.184,229.152 170.129 C 229.385 169.976,227.150 167.495,225.800 166.407 C 225.140 165.876,225.590 166.518,226.800 167.835 M231.011 172.900 C 231.837 174.165,232.592 175.200,232.689 175.200 C 232.987 175.200,231.126 172.248,230.294 171.400 C 229.862 170.960,230.185 171.635,231.011 172.900 M203.200 180.800 C 204.742 181.294,205.564 181.294,204.800 180.800 C 204.470 180.587,203.750 180.427,203.200 180.446 L 202.200 180.480 203.200 180.800 M235.444 181.800 C 235.773 183.271,236.002 183.590,235.994 182.567 C 235.991 182.145,235.805 181.530,235.582 181.200 C 235.285 180.762,235.248 180.924,235.444 181.800 M236.268 185.000 C 236.571 186.977,236.802 187.314,236.794 185.767 C 236.791 185.125,236.616 184.330,236.405 184.000 C 236.145 183.591,236.101 183.910,236.268 185.000 M212.452 187.298 C 212.717 187.791,213.171 189.006,213.462 189.998 L 213.991 191.800 213.761 190.214 C 213.539 188.679,212.591 186.400,212.176 186.400 C 212.064 186.400,212.188 186.804,212.452 187.298 M237.000 192.800 C 237.000 195.906,237.117 198.032,237.260 197.524 C 237.403 197.016,237.520 194.890,237.520 192.800 C 237.520 190.710,237.403 188.584,237.260 188.076 C 237.117 187.568,237.000 189.694,237.000 192.800 M213.431 195.386 C 213.266 196.259,212.868 197.519,212.546 198.186 C 212.009 199.300,212.013 199.335,212.589 198.612 C 213.305 197.713,214.125 194.973,213.888 194.270 C 213.801 194.012,213.595 194.514,213.431 195.386 M236.454 199.867 C 236.425 200.344,236.296 201.064,236.170 201.467 C 235.952 202.161,235.964 202.162,236.396 201.488 C 236.647 201.097,236.775 200.377,236.681 199.888 C 236.509 199.001,236.509 199.001,236.454 199.867 M210.000 201.467 C 208.525 202.992,208.436 203.158,209.506 202.384 C 210.574 201.613,212.320 199.592,211.909 199.603 C 211.849 199.605,210.990 200.444,210.000 201.467 M235.646 202.867 C 235.621 203.234,235.496 203.864,235.370 204.267 C 235.152 204.962,235.163 204.963,235.597 204.287 C 235.848 203.896,235.973 203.266,235.873 202.887 C 235.711 202.268,235.688 202.266,235.646 202.867 M231.800 211.600 C 231.459 212.260,231.269 212.800,231.379 212.800 C 231.489 212.800,231.859 212.260,232.200 211.600 C 232.541 210.940,232.731 210.400,232.621 210.400 C 232.511 210.400,232.141 210.940,231.800 211.600 M228.175 216.500 L 227.000 217.800 228.300 216.625 C 229.015 215.979,229.600 215.394,229.600 215.325 C 229.600 215.016,229.270 215.288,228.175 216.500 M224.572 219.912 C 223.896 220.510,222.816 221.413,222.172 221.918 C 221.527 222.422,221.810 222.308,222.800 221.664 C 224.360 220.649,226.435 218.777,225.962 218.812 C 225.873 218.818,225.247 219.313,224.572 219.912 M219.000 223.810 C 218.120 224.352,217.559 224.797,217.753 224.798 C 218.163 224.800,220.800 223.216,220.800 222.967 C 220.800 222.713,220.721 222.751,219.000 223.810 M198.400 275.600 C 198.050 275.826,193.202 275.990,186.775 275.994 C 176.404 276.000,175.645 276.050,173.975 276.842 C 166.756 280.265,165.026 289.024,170.400 294.941 C 173.271 298.102,173.551 298.163,186.800 298.505 C 209.838 299.100,219.875 299.221,220.710 298.912 C 221.176 298.741,216.482 298.600,210.278 298.600 L 199.000 298.600 198.894 287.309 L 198.788 276.018 199.759 275.774 C 200.294 275.640,205.529 275.591,211.394 275.665 C 217.258 275.739,221.639 275.683,221.128 275.540 C 219.613 275.115,199.066 275.170,198.400 275.600 M230.501 287.400 C 230.505 288.280,230.587 288.593,230.683 288.095 C 230.779 287.598,230.775 286.878,230.675 286.495 C 230.575 286.113,230.496 286.520,230.501 287.400 " stroke="none" fill="#ffffff" fill-rule="evenodd"></path><path id="path2" d="M192.639 0.292 C 192.000 0.387,191.221 0.722,190.907 1.036 C 190.593 1.350,190.170 1.505,189.968 1.380 C 189.765 1.255,189.600 1.343,189.600 1.576 C 189.600 1.809,189.317 2.000,188.971 2.000 C 188.626 2.000,188.071 2.272,187.739 2.604 C 187.407 2.936,186.942 3.088,186.706 2.942 C 186.451 2.785,186.393 2.864,186.562 3.138 C 186.719 3.392,186.702 3.600,186.524 3.601 C 186.346 3.601,185.570 4.141,184.800 4.800 C 184.030 5.459,183.175 5.999,182.900 5.999 C 182.625 6.000,182.400 6.235,182.400 6.523 C 182.400 6.810,181.635 7.891,180.700 8.926 C 176.764 13.280,175.052 15.696,175.529 16.226 C 175.678 16.392,175.575 16.399,175.300 16.241 C 174.987 16.061,174.800 16.195,174.800 16.600 C 174.800 16.956,174.647 17.153,174.460 17.037 C 174.273 16.922,173.868 17.316,173.560 17.914 C 173.252 18.511,172.505 19.477,171.900 20.060 C 171.295 20.644,170.794 21.364,170.787 21.660 C 170.774 22.220,169.600 23.988,169.600 23.448 C 169.600 23.280,169.330 23.413,169.000 23.743 C 168.670 24.073,168.400 24.508,168.400 24.709 C 168.400 24.911,168.040 25.402,167.600 25.800 C 167.160 26.198,166.800 26.777,166.800 27.086 C 166.800 27.394,166.620 27.536,166.400 27.400 C 166.180 27.264,166.000 27.394,166.000 27.688 C 166.000 27.983,165.650 28.476,165.221 28.785 C 164.793 29.093,164.535 29.494,164.647 29.676 C 164.759 29.857,164.569 30.114,164.225 30.246 C 163.881 30.378,163.600 30.736,163.600 31.043 C 163.600 31.349,163.409 31.600,163.176 31.600 C 162.943 31.600,162.864 31.780,163.000 32.000 C 163.136 32.220,162.997 32.400,162.691 32.400 C 162.385 32.400,161.881 32.895,161.570 33.500 C 161.260 34.105,160.662 34.915,160.242 35.300 C 159.821 35.685,159.640 36.003,159.839 36.006 C 160.037 36.009,160.000 36.144,159.756 36.306 C 159.512 36.468,159.007 37.194,158.635 37.921 C 158.263 38.647,157.698 39.341,157.379 39.463 C 157.061 39.586,156.800 39.954,156.800 40.282 C 156.800 40.611,156.260 41.383,155.600 42.000 C 154.940 42.617,154.400 43.279,154.400 43.472 C 154.400 43.665,154.040 44.083,153.600 44.400 C 153.160 44.717,152.800 45.188,152.800 45.446 C 152.800 45.704,152.260 46.493,151.600 47.200 C 150.940 47.907,150.394 48.691,150.387 48.942 C 150.371 49.541,149.377 50.844,149.128 50.594 C 149.021 50.488,148.680 50.896,148.370 51.501 C 148.060 52.105,147.462 52.915,147.042 53.300 C 146.621 53.685,146.417 54.000,146.587 54.000 C 146.757 54.000,146.245 54.795,145.448 55.767 C 144.652 56.739,144.000 57.729,144.000 57.967 C 144.000 58.205,143.841 58.400,143.646 58.400 C 143.451 58.400,142.992 59.030,142.627 59.800 C 142.261 60.570,141.791 61.200,141.581 61.200 C 141.372 61.200,141.200 61.470,141.200 61.800 C 141.200 62.130,141.020 62.400,140.800 62.400 C 140.580 62.400,140.400 62.630,140.400 62.912 C 140.400 63.193,140.040 63.683,139.600 64.000 C 139.160 64.317,138.800 64.882,138.800 65.255 C 138.800 65.628,138.665 65.993,138.500 66.067 C 138.335 66.140,137.666 66.985,137.014 67.946 C 136.362 68.906,135.597 69.780,135.314 69.888 C 135.031 69.997,134.800 70.426,134.800 70.843 C 134.800 71.259,134.650 71.600,134.468 71.600 C 134.285 71.600,133.881 72.095,133.570 72.700 C 133.260 73.305,132.715 74.070,132.360 74.400 C 132.005 74.730,131.592 75.388,131.442 75.863 C 131.292 76.338,130.906 76.827,130.585 76.950 C 130.263 77.074,130.000 77.358,130.000 77.583 C 130.000 77.807,129.685 78.359,129.300 78.808 C 128.915 79.258,128.600 79.759,128.600 79.922 C 128.600 80.085,128.204 80.644,127.720 81.163 C 127.236 81.683,126.552 82.714,126.201 83.454 C 125.850 84.194,125.391 84.800,125.181 84.800 C 124.972 84.800,124.800 85.120,124.800 85.512 C 124.800 85.903,124.440 86.483,124.000 86.800 C 123.560 87.117,123.200 87.657,123.200 88.000 C 123.200 88.343,122.840 88.883,122.400 89.200 C 121.960 89.517,121.600 90.005,121.600 90.284 C 121.600 90.753,120.921 91.730,119.700 93.016 C 119.425 93.306,119.200 93.786,119.200 94.083 C 119.200 94.380,118.840 94.883,118.400 95.200 C 117.960 95.517,117.600 96.057,117.600 96.400 C 117.600 96.743,117.240 97.283,116.800 97.600 C 116.360 97.917,116.000 98.457,116.000 98.800 C 116.000 99.143,115.650 99.676,115.221 99.985 C 114.793 100.293,114.539 100.702,114.657 100.892 C 114.775 101.082,114.405 101.704,113.835 102.274 C 113.266 102.843,112.800 103.555,112.800 103.855 C 112.800 104.155,112.590 104.400,112.333 104.400 C 112.077 104.400,111.978 104.511,112.114 104.648 C 112.250 104.784,112.099 105.158,111.777 105.480 C 111.456 105.801,111.295 106.230,111.420 106.432 C 111.545 106.635,111.367 106.800,111.024 106.800 C 110.676 106.800,110.400 107.139,110.400 107.567 C 110.400 107.988,110.265 108.393,110.100 108.467 C 109.745 108.625,108.032 111.298,107.195 113.000 C 106.871 113.660,106.289 114.491,105.903 114.847 C 105.516 115.203,105.200 115.788,105.200 116.147 C 105.200 116.506,105.020 116.800,104.800 116.800 C 104.580 116.800,104.400 117.070,104.400 117.400 C 104.400 117.730,104.264 118.000,104.098 118.000 C 103.931 118.000,103.536 118.585,103.220 119.300 C 102.903 120.015,102.320 120.949,101.922 121.375 C 101.525 121.802,101.200 122.387,101.200 122.675 C 101.200 122.964,101.020 123.200,100.800 123.200 C 100.580 123.200,100.400 123.560,100.400 124.000 C 100.400 124.440,100.253 124.800,100.074 124.800 C 99.894 124.800,99.323 125.565,98.803 126.500 C 98.284 127.435,97.729 128.290,97.570 128.400 C 97.410 128.510,97.217 128.960,97.140 129.400 C 97.063 129.840,96.685 130.491,96.300 130.847 C 95.915 131.203,95.600 131.698,95.600 131.947 C 95.600 132.196,95.420 132.400,95.200 132.400 C 94.980 132.400,94.800 132.760,94.800 133.200 C 94.800 133.640,94.652 134.000,94.472 134.000 C 94.292 134.000,93.460 135.440,92.625 137.200 C 91.789 138.960,90.946 140.400,90.753 140.400 C 90.559 140.400,90.400 140.760,90.400 141.200 C 90.400 141.640,90.209 142.000,89.976 142.000 C 89.743 142.000,89.657 142.169,89.785 142.375 C 89.912 142.582,89.756 142.897,89.437 143.075 C 88.847 143.405,88.800 143.520,88.800 144.624 C 88.800 144.967,88.620 145.136,88.400 145.000 C 88.180 144.864,88.000 145.108,88.000 145.543 C 88.000 145.978,87.865 146.393,87.700 146.467 C 87.324 146.634,86.025 148.764,85.729 149.700 C 85.607 150.085,85.348 150.400,85.153 150.400 C 84.959 150.400,84.800 150.760,84.800 151.200 C 84.800 151.640,84.620 152.000,84.400 152.000 C 84.180 152.000,84.000 152.360,84.000 152.800 C 84.000 153.240,83.820 153.600,83.600 153.600 C 83.380 153.600,83.200 153.853,83.200 154.162 C 83.200 154.716,81.620 158.010,81.168 158.400 C 81.040 158.510,80.681 159.185,80.370 159.900 C 80.059 160.615,79.674 161.200,79.515 161.200 C 79.356 161.200,79.328 161.468,79.454 161.797 C 79.585 162.137,79.408 162.499,79.042 162.639 C 78.689 162.775,78.400 163.226,78.400 163.643 C 78.400 164.059,78.220 164.400,78.000 164.400 C 77.780 164.400,77.600 164.760,77.600 165.200 C 77.600 165.640,77.420 166.000,77.200 166.000 C 76.980 166.000,76.821 166.135,76.847 166.300 C 76.985 167.170,76.755 168.019,76.435 167.822 C 76.234 167.698,76.116 167.908,76.172 168.290 C 76.228 168.671,76.023 169.234,75.717 169.540 C 75.411 169.846,75.057 170.615,74.930 171.248 C 74.804 171.882,74.543 172.400,74.350 172.400 C 74.158 172.400,74.000 172.634,74.000 172.920 C 74.000 173.656,73.059 175.593,72.700 175.597 C 72.535 175.599,72.400 175.960,72.400 176.400 C 72.400 176.840,72.258 177.200,72.085 177.200 C 71.912 177.200,71.740 177.602,71.703 178.094 C 71.666 178.586,71.448 179.051,71.218 179.127 C 70.988 179.204,70.800 179.612,70.800 180.033 C 70.800 180.455,70.609 180.800,70.376 180.800 C 70.143 180.800,70.055 180.965,70.180 181.168 C 70.305 181.370,70.136 181.807,69.804 182.139 C 69.472 182.471,69.200 183.206,69.200 183.771 C 69.200 184.337,69.020 184.800,68.800 184.800 C 68.580 184.800,68.400 185.160,68.400 185.600 C 68.400 186.040,68.220 186.400,68.000 186.400 C 67.780 186.400,67.600 186.760,67.600 187.200 C 67.600 187.640,67.442 188.000,67.250 188.000 C 67.058 188.000,66.900 188.470,66.900 189.045 C 66.900 189.621,66.742 190.206,66.550 190.345 C 66.358 190.485,66.142 190.870,66.070 191.200 C 65.999 191.530,65.774 191.860,65.570 191.933 C 65.367 192.007,65.200 192.414,65.200 192.839 C 65.200 193.263,65.041 193.923,64.847 194.305 C 64.493 195.001,63.943 196.298,63.365 197.800 C 63.195 198.240,63.022 198.952,62.979 199.383 C 62.936 199.814,62.698 200.234,62.451 200.316 C 62.203 200.399,62.000 200.992,62.000 201.633 C 62.000 202.275,61.859 202.800,61.687 202.800 C 61.515 202.800,61.334 203.285,61.285 203.878 C 61.236 204.470,61.030 205.058,60.827 205.183 C 60.624 205.309,60.473 205.679,60.492 206.006 C 60.566 207.292,60.383 208.037,60.045 207.828 C 59.849 207.707,59.594 208.101,59.478 208.704 C 59.361 209.307,59.075 210.520,58.842 211.400 C 58.610 212.280,58.415 213.596,58.410 214.324 C 58.404 215.102,58.235 215.545,58.000 215.400 C 57.758 215.251,57.600 215.796,57.600 216.776 C 57.600 217.669,57.457 218.400,57.282 218.400 C 57.107 218.400,56.919 219.075,56.864 219.900 C 56.810 220.725,56.593 221.460,56.382 221.533 C 56.172 221.607,56.000 222.372,56.000 223.233 C 56.000 224.095,55.820 224.800,55.600 224.800 C 55.380 224.800,55.200 225.790,55.200 227.000 C 55.200 228.210,55.061 229.200,54.891 229.200 C 54.721 229.200,54.528 230.415,54.463 231.900 C 54.398 233.385,54.177 234.660,53.972 234.733 C 53.469 234.914,53.476 260.290,53.979 260.467 C 54.188 260.540,54.392 262.171,54.433 264.090 C 54.475 266.010,54.664 267.484,54.854 267.367 C 55.044 267.249,55.200 268.423,55.200 269.976 C 55.200 271.592,55.371 272.800,55.600 272.800 C 55.822 272.800,56.000 273.867,56.000 275.200 C 56.000 276.533,56.178 277.600,56.400 277.600 C 56.620 277.600,56.800 278.320,56.800 279.200 C 56.800 280.080,56.980 280.800,57.200 280.800 C 57.420 280.800,57.600 281.700,57.600 282.800 C 57.600 283.900,57.757 284.800,57.948 284.800 C 58.139 284.800,58.396 285.565,58.519 286.500 C 58.792 288.579,59.003 289.475,59.555 290.900 C 59.789 291.505,59.904 292.000,59.811 292.000 C 59.717 292.000,59.904 292.630,60.226 293.400 C 60.548 294.170,60.682 294.800,60.525 294.800 C 60.368 294.800,60.456 295.016,60.720 295.280 C 60.984 295.544,61.200 296.264,61.200 296.880 C 61.200 297.496,61.380 298.000,61.600 298.000 C 61.820 298.000,62.000 298.540,62.000 299.200 C 62.000 299.860,62.180 300.400,62.400 300.400 C 62.620 300.400,62.800 300.749,62.800 301.176 C 62.800 301.603,62.980 302.064,63.200 302.200 C 63.420 302.336,63.600 302.887,63.600 303.424 C 63.600 303.961,63.780 304.400,64.000 304.400 C 64.220 304.400,64.400 304.755,64.400 305.188 C 64.400 305.621,64.760 306.617,65.200 307.400 C 65.640 308.183,66.000 309.179,66.000 309.612 C 66.000 310.045,66.180 310.400,66.400 310.400 C 66.620 310.400,66.800 310.760,66.800 311.200 C 66.800 311.640,66.980 312.000,67.200 312.000 C 67.420 312.000,67.600 312.360,67.600 312.800 C 67.600 313.240,67.780 313.600,68.000 313.600 C 68.220 313.600,68.400 313.960,68.400 314.400 C 68.400 314.840,68.580 315.200,68.800 315.200 C 69.020 315.200,69.200 315.560,69.200 316.000 C 69.200 316.440,69.380 316.800,69.600 316.800 C 69.820 316.800,70.000 317.160,70.000 317.600 C 70.000 318.040,70.180 318.400,70.400 318.400 C 70.620 318.400,70.800 318.760,70.800 319.200 C 70.800 319.640,70.980 320.000,71.200 320.000 C 71.420 320.000,71.600 320.371,71.600 320.824 C 71.600 321.277,71.780 321.536,72.000 321.400 C 72.342 321.189,72.493 321.706,72.366 322.655 C 72.347 322.796,72.482 323.021,72.666 323.155 C 73.063 323.446,73.683 324.424,74.850 326.600 C 75.321 327.480,75.879 328.310,76.088 328.445 C 76.297 328.579,76.441 328.759,76.408 328.845 C 76.287 329.158,76.971 330.615,77.481 331.132 C 77.771 331.425,77.905 331.830,77.780 332.032 C 77.655 332.235,77.722 332.400,77.928 332.400 C 78.134 332.400,78.526 332.938,78.798 333.595 C 79.070 334.252,79.422 334.710,79.579 334.613 C 79.736 334.516,80.109 335.058,80.407 335.818 C 80.705 336.578,81.053 337.200,81.180 337.200 C 81.307 337.200,81.856 337.920,82.400 338.800 C 82.944 339.680,83.526 340.400,83.694 340.400 C 83.862 340.400,84.000 340.593,84.000 340.829 C 84.000 341.064,84.270 341.527,84.600 341.857 C 84.930 342.187,85.200 342.320,85.200 342.152 C 85.200 341.618,86.374 343.377,86.387 343.931 C 86.394 344.224,87.120 345.154,88.000 346.000 C 88.880 346.846,89.600 347.694,89.600 347.885 C 89.600 348.077,90.409 349.126,91.398 350.217 C 92.387 351.308,93.197 352.346,93.198 352.524 C 93.199 352.702,93.380 352.736,93.600 352.600 C 93.820 352.464,94.000 352.549,94.000 352.788 C 94.000 353.027,94.627 353.893,95.393 354.712 C 99.789 359.410,101.599 361.200,101.951 361.200 C 102.168 361.200,103.799 362.640,105.576 364.400 C 107.352 366.160,108.894 367.600,109.002 367.600 C 109.111 367.600,109.941 368.320,110.848 369.200 C 111.755 370.080,112.745 370.800,113.048 370.800 C 113.352 370.800,113.600 370.980,113.600 371.200 C 113.600 371.420,113.881 371.600,114.224 371.600 C 114.567 371.600,114.753 371.753,114.637 371.940 C 114.522 372.127,114.916 372.532,115.514 372.840 C 116.111 373.148,117.048 373.805,117.596 374.300 C 118.144 374.795,118.907 375.200,119.293 375.200 C 119.678 375.200,120.218 375.560,120.493 376.000 C 120.768 376.440,121.309 376.800,121.696 376.800 C 122.083 376.800,122.400 376.959,122.400 377.154 C 122.400 377.349,122.985 377.810,123.700 378.177 C 125.076 378.885,127.143 380.268,128.800 381.591 C 129.350 382.030,130.025 382.392,130.300 382.395 C 130.575 382.398,130.800 382.588,130.800 382.818 C 130.800 383.047,131.025 383.206,131.300 383.170 C 132.360 383.032,132.836 383.218,132.562 383.662 C 132.393 383.936,132.451 384.015,132.706 383.858 C 132.942 383.712,133.407 383.864,133.739 384.196 C 134.071 384.528,134.626 384.800,134.971 384.800 C 135.317 384.800,135.600 384.980,135.600 385.200 C 135.600 385.420,135.960 385.600,136.400 385.600 C 136.840 385.600,137.200 385.780,137.200 386.000 C 137.200 386.220,137.434 386.400,137.720 386.400 C 138.456 386.400,140.393 387.341,140.397 387.700 C 140.399 387.865,140.760 388.000,141.200 388.000 C 141.640 388.000,142.000 388.180,142.000 388.400 C 142.000 388.620,142.330 388.800,142.733 388.800 C 143.137 388.800,143.591 388.925,143.744 389.077 C 143.896 389.229,144.413 389.414,144.893 389.487 C 145.373 389.560,145.863 389.771,145.983 389.956 C 146.179 390.260,147.808 390.932,148.467 390.980 C 148.613 390.991,148.868 391.135,149.033 391.300 C 149.198 391.465,149.753 391.600,150.267 391.600 C 150.780 391.600,151.200 391.780,151.200 392.000 C 151.200 392.220,151.740 392.400,152.400 392.400 C 153.060 392.400,153.600 392.580,153.600 392.800 C 153.600 393.020,154.140 393.200,154.800 393.200 C 155.460 393.200,156.000 393.380,156.000 393.600 C 156.000 393.820,156.540 394.000,157.200 394.000 C 157.860 394.000,158.400 394.180,158.400 394.400 C 158.400 394.620,158.929 394.800,159.576 394.800 C 160.223 394.800,160.864 394.980,161.000 395.200 C 161.136 395.420,161.777 395.600,162.424 395.600 C 163.071 395.600,163.600 395.743,163.600 395.918 C 163.600 396.093,164.256 396.281,165.057 396.335 C 165.858 396.389,166.836 396.605,167.231 396.816 C 167.625 397.027,168.409 397.200,168.974 397.200 C 169.538 397.200,170.000 397.380,170.000 397.600 C 170.000 397.820,170.979 398.000,172.176 398.000 C 173.373 398.000,174.464 398.180,174.600 398.400 C 174.736 398.620,175.812 398.800,176.990 398.800 C 178.169 398.800,179.197 398.992,179.275 399.226 C 179.367 399.502,182.815 399.734,189.109 399.888 L 198.800 400.124 198.800 349.862 L 198.800 299.600 188.500 299.595 C 177.088 299.590,175.329 299.336,172.031 297.220 C 164.334 292.281,165.046 280.441,173.276 276.531 C 176.703 274.903,177.599 274.800,188.328 274.800 L 198.800 274.800 198.800 252.000 L 198.800 229.200 184.328 229.200 C 170.133 229.200,168.820 229.103,166.006 227.845 C 163.790 226.854,161.536 224.561,160.453 222.194 C 160.153 221.537,159.748 220.687,159.553 220.305 C 159.045 219.306,159.091 124.915,159.600 124.600 C 159.820 124.464,160.000 123.986,160.000 123.538 C 160.000 121.752,163.472 118.010,166.400 116.642 C 168.103 115.845,169.015 115.789,183.400 115.600 L 198.600 115.400 198.701 57.700 L 198.803 0.000 196.301 0.060 C 194.926 0.093,193.278 0.198,192.639 0.292 M216.000 5.548 C 216.000 6.097,217.103 6.881,217.339 6.499 C 217.454 6.313,217.200 5.943,216.774 5.677 C 216.348 5.411,216.000 5.353,216.000 5.548 M219.156 9.100 C 219.416 9.595,219.812 10.000,220.038 10.000 C 220.263 10.000,220.348 10.161,220.226 10.358 C 220.104 10.555,220.278 10.821,220.612 10.949 C 221.428 11.263,220.807 10.087,219.579 8.996 L 218.684 8.200 219.156 9.100 M222.406 13.051 C 222.418 13.739,223.098 14.489,223.346 14.088 C 223.481 13.869,223.323 13.468,222.996 13.196 C 222.668 12.924,222.403 12.859,222.406 13.051 M225.790 17.848 C 226.147 18.204,226.559 18.374,226.707 18.226 C 226.856 18.078,226.712 17.789,226.388 17.584 C 225.443 16.987,225.087 17.144,225.790 17.848 M254.400 56.225 C 254.400 56.691,255.555 57.597,255.749 57.283 C 255.858 57.105,255.600 56.743,255.174 56.477 C 254.748 56.211,254.400 56.098,254.400 56.225 M274.406 84.700 C 274.403 85.195,274.580 85.600,274.800 85.600 C 275.301 85.600,275.301 85.176,274.800 84.400 C 274.486 83.915,274.411 83.972,274.406 84.700 M305.837 135.139 C 305.722 135.326,305.946 135.821,306.334 136.239 C 306.723 136.658,307.161 137.315,307.308 137.700 C 307.455 138.085,307.806 138.397,308.087 138.394 C 308.403 138.390,308.446 138.275,308.199 138.094 C 307.979 137.932,307.544 137.305,307.232 136.700 C 306.920 136.095,306.505 135.600,306.309 135.600 C 306.113 135.600,306.064 135.420,306.200 135.200 C 306.336 134.980,306.357 134.800,306.247 134.800 C 306.137 134.800,305.953 134.953,305.837 135.139 M183.200 148.391 L 183.200 156.800 190.551 156.800 C 199.664 156.800,198.846 157.688,198.709 147.948 L 198.600 140.200 190.900 140.091 L 183.200 139.983 183.200 148.391 M312.493 147.200 C 312.768 147.640,313.131 148.000,313.300 148.000 C 313.469 148.000,313.382 147.640,313.107 147.200 C 312.832 146.760,312.469 146.400,312.300 146.400 C 312.131 146.400,312.218 146.760,312.493 147.200 M183.475 181.058 C 183.324 181.209,183.200 186.523,183.200 192.867 L 183.200 204.400 191.006 204.400 L 198.812 204.400 198.706 192.700 L 198.600 181.000 191.175 180.891 C 187.092 180.832,183.627 180.907,183.475 181.058 M297.829 361.029 C 297.405 361.338,297.136 361.669,297.230 361.763 C 297.324 361.857,297.748 361.681,298.171 361.371 C 298.595 361.062,298.864 360.731,298.770 360.637 C 298.676 360.543,298.252 360.719,297.829 361.029 M283.925 372.844 C 283.196 373.528,282.962 373.905,283.404 373.681 C 284.243 373.257,285.901 371.600,285.487 371.600 C 285.356 371.600,284.653 372.160,283.925 372.844 M280.800 374.800 C 280.800 375.301,281.224 375.301,282.000 374.800 C 282.485 374.486,282.428 374.411,281.700 374.406 C 281.205 374.403,280.800 374.580,280.800 374.800 M256.000 388.800 C 255.683 388.996,255.556 389.289,255.718 389.452 C 255.881 389.614,256.223 389.537,256.480 389.280 C 257.084 388.676,256.747 388.338,256.000 388.800 " stroke="none" fill="#c52c69" fill-rule="evenodd"></path><path id="path3" d="M199.100 116.629 C 198.935 116.796,198.800 121.939,198.800 128.057 L 198.800 139.180 200.500 139.984 C 207.949 143.509,207.945 152.806,200.494 156.458 L 198.788 157.294 198.894 168.747 L 199.000 180.200 201.200 180.298 C 217.018 181.003,218.773 203.476,203.129 205.000 C 201.738 205.136,200.192 205.330,199.694 205.433 L 198.788 205.618 198.894 216.909 L 199.000 228.200 203.000 228.122 C 206.940 228.045,210.734 227.479,212.095 226.765 C 212.477 226.564,212.967 226.400,213.185 226.400 C 216.227 226.400,226.141 219.375,229.555 214.800 C 230.130 214.030,230.804 213.183,231.053 212.918 C 231.302 212.653,232.329 210.763,233.335 208.718 C 240.131 194.904,237.715 179.117,227.136 168.200 C 224.440 165.419,224.405 165.232,226.000 162.200 C 226.660 160.945,227.200 159.665,227.200 159.354 C 227.200 159.043,227.358 158.477,227.551 158.095 C 228.882 155.460,229.512 148.288,228.807 143.800 C 228.049 138.975,227.921 138.398,227.556 138.173 C 227.360 138.052,227.200 137.691,227.200 137.372 C 227.200 134.538,221.314 126.428,216.667 122.859 C 211.557 118.934,200.642 115.063,199.100 116.629 M199.294 275.913 C 198.901 276.178,198.811 278.764,198.894 287.428 L 199.000 298.600 210.400 298.597 C 221.628 298.594,221.829 298.579,223.743 297.632 C 232.512 293.295,232.635 281.647,223.962 276.819 C 222.113 275.789,200.643 275.001,199.294 275.913 " stroke="none" fill="#ffffff" fill-rule="evenodd"></path><path id="path4" d="M168.400 116.072 C 167.850 116.302,166.740 116.761,165.932 117.091 C 165.125 117.422,163.721 118.429,162.812 119.329 C 161.280 120.846,160.898 121.474,159.656 124.519 C 158.860 126.471,159.033 218.085,159.837 220.400 C 161.434 224.998,164.501 227.721,169.200 228.713 C 173.267 229.571,209.180 228.912,210.180 227.961 C 210.389 227.763,211.053 227.600,211.656 227.600 C 212.259 227.600,212.876 227.401,213.026 227.157 C 213.212 226.857,212.993 226.797,212.350 226.971 C 206.218 228.629,204.457 228.725,185.600 228.436 C 167.998 228.166,167.782 228.152,166.200 227.242 C 162.934 225.364,160.817 222.609,160.074 219.269 C 159.405 216.262,159.393 127.298,160.061 125.228 C 161.516 120.726,163.959 118.017,167.600 116.870 C 168.512 116.582,174.924 116.402,185.998 116.354 C 195.347 116.313,202.637 116.139,202.198 115.968 C 200.956 115.483,169.578 115.580,168.400 116.072 M205.000 116.744 C 205.788 117.084,208.636 118.082,210.200 118.565 C 210.640 118.701,210.100 118.383,209.000 117.859 C 207.900 117.335,206.370 116.791,205.600 116.652 C 204.653 116.480,204.459 116.510,205.000 116.744 M211.400 119.200 C 211.536 119.420,211.832 119.600,212.058 119.600 C 213.015 119.600,218.673 123.966,221.096 126.575 C 222.540 128.129,223.349 128.860,222.894 128.200 C 221.358 125.972,215.857 120.800,215.023 120.800 C 214.877 120.800,214.095 120.350,213.286 119.800 C 211.756 118.760,210.975 118.512,211.400 119.200 M224.695 131.381 C 225.287 132.361,225.824 133.110,225.888 133.046 C 226.083 132.850,224.220 129.607,223.910 129.603 C 223.750 129.601,224.104 130.401,224.695 131.381 M227.041 135.879 C 227.168 136.276,227.416 136.960,227.591 137.400 C 228.031 138.506,228.756 141.196,228.939 142.400 C 229.026 142.972,229.114 142.683,229.146 141.724 C 229.175 140.802,229.020 139.936,228.800 139.800 C 228.580 139.664,228.400 139.124,228.400 138.600 C 228.400 138.076,228.220 137.536,228.000 137.400 C 227.780 137.264,227.600 136.814,227.600 136.400 C 227.600 135.986,227.422 135.537,227.205 135.403 C 226.973 135.260,226.905 135.457,227.041 135.879 M182.800 148.200 L 182.800 157.200 190.605 157.200 C 194.898 157.200,198.723 157.041,199.105 156.847 C 199.487 156.652,200.268 156.277,200.839 156.012 C 207.189 153.068,207.345 143.800,201.100 140.552 C 200.453 140.215,200.000 140.149,200.000 140.390 C 200.000 140.615,200.197 140.800,200.438 140.800 C 203.780 140.800,206.486 148.100,204.569 151.942 C 202.638 155.812,199.813 156.786,190.500 156.794 L 183.200 156.800 183.200 148.408 L 183.200 140.015 184.225 139.758 C 184.789 139.616,188.389 139.578,192.224 139.673 C 196.060 139.768,198.973 139.703,198.699 139.529 C 198.425 139.355,194.735 139.209,190.500 139.206 L 182.800 139.200 182.800 148.200 M229.399 148.427 C 229.399 151.038,229.521 152.865,229.671 152.487 C 230.042 151.553,230.060 144.713,229.694 144.140 C 229.532 143.887,229.400 145.817,229.399 148.427 M228.864 154.467 C 228.829 155.054,228.684 155.864,228.541 156.267 C 228.343 156.829,228.396 156.895,228.770 156.551 C 229.044 156.299,229.186 155.509,229.093 154.751 C 228.959 153.653,228.916 153.600,228.864 154.467 M224.800 165.112 C 224.800 165.304,225.250 165.883,225.800 166.400 C 226.350 166.917,226.800 167.210,226.800 167.052 C 226.800 166.893,226.350 166.314,225.800 165.764 C 225.250 165.214,224.800 164.920,224.800 165.112 M227.200 167.403 C 227.200 167.562,228.067 168.706,229.126 169.946 C 231.217 172.394,232.984 175.174,234.245 178.000 C 234.687 178.990,235.264 180.250,235.526 180.800 L 236.004 181.800 235.754 180.800 C 235.148 178.375,232.119 172.814,230.018 170.269 C 228.632 168.589,227.200 167.133,227.200 167.403 M182.894 192.900 L 183.000 205.400 190.800 205.338 C 202.861 205.242,207.417 204.456,209.193 202.165 C 209.757 201.438,209.747 201.431,208.993 202.034 C 206.272 204.210,204.887 204.451,193.736 204.694 L 183.200 204.924 183.200 192.862 L 183.200 180.800 192.423 180.800 C 205.392 180.800,207.722 181.497,211.817 186.600 C 212.665 187.656,212.076 186.508,211.041 185.087 C 208.325 181.358,204.614 180.433,192.294 180.414 L 182.789 180.400 182.894 192.900 M236.012 182.800 C 236.012 183.130,236.187 183.670,236.400 184.000 C 236.745 184.533,236.788 184.533,236.788 184.000 C 236.788 183.670,236.613 183.130,236.400 182.800 C 236.055 182.267,236.012 182.267,236.012 182.800 M236.868 186.200 C 236.874 186.640,237.024 187.450,237.200 188.000 L 237.520 189.000 237.532 188.000 C 237.538 187.450,237.389 186.640,237.200 186.200 L 236.856 185.400 236.868 186.200 M213.283 192.800 C 213.283 195.529,213.319 195.665,213.681 194.300 C 213.946 193.304,213.946 192.296,213.681 191.300 C 213.319 189.935,213.283 190.071,213.283 192.800 M237.000 198.400 C 236.846 199.310,236.811 200.144,236.921 200.254 C 237.031 200.364,237.246 199.710,237.400 198.800 C 237.554 197.890,237.589 197.056,237.479 196.946 C 237.369 196.836,237.154 197.490,237.000 198.400 M211.100 199.779 C 210.495 200.537,210.000 201.282,210.000 201.434 C 210.000 201.586,210.540 201.031,211.200 200.200 C 212.311 198.802,212.557 198.400,212.300 198.400 C 212.245 198.400,211.705 199.020,211.100 199.779 M236.273 201.753 C 236.123 202.145,236.011 202.766,236.025 203.133 C 236.042 203.575,236.181 203.474,236.437 202.834 C 236.649 202.303,236.761 201.682,236.685 201.454 C 236.609 201.227,236.424 201.361,236.273 201.753 M233.417 209.289 C 231.550 212.926,230.607 214.199,226.823 218.184 C 225.160 219.935,224.520 220.765,225.400 220.028 C 228.912 217.088,232.009 213.145,234.173 208.860 C 234.767 207.683,235.177 206.643,235.082 206.549 C 234.988 206.455,234.239 207.688,233.417 209.289 M222.394 222.018 C 221.847 222.439,221.580 222.780,221.800 222.778 C 222.329 222.773,223.791 221.658,223.565 221.431 C 223.468 221.334,222.941 221.598,222.394 222.018 M220.000 223.620 L 219.000 224.422 220.100 223.947 C 220.705 223.685,221.200 223.320,221.200 223.136 C 221.200 222.679,221.145 222.702,220.000 223.620 M217.000 225.178 C 216.120 225.595,215.597 225.950,215.839 225.968 C 216.328 226.004,218.800 224.838,218.800 224.571 C 218.800 224.330,218.776 224.338,217.000 225.178 M187.000 275.181 L 175.400 275.400 173.295 276.545 C 164.194 281.493,164.896 294.751,174.448 298.304 C 176.462 299.053,177.989 299.123,198.215 299.398 L 219.829 299.691 222.590 298.746 C 226.769 297.314,230.878 292.745,230.759 289.662 C 230.719 288.618,230.713 288.620,230.428 289.800 C 228.553 297.550,224.395 299.340,209.000 299.023 C 177.494 298.374,175.116 298.262,173.400 297.341 C 166.580 293.681,165.186 284.384,170.670 279.137 C 174.162 275.796,174.343 275.779,209.862 275.491 C 216.056 275.441,221.040 275.265,220.938 275.100 C 220.742 274.782,206.235 274.817,187.000 275.181 M222.400 275.886 C 222.730 276.009,223.495 276.360,224.100 276.665 C 224.705 276.971,225.199 277.081,225.197 276.910 C 225.193 276.503,223.213 275.591,222.420 275.632 C 221.882 275.659,221.880 275.693,222.400 275.886 M227.078 278.774 C 229.054 280.710,229.998 282.618,230.656 286.000 L 231.161 288.600 230.933 286.029 C 230.631 282.624,227.513 277.200,225.858 277.200 C 225.646 277.200,226.195 277.908,227.078 278.774 " stroke="none" fill="#ffffff" fill-rule="evenodd"></path></g></svg>