<svg id="svg" version="1.1" xmlns="http://www.w3.org/2000/svg" xmlns:xlink="http://www.w3.org/1999/xlink" width="400" height="400" viewBox="0, 0, 400,400"><g id="svgg"><path id="path0" d="M192.500 0.271 C 191.785 0.370,191.200 0.619,191.200 0.825 C 191.200 1.031,190.840 1.200,190.400 1.200 C 189.960 1.200,189.600 1.380,189.600 1.600 C 189.600 1.820,189.317 2.000,188.971 2.000 C 188.626 2.000,188.071 2.272,187.739 2.604 C 187.407 2.936,186.942 3.088,186.706 2.942 C 186.451 2.785,186.393 2.864,186.562 3.138 C 186.719 3.392,186.655 3.600,186.420 3.600 C 186.185 3.600,185.428 4.140,184.737 4.800 C 184.046 5.460,183.238 6.000,182.941 6.000 C 182.643 6.000,182.400 6.232,182.400 6.515 C 182.400 6.798,181.594 7.923,180.610 9.015 C 177.878 12.044,177.720 12.237,176.210 14.386 C 175.434 15.489,174.800 16.584,174.800 16.820 C 174.800 17.055,174.647 17.153,174.460 17.037 C 174.273 16.922,173.868 17.316,173.560 17.914 C 173.252 18.511,172.505 19.477,171.900 20.060 C 171.295 20.644,170.800 21.337,170.800 21.600 C 170.800 21.863,170.260 22.583,169.600 23.200 C 168.940 23.817,168.400 24.491,168.400 24.698 C 168.400 24.906,168.040 25.402,167.600 25.800 C 167.160 26.198,166.800 26.777,166.800 27.086 C 166.800 27.394,166.620 27.536,166.400 27.400 C 166.180 27.264,166.000 27.394,166.000 27.688 C 166.000 27.983,165.640 28.483,165.200 28.800 C 164.760 29.117,164.400 29.607,164.400 29.888 C 164.400 30.170,164.220 30.400,164.000 30.400 C 163.780 30.400,163.600 30.582,163.600 30.804 C 163.600 31.026,163.060 31.772,162.400 32.463 C 161.740 33.154,161.200 33.922,161.200 34.171 C 161.200 34.420,160.850 34.876,160.421 35.185 C 159.993 35.493,159.734 35.893,159.845 36.073 C 159.956 36.253,159.869 36.400,159.651 36.400 C 159.432 36.400,159.138 36.766,158.996 37.213 C 158.854 37.660,158.302 38.462,157.769 38.995 C 157.236 39.528,156.800 40.170,156.800 40.421 C 156.800 40.673,156.260 41.383,155.600 42.000 C 154.940 42.617,154.400 43.279,154.400 43.472 C 154.400 43.665,154.040 44.083,153.600 44.400 C 153.160 44.717,152.800 45.188,152.800 45.446 C 152.800 45.704,152.260 46.493,151.600 47.200 C 150.940 47.907,150.400 48.647,150.400 48.846 C 150.400 49.045,149.860 49.772,149.200 50.463 C 148.540 51.154,148.000 51.896,148.000 52.112 C 148.000 52.329,147.612 52.842,147.139 53.253 C 146.665 53.664,146.417 54.000,146.587 54.000 C 146.757 54.000,146.245 54.795,145.448 55.767 C 144.652 56.739,144.000 57.729,144.000 57.967 C 144.000 58.205,143.848 58.400,143.663 58.400 C 143.478 58.400,142.987 59.030,142.572 59.800 C 142.157 60.570,141.679 61.200,141.509 61.200 C 141.339 61.200,141.200 61.470,141.200 61.800 C 141.200 62.130,141.020 62.400,140.800 62.400 C 140.580 62.400,140.400 62.630,140.400 62.912 C 140.400 63.193,140.040 63.683,139.600 64.000 C 139.160 64.317,138.800 64.882,138.800 65.255 C 138.800 65.628,138.655 65.993,138.477 66.067 C 138.299 66.140,137.570 67.055,136.857 68.100 C 136.145 69.145,135.390 70.000,135.181 70.000 C 134.971 70.000,134.800 70.360,134.800 70.800 C 134.800 71.240,134.650 71.600,134.468 71.600 C 134.285 71.600,133.881 72.095,133.570 72.700 C 133.260 73.305,132.689 74.091,132.303 74.447 C 131.916 74.803,131.600 75.270,131.600 75.485 C 131.600 75.700,131.240 76.202,130.800 76.600 C 130.360 76.998,130.000 77.484,130.000 77.679 C 130.000 77.874,129.640 78.420,129.200 78.892 C 128.760 79.364,128.400 79.987,128.400 80.275 C 128.400 80.564,128.257 80.800,128.083 80.800 C 127.908 80.800,127.233 81.696,126.583 82.792 C 125.932 83.888,125.265 84.788,125.100 84.792 C 124.935 84.796,124.800 85.120,124.800 85.512 C 124.800 85.903,124.440 86.483,124.000 86.800 C 123.560 87.117,123.200 87.657,123.200 88.000 C 123.200 88.343,122.840 88.883,122.400 89.200 C 121.960 89.517,121.600 90.005,121.600 90.284 C 121.600 90.753,120.921 91.730,119.700 93.016 C 119.425 93.306,119.200 93.786,119.200 94.083 C 119.200 94.380,118.840 94.883,118.400 95.200 C 117.960 95.517,117.600 96.057,117.600 96.400 C 117.600 96.743,117.240 97.283,116.800 97.600 C 116.360 97.917,116.000 98.457,116.000 98.800 C 116.000 99.143,115.650 99.676,115.221 99.985 C 114.793 100.293,114.519 100.669,114.613 100.821 C 114.706 100.972,114.337 101.614,113.792 102.248 C 113.247 102.882,112.801 103.625,112.800 103.900 C 112.800 104.175,112.642 104.400,112.449 104.400 C 112.255 104.400,111.873 104.940,111.600 105.600 C 111.327 106.260,110.945 106.800,110.751 106.800 C 110.558 106.800,110.400 107.145,110.400 107.567 C 110.400 107.988,110.265 108.393,110.100 108.467 C 109.745 108.625,108.032 111.298,107.195 113.000 C 106.871 113.660,106.289 114.491,105.903 114.847 C 105.516 115.203,105.200 115.788,105.200 116.147 C 105.200 116.506,105.020 116.800,104.800 116.800 C 104.580 116.800,104.400 117.070,104.400 117.400 C 104.400 117.730,104.264 118.000,104.098 118.000 C 103.931 118.000,103.536 118.585,103.220 119.300 C 102.903 120.015,102.320 120.949,101.922 121.375 C 101.525 121.802,101.200 122.387,101.200 122.675 C 101.200 122.964,101.020 123.200,100.800 123.200 C 100.580 123.200,100.400 123.560,100.400 124.000 C 100.400 124.440,100.253 124.800,100.074 124.800 C 99.894 124.800,99.323 125.565,98.803 126.500 C 98.284 127.435,97.746 128.290,97.607 128.400 C 97.468 128.510,97.118 129.185,96.829 129.900 C 96.540 130.615,96.145 131.200,95.951 131.200 C 95.758 131.200,95.600 131.470,95.600 131.800 C 95.600 132.130,95.420 132.400,95.200 132.400 C 94.980 132.400,94.800 132.760,94.800 133.200 C 94.800 133.640,94.652 134.000,94.472 134.000 C 94.292 134.000,93.460 135.440,92.625 137.200 C 91.789 138.960,90.946 140.400,90.753 140.400 C 90.559 140.400,90.400 140.760,90.400 141.200 C 90.400 141.640,90.220 142.000,90.000 142.000 C 89.780 142.000,89.600 142.270,89.600 142.600 C 89.600 142.930,89.420 143.200,89.200 143.200 C 88.980 143.200,88.800 143.560,88.800 144.000 C 88.800 144.440,88.620 144.800,88.400 144.800 C 88.180 144.800,88.000 145.145,88.000 145.567 C 88.000 145.988,87.865 146.393,87.700 146.467 C 87.324 146.634,86.025 148.764,85.729 149.700 C 85.607 150.085,85.348 150.400,85.153 150.400 C 84.959 150.400,84.800 150.760,84.800 151.200 C 84.800 151.640,84.620 152.000,84.400 152.000 C 84.180 152.000,84.000 152.360,84.000 152.800 C 84.000 153.240,83.820 153.600,83.600 153.600 C 83.380 153.600,83.200 153.960,83.200 154.400 C 83.200 154.840,83.020 155.200,82.800 155.200 C 82.580 155.200,82.400 155.472,82.400 155.805 C 82.400 156.392,81.640 157.994,81.168 158.400 C 81.040 158.510,80.681 159.185,80.370 159.900 C 80.059 160.615,79.669 161.200,79.502 161.200 C 79.336 161.200,79.200 161.560,79.200 162.000 C 79.200 162.440,79.020 162.800,78.800 162.800 C 78.580 162.800,78.400 163.160,78.400 163.600 C 78.400 164.040,78.220 164.400,78.000 164.400 C 77.780 164.400,77.600 164.760,77.600 165.200 C 77.600 165.640,77.409 166.000,77.176 166.000 C 76.943 166.000,76.855 166.165,76.980 166.368 C 77.105 166.570,76.923 167.020,76.575 167.368 C 76.227 167.715,76.049 168.000,76.180 168.000 C 76.310 168.000,76.053 168.713,75.608 169.584 C 75.164 170.455,74.800 171.445,74.800 171.784 C 74.800 172.123,74.620 172.400,74.400 172.400 C 74.180 172.400,74.000 172.760,74.000 173.200 C 74.000 173.640,73.820 174.000,73.600 174.000 C 73.380 174.000,73.200 174.360,73.200 174.800 C 73.200 175.240,73.020 175.600,72.800 175.600 C 72.580 175.600,72.400 175.960,72.400 176.400 C 72.400 176.840,72.220 177.200,72.000 177.200 C 71.780 177.200,71.600 177.650,71.600 178.200 C 71.600 178.750,71.420 179.200,71.200 179.200 C 70.980 179.200,70.800 179.560,70.800 180.000 C 70.800 180.440,70.620 180.800,70.400 180.800 C 70.180 180.800,70.000 181.160,70.000 181.600 C 70.000 182.040,69.820 182.400,69.600 182.400 C 69.380 182.400,69.200 182.940,69.200 183.600 C 69.200 184.260,69.020 184.800,68.800 184.800 C 68.580 184.800,68.400 185.160,68.400 185.600 C 68.400 186.040,68.220 186.400,68.000 186.400 C 67.780 186.400,67.600 186.760,67.600 187.200 C 67.600 187.640,67.420 188.000,67.200 188.000 C 66.980 188.000,66.800 188.540,66.800 189.200 C 66.800 189.860,66.620 190.400,66.400 190.400 C 66.180 190.400,66.000 190.760,66.000 191.200 C 66.000 191.640,65.820 192.000,65.600 192.000 C 65.380 192.000,65.200 192.362,65.200 192.805 C 65.200 193.248,65.041 193.923,64.847 194.305 C 64.652 194.687,64.271 195.540,64.000 196.200 C 63.729 196.860,63.348 197.713,63.153 198.095 C 62.959 198.477,62.800 199.152,62.800 199.595 C 62.800 200.038,62.620 200.400,62.400 200.400 C 62.180 200.400,62.000 200.940,62.000 201.600 C 62.000 202.260,61.859 202.800,61.687 202.800 C 61.515 202.800,61.334 203.285,61.285 203.878 C 61.236 204.470,61.053 205.055,60.879 205.178 C 60.704 205.300,60.534 205.834,60.501 206.364 C 60.467 206.894,60.278 207.434,60.080 207.564 C 59.881 207.694,59.615 208.250,59.487 208.800 C 59.360 209.350,59.067 210.520,58.837 211.400 C 58.607 212.280,58.415 213.596,58.410 214.324 C 58.404 215.102,58.235 215.545,58.000 215.400 C 57.758 215.251,57.600 215.796,57.600 216.776 C 57.600 217.669,57.420 218.400,57.200 218.400 C 56.980 218.400,56.800 219.120,56.800 220.000 C 56.800 220.880,56.620 221.600,56.400 221.600 C 56.180 221.600,56.000 222.320,56.000 223.200 C 56.000 224.080,55.820 224.800,55.600 224.800 C 55.380 224.800,55.200 225.790,55.200 227.000 C 55.200 228.210,55.048 229.200,54.863 229.200 C 54.678 229.200,54.488 230.415,54.441 231.900 C 54.394 233.385,54.186 234.660,53.978 234.733 C 53.449 234.920,53.471 260.400,54.000 260.400 C 54.237 260.400,54.400 261.875,54.400 264.024 C 54.400 266.337,54.545 267.558,54.800 267.400 C 55.052 267.244,55.200 268.196,55.200 269.976 C 55.200 271.592,55.371 272.800,55.600 272.800 C 55.822 272.800,56.000 273.867,56.000 275.200 C 56.000 276.533,56.178 277.600,56.400 277.600 C 56.620 277.600,56.800 278.320,56.800 279.200 C 56.800 280.080,56.980 280.800,57.200 280.800 C 57.420 280.800,57.600 281.700,57.600 282.800 C 57.600 283.900,57.757 284.800,57.948 284.800 C 58.139 284.800,58.396 285.565,58.519 286.500 C 58.788 288.547,59.004 289.478,59.517 290.800 C 59.730 291.350,59.911 291.890,59.919 292.000 C 59.978 292.772,60.513 294.719,60.824 295.295 C 61.031 295.677,61.200 296.442,61.200 296.995 C 61.200 297.548,61.380 298.000,61.600 298.000 C 61.820 298.000,62.000 298.540,62.000 299.200 C 62.000 299.860,62.180 300.400,62.400 300.400 C 62.620 300.400,62.800 300.749,62.800 301.176 C 62.800 301.603,62.980 302.064,63.200 302.200 C 63.420 302.336,63.600 302.887,63.600 303.424 C 63.600 303.961,63.780 304.400,64.000 304.400 C 64.220 304.400,64.400 304.755,64.400 305.188 C 64.400 305.621,64.760 306.617,65.200 307.400 C 65.640 308.183,66.000 309.179,66.000 309.612 C 66.000 310.045,66.180 310.400,66.400 310.400 C 66.620 310.400,66.800 310.760,66.800 311.200 C 66.800 311.640,66.980 312.000,67.200 312.000 C 67.420 312.000,67.600 312.360,67.600 312.800 C 67.600 313.240,67.780 313.600,68.000 313.600 C 68.220 313.600,68.400 313.960,68.400 314.400 C 68.400 314.840,68.580 315.200,68.800 315.200 C 69.020 315.200,69.200 315.560,69.200 316.000 C 69.200 316.440,69.380 316.800,69.600 316.800 C 69.820 316.800,70.000 317.160,70.000 317.600 C 70.000 318.040,70.180 318.400,70.400 318.400 C 70.620 318.400,70.800 318.760,70.800 319.200 C 70.800 319.640,70.980 320.000,71.200 320.000 C 71.420 320.000,71.600 320.360,71.600 320.800 C 71.600 321.240,71.780 321.600,72.000 321.600 C 72.220 321.600,72.400 321.960,72.400 322.400 C 72.400 322.840,72.580 323.200,72.800 323.200 C 73.020 323.200,73.200 323.397,73.200 323.638 C 73.200 323.879,73.532 324.554,73.937 325.138 C 74.342 325.722,75.197 327.190,75.837 328.400 C 76.476 329.610,77.226 330.840,77.503 331.132 C 77.781 331.425,77.905 331.830,77.780 332.032 C 77.655 332.235,77.731 332.400,77.949 332.400 C 78.168 332.400,78.453 332.738,78.584 333.151 C 78.716 333.564,79.267 334.419,79.811 335.051 C 80.354 335.683,80.799 336.425,80.800 336.700 C 80.800 336.975,80.938 337.200,81.106 337.200 C 81.274 337.200,81.856 337.920,82.400 338.800 C 82.944 339.680,83.526 340.400,83.694 340.400 C 83.862 340.400,84.000 340.598,84.000 340.840 C 84.000 341.081,84.540 341.783,85.200 342.400 C 85.860 343.017,86.400 343.733,86.400 343.992 C 86.400 344.251,87.120 345.154,88.000 346.000 C 88.880 346.846,89.600 347.696,89.600 347.890 C 89.600 348.085,90.185 348.894,90.900 349.688 C 91.615 350.482,93.280 352.342,94.600 353.820 C 98.353 358.021,101.518 361.200,101.951 361.200 C 102.168 361.200,103.799 362.640,105.576 364.400 C 107.352 366.160,108.894 367.600,109.002 367.600 C 109.111 367.600,109.941 368.320,110.848 369.200 C 111.755 370.080,112.656 370.800,112.852 370.800 C 113.047 370.800,113.772 371.340,114.463 372.000 C 115.154 372.660,115.880 373.200,116.077 373.200 C 116.274 373.200,116.920 373.650,117.513 374.200 C 118.107 374.750,118.869 375.200,119.208 375.200 C 119.546 375.200,120.083 375.560,120.400 376.000 C 120.717 376.440,121.214 376.800,121.505 376.800 C 121.796 376.800,122.420 377.160,122.892 377.600 C 123.364 378.040,123.987 378.400,124.275 378.400 C 124.564 378.400,124.800 378.547,124.800 378.726 C 124.800 378.906,125.565 379.482,126.500 380.006 C 127.435 380.531,128.549 381.284,128.975 381.680 C 129.402 382.076,129.987 382.400,130.275 382.400 C 130.564 382.400,130.800 382.580,130.800 382.800 C 130.800 383.020,131.261 383.200,131.824 383.200 C 132.404 383.200,132.740 383.373,132.600 383.600 C 132.464 383.820,132.723 384.000,133.176 384.000 C 133.629 384.000,134.000 384.180,134.000 384.400 C 134.000 384.620,134.360 384.800,134.800 384.800 C 135.240 384.800,135.600 384.980,135.600 385.200 C 135.600 385.420,135.960 385.600,136.400 385.600 C 136.840 385.600,137.200 385.780,137.200 386.000 C 137.200 386.220,137.434 386.400,137.720 386.400 C 138.456 386.400,140.393 387.341,140.397 387.700 C 140.399 387.865,140.760 388.000,141.200 388.000 C 141.640 388.000,142.000 388.180,142.000 388.400 C 142.000 388.620,142.349 388.800,142.776 388.800 C 143.203 388.800,143.664 388.980,143.800 389.200 C 143.936 389.420,144.487 389.600,145.024 389.600 C 145.561 389.600,146.000 389.744,146.000 389.921 C 146.000 390.301,149.491 391.605,150.500 391.602 C 150.885 391.601,151.200 391.780,151.200 392.000 C 151.200 392.220,151.740 392.400,152.400 392.400 C 153.060 392.400,153.600 392.580,153.600 392.800 C 153.600 393.020,154.140 393.200,154.800 393.200 C 155.460 393.200,156.000 393.380,156.000 393.600 C 156.000 393.820,156.540 394.000,157.200 394.000 C 157.860 394.000,158.400 394.180,158.400 394.400 C 158.400 394.620,158.929 394.800,159.576 394.800 C 160.223 394.800,160.864 394.980,161.000 395.200 C 161.136 395.420,161.777 395.600,162.424 395.600 C 163.071 395.600,163.600 395.743,163.600 395.918 C 163.600 396.093,164.256 396.281,165.057 396.335 C 165.858 396.389,166.836 396.605,167.231 396.816 C 167.625 397.027,168.409 397.200,168.974 397.200 C 169.538 397.200,170.000 397.380,170.000 397.600 C 170.000 397.820,170.979 398.000,172.176 398.000 C 173.373 398.000,174.464 398.180,174.600 398.400 C 174.736 398.620,175.812 398.800,176.990 398.800 C 178.349 398.800,179.194 398.983,179.300 399.300 C 179.543 400.029,220.531 400.029,221.260 399.300 C 221.535 399.025,222.613 398.800,223.656 398.800 C 224.699 398.800,225.664 398.620,225.800 398.400 C 225.936 398.180,226.937 398.000,228.024 398.000 C 229.111 398.000,230.000 397.820,230.000 397.600 C 230.000 397.380,230.720 397.200,231.600 397.200 C 232.480 397.200,233.200 397.020,233.200 396.800 C 233.200 396.580,233.920 396.400,234.800 396.400 C 235.680 396.400,236.400 396.220,236.400 396.000 C 236.400 395.780,237.030 395.600,237.800 395.600 C 238.570 395.600,239.200 395.420,239.200 395.200 C 239.200 394.980,239.740 394.800,240.400 394.800 C 241.060 394.800,241.600 394.620,241.600 394.400 C 241.600 394.180,242.140 394.000,242.800 394.000 C 243.460 394.000,244.000 393.820,244.000 393.600 C 244.000 393.380,244.540 393.200,245.200 393.200 C 245.860 393.200,246.400 393.020,246.400 392.800 C 246.400 392.580,246.940 392.400,247.600 392.400 C 248.260 392.400,248.800 392.240,248.800 392.045 C 248.800 391.850,249.610 391.569,250.600 391.421 C 251.590 391.272,252.400 390.982,252.400 390.775 C 252.400 390.569,252.850 390.400,253.400 390.400 C 253.950 390.400,254.400 390.220,254.400 390.000 C 254.400 389.780,254.724 389.600,255.120 389.600 C 256.014 389.600,257.993 388.706,257.997 388.300 C 257.999 388.135,258.360 388.000,258.800 388.000 C 259.240 388.000,259.600 387.820,259.600 387.600 C 259.600 387.380,259.960 387.200,260.400 387.200 C 260.840 387.200,261.200 387.020,261.200 386.800 C 261.200 386.580,261.560 386.400,262.000 386.400 C 262.440 386.400,262.800 386.220,262.800 386.000 C 262.800 385.780,263.160 385.600,263.600 385.600 C 264.040 385.600,264.400 385.420,264.400 385.200 C 264.400 384.980,264.760 384.800,265.200 384.800 C 265.640 384.800,266.001 384.665,266.003 384.500 C 266.007 384.141,267.944 383.200,268.680 383.200 C 268.966 383.200,269.200 383.020,269.200 382.800 C 269.200 382.580,269.436 382.400,269.725 382.400 C 270.013 382.400,270.598 382.085,271.025 381.700 C 271.451 381.315,272.340 380.731,273.000 380.403 C 273.660 380.074,274.491 379.489,274.847 379.103 C 275.203 378.716,275.748 378.400,276.059 378.400 C 276.369 378.400,276.883 378.040,277.200 377.600 C 277.517 377.160,278.057 376.800,278.400 376.800 C 278.743 376.800,279.283 376.440,279.600 376.000 C 279.917 375.560,280.460 375.200,280.807 375.200 C 281.432 375.200,282.114 374.757,284.543 372.775 C 285.235 372.210,286.430 371.313,287.200 370.780 C 287.970 370.247,289.021 369.314,289.536 368.706 C 290.050 368.097,290.644 367.600,290.855 367.600 C 291.066 367.600,292.481 366.340,294.000 364.800 C 295.519 363.260,296.939 362.000,297.156 362.000 C 297.584 362.000,303.374 356.249,306.600 352.620 C 307.700 351.383,309.005 349.935,309.500 349.403 C 309.995 348.871,310.400 348.234,310.400 347.987 C 310.400 347.740,311.120 346.846,312.000 346.000 C 312.880 345.154,313.600 344.251,313.600 343.992 C 313.600 343.733,314.140 343.017,314.800 342.400 C 315.460 341.783,316.000 341.121,316.000 340.928 C 316.000 340.735,316.360 340.317,316.800 340.000 C 317.240 339.683,317.600 339.238,317.601 339.012 C 317.601 338.785,318.141 337.970,318.800 337.200 C 319.459 336.430,319.999 335.657,319.999 335.483 C 320.000 335.309,320.360 334.780,320.800 334.308 C 321.240 333.836,321.600 333.213,321.600 332.925 C 321.600 332.636,321.780 332.400,322.000 332.400 C 322.220 332.400,322.400 332.122,322.400 331.783 C 322.400 331.444,322.760 330.780,323.200 330.308 C 323.640 329.836,324.000 329.213,324.000 328.925 C 324.000 328.636,324.166 328.400,324.368 328.400 C 324.571 328.400,324.855 327.860,325.000 327.200 C 325.145 326.540,325.429 326.000,325.632 326.000 C 325.834 326.000,326.000 325.730,326.000 325.400 C 326.000 325.070,326.180 324.800,326.400 324.800 C 326.620 324.800,326.800 324.566,326.800 324.280 C 326.800 323.544,327.741 321.607,328.100 321.603 C 328.265 321.601,328.400 321.240,328.400 320.800 C 328.400 320.360,328.580 320.000,328.800 320.000 C 329.020 320.000,329.200 319.640,329.200 319.200 C 329.200 318.760,329.380 318.400,329.600 318.400 C 329.820 318.400,330.000 318.040,330.000 317.600 C 330.000 317.160,330.180 316.800,330.400 316.800 C 330.620 316.800,330.800 316.440,330.800 316.000 C 330.800 315.560,330.980 315.200,331.200 315.200 C 331.420 315.200,331.600 314.840,331.600 314.400 C 331.600 313.960,331.780 313.600,332.000 313.600 C 332.220 313.600,332.400 313.240,332.400 312.800 C 332.400 312.360,332.580 312.000,332.800 312.000 C 333.020 312.000,333.200 311.640,333.200 311.200 C 333.200 310.760,333.380 310.400,333.600 310.400 C 333.820 310.400,334.000 309.950,334.000 309.400 C 334.000 308.850,334.180 308.400,334.400 308.400 C 334.620 308.400,334.800 308.051,334.800 307.624 C 334.800 307.197,334.980 306.736,335.200 306.600 C 335.420 306.464,335.600 305.913,335.600 305.376 C 335.600 304.839,335.780 304.400,336.000 304.400 C 336.220 304.400,336.400 304.051,336.400 303.624 C 336.400 303.197,336.580 302.736,336.800 302.600 C 337.020 302.464,337.200 301.913,337.200 301.376 C 337.200 300.839,337.380 300.400,337.600 300.400 C 337.820 300.400,338.000 299.860,338.000 299.200 C 338.000 298.540,338.180 298.000,338.400 298.000 C 338.620 298.000,338.800 297.460,338.800 296.800 C 338.800 296.140,338.941 295.600,339.113 295.600 C 339.285 295.600,339.466 295.113,339.515 294.518 C 339.564 293.922,339.784 293.256,340.002 293.038 C 340.221 292.819,340.400 292.147,340.400 291.544 C 340.400 290.941,340.566 290.345,340.769 290.219 C 340.971 290.094,341.263 288.821,341.416 287.390 C 341.569 285.959,341.853 284.691,342.047 284.571 C 342.241 284.451,342.400 283.553,342.400 282.576 C 342.400 281.599,342.580 280.800,342.800 280.800 C 343.020 280.800,343.200 280.080,343.200 279.200 C 343.200 278.320,343.380 277.600,343.600 277.600 C 343.820 277.600,344.000 276.621,344.000 275.424 C 344.000 274.227,344.180 273.136,344.400 273.000 C 344.620 272.864,344.800 271.593,344.800 270.176 C 344.800 268.725,344.975 267.600,345.200 267.600 C 345.437 267.600,345.600 266.133,345.600 264.000 C 345.600 261.867,345.763 260.400,346.000 260.400 C 346.258 260.400,346.400 255.867,346.400 247.600 C 346.400 239.333,346.258 234.800,346.000 234.800 C 345.771 234.800,345.600 233.600,345.600 232.000 C 345.600 230.400,345.429 229.200,345.200 229.200 C 344.980 229.200,344.800 228.210,344.800 227.000 C 344.800 225.790,344.620 224.800,344.400 224.800 C 344.180 224.800,344.000 224.080,344.000 223.200 C 344.000 222.320,343.820 221.600,343.600 221.600 C 343.380 221.600,343.200 220.880,343.200 220.000 C 343.200 219.120,343.020 218.400,342.800 218.400 C 342.580 218.400,342.400 217.680,342.400 216.800 C 342.400 215.920,342.241 215.200,342.047 215.200 C 341.852 215.200,341.568 214.032,341.415 212.604 C 341.262 211.177,340.971 209.906,340.769 209.781 C 340.566 209.655,340.400 209.113,340.400 208.576 C 340.400 208.039,340.220 207.600,340.000 207.600 C 339.780 207.600,339.600 207.060,339.600 206.400 C 339.600 205.740,339.420 205.200,339.200 205.200 C 338.980 205.200,338.800 204.660,338.800 204.000 C 338.800 203.340,338.620 202.800,338.400 202.800 C 338.180 202.800,338.000 202.260,338.000 201.600 C 338.000 200.940,337.820 200.400,337.600 200.400 C 337.380 200.400,337.200 200.038,337.200 199.595 C 337.200 199.152,337.041 198.477,336.847 198.095 C 336.652 197.713,336.271 196.860,336.000 196.200 C 335.729 195.540,335.348 194.687,335.153 194.305 C 334.959 193.923,334.800 193.248,334.800 192.805 C 334.800 192.362,334.620 192.000,334.400 192.000 C 334.180 192.000,334.000 191.640,334.000 191.200 C 334.000 190.760,333.820 190.400,333.600 190.400 C 333.380 190.400,333.200 189.860,333.200 189.200 C 333.200 188.540,333.020 188.000,332.800 188.000 C 332.580 188.000,332.400 187.640,332.400 187.200 C 332.400 186.760,332.220 186.400,332.000 186.400 C 331.780 186.400,331.600 186.051,331.600 185.624 C 331.600 185.197,331.420 184.736,331.200 184.600 C 330.980 184.464,330.800 183.913,330.800 183.376 C 330.800 182.839,330.620 182.400,330.400 182.400 C 330.180 182.400,330.000 182.040,330.000 181.600 C 330.000 181.160,329.820 180.800,329.600 180.800 C 329.380 180.800,329.200 180.440,329.200 180.000 C 329.200 179.560,329.020 179.200,328.800 179.200 C 328.580 179.200,328.400 178.750,328.400 178.200 C 328.400 177.650,328.220 177.200,328.000 177.200 C 327.780 177.200,327.600 176.840,327.600 176.400 C 327.600 175.960,327.420 175.600,327.200 175.600 C 326.980 175.600,326.800 175.240,326.800 174.800 C 326.800 174.360,326.620 174.000,326.400 174.000 C 326.180 174.000,326.000 173.640,326.000 173.200 C 326.000 172.760,325.836 172.400,325.635 172.400 C 325.434 172.400,325.149 171.680,325.000 170.800 C 324.851 169.920,324.566 169.200,324.365 169.200 C 324.164 169.200,324.000 168.840,324.000 168.400 C 324.000 167.960,323.820 167.600,323.600 167.600 C 323.380 167.600,323.200 167.240,323.200 166.800 C 323.200 166.360,323.020 166.000,322.800 166.000 C 322.580 166.000,322.400 165.640,322.400 165.200 C 322.400 164.760,322.220 164.400,322.000 164.400 C 321.780 164.400,321.600 164.040,321.600 163.600 C 321.600 163.160,321.420 162.800,321.200 162.800 C 320.980 162.800,320.800 162.440,320.800 162.000 C 320.800 161.560,320.620 161.200,320.400 161.200 C 320.180 161.200,320.000 160.840,320.000 160.400 C 320.000 159.960,319.820 159.600,319.600 159.600 C 319.380 159.600,319.200 159.330,319.200 159.000 C 319.200 158.670,319.020 158.400,318.800 158.400 C 318.580 158.400,318.400 158.040,318.400 157.600 C 318.400 157.160,318.220 156.800,318.000 156.800 C 317.780 156.800,317.600 156.440,317.600 156.000 C 317.600 155.560,317.420 155.200,317.200 155.200 C 316.980 155.200,316.800 154.840,316.800 154.400 C 316.800 153.960,316.620 153.600,316.400 153.600 C 316.180 153.600,316.000 153.240,316.000 152.800 C 316.000 152.360,315.820 152.000,315.600 152.000 C 315.380 152.000,315.200 151.640,315.200 151.200 C 315.200 150.760,315.020 150.400,314.800 150.400 C 314.580 150.400,314.400 150.040,314.400 149.600 C 314.400 149.160,314.220 148.800,314.000 148.800 C 313.780 148.800,313.600 148.564,313.600 148.275 C 313.600 147.987,313.240 147.364,312.800 146.892 C 312.360 146.420,312.000 145.756,312.000 145.417 C 312.000 145.078,311.820 144.800,311.600 144.800 C 311.380 144.800,311.200 144.440,311.200 144.000 C 311.200 143.560,311.020 143.200,310.800 143.200 C 310.580 143.200,310.400 142.930,310.400 142.600 C 310.400 142.270,310.220 142.000,310.000 142.000 C 309.780 142.000,309.600 141.640,309.600 141.200 C 309.600 140.760,309.423 140.400,309.208 140.400 C 308.992 140.400,308.694 139.905,308.546 139.300 C 308.398 138.695,308.170 138.110,308.038 138.000 C 307.907 137.890,307.363 136.990,306.830 136.000 C 306.296 135.010,305.756 134.110,305.630 134.000 C 305.228 133.650,304.400 132.027,304.400 131.589 C 304.400 131.357,304.040 130.780,303.600 130.308 C 303.160 129.836,302.800 129.213,302.800 128.925 C 302.800 128.636,302.664 128.400,302.498 128.400 C 302.331 128.400,301.971 127.894,301.697 127.275 C 301.424 126.656,300.840 125.764,300.400 125.292 C 299.960 124.820,299.600 124.156,299.600 123.817 C 299.600 123.478,299.420 123.200,299.200 123.200 C 298.980 123.200,298.800 122.880,298.800 122.488 C 298.800 122.097,298.440 121.517,298.000 121.200 C 297.560 120.883,297.200 120.303,297.200 119.912 C 297.200 119.520,297.020 119.200,296.800 119.200 C 296.580 119.200,296.400 118.930,296.400 118.600 C 296.400 118.270,296.220 118.000,296.000 118.000 C 295.780 118.000,295.600 117.730,295.600 117.400 C 295.600 117.070,295.420 116.800,295.200 116.800 C 294.980 116.800,294.800 116.480,294.800 116.088 C 294.800 115.697,294.440 115.117,294.000 114.800 C 293.560 114.483,293.200 113.903,293.200 113.512 C 293.200 113.120,293.020 112.800,292.800 112.800 C 292.580 112.800,292.400 112.530,292.400 112.200 C 292.400 111.870,292.240 111.600,292.043 111.600 C 291.847 111.600,291.584 111.191,291.459 110.692 C 291.334 110.193,290.909 109.428,290.515 108.992 C 290.121 108.556,289.366 107.345,288.837 106.300 C 288.307 105.255,287.723 104.400,287.537 104.400 C 287.352 104.400,287.200 104.106,287.200 103.747 C 287.200 103.388,286.884 102.803,286.497 102.447 C 286.111 102.091,285.540 101.305,285.230 100.700 C 284.919 100.095,284.515 99.600,284.332 99.600 C 284.150 99.600,284.000 99.280,284.000 98.888 C 284.000 98.497,283.640 97.917,283.200 97.600 C 282.760 97.283,282.400 96.786,282.400 96.495 C 282.400 96.204,282.040 95.580,281.600 95.108 C 281.160 94.636,280.800 94.013,280.800 93.725 C 280.800 93.436,280.620 93.200,280.400 93.200 C 280.180 93.200,280.000 92.970,280.000 92.688 C 280.000 92.407,279.640 91.917,279.200 91.600 C 278.760 91.283,278.400 90.743,278.400 90.400 C 278.400 90.057,278.040 89.517,277.600 89.200 C 277.160 88.883,276.800 88.343,276.800 88.000 C 276.800 87.657,276.440 87.117,276.000 86.800 C 275.560 86.483,275.200 85.931,275.200 85.574 C 275.200 85.217,274.750 84.401,274.200 83.762 C 273.651 83.123,273.201 82.375,273.200 82.100 C 273.200 81.825,273.016 81.600,272.791 81.600 C 272.567 81.600,272.166 81.105,271.901 80.500 C 271.635 79.895,271.143 79.130,270.807 78.800 C 270.470 78.470,269.940 77.705,269.630 77.100 C 269.319 76.495,268.915 76.000,268.732 76.000 C 268.550 76.000,268.400 75.796,268.400 75.547 C 268.400 75.298,268.084 74.803,267.697 74.447 C 267.311 74.091,266.740 73.305,266.430 72.700 C 266.119 72.095,265.715 71.600,265.532 71.600 C 265.350 71.600,265.200 71.280,265.200 70.888 C 265.200 70.497,264.840 69.917,264.400 69.600 C 263.960 69.283,263.600 68.793,263.600 68.512 C 263.600 68.230,263.420 68.000,263.200 68.000 C 262.980 68.000,262.800 67.796,262.800 67.547 C 262.800 67.298,262.484 66.803,262.097 66.447 C 261.711 66.091,261.140 65.305,260.830 64.700 C 260.519 64.095,260.115 63.600,259.932 63.600 C 259.750 63.600,259.600 63.392,259.600 63.138 C 259.600 62.884,259.150 62.086,258.600 61.364 C 258.050 60.643,257.600 59.927,257.600 59.774 C 257.600 59.620,257.251 59.191,256.825 58.822 C 256.399 58.452,255.994 57.903,255.925 57.602 C 255.856 57.302,255.305 56.521,254.700 55.868 C 254.095 55.216,253.600 54.504,253.600 54.288 C 253.600 54.071,253.251 53.591,252.825 53.222 C 252.399 52.852,251.994 52.292,251.925 51.978 C 251.856 51.665,251.314 50.937,250.719 50.361 C 250.125 49.786,249.585 49.072,249.519 48.776 C 249.454 48.479,249.008 47.828,248.529 47.329 C 248.050 46.830,247.336 45.877,246.943 45.211 C 246.549 44.545,246.086 44.000,245.914 44.000 C 245.741 44.000,245.600 43.802,245.600 43.560 C 245.600 43.319,245.060 42.617,244.400 42.000 C 243.740 41.383,243.200 40.657,243.200 40.386 C 243.200 40.116,242.867 39.603,242.459 39.247 C 242.052 38.891,241.395 37.970,241.000 37.200 C 240.605 36.430,239.948 35.509,239.541 35.153 C 239.133 34.797,238.800 34.304,238.800 34.057 C 238.800 33.809,238.260 33.091,237.600 32.460 C 236.940 31.829,236.400 31.090,236.400 30.817 C 236.400 30.544,235.860 29.817,235.200 29.200 C 234.540 28.583,234.000 27.897,234.000 27.673 C 234.000 27.450,233.460 26.758,232.800 26.135 C 232.140 25.512,231.600 24.849,231.600 24.662 C 231.600 24.474,231.060 23.817,230.400 23.200 C 229.740 22.583,229.200 21.863,229.200 21.600 C 229.200 21.337,228.660 20.617,228.000 20.000 C 227.340 19.383,226.800 18.673,226.800 18.421 C 226.800 18.170,226.395 17.547,225.900 17.037 C 225.405 16.527,224.730 15.705,224.400 15.209 C 223.815 14.330,222.693 12.823,221.716 11.604 C 221.449 11.272,220.509 10.211,219.626 9.247 C 218.742 8.282,217.922 7.186,217.803 6.811 C 217.684 6.435,217.095 5.874,216.493 5.564 C 215.892 5.254,214.923 4.505,214.340 3.900 C 213.756 3.295,212.991 2.800,212.640 2.800 C 212.288 2.800,212.000 2.620,212.000 2.400 C 212.000 2.180,211.640 2.000,211.200 2.000 C 210.760 2.000,210.400 1.820,210.400 1.600 C 210.400 1.380,210.055 1.200,209.633 1.200 C 209.212 1.200,208.792 0.975,208.700 0.700 C 208.533 0.197,195.530 -0.147,192.500 0.271 M205.800 106.655 C 207.120 106.783,208.371 107.047,208.580 107.243 C 208.789 107.440,209.453 107.600,210.056 107.600 C 210.659 107.600,211.264 107.780,211.400 108.000 C 211.536 108.220,211.999 108.400,212.429 108.400 C 212.859 108.400,213.523 108.559,213.905 108.753 C 214.287 108.948,215.050 109.282,215.600 109.497 C 224.604 113.007,232.961 120.690,237.397 129.536 C 239.126 132.985,240.800 137.453,240.800 138.618 C 240.800 139.070,240.964 139.611,241.165 139.820 C 242.126 140.821,242.941 202.019,242.005 202.955 C 241.782 203.178,241.600 204.303,241.600 205.456 C 241.600 206.609,241.420 207.664,241.200 207.800 C 240.980 207.936,240.800 208.631,240.800 209.344 C 240.800 210.057,240.651 210.811,240.470 211.020 C 240.288 211.229,239.890 212.210,239.585 213.200 C 237.646 219.492,232.233 227.056,225.974 232.218 C 223.089 234.597,216.413 238.400,215.120 238.400 C 214.797 238.400,214.410 238.523,214.259 238.674 C 213.833 239.101,211.092 239.987,210.180 239.994 C 209.729 239.997,209.189 240.163,208.980 240.363 C 208.771 240.563,207.700 240.828,206.600 240.952 C 205.500 241.077,203.700 241.296,202.600 241.440 C 200.595 241.703,192.452 241.018,190.200 240.398 C 175.184 236.261,165.401 228.088,159.803 215.000 C 158.731 212.494,158.520 211.910,158.071 210.200 C 157.840 209.320,157.414 207.700,157.125 206.600 C 156.713 205.032,156.600 197.948,156.600 173.800 C 156.600 141.153,156.510 142.920,158.523 136.200 C 159.261 133.737,162.863 126.139,163.548 125.600 C 163.688 125.490,164.299 124.667,164.907 123.770 C 166.349 121.643,171.621 116.365,173.738 114.929 C 174.652 114.309,175.490 113.712,175.600 113.601 C 176.381 112.816,183.637 109.200,184.432 109.200 C 184.828 109.200,185.243 109.054,185.353 108.876 C 185.626 108.435,192.320 106.909,196.000 106.450 C 198.855 106.093,200.300 106.123,205.800 106.655 M194.828 131.055 C 188.257 132.395,182.426 138.304,180.991 145.077 C 180.298 148.348,180.127 197.691,180.795 201.800 C 183.912 220.986,211.345 222.379,217.033 203.640 C 217.756 201.259,217.874 146.752,217.162 144.428 C 214.179 134.700,204.721 129.037,194.828 131.055 M204.315 269.264 C 206.150 270.144,209.600 273.418,209.600 274.279 C 209.600 274.566,209.780 274.800,210.000 274.800 C 210.220 274.800,210.400 275.239,210.400 275.776 C 210.400 276.313,210.580 276.864,210.800 277.000 C 211.035 277.145,211.200 279.471,211.200 282.624 L 211.200 288.000 216.388 288.000 C 225.963 288.000,230.999 292.200,230.933 300.133 C 230.895 304.788,226.918 311.200,224.070 311.200 C 223.679 311.200,223.156 311.404,222.906 311.654 C 222.633 311.927,220.221 312.187,216.826 312.310 L 211.200 312.512 211.200 317.861 C 211.200 320.804,211.035 323.523,210.834 323.905 C 210.632 324.287,210.192 325.236,209.856 326.014 C 207.938 330.448,202.063 333.445,197.357 332.390 C 190.147 330.775,187.200 326.605,187.200 318.018 C 187.200 311.488,187.696 312.000,181.369 312.000 C 171.714 312.000,167.001 308.129,167.004 300.200 C 167.007 292.035,172.068 287.987,182.262 287.996 L 187.125 288.000 187.272 282.300 C 187.397 277.430,187.542 276.367,188.270 275.000 C 191.381 269.156,198.662 266.553,204.315 269.264 " stroke="none" fill="#c52c69" fill-rule="evenodd"></path><path id="path1" d="M199.178 107.214 C 198.934 107.364,198.827 111.666,198.894 118.628 L 199.000 129.800 201.800 130.245 C 209.803 131.518,215.857 136.805,217.785 144.206 C 218.842 148.264,218.693 200.569,217.614 204.058 C 215.379 211.291,207.867 217.600,201.489 217.600 C 198.721 217.600,198.774 217.354,198.893 229.600 L 199.000 240.600 202.600 240.514 C 220.359 240.087,236.445 225.825,240.850 206.600 C 241.802 202.445,241.639 143.870,240.666 140.400 C 240.265 138.970,239.836 137.350,239.712 136.800 C 237.409 126.561,225.833 114.009,215.000 110.003 C 214.560 109.840,213.750 109.523,213.200 109.299 C 212.130 108.863,210.102 108.302,207.200 107.640 C 205.064 107.153,199.734 106.870,199.178 107.214 M198.984 269.300 C 198.879 269.575,198.840 283.748,198.897 300.795 C 199.013 335.808,198.681 332.679,202.166 331.560 C 208.230 329.613,210.350 326.069,210.754 317.200 L 211.000 311.800 216.400 311.590 C 219.370 311.474,222.160 311.233,222.600 311.054 C 224.805 310.155,225.527 309.688,227.008 308.208 C 229.372 305.844,230.400 303.354,230.400 299.993 C 230.400 292.580,224.971 288.414,215.300 288.404 L 210.800 288.400 210.795 284.100 C 210.786 276.073,209.163 272.762,203.837 269.909 C 201.689 268.758,199.305 268.459,198.984 269.300 " stroke="none" fill="#ffffff" fill-rule="evenodd"></path><path id="path2" d="M199.000 106.800 C 198.560 106.989,197.102 107.156,195.760 107.172 C 194.418 107.187,192.798 107.361,192.160 107.557 C 191.522 107.753,189.920 108.142,188.600 108.421 C 187.280 108.700,186.029 109.080,185.820 109.264 C 185.611 109.449,185.161 109.605,184.820 109.610 C 184.249 109.619,179.544 111.849,177.206 113.218 C 172.500 115.974,165.974 122.500,163.218 127.206 C 161.849 129.544,159.619 134.249,159.610 134.820 C 159.605 135.161,159.449 135.611,159.264 135.820 C 159.080 136.029,158.700 137.280,158.421 138.600 C 158.142 139.920,157.753 141.522,157.557 142.160 C 157.020 143.906,157.098 203.547,157.641 205.894 C 159.476 213.832,161.563 218.578,165.540 223.856 C 173.778 234.789,184.123 239.843,200.600 240.986 L 202.600 241.125 200.800 240.862 L 199.000 240.600 198.893 229.600 C 198.795 219.480,198.843 218.557,199.493 218.061 C 200.121 217.582,200.064 217.550,198.983 217.775 C 194.121 218.783,184.740 213.121,182.126 207.600 C 179.664 202.398,179.601 201.557,179.600 173.824 C 179.600 150.218,179.759 146.187,180.797 143.400 C 183.138 137.113,186.178 134.073,193.536 130.660 C 194.051 130.422,196.121 130.227,198.136 130.228 C 200.151 130.229,201.170 130.133,200.400 130.015 L 199.000 129.800 198.894 118.649 C 198.796 108.386,198.843 107.455,199.494 106.962 C 200.298 106.351,200.154 106.304,199.000 106.800 M201.100 107.082 C 201.595 107.178,202.405 107.178,202.900 107.082 C 203.395 106.987,202.990 106.909,202.000 106.909 C 201.010 106.909,200.605 106.987,201.100 107.082 M229.000 119.200 C 230.083 120.300,231.060 121.200,231.170 121.200 C 231.280 121.200,230.483 120.300,229.400 119.200 C 228.317 118.100,227.340 117.200,227.230 117.200 C 227.120 117.200,227.917 118.100,229.000 119.200 M241.293 145.200 C 241.293 145.970,241.375 146.285,241.476 145.900 C 241.576 145.515,241.576 144.885,241.476 144.500 C 241.375 144.115,241.293 144.430,241.293 145.200 M218.101 147.400 C 218.105 148.280,218.187 148.593,218.283 148.095 C 218.379 147.598,218.375 146.878,218.275 146.495 C 218.175 146.113,218.096 146.520,218.101 147.400 M241.789 173.800 C 241.789 188.100,241.839 193.892,241.900 186.671 C 241.961 179.450,241.961 167.750,241.900 160.671 C 241.839 153.592,241.789 159.500,241.789 173.800 M218.109 200.400 C 218.109 201.390,218.187 201.795,218.282 201.300 C 218.378 200.805,218.378 199.995,218.282 199.500 C 218.187 199.005,218.109 199.410,218.109 200.400 M241.293 202.400 C 241.293 203.170,241.375 203.485,241.476 203.100 C 241.576 202.715,241.576 202.085,241.476 201.700 C 241.375 201.315,241.293 201.630,241.293 202.400 M212.581 212.100 L 211.000 213.800 212.700 212.219 C 214.281 210.748,214.584 210.400,214.281 210.400 C 214.216 210.400,213.451 211.165,212.581 212.100 M201.300 217.476 C 201.685 217.576,202.315 217.576,202.700 217.476 C 203.085 217.375,202.770 217.293,202.000 217.293 C 201.230 217.293,200.915 217.375,201.300 217.476 M230.575 226.900 L 229.400 228.200 230.700 227.025 C 231.415 226.379,232.000 225.794,232.000 225.725 C 232.000 225.416,231.670 225.688,230.575 226.900 M227.170 230.300 L 226.200 231.400 227.400 230.400 C 228.060 229.850,228.675 229.355,228.767 229.300 C 228.858 229.245,228.755 229.200,228.536 229.200 C 228.318 229.200,227.703 229.695,227.170 230.300 M194.538 269.784 C 192.408 270.752,189.200 273.676,189.200 274.648 C 189.200 274.952,189.020 275.200,188.800 275.200 C 188.580 275.200,188.400 275.639,188.400 276.176 C 188.400 276.713,188.220 277.264,188.000 277.400 C 187.766 277.545,187.600 279.865,187.600 283.005 L 187.600 288.364 186.300 288.565 C 185.585 288.676,182.750 288.844,180.000 288.938 C 174.312 289.134,173.413 289.450,170.632 292.232 C 164.695 298.168,167.156 308.276,175.200 311.002 C 175.750 311.189,178.720 311.444,181.800 311.571 L 187.400 311.800 187.501 317.200 C 187.556 320.170,187.763 322.960,187.960 323.400 C 188.157 323.840,188.617 324.880,188.983 325.710 C 189.803 327.575,191.947 329.765,193.690 330.520 C 196.549 331.758,197.272 332.000,198.119 332.000 L 199.000 332.000 199.000 300.400 L 199.000 268.800 197.800 268.823 C 197.140 268.836,195.672 269.268,194.538 269.784 M213.100 311.895 C 214.255 311.976,216.145 311.976,217.300 311.895 C 218.455 311.814,217.510 311.748,215.200 311.748 C 212.890 311.748,211.945 311.814,213.100 311.895 " stroke="none" fill="#ffffff" fill-rule="evenodd"></path><path id="path3" d="M199.705 106.287 C 200.314 106.379,201.214 106.377,201.705 106.282 C 202.197 106.187,201.700 106.111,200.600 106.114 C 199.500 106.117,199.097 106.195,199.705 106.287 M194.400 106.677 C 192.229 106.842,185.952 108.362,185.420 108.851 C 185.211 109.043,184.741 109.200,184.375 109.200 C 183.624 109.200,176.348 112.849,175.600 113.601 C 175.490 113.712,174.652 114.309,173.738 114.929 C 171.621 116.365,166.349 121.643,164.907 123.770 C 164.299 124.667,163.688 125.490,163.548 125.600 C 162.863 126.139,159.261 133.737,158.523 136.200 C 156.510 142.920,156.600 141.153,156.600 173.800 C 156.600 197.948,156.713 205.032,157.125 206.600 C 157.414 207.700,157.840 209.320,158.071 210.200 C 158.520 211.910,158.731 212.494,159.803 215.000 C 162.351 220.956,164.509 224.113,169.392 229.025 C 175.772 235.443,185.516 240.148,194.200 241.005 C 195.520 241.136,197.230 241.333,198.000 241.444 C 198.962 241.583,199.212 241.529,198.800 241.273 C 198.470 241.069,196.850 240.774,195.200 240.619 C 176.388 238.850,161.951 225.655,157.544 206.200 C 156.619 202.118,156.760 144.786,157.705 140.900 C 162.328 121.877,178.728 107.248,195.476 107.206 C 196.838 107.203,198.064 107.020,198.200 106.800 C 198.445 106.403,198.129 106.393,194.400 106.677 M195.800 130.276 C 189.639 131.078,183.472 136.535,180.741 143.600 C 179.945 145.660,179.944 201.936,180.740 204.000 C 182.081 207.476,183.567 209.889,185.646 211.968 C 187.752 214.074,191.810 216.723,192.253 216.281 C 192.362 216.171,191.595 215.658,190.549 215.141 C 185.772 212.779,181.666 207.163,180.795 201.800 C 180.123 197.669,180.298 148.347,180.996 145.055 C 182.692 137.047,190.189 130.707,197.981 130.692 C 199.608 130.689,199.933 130.606,199.200 130.384 C 198.114 130.054,197.627 130.038,195.800 130.276 M212.400 136.200 C 213.146 136.970,213.847 137.600,213.957 137.600 C 214.067 137.600,213.546 136.970,212.800 136.200 C 212.054 135.430,211.353 134.800,211.243 134.800 C 211.133 134.800,211.654 135.430,212.400 136.200 M241.896 146.246 C 242.012 147.321,242.172 148.275,242.253 148.367 C 242.572 148.729,242.365 145.365,242.037 144.846 C 241.822 144.507,241.768 145.051,241.896 146.246 M217.789 174.000 C 217.789 189.510,217.839 195.855,217.900 188.100 C 217.961 180.345,217.961 167.655,217.900 159.900 C 217.839 152.145,217.789 158.490,217.789 174.000 M241.993 201.081 C 241.887 202.225,241.947 203.015,242.126 202.835 C 242.305 202.656,242.391 201.719,242.318 200.754 L 242.185 199.000 241.993 201.081 M193.200 216.800 C 193.530 217.013,194.250 217.173,194.800 217.154 L 195.800 217.120 194.800 216.800 C 193.258 216.306,192.436 216.306,193.200 216.800 M200.300 217.082 C 200.795 217.178,201.605 217.178,202.100 217.082 C 202.595 216.987,202.190 216.909,201.200 216.909 C 200.210 216.909,199.805 216.987,200.300 217.082 M196.705 217.483 C 197.202 217.579,197.922 217.575,198.305 217.475 C 198.687 217.375,198.280 217.296,197.400 217.301 C 196.520 217.305,196.207 217.387,196.705 217.483 M229.387 228.900 L 227.000 231.400 229.500 229.013 C 230.875 227.699,232.000 226.574,232.000 226.513 C 232.000 226.217,231.605 226.578,229.387 228.900 M197.400 268.400 C 196.293 268.682,196.277 268.709,197.200 268.747 C 197.750 268.769,198.470 268.613,198.800 268.400 C 199.481 267.960,199.129 267.960,197.400 268.400 M193.675 269.540 C 190.892 271.024,187.224 275.583,187.730 276.930 C 187.830 277.196,188.030 277.053,188.190 276.600 C 189.281 273.513,191.405 271.105,194.194 269.792 C 195.297 269.273,195.930 268.844,195.600 268.841 C 195.270 268.837,194.404 269.151,193.675 269.540 M187.200 282.800 L 187.200 288.000 182.300 287.996 C 172.065 287.987,167.007 292.023,167.004 300.200 C 167.001 308.129,171.714 312.000,181.369 312.000 C 187.696 312.000,187.200 311.488,187.200 318.018 C 187.200 327.157,192.297 333.128,199.784 332.760 C 200.233 332.738,199.880 332.561,199.000 332.367 C 192.703 330.981,190.129 329.044,188.145 324.200 C 187.965 323.760,187.723 320.790,187.609 317.600 L 187.400 311.800 181.600 311.571 C 172.802 311.224,169.516 309.288,167.626 303.340 C 164.911 294.797,171.353 288.414,182.700 288.404 L 187.600 288.400 187.600 283.000 C 187.600 280.030,187.510 277.600,187.400 277.600 C 187.290 277.600,187.200 279.940,187.200 282.800 M213.300 312.296 C 214.565 312.375,216.635 312.375,217.900 312.296 C 219.165 312.216,218.130 312.151,215.600 312.151 C 213.070 312.151,212.035 312.216,213.300 312.296 " stroke="none" fill="#ffffff" fill-rule="evenodd"></path><path id="path4" d="M200.700 106.682 C 201.195 106.778,202.005 106.778,202.500 106.682 C 202.995 106.587,202.590 106.509,201.600 106.509 C 200.610 106.509,200.205 106.587,200.700 106.682 M204.505 107.087 C 205.114 107.179,206.014 107.177,206.505 107.082 C 206.997 106.987,206.500 106.911,205.400 106.914 C 204.300 106.917,203.897 106.995,204.505 107.087 M208.000 107.594 C 208.330 107.811,209.035 107.991,209.567 107.994 C 210.851 108.002,210.525 107.775,208.800 107.458 C 207.815 107.277,207.578 107.318,208.000 107.594 M212.000 108.664 C 212.330 108.774,213.275 109.119,214.100 109.429 C 214.925 109.740,215.600 109.907,215.600 109.802 C 215.600 109.493,212.762 108.397,212.051 108.432 C 211.512 108.458,211.503 108.498,212.000 108.664 M218.400 111.183 C 219.606 112.075,220.400 112.424,220.400 112.061 C 220.400 111.859,220.085 111.582,219.700 111.446 C 219.315 111.311,218.730 111.096,218.400 110.969 C 217.867 110.765,217.867 110.788,218.400 111.183 M222.400 113.349 C 222.400 113.435,223.030 113.986,223.800 114.573 C 224.570 115.160,225.198 115.497,225.195 115.320 C 225.192 115.144,224.562 114.593,223.795 114.096 C 223.028 113.599,222.400 113.263,222.400 113.349 M228.427 118.414 C 230.091 120.056,232.128 122.210,232.953 123.200 C 233.778 124.190,234.184 124.574,233.856 124.052 C 232.791 122.364,228.871 118.123,227.113 116.757 C 226.074 115.951,226.592 116.603,228.427 118.414 M235.786 127.500 C 236.135 128.215,236.506 128.800,236.610 128.800 C 237.008 128.800,236.752 128.163,235.967 127.200 L 235.152 126.200 235.786 127.500 M200.200 130.598 C 201.218 130.943,204.462 131.085,203.954 130.763 C 203.649 130.570,202.590 130.424,201.600 130.438 C 200.610 130.452,199.980 130.524,200.200 130.598 M207.600 132.420 C 208.987 133.361,209.778 133.635,208.800 132.836 C 208.250 132.386,207.620 132.017,207.400 132.015 C 207.180 132.013,207.270 132.196,207.600 132.420 M210.200 133.879 C 211.488 135.194,214.081 137.243,213.200 136.250 C 212.650 135.629,211.660 134.750,211.000 134.296 C 210.340 133.842,209.980 133.654,210.200 133.879 M185.375 135.700 L 184.200 137.000 185.500 135.825 C 186.215 135.179,186.800 134.594,186.800 134.525 C 186.800 134.216,186.470 134.488,185.375 135.700 M240.258 138.000 C 240.575 139.725,240.802 140.051,240.794 138.767 C 240.791 138.235,240.611 137.530,240.394 137.200 C 240.118 136.778,240.077 137.015,240.258 138.000 M241.096 141.846 C 241.212 142.921,241.372 143.875,241.453 143.967 C 241.772 144.329,241.565 140.965,241.237 140.446 C 241.022 140.107,240.968 140.651,241.096 141.846 M217.256 144.000 C 217.256 144.330,217.411 144.960,217.600 145.400 C 217.817 145.904,217.944 145.978,217.944 145.600 C 217.944 145.270,217.789 144.640,217.600 144.200 C 217.383 143.696,217.256 143.622,217.256 144.000 M241.701 146.600 C 241.705 147.480,241.787 147.793,241.883 147.295 C 241.979 146.798,241.975 146.078,241.875 145.695 C 241.775 145.313,241.696 145.720,241.701 146.600 M156.989 173.800 C 156.989 188.100,157.039 193.892,157.100 186.671 C 157.161 179.450,157.161 167.750,157.100 160.671 C 157.039 153.592,156.989 159.500,156.989 173.800 M179.789 173.800 C 179.789 188.100,179.839 193.892,179.900 186.671 C 179.961 179.450,179.961 167.750,179.900 160.671 C 179.839 153.592,179.789 159.500,179.789 173.800 M242.188 173.800 C 242.188 187.880,242.239 193.582,242.300 186.471 C 242.361 179.360,242.361 167.840,242.300 160.871 C 242.238 153.902,242.188 159.720,242.188 173.800 M218.188 173.800 C 218.188 187.660,218.239 193.272,218.300 186.271 C 218.361 179.270,218.361 167.930,218.300 161.071 C 218.238 154.212,218.188 159.940,218.188 173.800 M241.709 201.200 C 241.709 202.190,241.787 202.595,241.882 202.100 C 241.978 201.605,241.978 200.795,241.882 200.300 C 241.787 199.805,241.709 200.210,241.709 201.200 M217.400 202.800 C 217.250 203.273,217.217 203.750,217.327 203.860 C 217.437 203.970,217.650 203.673,217.800 203.200 C 217.950 202.727,217.983 202.250,217.873 202.140 C 217.763 202.030,217.550 202.327,217.400 202.800 M241.267 204.867 C 241.230 205.674,241.096 206.664,240.970 207.067 C 240.753 207.757,240.766 207.759,241.194 207.093 C 241.443 206.704,241.577 205.714,241.491 204.893 L 241.334 203.400 241.267 204.867 M240.454 208.667 C 240.425 209.144,240.296 209.864,240.170 210.267 C 239.952 210.961,239.964 210.962,240.396 210.288 C 240.647 209.897,240.775 209.177,240.681 208.688 C 240.509 207.801,240.509 207.801,240.454 208.667 M214.800 208.786 C 214.800 208.998,214.219 209.853,213.509 210.686 C 212.756 211.570,212.607 211.867,213.153 211.400 C 214.433 210.303,215.749 208.400,215.227 208.400 C 214.992 208.400,214.800 208.574,214.800 208.786 M210.385 213.632 L 209.000 214.863 210.288 214.013 C 211.430 213.259,212.293 212.400,211.908 212.400 C 211.832 212.400,211.147 212.954,210.385 213.632 M203.400 216.800 C 202.896 217.017,202.822 217.144,203.200 217.144 C 203.530 217.144,204.160 216.989,204.600 216.800 C 205.104 216.583,205.178 216.456,204.800 216.456 C 204.470 216.456,203.840 216.611,203.400 216.800 M197.800 217.600 C 196.730 217.872,196.708 217.905,197.600 217.905 C 198.150 217.905,199.140 217.768,199.800 217.600 C 200.870 217.328,200.892 217.295,200.000 217.295 C 199.450 217.295,198.460 217.432,197.800 217.600 M236.600 218.800 C 236.259 219.460,236.069 220.000,236.179 220.000 C 236.289 220.000,236.659 219.460,237.000 218.800 C 237.341 218.140,237.531 217.600,237.421 217.600 C 237.311 217.600,236.941 218.140,236.600 218.800 M234.585 222.100 C 233.968 223.035,233.720 223.589,234.032 223.331 C 234.633 222.834,236.164 220.400,235.876 220.400 C 235.783 220.400,235.202 221.165,234.585 222.100 M231.397 226.300 C 230.321 227.565,229.856 228.240,230.364 227.800 C 231.329 226.964,233.783 224.000,233.510 224.000 C 233.423 224.000,232.472 225.035,231.397 226.300 M226.600 231.018 C 225.720 231.781,223.875 233.145,222.500 234.050 C 220.007 235.690,219.193 236.454,220.900 235.553 C 222.874 234.512,229.112 229.538,228.349 229.615 C 228.267 229.623,227.480 230.254,226.600 231.018 M210.200 239.600 C 209.093 239.882,209.077 239.909,210.000 239.947 C 210.550 239.969,211.270 239.813,211.600 239.600 C 212.281 239.160,211.929 239.160,210.200 239.600 M206.400 240.400 L 204.600 240.680 206.200 240.734 C 207.080 240.763,208.070 240.613,208.400 240.400 C 208.730 240.187,208.820 240.037,208.600 240.066 C 208.380 240.096,207.390 240.246,206.400 240.400 M195.505 240.683 C 196.002 240.779,196.722 240.775,197.105 240.675 C 197.487 240.575,197.080 240.496,196.200 240.501 C 195.320 240.505,195.007 240.587,195.505 240.683 M200.800 241.200 L 199.000 241.480 200.600 241.493 C 201.480 241.500,202.740 241.368,203.400 241.200 C 205.000 240.793,203.419 240.793,200.800 241.200 M198.850 268.369 C 198.502 268.584,198.914 268.713,199.996 268.728 C 201.839 268.753,201.938 268.641,200.397 268.273 C 199.845 268.141,199.149 268.184,198.850 268.369 M202.800 268.983 C 202.800 269.163,205.202 270.400,205.550 270.400 C 205.897 270.400,204.294 269.367,203.500 269.079 C 203.115 268.939,202.800 268.896,202.800 268.983 M207.217 271.804 C 207.978 272.686,208.923 273.856,209.317 274.404 C 210.009 275.365,210.010 275.354,209.324 274.088 C 208.933 273.366,207.988 272.196,207.223 271.488 L 205.834 270.200 207.217 271.804 M210.717 282.336 C 210.870 289.018,210.328 288.415,216.087 288.314 L 221.000 288.227 216.100 288.101 L 211.200 287.975 211.194 283.088 C 211.191 280.399,211.056 277.991,210.894 277.736 C 210.732 277.481,210.652 279.551,210.717 282.336 M179.516 288.697 C 180.899 288.775,183.059 288.774,184.316 288.695 C 185.572 288.616,184.440 288.552,181.800 288.553 C 179.160 288.553,178.132 288.618,179.516 288.697 M224.796 289.883 C 225.344 290.277,226.514 291.222,227.396 291.983 L 229.000 293.366 227.712 291.977 C 227.004 291.212,225.834 290.267,225.112 289.876 C 223.846 289.190,223.835 289.191,224.796 289.883 M228.800 293.739 C 228.800 293.815,229.107 294.490,229.483 295.239 C 229.859 295.987,230.286 297.320,230.433 298.200 C 230.687 299.723,230.702 299.737,230.750 298.496 C 230.777 297.778,230.420 296.383,229.956 295.396 C 229.228 293.847,228.800 293.234,228.800 293.739 M230.493 302.000 C 230.493 302.770,230.575 303.085,230.676 302.700 C 230.776 302.315,230.776 301.685,230.676 301.300 C 230.575 300.915,230.493 301.230,230.493 302.000 M228.614 306.635 C 228.241 307.204,228.005 307.738,228.089 307.822 C 228.173 307.907,228.558 307.441,228.944 306.788 C 229.806 305.328,229.548 305.209,228.614 306.635 M225.200 310.036 C 224.536 310.579,224.469 310.715,225.000 310.440 C 226.305 309.766,227.028 309.212,226.600 309.215 C 226.380 309.217,225.750 309.586,225.200 310.036 M220.800 311.600 L 219.000 311.880 220.676 311.940 C 221.598 311.973,222.464 311.820,222.600 311.600 C 222.736 311.380,222.792 311.227,222.724 311.260 C 222.656 311.293,221.790 311.446,220.800 311.600 M210.887 317.067 C 210.839 319.964,210.696 322.664,210.570 323.067 C 210.359 323.739,210.376 323.743,210.782 323.115 C 211.065 322.675,211.179 320.522,211.099 317.115 L 210.975 311.800 210.887 317.067 M208.667 327.194 C 208.279 327.851,207.295 328.876,206.481 329.472 C 204.312 331.060,204.044 331.370,205.460 330.656 C 206.683 330.040,209.600 326.990,209.600 326.328 C 209.600 325.769,209.398 325.956,208.667 327.194 M199.100 332.282 C 199.595 332.378,200.405 332.378,200.900 332.282 C 201.395 332.187,200.990 332.109,200.000 332.109 C 199.010 332.109,198.605 332.187,199.100 332.282 " stroke="none" fill="#ffffff" fill-rule="evenodd"></path></g></svg>