<svg id="svg" version="1.1" xmlns="http://www.w3.org/2000/svg" xmlns:xlink="http://www.w3.org/1999/xlink" width="400" height="400" viewBox="0, 0, 400,400"><g id="svgg"><path id="path0" d="M198.800 106.795 C 198.470 107.011,197.168 107.191,195.906 107.194 C 194.644 107.197,192.754 107.398,191.706 107.641 C 187.946 108.510,186.589 108.884,185.905 109.239 C 185.523 109.438,184.983 109.602,184.705 109.603 C 183.729 109.610,176.336 113.602,174.068 115.348 C 167.870 120.117,162.461 127.076,160.192 133.200 C 159.826 134.190,159.383 135.360,159.208 135.800 C 158.876 136.638,158.381 138.505,157.641 141.706 C 157.014 144.414,157.027 203.664,157.655 206.294 C 161.336 221.729,170.759 233.038,184.050 237.972 C 188.815 239.741,193.820 240.651,200.600 240.983 C 203.068 241.104,203.139 241.089,201.200 240.860 L 199.000 240.600 198.893 229.627 C 198.776 217.497,198.674 217.966,201.502 217.572 L 203.400 217.307 201.760 217.253 C 200.858 217.224,199.594 217.383,198.952 217.607 C 197.445 218.132,192.258 216.861,189.634 215.324 C 184.430 212.275,180.915 206.798,180.056 200.400 C 179.457 195.943,179.428 151.525,180.021 147.477 C 181.236 139.188,185.609 133.800,193.600 130.745 C 194.397 130.440,196.464 130.220,198.400 130.234 C 200.270 130.248,201.170 130.156,200.400 130.029 L 199.000 129.800 198.894 118.500 C 198.810 109.610,198.896 107.193,199.294 107.167 C 199.572 107.149,200.880 107.164,202.199 107.200 C 203.518 107.235,204.508 107.184,204.399 107.085 C 203.937 106.669,199.355 106.432,198.800 106.795 M207.000 107.600 C 207.440 107.789,208.070 107.944,208.400 107.944 C 208.778 107.944,208.704 107.817,208.200 107.600 C 207.760 107.411,207.130 107.256,206.800 107.256 C 206.422 107.256,206.496 107.383,207.000 107.600 M220.200 112.275 C 220.959 113.019,226.053 116.410,225.802 116.004 C 225.664 115.779,224.527 114.908,223.275 114.068 C 220.636 112.295,219.611 111.697,220.200 112.275 M228.800 118.990 C 230.230 120.524,231.445 121.859,231.500 121.956 C 231.555 122.054,231.685 122.048,231.789 121.945 C 231.892 121.841,230.677 120.506,229.089 118.978 L 226.200 116.200 228.800 118.990 M232.975 123.732 C 233.591 124.539,234.176 125.200,234.275 125.200 C 234.553 125.200,232.821 122.860,232.309 122.544 C 232.059 122.389,232.359 122.924,232.975 123.732 M235.560 127.400 C 236.234 128.705,236.788 129.428,236.785 129.000 C 236.783 128.780,236.414 128.150,235.964 127.600 C 235.421 126.936,235.285 126.869,235.560 127.400 M203.600 130.800 C 203.930 131.013,204.470 131.188,204.800 131.188 C 205.333 131.188,205.333 131.145,204.800 130.800 C 204.470 130.587,203.930 130.412,203.600 130.412 C 203.067 130.412,203.067 130.455,203.600 130.800 M238.014 132.054 C 238.006 132.194,238.263 132.914,238.584 133.654 C 238.906 134.394,239.169 134.730,239.170 134.400 C 239.172 133.824,238.043 131.534,238.014 132.054 M210.400 133.917 C 211.170 134.580,211.877 135.048,211.971 134.957 C 212.163 134.771,211.009 133.810,209.800 133.149 C 209.360 132.909,209.630 133.254,210.400 133.917 M212.411 135.303 C 212.405 135.470,212.895 136.152,213.500 136.819 C 214.105 137.485,215.183 139.059,215.895 140.315 C 216.608 141.572,217.191 142.420,217.191 142.200 C 217.194 141.198,212.445 134.347,212.411 135.303 M239.606 136.633 C 239.609 137.055,239.795 137.670,240.018 138.000 C 240.315 138.438,240.352 138.276,240.156 137.400 C 239.827 135.929,239.598 135.610,239.606 136.633 M240.480 139.400 C 240.480 139.840,240.624 140.650,240.800 141.200 C 241.054 141.992,241.120 142.033,241.120 141.400 C 241.120 140.960,240.976 140.150,240.800 139.600 C 240.546 138.808,240.480 138.767,240.480 139.400 M217.256 143.200 C 217.256 143.530,217.411 144.160,217.600 144.600 C 217.817 145.104,217.944 145.178,217.944 144.800 C 217.944 144.470,217.789 143.840,217.600 143.400 C 217.383 142.896,217.256 142.822,217.256 143.200 M241.320 144.800 C 241.320 146.010,241.395 146.505,241.487 145.900 C 241.578 145.295,241.578 144.305,241.487 143.700 C 241.395 143.095,241.320 143.590,241.320 144.800 M218.189 174.000 C 218.189 189.510,218.239 195.855,218.300 188.100 C 218.361 180.345,218.361 167.655,218.300 159.900 C 218.239 152.145,218.189 158.490,218.189 174.000 M241.789 174.000 C 241.789 188.850,241.839 194.925,241.900 187.500 C 241.961 180.075,241.961 167.925,241.900 160.500 C 241.839 153.075,241.789 159.150,241.789 174.000 M241.320 203.200 C 241.320 204.410,241.395 204.905,241.487 204.300 C 241.578 203.695,241.578 202.705,241.487 202.100 C 241.395 201.495,241.320 201.990,241.320 203.200 M240.600 207.200 C 240.448 207.891,240.407 208.541,240.509 208.642 C 240.611 208.744,240.809 208.253,240.950 207.550 C 241.091 206.847,241.131 206.198,241.041 206.108 C 240.950 206.017,240.752 206.509,240.600 207.200 M214.794 209.210 C 214.084 210.316,212.670 211.958,211.652 212.859 C 210.512 213.869,210.292 214.167,211.080 213.636 C 212.519 212.667,214.637 210.295,215.723 208.437 C 216.886 206.447,216.202 207.016,214.794 209.210 M239.829 210.229 C 239.681 210.815,239.638 211.372,239.732 211.466 C 239.827 211.560,240.024 211.158,240.171 210.571 C 240.319 209.985,240.362 209.428,240.268 209.334 C 240.173 209.240,239.976 209.642,239.829 210.229 M208.065 215.192 C 206.402 216.120,206.107 216.402,207.060 216.151 C 207.737 215.974,210.062 214.399,209.600 214.432 C 209.490 214.440,208.799 214.781,208.065 215.192 M235.524 220.083 C 234.492 221.830,233.901 223.048,234.211 222.791 C 234.832 222.275,237.754 217.209,237.536 217.024 C 237.461 216.960,236.556 218.337,235.524 220.083 M231.993 225.100 C 231.984 225.500,228.546 229.123,226.850 230.520 C 226.107 231.132,225.578 231.711,225.674 231.808 C 225.856 231.989,230.297 227.827,231.979 225.900 C 232.507 225.295,232.728 224.800,232.470 224.800 C 232.211 224.800,231.997 224.935,231.993 225.100 M222.909 233.521 C 221.759 234.307,220.891 235.024,220.981 235.114 C 221.176 235.310,224.655 232.958,225.003 232.395 C 225.328 231.869,225.315 231.876,222.909 233.521 M218.000 236.400 C 216.790 237.039,215.941 237.571,216.113 237.581 C 216.538 237.607,220.400 235.636,220.400 235.393 C 220.400 235.126,220.455 235.103,218.000 236.400 M207.800 240.000 C 206.781 240.438,207.832 240.438,209.200 240.000 C 210.004 239.743,210.043 239.677,209.400 239.668 C 208.960 239.662,208.240 239.811,207.800 240.000 M204.305 240.683 C 204.802 240.779,205.522 240.775,205.905 240.675 C 206.287 240.575,205.880 240.496,205.000 240.501 C 204.120 240.505,203.807 240.587,204.305 240.683 M187.200 283.181 L 175.400 283.400 173.423 284.562 C 164.617 289.738,165.686 302.795,175.138 305.517 C 180.029 306.926,224.400 306.451,224.400 304.989 C 224.400 304.879,223.748 305.062,222.951 305.395 C 221.773 305.887,219.381 306.000,210.151 306.000 L 198.800 306.000 198.800 294.606 L 198.800 283.212 210.100 283.100 L 221.400 282.987 210.200 282.974 C 204.040 282.967,193.690 283.060,187.200 283.181 M224.675 284.797 C 225.816 285.452,227.246 286.665,227.853 287.494 C 229.443 289.665,229.775 289.964,229.081 288.600 C 228.152 286.771,224.374 283.595,223.138 283.604 C 222.842 283.606,223.534 284.143,224.675 284.797 M230.501 294.600 C 230.505 295.480,230.587 295.793,230.683 295.295 C 230.779 294.798,230.775 294.078,230.675 293.695 C 230.575 293.313,230.496 293.720,230.501 294.600 M226.723 303.009 C 225.691 303.994,224.979 304.800,225.140 304.800 C 225.301 304.800,226.228 303.990,227.200 303.000 C 229.477 300.680,229.158 300.686,226.723 303.009 " stroke="none" fill="#ffffff" fill-rule="evenodd"></path><path id="path1" d="M199.155 107.228 C 198.941 107.360,198.832 112.139,198.894 118.628 L 199.000 129.800 201.800 130.245 C 209.840 131.524,215.849 136.774,217.787 144.214 C 218.842 148.264,218.691 200.574,217.614 204.058 C 215.379 211.291,207.867 217.600,201.489 217.600 C 198.721 217.600,198.774 217.354,198.893 229.600 L 199.000 240.600 202.600 240.514 C 211.546 240.299,222.163 235.498,228.991 228.580 C 234.888 222.605,238.248 216.505,240.659 207.400 C 241.788 203.133,241.794 144.432,240.665 140.400 C 240.264 138.970,239.836 137.350,239.712 136.800 C 237.409 126.561,225.833 114.009,215.000 110.003 C 214.560 109.840,213.750 109.523,213.200 109.299 C 212.650 109.075,211.480 108.701,210.600 108.467 C 209.720 108.234,208.550 107.925,208.000 107.780 C 206.540 107.395,199.586 106.961,199.155 107.228 M198.800 294.600 L 198.800 306.000 210.167 306.000 C 224.113 306.000,226.825 305.139,229.059 300.000 C 229.393 299.230,229.832 298.287,230.034 297.905 C 230.502 297.018,230.511 292.208,230.047 291.295 C 229.852 290.913,229.468 290.117,229.193 289.526 C 228.224 287.447,226.363 285.644,223.930 284.428 L 221.472 283.200 210.136 283.200 L 198.800 283.200 198.800 294.600 " stroke="none" fill="#ffffff" fill-rule="evenodd"></path><path id="path2" d="M198.800 52.967 C 198.800 87.994,198.664 105.978,198.399 106.067 C 198.179 106.140,198.944 106.209,200.099 106.220 C 201.952 106.238,204.550 106.566,209.704 107.435 C 210.531 107.574,211.306 107.849,211.427 108.044 C 211.548 108.240,211.999 108.400,212.429 108.400 C 212.859 108.400,213.523 108.565,213.905 108.766 C 214.287 108.968,215.320 109.438,216.200 109.810 C 219.316 111.129,221.373 112.236,222.313 113.100 C 222.612 113.375,223.022 113.600,223.223 113.600 C 223.722 113.600,228.602 117.744,230.737 119.980 C 234.256 123.668,240.000 133.588,240.000 135.980 C 240.000 136.405,240.180 136.864,240.400 137.000 C 240.620 137.136,240.800 137.741,240.800 138.344 C 240.800 138.947,240.960 139.611,241.157 139.820 C 242.570 141.327,242.578 206.308,241.165 207.780 C 240.964 207.989,240.800 208.718,240.800 209.400 C 240.800 210.082,240.651 210.811,240.470 211.020 C 240.288 211.229,239.890 212.210,239.585 213.200 C 236.122 224.439,225.437 234.818,212.600 239.414 C 210.337 240.224,205.083 241.194,201.500 241.463 L 198.800 241.666 198.800 261.999 C 198.800 277.892,198.691 282.377,198.300 282.535 C 198.025 282.646,203.290 282.753,210.000 282.772 C 221.970 282.807,222.238 282.826,224.200 283.756 C 233.299 288.070,233.225 301.161,224.076 305.656 C 222.270 306.543,221.758 306.583,210.400 306.724 L 198.600 306.869 198.703 353.489 L 198.807 400.109 208.984 399.919 C 216.937 399.771,219.313 399.607,219.857 399.165 C 220.306 398.801,220.447 398.778,220.253 399.100 C 220.088 399.375,220.143 399.600,220.376 399.600 C 220.609 399.600,220.800 399.420,220.800 399.200 C 220.800 398.980,221.801 398.800,223.024 398.800 C 224.404 398.800,225.153 398.648,225.000 398.400 C 224.847 398.152,225.596 398.000,226.976 398.000 C 228.199 398.000,229.200 397.820,229.200 397.600 C 229.200 397.380,230.100 397.200,231.200 397.200 C 232.300 397.200,233.200 397.020,233.200 396.800 C 233.200 396.580,233.740 396.400,234.400 396.400 C 235.060 396.400,235.600 396.220,235.600 396.000 C 235.600 395.780,236.320 395.600,237.200 395.600 C 238.080 395.600,238.800 395.420,238.800 395.200 C 238.800 394.980,239.430 394.800,240.200 394.800 C 240.970 394.800,241.600 394.620,241.600 394.400 C 241.600 394.180,242.140 394.000,242.800 394.000 C 243.460 394.000,244.000 393.820,244.000 393.600 C 244.000 393.380,244.355 393.200,244.788 393.200 C 245.221 393.200,246.217 392.840,247.000 392.400 C 247.783 391.960,248.847 391.600,249.363 391.600 C 250.713 391.600,254.871 389.899,255.905 388.924 C 256.182 388.662,256.767 388.517,257.205 388.601 C 257.642 388.685,258.000 388.584,258.000 388.377 C 258.000 388.170,258.270 388.000,258.600 388.000 C 258.930 388.000,259.200 387.820,259.200 387.600 C 259.200 387.380,259.650 387.200,260.200 387.200 C 260.750 387.200,261.200 387.020,261.200 386.800 C 261.200 386.580,261.560 386.400,262.000 386.400 C 262.440 386.400,262.800 386.220,262.800 386.000 C 262.800 385.780,263.160 385.600,263.600 385.600 C 264.040 385.600,264.400 385.420,264.400 385.200 C 264.400 384.980,264.771 384.800,265.224 384.800 C 265.677 384.800,265.939 384.625,265.807 384.412 C 265.675 384.198,266.025 383.909,266.584 383.768 C 267.143 383.628,267.600 383.342,267.600 383.133 C 267.600 382.924,267.768 382.856,267.972 382.983 C 268.177 383.109,268.458 383.030,268.596 382.807 C 268.734 382.583,269.207 382.400,269.647 382.400 C 270.087 382.400,270.355 382.251,270.243 382.069 C 270.130 381.887,270.913 381.302,271.981 380.769 C 273.050 380.237,273.840 379.665,273.738 379.500 C 273.636 379.335,273.934 379.200,274.400 379.200 C 274.866 379.200,275.136 379.020,275.000 378.800 C 274.864 378.580,275.147 378.400,275.629 378.400 C 276.112 378.400,276.809 378.051,277.178 377.625 C 277.548 377.199,278.108 376.794,278.422 376.725 C 278.735 376.656,279.471 376.105,280.057 375.500 C 280.642 374.895,281.375 374.400,281.685 374.400 C 281.995 374.400,282.816 373.845,283.509 373.167 C 284.287 372.407,284.967 372.048,285.285 372.231 C 285.568 372.395,285.666 372.381,285.503 372.200 C 285.181 371.845,286.787 370.537,287.330 370.713 C 287.511 370.772,287.545 370.635,287.406 370.410 C 287.267 370.184,287.444 370.000,287.800 370.000 C 288.156 370.000,288.336 369.820,288.200 369.600 C 287.973 369.233,288.520 369.022,289.330 369.163 C 289.511 369.194,289.570 369.075,289.460 368.897 C 289.350 368.719,289.877 368.152,290.630 367.635 C 291.384 367.119,292.000 366.540,292.000 366.348 C 292.000 366.157,292.190 366.000,292.422 366.000 C 292.654 366.000,293.869 364.961,295.122 363.690 C 296.375 362.420,298.030 360.946,298.800 360.415 C 299.570 359.883,300.560 359.010,301.000 358.473 C 301.440 357.937,302.565 356.704,303.500 355.734 C 304.435 354.763,305.200 353.786,305.200 353.561 C 305.200 353.337,305.367 353.256,305.571 353.382 C 305.775 353.508,306.057 353.249,306.198 352.806 C 306.339 352.363,306.632 352.000,306.851 352.000 C 307.069 352.000,307.136 351.820,307.000 351.600 C 306.864 351.380,307.001 351.200,307.304 351.200 C 307.925 351.200,309.600 349.424,309.600 348.766 C 309.600 348.530,310.335 347.631,311.233 346.769 C 312.131 345.906,312.716 345.195,312.533 345.188 C 312.350 345.181,312.515 344.992,312.900 344.768 C 313.285 344.544,313.600 344.119,313.600 343.825 C 313.600 343.531,314.138 342.865,314.796 342.345 C 315.454 341.825,315.994 341.104,315.996 340.743 C 315.998 340.381,316.281 339.978,316.625 339.846 C 316.969 339.714,317.139 339.424,317.002 339.203 C 316.865 338.981,316.943 338.800,317.176 338.800 C 317.409 338.800,317.600 338.519,317.600 338.176 C 317.600 337.833,317.780 337.664,318.000 337.800 C 318.220 337.936,318.400 337.767,318.400 337.424 C 318.400 337.081,318.580 336.800,318.800 336.800 C 319.020 336.800,319.200 336.622,319.200 336.403 C 319.200 336.185,319.855 335.150,320.655 334.103 C 321.455 333.057,322.282 331.705,322.494 331.100 C 322.705 330.495,323.021 330.000,323.196 330.000 C 323.370 330.000,323.637 329.507,323.788 328.904 C 323.940 328.301,324.188 327.716,324.341 327.604 C 324.900 327.193,326.000 325.211,326.000 324.614 C 326.000 324.276,326.180 324.000,326.400 324.000 C 326.620 324.000,326.800 323.680,326.800 323.288 C 326.800 322.897,327.160 322.317,327.600 322.000 C 328.040 321.683,328.400 321.103,328.400 320.712 C 328.400 320.320,328.580 320.000,328.800 320.000 C 329.020 320.000,329.200 319.640,329.200 319.200 C 329.200 318.760,329.380 318.400,329.600 318.400 C 329.820 318.400,330.000 318.040,330.000 317.600 C 330.000 317.160,330.180 316.800,330.400 316.800 C 330.620 316.800,330.800 316.339,330.800 315.776 C 330.800 315.196,330.973 314.860,331.200 315.000 C 331.420 315.136,331.600 314.887,331.600 314.447 C 331.600 314.007,331.780 313.536,332.000 313.400 C 332.220 313.264,332.400 312.793,332.400 312.353 C 332.400 311.850,332.572 311.659,332.862 311.838 C 333.119 311.997,333.216 311.950,333.081 311.731 C 332.948 311.515,333.280 310.467,333.819 309.402 C 334.359 308.336,334.800 307.240,334.800 306.966 C 334.800 306.691,334.977 306.407,335.193 306.333 C 335.409 306.260,335.634 305.543,335.693 304.739 C 335.752 303.935,335.935 303.361,336.100 303.463 C 336.265 303.564,336.400 303.277,336.400 302.824 C 336.400 302.371,336.560 302.000,336.755 302.000 C 336.951 302.000,337.234 301.325,337.385 300.500 C 337.536 299.675,337.889 298.640,338.169 298.200 C 338.616 297.499,338.914 296.410,339.472 293.431 C 339.551 293.009,339.814 292.424,340.057 292.131 C 340.299 291.839,340.394 291.600,340.267 291.600 C 340.140 291.600,340.270 290.925,340.557 290.100 C 340.844 289.275,341.047 288.195,341.007 287.700 C 340.966 287.205,341.084 286.800,341.267 286.800 C 341.450 286.800,341.600 286.249,341.600 285.576 C 341.600 284.843,341.764 284.454,342.010 284.606 C 342.235 284.745,342.394 284.711,342.363 284.530 C 342.138 283.236,342.465 279.993,342.800 280.200 C 343.037 280.346,343.200 279.893,343.200 279.090 C 343.200 278.344,343.333 277.600,343.496 277.438 C 343.658 277.275,343.820 276.660,343.855 276.071 C 344.039 273.001,344.193 272.000,344.482 272.000 C 344.657 272.000,344.800 271.021,344.800 269.824 C 344.800 268.627,344.980 267.536,345.200 267.400 C 345.797 267.031,345.699 265.897,345.100 266.235 C 344.700 266.461,344.700 266.410,345.100 265.979 C 345.386 265.670,345.600 264.398,345.600 263.000 C 345.600 261.658,345.808 260.352,346.063 260.097 C 346.414 259.746,346.409 259.493,346.044 259.053 C 345.727 258.671,345.701 258.385,345.968 258.220 C 346.487 257.899,346.528 235.313,346.009 235.129 C 345.809 235.058,345.604 233.965,345.554 232.700 C 345.504 231.435,345.342 230.400,345.193 230.400 C 345.045 230.400,344.890 229.372,344.849 228.116 C 344.808 226.859,344.610 225.730,344.409 225.605 C 344.207 225.481,343.998 224.619,343.943 223.690 C 343.888 222.760,343.699 222.000,343.522 222.000 C 343.345 222.000,343.200 221.280,343.200 220.400 C 343.200 219.520,343.020 218.800,342.800 218.800 C 342.580 218.800,342.400 218.159,342.400 217.376 C 342.400 216.344,342.263 216.035,341.900 216.253 C 341.609 216.428,341.650 216.239,342.000 215.800 C 342.330 215.386,342.388 215.173,342.129 215.329 C 341.801 215.526,341.574 214.914,341.379 213.305 C 341.224 212.037,340.847 210.507,340.541 209.904 C 340.235 209.301,339.983 208.717,339.982 208.606 C 339.976 207.831,339.452 206.000,339.235 206.000 C 339.089 206.000,338.926 205.418,338.872 204.707 C 338.817 203.995,338.599 203.239,338.387 203.027 C 338.174 202.814,338.000 202.226,338.000 201.720 C 338.000 201.214,337.820 200.800,337.600 200.800 C 337.380 200.800,337.200 200.440,337.200 200.000 C 337.200 199.560,337.020 199.200,336.800 199.200 C 336.580 199.200,336.400 198.540,336.400 197.733 C 336.400 196.927,336.284 196.383,336.142 196.525 C 335.905 196.762,334.027 192.033,333.915 190.918 C 333.889 190.652,333.717 190.528,333.533 190.641 C 333.251 190.816,333.165 190.488,333.208 189.396 C 333.213 189.284,332.950 188.676,332.624 188.047 C 332.298 187.417,332.160 186.760,332.316 186.587 C 332.472 186.413,332.375 186.401,332.100 186.559 C 331.751 186.760,331.598 186.508,331.594 185.724 C 331.589 184.851,331.501 184.734,331.200 185.200 C 330.912 185.645,330.811 185.407,330.806 184.276 C 330.802 183.364,330.640 182.852,330.400 183.000 C 330.173 183.140,330.000 182.804,330.000 182.224 C 330.000 181.661,329.820 181.200,329.600 181.200 C 329.380 181.200,329.200 180.935,329.200 180.612 C 329.200 180.289,328.840 179.383,328.400 178.600 C 327.960 177.817,327.600 176.898,327.600 176.559 C 327.600 176.220,327.328 175.671,326.996 175.339 C 326.664 175.007,326.495 174.570,326.620 174.368 C 326.745 174.165,326.657 174.000,326.424 174.000 C 326.191 174.000,326.000 173.629,326.000 173.176 C 326.000 172.723,325.820 172.464,325.600 172.600 C 325.380 172.736,325.186 172.612,325.169 172.324 C 325.082 170.831,323.536 167.150,322.472 165.900 C 322.144 165.515,322.016 165.200,322.187 165.200 C 322.358 165.200,322.308 164.971,322.075 164.691 C 321.396 163.872,319.200 159.563,319.200 159.048 C 319.200 158.789,318.840 158.317,318.400 158.000 C 317.960 157.683,317.600 157.000,317.600 156.483 C 317.600 155.966,317.328 155.271,316.996 154.939 C 316.664 154.607,316.495 154.170,316.620 153.968 C 316.745 153.765,316.678 153.600,316.470 153.600 C 316.263 153.600,315.984 153.285,315.851 152.900 C 315.718 152.515,315.271 151.660,314.858 151.000 C 314.445 150.340,314.183 149.665,314.277 149.500 C 314.371 149.335,314.257 149.200,314.024 149.200 C 313.791 149.200,313.600 149.007,313.600 148.771 C 313.600 148.536,313.330 148.073,313.001 147.743 C 312.671 147.414,312.283 146.662,312.139 146.072 C 311.995 145.482,311.680 144.872,311.438 144.715 C 311.197 144.558,310.984 144.288,310.965 144.115 C 310.871 143.251,310.268 142.434,309.896 142.664 C 309.662 142.809,309.594 142.733,309.742 142.494 C 309.888 142.258,309.724 141.781,309.378 141.435 C 309.031 141.088,308.658 140.310,308.548 139.704 C 308.438 139.099,308.090 138.458,307.774 138.282 C 307.458 138.105,307.200 137.699,307.200 137.380 C 307.200 137.061,307.040 136.800,306.845 136.800 C 306.649 136.800,306.371 136.170,306.226 135.400 C 306.082 134.630,305.837 134.000,305.681 134.000 C 305.526 134.000,304.969 133.190,304.444 132.200 C 303.919 131.210,303.334 130.400,303.144 130.400 C 302.955 130.400,302.800 130.151,302.800 129.846 C 302.800 129.016,301.760 127.173,301.461 127.473 C 301.317 127.616,301.194 127.388,301.187 126.967 C 301.172 126.050,300.229 124.704,299.860 125.073 C 299.717 125.216,299.600 124.853,299.600 124.267 C 299.600 123.680,299.464 123.200,299.298 123.200 C 299.131 123.200,298.756 122.659,298.463 121.998 C 298.170 121.336,297.766 120.897,297.565 121.021 C 297.364 121.146,297.200 120.830,297.200 120.320 C 297.200 119.810,296.840 119.168,296.400 118.893 C 295.960 118.618,295.600 118.035,295.600 117.597 C 295.600 117.158,295.420 116.800,295.200 116.800 C 294.980 116.800,294.800 116.622,294.800 116.405 C 294.800 116.029,294.033 114.976,292.871 113.755 C 292.475 113.338,292.465 113.200,292.833 113.200 C 293.102 113.200,292.935 112.864,292.461 112.453 C 291.988 112.042,291.600 111.456,291.600 111.149 C 291.600 110.843,291.233 110.363,290.784 110.083 C 290.336 109.803,290.089 109.380,290.236 109.142 C 290.382 108.905,290.344 108.596,290.151 108.455 C 289.512 107.991,287.867 105.461,287.867 104.943 C 287.867 104.663,287.615 104.338,287.308 104.220 C 287.001 104.102,286.861 103.824,286.998 103.603 C 287.135 103.381,287.058 103.200,286.826 103.200 C 286.594 103.200,286.023 102.390,285.558 101.400 C 285.093 100.410,284.552 99.600,284.356 99.600 C 284.160 99.600,284.000 99.345,284.000 99.033 C 284.000 98.722,283.855 98.407,283.677 98.333 C 283.221 98.145,280.800 94.541,280.800 94.051 C 280.800 93.828,280.485 93.410,280.100 93.123 C 279.715 92.835,279.145 92.105,278.832 91.500 C 278.520 90.895,278.115 90.400,277.932 90.400 C 277.750 90.400,277.600 90.040,277.600 89.600 C 277.600 89.160,277.420 88.800,277.200 88.800 C 276.980 88.800,276.800 88.530,276.800 88.200 C 276.800 87.870,276.620 87.600,276.400 87.600 C 276.180 87.600,276.000 87.370,276.000 87.088 C 276.000 86.807,275.640 86.317,275.200 86.000 C 274.760 85.683,274.400 85.125,274.400 84.761 C 274.400 84.396,274.130 83.874,273.800 83.600 C 273.470 83.326,273.200 82.864,273.200 82.574 C 273.200 82.283,272.827 81.784,272.371 81.465 C 271.915 81.145,271.505 80.636,271.461 80.333 C 271.384 79.810,269.576 77.209,268.496 76.068 C 268.219 75.775,268.095 75.370,268.220 75.168 C 268.345 74.965,268.156 74.800,267.800 74.800 C 267.444 74.800,267.264 74.620,267.400 74.400 C 267.536 74.180,267.457 74.000,267.224 74.000 C 266.991 74.000,266.800 73.773,266.800 73.496 C 266.800 73.219,266.440 72.768,266.000 72.493 C 265.560 72.218,265.200 71.618,265.200 71.159 C 265.200 70.662,264.877 70.241,264.400 70.116 C 263.960 70.001,263.600 69.642,263.600 69.317 C 263.600 68.993,263.195 68.371,262.700 67.934 C 262.205 67.497,262.025 67.253,262.300 67.393 C 263.133 67.816,262.866 67.262,261.600 65.937 C 260.940 65.246,260.400 64.438,260.400 64.141 C 260.400 63.843,260.220 63.600,260.000 63.600 C 259.780 63.600,259.600 63.330,259.600 63.000 C 259.600 62.670,259.319 62.400,258.976 62.400 C 258.633 62.400,258.464 62.220,258.600 62.000 C 258.736 61.780,258.678 61.600,258.472 61.600 C 258.266 61.600,257.873 61.060,257.600 60.400 C 257.327 59.740,256.948 59.200,256.759 59.200 C 256.570 59.200,256.303 58.751,256.165 58.203 C 256.027 57.654,255.799 57.275,255.657 57.361 C 255.516 57.446,255.168 57.265,254.884 56.958 C 254.474 56.515,254.472 56.400,254.873 56.400 C 255.151 56.400,254.978 56.120,254.489 55.777 C 254.000 55.435,253.597 54.760,253.594 54.277 C 253.589 53.564,253.515 53.512,253.200 54.000 C 252.883 54.490,252.811 54.443,252.806 53.743 C 252.803 53.271,252.519 52.778,252.175 52.646 C 251.831 52.514,251.661 52.224,251.798 52.003 C 251.935 51.781,251.857 51.600,251.624 51.600 C 251.391 51.600,251.200 51.422,251.200 51.203 C 251.200 50.985,250.662 50.293,250.005 49.665 C 249.348 49.037,248.897 48.436,249.004 48.330 C 249.110 48.223,248.748 47.714,248.198 47.199 C 247.649 46.683,247.200 46.011,247.200 45.707 C 247.200 45.402,247.020 45.264,246.800 45.400 C 246.580 45.536,246.400 45.266,246.400 44.800 C 246.400 44.334,246.220 44.064,246.000 44.200 C 245.780 44.336,245.600 44.156,245.600 43.800 C 245.600 43.413,245.415 43.267,245.138 43.438 C 244.862 43.609,244.785 43.549,244.946 43.288 C 245.094 43.048,244.762 42.398,244.208 41.844 C 243.653 41.290,243.197 40.513,243.194 40.118 C 243.189 39.508,243.129 39.490,242.800 40.000 C 242.448 40.545,242.348 40.385,242.414 39.386 C 242.422 39.268,242.197 38.930,241.914 38.635 C 241.631 38.340,241.130 37.694,240.800 37.200 C 240.470 36.706,239.998 36.090,239.752 35.831 C 239.505 35.573,239.003 34.779,238.635 34.067 C 238.267 33.356,237.794 32.880,237.583 33.011 C 237.238 33.224,237.029 32.685,237.153 31.900 C 237.179 31.735,236.919 31.600,236.576 31.600 C 236.233 31.600,236.070 31.410,236.213 31.179 C 236.356 30.947,236.097 30.431,235.637 30.032 C 235.177 29.633,234.800 29.145,234.800 28.948 C 234.800 28.751,234.353 28.254,233.808 27.845 C 233.262 27.435,232.892 26.975,232.986 26.822 C 233.080 26.670,232.807 26.293,232.379 25.985 C 231.950 25.676,231.597 25.058,231.594 24.612 C 231.589 23.941,231.520 23.904,231.200 24.400 C 230.871 24.909,230.811 24.890,230.806 24.276 C 230.802 23.832,230.622 23.663,230.338 23.838 C 230.064 24.007,229.985 23.949,230.142 23.694 C 230.288 23.458,230.181 23.021,229.904 22.722 C 229.627 22.424,228.777 21.375,228.015 20.390 C 227.253 19.406,226.488 18.540,226.315 18.467 C 226.142 18.393,226.000 17.988,226.000 17.567 C 226.000 17.139,225.724 16.800,225.376 16.800 C 225.033 16.800,224.864 16.620,225.000 16.400 C 225.136 16.180,225.053 16.000,224.815 16.000 C 224.577 16.000,224.180 15.556,223.933 15.013 C 223.685 14.469,223.335 14.117,223.153 14.229 C 222.972 14.341,222.709 13.975,222.568 13.415 C 222.428 12.856,221.779 11.948,221.126 11.399 C 220.473 10.849,220.050 10.400,220.185 10.400 C 220.448 10.400,219.952 9.751,218.500 8.199 C 218.005 7.670,217.600 7.048,217.600 6.818 C 217.600 6.588,217.442 6.445,217.249 6.500 C 217.055 6.555,216.290 6.007,215.549 5.283 C 213.275 3.062,212.949 2.800,212.466 2.800 C 212.210 2.800,212.000 2.659,212.000 2.487 C 212.000 2.315,211.505 2.134,210.900 2.084 C 210.295 2.034,209.740 1.815,209.667 1.597 C 209.593 1.378,209.268 1.200,208.943 1.200 C 208.618 1.200,208.449 1.045,208.565 0.856 C 208.814 0.454,204.985 0.000,201.341 0.000 L 198.800 0.000 198.800 52.967 M198.800 173.767 C 198.800 207.754,198.696 216.780,198.300 216.957 C 198.025 217.080,199.060 217.075,200.600 216.945 C 208.528 216.278,214.795 211.301,216.982 203.934 C 217.862 200.972,217.906 146.836,217.031 143.953 C 214.845 136.752,207.442 130.800,200.672 130.800 L 198.800 130.800 198.800 173.767 M185.775 136.100 L 184.600 137.400 185.900 136.225 C 186.615 135.579,187.200 134.994,187.200 134.925 C 187.200 134.616,186.870 134.888,185.775 136.100 M180.589 173.800 C 180.589 188.540,180.639 194.512,180.700 187.071 C 180.761 179.630,180.761 167.570,180.700 160.271 C 180.639 152.972,180.589 159.060,180.589 173.800 M156.188 174.000 C 156.188 187.750,156.238 193.375,156.300 186.500 C 156.361 179.625,156.361 168.375,156.300 161.500 C 156.238 154.625,156.188 160.250,156.188 174.000 M195.700 241.476 C 196.085 241.576,196.715 241.576,197.100 241.476 C 197.485 241.375,197.170 241.293,196.400 241.293 C 195.630 241.293,195.315 241.375,195.700 241.476 M166.501 294.600 C 166.505 295.480,166.587 295.793,166.683 295.295 C 166.779 294.798,166.775 294.078,166.675 293.695 C 166.575 293.313,166.496 293.720,166.501 294.600 M182.900 306.699 C 185.705 306.768,190.295 306.768,193.100 306.699 C 195.905 306.630,193.610 306.574,188.000 306.574 C 182.390 306.574,180.095 306.630,182.900 306.699 " stroke="none" fill="#c52c69" fill-rule="evenodd"></path><path id="path3" d="M192.639 0.292 C 192.000 0.387,191.221 0.722,190.907 1.036 C 190.593 1.350,190.170 1.505,189.968 1.380 C 189.765 1.255,189.600 1.343,189.600 1.576 C 189.600 1.809,189.317 2.000,188.971 2.000 C 188.626 2.000,188.071 2.272,187.739 2.604 C 187.407 2.936,186.942 3.088,186.706 2.942 C 186.451 2.785,186.393 2.864,186.562 3.138 C 186.719 3.392,186.702 3.600,186.524 3.601 C 186.346 3.601,185.570 4.141,184.800 4.800 C 184.030 5.459,183.175 5.999,182.900 5.999 C 182.625 6.000,182.400 6.235,182.400 6.523 C 182.400 6.810,181.635 7.891,180.700 8.926 C 176.764 13.280,175.052 15.696,175.529 16.226 C 175.678 16.392,175.575 16.399,175.300 16.241 C 174.987 16.061,174.800 16.195,174.800 16.600 C 174.800 16.956,174.647 17.153,174.460 17.037 C 174.273 16.922,173.868 17.316,173.560 17.914 C 173.252 18.511,172.505 19.477,171.900 20.060 C 171.295 20.644,170.794 21.364,170.787 21.660 C 170.774 22.220,169.600 23.988,169.600 23.448 C 169.600 23.280,169.330 23.413,169.000 23.743 C 168.670 24.073,168.400 24.508,168.400 24.709 C 168.400 24.911,168.040 25.402,167.600 25.800 C 167.160 26.198,166.800 26.777,166.800 27.086 C 166.800 27.394,166.620 27.536,166.400 27.400 C 166.180 27.264,166.000 27.394,166.000 27.688 C 166.000 27.983,165.650 28.476,165.221 28.785 C 164.793 29.093,164.535 29.494,164.647 29.676 C 164.759 29.857,164.569 30.114,164.225 30.246 C 163.881 30.378,163.600 30.736,163.600 31.043 C 163.600 31.349,163.409 31.600,163.176 31.600 C 162.943 31.600,162.864 31.780,163.000 32.000 C 163.136 32.220,162.997 32.400,162.691 32.400 C 162.385 32.400,161.881 32.895,161.570 33.500 C 161.260 34.105,160.662 34.915,160.242 35.300 C 159.821 35.685,159.640 36.003,159.839 36.006 C 160.037 36.009,160.000 36.144,159.756 36.306 C 159.512 36.468,159.007 37.194,158.635 37.921 C 158.263 38.647,157.698 39.341,157.379 39.463 C 157.061 39.586,156.800 39.954,156.800 40.282 C 156.800 40.611,156.260 41.383,155.600 42.000 C 154.940 42.617,154.400 43.279,154.400 43.472 C 154.400 43.665,154.040 44.083,153.600 44.400 C 153.160 44.717,152.800 45.188,152.800 45.446 C 152.800 45.704,152.260 46.493,151.600 47.200 C 150.940 47.907,150.394 48.691,150.387 48.942 C 150.371 49.541,149.377 50.844,149.128 50.594 C 149.021 50.488,148.680 50.896,148.370 51.501 C 148.060 52.105,147.462 52.915,147.042 53.300 C 146.621 53.685,146.417 54.000,146.587 54.000 C 146.757 54.000,146.245 54.795,145.448 55.767 C 144.652 56.739,144.000 57.729,144.000 57.967 C 144.000 58.205,143.841 58.400,143.646 58.400 C 143.451 58.400,142.992 59.030,142.627 59.800 C 142.261 60.570,141.791 61.200,141.581 61.200 C 141.372 61.200,141.200 61.470,141.200 61.800 C 141.200 62.130,141.020 62.400,140.800 62.400 C 140.580 62.400,140.400 62.630,140.400 62.912 C 140.400 63.193,140.040 63.683,139.600 64.000 C 139.160 64.317,138.800 64.882,138.800 65.255 C 138.800 65.628,138.665 65.993,138.500 66.067 C 138.335 66.140,137.666 66.985,137.014 67.946 C 136.362 68.906,135.597 69.780,135.314 69.888 C 135.031 69.997,134.800 70.426,134.800 70.843 C 134.800 71.259,134.650 71.600,134.468 71.600 C 134.285 71.600,133.881 72.095,133.570 72.700 C 133.260 73.305,132.715 74.070,132.360 74.400 C 132.005 74.730,131.592 75.388,131.442 75.863 C 131.292 76.338,130.906 76.827,130.585 76.950 C 130.263 77.074,130.000 77.358,130.000 77.583 C 130.000 77.807,129.685 78.359,129.300 78.808 C 128.915 79.258,128.600 79.759,128.600 79.922 C 128.600 80.085,128.204 80.644,127.720 81.163 C 127.236 81.683,126.552 82.714,126.201 83.454 C 125.850 84.194,125.391 84.800,125.181 84.800 C 124.972 84.800,124.800 85.120,124.800 85.512 C 124.800 85.903,124.440 86.483,124.000 86.800 C 123.560 87.117,123.200 87.657,123.200 88.000 C 123.200 88.343,122.840 88.883,122.400 89.200 C 121.960 89.517,121.600 90.005,121.600 90.284 C 121.600 90.753,120.921 91.730,119.700 93.016 C 119.425 93.306,119.200 93.786,119.200 94.083 C 119.200 94.380,118.840 94.883,118.400 95.200 C 117.960 95.517,117.600 96.057,117.600 96.400 C 117.600 96.743,117.240 97.283,116.800 97.600 C 116.360 97.917,116.000 98.457,116.000 98.800 C 116.000 99.143,115.650 99.676,115.221 99.985 C 114.793 100.293,114.539 100.702,114.657 100.892 C 114.775 101.082,114.405 101.704,113.835 102.274 C 113.266 102.843,112.800 103.555,112.800 103.855 C 112.800 104.155,112.590 104.400,112.333 104.400 C 112.077 104.400,111.978 104.511,112.114 104.648 C 112.250 104.784,112.099 105.158,111.777 105.480 C 111.456 105.801,111.295 106.230,111.420 106.432 C 111.545 106.635,111.367 106.800,111.024 106.800 C 110.676 106.800,110.400 107.139,110.400 107.567 C 110.400 107.988,110.265 108.393,110.100 108.467 C 109.745 108.625,108.032 111.298,107.195 113.000 C 106.871 113.660,106.289 114.491,105.903 114.847 C 105.516 115.203,105.200 115.788,105.200 116.147 C 105.200 116.506,105.020 116.800,104.800 116.800 C 104.580 116.800,104.400 117.070,104.400 117.400 C 104.400 117.730,104.264 118.000,104.098 118.000 C 103.931 118.000,103.536 118.585,103.220 119.300 C 102.903 120.015,102.320 120.949,101.922 121.375 C 101.525 121.802,101.200 122.387,101.200 122.675 C 101.200 122.964,101.020 123.200,100.800 123.200 C 100.580 123.200,100.400 123.560,100.400 124.000 C 100.400 124.440,100.253 124.800,100.074 124.800 C 99.894 124.800,99.323 125.565,98.803 126.500 C 98.284 127.435,97.729 128.290,97.570 128.400 C 97.410 128.510,97.217 128.960,97.140 129.400 C 97.063 129.840,96.685 130.491,96.300 130.847 C 95.915 131.203,95.600 131.698,95.600 131.947 C 95.600 132.196,95.420 132.400,95.200 132.400 C 94.980 132.400,94.800 132.760,94.800 133.200 C 94.800 133.640,94.652 134.000,94.472 134.000 C 94.292 134.000,93.460 135.440,92.625 137.200 C 91.789 138.960,90.946 140.400,90.753 140.400 C 90.559 140.400,90.400 140.760,90.400 141.200 C 90.400 141.640,90.209 142.000,89.976 142.000 C 89.743 142.000,89.657 142.169,89.785 142.375 C 89.912 142.582,89.756 142.897,89.437 143.075 C 88.847 143.405,88.800 143.520,88.800 144.624 C 88.800 144.967,88.620 145.136,88.400 145.000 C 88.180 144.864,88.000 145.108,88.000 145.543 C 88.000 145.978,87.865 146.393,87.700 146.467 C 87.324 146.634,86.025 148.764,85.729 149.700 C 85.607 150.085,85.348 150.400,85.153 150.400 C 84.959 150.400,84.800 150.760,84.800 151.200 C 84.800 151.640,84.620 152.000,84.400 152.000 C 84.180 152.000,84.000 152.360,84.000 152.800 C 84.000 153.240,83.820 153.600,83.600 153.600 C 83.380 153.600,83.200 153.853,83.200 154.162 C 83.200 154.716,81.620 158.010,81.168 158.400 C 81.040 158.510,80.681 159.185,80.370 159.900 C 80.059 160.615,79.674 161.200,79.515 161.200 C 79.356 161.200,79.328 161.468,79.454 161.797 C 79.585 162.137,79.408 162.499,79.042 162.639 C 78.689 162.775,78.400 163.226,78.400 163.643 C 78.400 164.059,78.220 164.400,78.000 164.400 C 77.780 164.400,77.600 164.760,77.600 165.200 C 77.600 165.640,77.420 166.000,77.200 166.000 C 76.980 166.000,76.821 166.135,76.847 166.300 C 76.985 167.170,76.755 168.019,76.435 167.822 C 76.234 167.698,76.116 167.908,76.172 168.290 C 76.228 168.671,76.023 169.234,75.717 169.540 C 75.411 169.846,75.057 170.615,74.930 171.248 C 74.804 171.882,74.543 172.400,74.350 172.400 C 74.158 172.400,74.000 172.634,74.000 172.920 C 74.000 173.656,73.059 175.593,72.700 175.597 C 72.535 175.599,72.400 175.960,72.400 176.400 C 72.400 176.840,72.258 177.200,72.085 177.200 C 71.912 177.200,71.740 177.602,71.703 178.094 C 71.666 178.586,71.448 179.051,71.218 179.127 C 70.988 179.204,70.800 179.612,70.800 180.033 C 70.800 180.455,70.609 180.800,70.376 180.800 C 70.143 180.800,70.055 180.965,70.180 181.168 C 70.305 181.370,70.136 181.807,69.804 182.139 C 69.472 182.471,69.200 183.206,69.200 183.771 C 69.200 184.337,69.020 184.800,68.800 184.800 C 68.580 184.800,68.400 185.160,68.400 185.600 C 68.400 186.040,68.220 186.400,68.000 186.400 C 67.780 186.400,67.600 186.760,67.600 187.200 C 67.600 187.640,67.442 188.000,67.250 188.000 C 67.058 188.000,66.900 188.470,66.900 189.045 C 66.900 189.621,66.742 190.206,66.550 190.345 C 66.358 190.485,66.142 190.870,66.070 191.200 C 65.999 191.530,65.774 191.860,65.570 191.933 C 65.367 192.007,65.200 192.414,65.200 192.839 C 65.200 193.263,65.041 193.923,64.847 194.305 C 64.493 195.001,63.943 196.298,63.365 197.800 C 63.195 198.240,63.022 198.952,62.979 199.383 C 62.936 199.814,62.698 200.234,62.451 200.316 C 62.203 200.399,62.000 200.992,62.000 201.633 C 62.000 202.275,61.859 202.800,61.687 202.800 C 61.515 202.800,61.334 203.285,61.285 203.878 C 61.236 204.470,61.030 205.058,60.827 205.183 C 60.624 205.309,60.473 205.679,60.492 206.006 C 60.566 207.292,60.383 208.037,60.045 207.828 C 59.849 207.707,59.594 208.101,59.478 208.704 C 59.361 209.307,59.075 210.520,58.842 211.400 C 58.610 212.280,58.415 213.596,58.410 214.324 C 58.404 215.102,58.235 215.545,58.000 215.400 C 57.758 215.251,57.600 215.796,57.600 216.776 C 57.600 217.669,57.457 218.400,57.282 218.400 C 57.107 218.400,56.919 219.075,56.864 219.900 C 56.810 220.725,56.593 221.460,56.382 221.533 C 56.172 221.607,56.000 222.372,56.000 223.233 C 56.000 224.095,55.820 224.800,55.600 224.800 C 55.380 224.800,55.200 225.790,55.200 227.000 C 55.200 228.210,55.061 229.200,54.891 229.200 C 54.721 229.200,54.528 230.415,54.463 231.900 C 54.398 233.385,54.177 234.660,53.972 234.733 C 53.469 234.914,53.476 260.290,53.979 260.467 C 54.188 260.540,54.392 262.171,54.433 264.090 C 54.475 266.010,54.664 267.484,54.854 267.367 C 55.044 267.249,55.200 268.423,55.200 269.976 C 55.200 271.592,55.371 272.800,55.600 272.800 C 55.822 272.800,56.000 273.867,56.000 275.200 C 56.000 276.533,56.178 277.600,56.400 277.600 C 56.620 277.600,56.800 278.320,56.800 279.200 C 56.800 280.080,56.980 280.800,57.200 280.800 C 57.420 280.800,57.600 281.700,57.600 282.800 C 57.600 283.900,57.757 284.800,57.948 284.800 C 58.139 284.800,58.396 285.565,58.519 286.500 C 58.792 288.579,59.003 289.475,59.555 290.900 C 59.789 291.505,59.904 292.000,59.811 292.000 C 59.717 292.000,59.904 292.630,60.226 293.400 C 60.548 294.170,60.682 294.800,60.525 294.800 C 60.368 294.800,60.456 295.016,60.720 295.280 C 60.984 295.544,61.200 296.264,61.200 296.880 C 61.200 297.496,61.380 298.000,61.600 298.000 C 61.820 298.000,62.000 298.540,62.000 299.200 C 62.000 299.860,62.180 300.400,62.400 300.400 C 62.620 300.400,62.800 300.749,62.800 301.176 C 62.800 301.603,62.980 302.064,63.200 302.200 C 63.420 302.336,63.600 302.887,63.600 303.424 C 63.600 303.961,63.780 304.400,64.000 304.400 C 64.220 304.400,64.400 304.755,64.400 305.188 C 64.400 305.621,64.760 306.617,65.200 307.400 C 65.640 308.183,66.000 309.179,66.000 309.612 C 66.000 310.045,66.180 310.400,66.400 310.400 C 66.620 310.400,66.800 310.760,66.800 311.200 C 66.800 311.640,66.980 312.000,67.200 312.000 C 67.420 312.000,67.600 312.360,67.600 312.800 C 67.600 313.240,67.780 313.600,68.000 313.600 C 68.220 313.600,68.400 313.960,68.400 314.400 C 68.400 314.840,68.580 315.200,68.800 315.200 C 69.020 315.200,69.200 315.560,69.200 316.000 C 69.200 316.440,69.380 316.800,69.600 316.800 C 69.820 316.800,70.000 317.160,70.000 317.600 C 70.000 318.040,70.180 318.400,70.400 318.400 C 70.620 318.400,70.800 318.760,70.800 319.200 C 70.800 319.640,70.980 320.000,71.200 320.000 C 71.420 320.000,71.600 320.371,71.600 320.824 C 71.600 321.277,71.780 321.536,72.000 321.400 C 72.342 321.189,72.493 321.706,72.366 322.655 C 72.347 322.796,72.482 323.021,72.666 323.155 C 73.063 323.446,73.683 324.424,74.850 326.600 C 75.321 327.480,75.879 328.310,76.088 328.445 C 76.297 328.579,76.441 328.759,76.408 328.845 C 76.287 329.158,76.971 330.615,77.481 331.132 C 77.771 331.425,77.905 331.830,77.780 332.032 C 77.655 332.235,77.722 332.400,77.928 332.400 C 78.134 332.400,78.526 332.938,78.798 333.595 C 79.070 334.252,79.422 334.710,79.579 334.613 C 79.736 334.516,80.109 335.058,80.407 335.818 C 80.705 336.578,81.053 337.200,81.180 337.200 C 81.307 337.200,81.856 337.920,82.400 338.800 C 82.944 339.680,83.526 340.400,83.694 340.400 C 83.862 340.400,84.000 340.593,84.000 340.829 C 84.000 341.064,84.270 341.527,84.600 341.857 C 84.930 342.187,85.200 342.320,85.200 342.152 C 85.200 341.618,86.374 343.377,86.387 343.931 C 86.394 344.224,87.120 345.154,88.000 346.000 C 88.880 346.846,89.600 347.694,89.600 347.885 C 89.600 348.077,90.409 349.126,91.398 350.217 C 92.387 351.308,93.197 352.346,93.198 352.524 C 93.199 352.702,93.380 352.736,93.600 352.600 C 93.820 352.464,94.000 352.549,94.000 352.788 C 94.000 353.027,94.627 353.893,95.393 354.712 C 99.789 359.410,101.599 361.200,101.951 361.200 C 102.168 361.200,103.799 362.640,105.576 364.400 C 107.352 366.160,108.894 367.600,109.002 367.600 C 109.111 367.600,109.941 368.320,110.848 369.200 C 111.755 370.080,112.745 370.800,113.048 370.800 C 113.352 370.800,113.600 370.980,113.600 371.200 C 113.600 371.420,113.881 371.600,114.224 371.600 C 114.567 371.600,114.753 371.753,114.637 371.940 C 114.522 372.127,114.916 372.532,115.514 372.840 C 116.111 373.148,117.048 373.805,117.596 374.300 C 118.144 374.795,118.907 375.200,119.293 375.200 C 119.678 375.200,120.218 375.560,120.493 376.000 C 120.768 376.440,121.309 376.800,121.696 376.800 C 122.083 376.800,122.400 376.959,122.400 377.154 C 122.400 377.349,122.985 377.810,123.700 378.177 C 125.076 378.885,127.143 380.268,128.800 381.591 C 129.350 382.030,130.025 382.392,130.300 382.395 C 130.575 382.398,130.800 382.588,130.800 382.818 C 130.800 383.047,131.025 383.206,131.300 383.170 C 132.360 383.032,132.836 383.218,132.562 383.662 C 132.393 383.936,132.451 384.015,132.706 383.858 C 132.942 383.712,133.407 383.864,133.739 384.196 C 134.071 384.528,134.626 384.800,134.971 384.800 C 135.317 384.800,135.600 384.980,135.600 385.200 C 135.600 385.420,135.960 385.600,136.400 385.600 C 136.840 385.600,137.200 385.780,137.200 386.000 C 137.200 386.220,137.434 386.400,137.720 386.400 C 138.456 386.400,140.393 387.341,140.397 387.700 C 140.399 387.865,140.760 388.000,141.200 388.000 C 141.640 388.000,142.000 388.180,142.000 388.400 C 142.000 388.620,142.330 388.800,142.733 388.800 C 143.137 388.800,143.591 388.925,143.744 389.077 C 143.896 389.229,144.413 389.414,144.893 389.487 C 145.373 389.560,145.863 389.771,145.983 389.956 C 146.179 390.260,147.808 390.932,148.467 390.980 C 148.613 390.991,148.868 391.135,149.033 391.300 C 149.198 391.465,149.753 391.600,150.267 391.600 C 150.780 391.600,151.200 391.780,151.200 392.000 C 151.200 392.220,151.740 392.400,152.400 392.400 C 153.060 392.400,153.600 392.580,153.600 392.800 C 153.600 393.020,154.140 393.200,154.800 393.200 C 155.460 393.200,156.000 393.380,156.000 393.600 C 156.000 393.820,156.540 394.000,157.200 394.000 C 157.860 394.000,158.400 394.180,158.400 394.400 C 158.400 394.620,158.929 394.800,159.576 394.800 C 160.223 394.800,160.864 394.980,161.000 395.200 C 161.136 395.420,161.777 395.600,162.424 395.600 C 163.071 395.600,163.600 395.743,163.600 395.918 C 163.600 396.093,164.256 396.281,165.057 396.335 C 165.858 396.389,166.836 396.605,167.231 396.816 C 167.625 397.027,168.409 397.200,168.974 397.200 C 169.538 397.200,170.000 397.380,170.000 397.600 C 170.000 397.820,170.979 398.000,172.176 398.000 C 173.373 398.000,174.464 398.180,174.600 398.400 C 174.736 398.620,175.812 398.800,176.990 398.800 C 178.169 398.800,179.197 398.992,179.275 399.226 C 179.367 399.502,182.815 399.734,189.110 399.888 L 198.803 400.124 198.702 353.562 L 198.600 307.000 187.000 306.784 C 174.025 306.543,173.798 306.496,170.338 303.294 C 165.071 298.422,165.510 289.735,171.252 285.196 C 174.109 282.938,174.980 282.805,186.867 282.802 C 192.734 282.801,197.819 282.691,198.167 282.557 C 198.733 282.340,198.800 280.156,198.800 262.007 L 198.800 241.699 196.700 241.453 C 194.076 241.147,190.691 240.572,188.600 240.078 C 187.103 239.725,186.662 239.588,184.600 238.836 C 174.177 235.036,165.355 226.918,160.437 216.600 C 158.584 212.714,158.654 212.915,157.216 207.300 C 155.019 198.725,155.729 138.803,158.044 137.373 C 158.240 137.252,158.400 136.801,158.400 136.371 C 158.400 135.941,158.559 135.277,158.753 134.895 C 158.948 134.513,159.285 133.750,159.503 133.200 C 160.313 131.155,161.810 128.196,162.100 128.067 C 162.265 127.993,162.400 127.758,162.400 127.545 C 162.400 125.093,175.093 112.400,177.545 112.400 C 177.758 112.400,177.993 112.265,178.067 112.100 C 178.196 111.810,181.155 110.313,183.200 109.503 C 183.750 109.285,184.513 108.948,184.895 108.753 C 185.277 108.559,185.941 108.400,186.371 108.400 C 186.801 108.400,187.252 108.240,187.373 108.044 C 187.616 107.650,189.029 107.374,193.800 106.786 C 195.560 106.569,197.405 106.300,197.900 106.188 L 198.800 105.985 198.800 52.992 L 198.800 0.000 196.300 0.060 C 194.925 0.093,193.278 0.198,192.639 0.292 M216.000 5.548 C 216.000 6.097,217.103 6.881,217.339 6.499 C 217.454 6.313,217.200 5.943,216.774 5.677 C 216.348 5.411,216.000 5.353,216.000 5.548 M219.434 9.343 C 219.572 9.705,219.857 10.000,220.066 10.000 C 220.276 10.000,220.348 10.161,220.226 10.358 C 220.104 10.555,220.278 10.821,220.612 10.949 C 221.359 11.236,220.807 10.036,219.813 9.211 C 219.276 8.765,219.220 8.785,219.434 9.343 M222.406 13.051 C 222.418 13.739,223.098 14.489,223.346 14.088 C 223.481 13.869,223.323 13.468,222.996 13.196 C 222.668 12.924,222.403 12.859,222.406 13.051 M274.406 84.700 C 274.403 85.195,274.580 85.600,274.800 85.600 C 275.301 85.600,275.301 85.176,274.800 84.400 C 274.486 83.915,274.411 83.972,274.406 84.700 M193.778 131.391 C 188.139 133.173,183.677 137.518,181.571 143.278 C 180.302 146.751,180.383 201.251,181.663 204.685 C 184.304 211.774,193.637 218.696,198.196 216.946 C 198.729 216.741,198.800 211.694,198.800 173.757 L 198.800 130.800 197.100 130.840 C 196.165 130.861,194.670 131.110,193.778 131.391 M306.400 136.124 C 306.400 136.496,306.559 136.800,306.753 136.800 C 306.948 136.800,307.201 137.160,307.316 137.600 C 307.431 138.040,307.767 138.386,308.063 138.368 C 308.467 138.345,308.476 138.287,308.100 138.135 C 307.825 138.024,307.594 137.723,307.587 137.467 C 307.565 136.633,306.400 135.316,306.400 136.124 M297.829 361.029 C 297.405 361.338,297.136 361.669,297.230 361.763 C 297.324 361.857,297.748 361.681,298.171 361.371 C 298.595 361.062,298.864 360.731,298.770 360.637 C 298.676 360.543,298.252 360.719,297.829 361.029 M283.925 372.844 C 283.196 373.528,282.962 373.905,283.404 373.681 C 284.243 373.257,285.901 371.600,285.487 371.600 C 285.356 371.600,284.653 372.160,283.925 372.844 M280.800 374.800 C 280.800 375.301,281.224 375.301,282.000 374.800 C 282.485 374.486,282.428 374.411,281.700 374.406 C 281.205 374.403,280.800 374.580,280.800 374.800 M256.000 388.800 C 255.683 388.996,255.556 389.289,255.718 389.452 C 255.881 389.614,256.223 389.537,256.480 389.280 C 257.084 388.676,256.747 388.338,256.000 388.800 " stroke="none" fill="#c52c69" fill-rule="evenodd"></path><path id="path4" d="M196.000 106.470 C 192.395 106.895,185.633 108.424,185.353 108.876 C 185.243 109.054,184.828 109.200,184.432 109.200 C 183.637 109.200,176.381 112.816,175.600 113.601 C 175.490 113.712,174.652 114.309,173.738 114.929 C 171.621 116.365,166.349 121.643,164.907 123.770 C 164.299 124.667,163.688 125.490,163.548 125.600 C 162.863 126.139,159.261 133.737,158.523 136.200 C 156.510 142.920,156.600 141.153,156.600 173.800 C 156.600 197.948,156.713 205.032,157.125 206.600 C 157.414 207.700,157.840 209.320,158.071 210.200 C 158.520 211.910,158.731 212.494,159.803 215.000 C 164.667 226.372,173.869 235.003,185.400 239.008 C 190.767 240.872,202.682 242.298,204.302 241.269 C 204.577 241.094,203.317 240.953,201.502 240.955 C 182.421 240.977,167.461 231.391,160.063 214.400 C 159.556 213.237,158.309 209.039,157.655 206.294 C 157.027 203.664,157.014 144.414,157.641 141.706 C 158.381 138.505,158.876 136.638,159.208 135.800 C 159.383 135.360,159.826 134.190,160.192 133.200 C 162.461 127.076,167.870 120.117,174.068 115.348 C 176.530 113.453,183.763 109.609,184.876 109.603 C 185.248 109.602,185.651 109.441,185.771 109.246 C 185.892 109.051,186.487 108.790,187.095 108.664 C 187.703 108.539,189.100 108.240,190.200 108.000 C 193.151 107.357,198.635 106.748,201.600 106.734 C 203.625 106.725,203.935 106.653,203.000 106.408 C 201.478 106.010,199.768 106.025,196.000 106.470 M205.600 107.073 C 206.370 107.178,207.977 107.518,209.170 107.828 C 210.364 108.139,211.425 108.309,211.528 108.206 C 211.898 107.836,208.941 107.168,206.200 107.003 C 205.100 106.937,204.830 106.969,205.600 107.073 M216.433 110.152 C 216.937 110.611,220.843 112.393,220.646 112.074 C 220.516 111.864,219.600 111.312,218.609 110.846 C 216.964 110.073,216.014 109.770,216.433 110.152 M222.600 113.472 C 222.820 113.676,224.031 114.616,225.291 115.563 C 228.347 117.858,232.390 122.193,234.665 125.614 C 235.684 127.146,236.592 128.400,236.682 128.400 C 237.917 128.400,230.707 119.633,226.600 116.141 C 224.639 114.474,221.209 112.185,222.600 113.472 M195.600 130.266 C 187.598 131.635,181.327 138.563,180.021 147.477 C 179.428 151.525,179.457 195.943,180.056 200.400 C 180.915 206.802,184.430 212.275,189.644 215.330 C 192.143 216.794,197.548 218.151,198.834 217.637 C 199.677 217.300,199.571 217.247,198.000 217.223 C 190.028 217.101,182.130 210.021,180.795 201.800 C 180.127 197.691,180.298 148.348,180.991 145.077 C 184.941 126.435,212.224 125.925,217.154 144.400 C 217.511 145.741,217.604 153.504,217.517 174.862 C 217.453 190.626,217.532 203.316,217.694 203.062 C 218.430 201.904,218.035 145.830,217.274 143.523 C 214.375 134.737,204.560 128.733,195.600 130.266 M237.634 130.600 C 237.634 130.820,237.978 131.630,238.400 132.400 C 238.822 133.170,239.166 133.620,239.166 133.400 C 239.166 133.180,238.822 132.370,238.400 131.600 C 237.978 130.830,237.634 130.380,237.634 130.600 M239.212 134.400 C 239.212 134.730,239.387 135.270,239.600 135.600 C 239.945 136.133,239.988 136.133,239.988 135.600 C 239.988 135.270,239.813 134.730,239.600 134.400 C 239.255 133.867,239.212 133.867,239.212 134.400 M240.028 137.076 C 240.118 138.115,240.744 138.996,240.772 138.124 C 240.787 137.642,240.620 137.136,240.400 137.000 C 240.180 136.864,240.013 136.898,240.028 137.076 M241.080 141.091 C 241.390 143.100,241.600 143.261,241.600 141.490 C 241.600 140.697,241.431 139.943,241.224 139.815 C 240.999 139.676,240.941 140.191,241.080 141.091 M241.800 173.776 C 241.800 189.917,241.932 202.916,242.094 202.662 C 242.463 202.081,242.442 146.047,242.072 145.115 C 241.922 144.738,241.800 157.636,241.800 173.776 M241.260 205.867 C 241.227 206.344,241.084 207.064,240.941 207.467 C 240.742 208.031,240.795 208.096,241.172 207.749 C 241.442 207.501,241.585 206.781,241.491 206.149 C 241.370 205.339,241.302 205.256,241.260 205.867 M215.386 207.700 L 214.752 209.000 215.567 208.000 C 216.352 207.037,216.608 206.400,216.210 206.400 C 216.106 206.400,215.735 206.985,215.386 207.700 M240.454 209.267 C 240.425 209.634,240.284 210.264,240.141 210.667 C 239.941 211.233,239.995 211.296,240.375 210.946 C 240.646 210.697,240.787 210.067,240.688 209.546 C 240.590 209.026,240.484 208.900,240.454 209.267 M213.280 210.760 C 212.591 211.618,210.897 213.058,209.517 213.960 C 208.136 214.862,207.147 215.600,207.317 215.600 C 208.264 215.600,212.828 212.045,214.008 210.389 C 215.221 208.686,214.758 208.922,213.280 210.760 M202.000 216.800 L 200.200 217.080 202.000 217.134 C 202.990 217.163,204.070 217.013,204.400 216.800 C 205.105 216.345,204.929 216.345,202.000 216.800 M236.266 219.622 C 235.654 220.710,235.237 221.600,235.339 221.600 C 235.610 221.600,237.697 217.963,237.524 217.791 C 237.443 217.710,236.877 218.534,236.266 219.622 M233.138 224.300 C 229.795 228.856,224.274 233.584,219.418 236.051 C 217.995 236.774,216.896 237.430,216.975 237.509 C 217.735 238.268,227.154 231.663,230.493 228.029 C 232.637 225.696,235.423 222.000,235.037 222.000 C 234.921 222.000,234.066 223.035,233.138 224.300 M210.600 239.600 L 209.800 239.944 210.600 239.966 C 211.040 239.978,211.670 239.813,212.000 239.600 C 212.795 239.086,211.796 239.086,210.600 239.600 M207.400 240.400 C 206.293 240.682,206.277 240.709,207.200 240.747 C 207.750 240.769,208.470 240.613,208.800 240.400 C 209.481 239.960,209.129 239.960,207.400 240.400 M173.800 283.761 C 164.660 287.942,164.548 301.222,173.617 305.469 C 175.341 306.276,176.146 306.310,197.800 306.504 L 220.200 306.705 198.600 306.337 C 175.210 305.939,174.727 305.891,171.768 303.654 C 165.133 298.639,165.974 288.940,173.423 284.562 L 175.400 283.400 187.200 283.181 L 199.000 282.962 187.400 282.904 C 176.101 282.848,175.748 282.870,173.800 283.761 M221.800 283.200 C 222.240 283.389,222.870 283.544,223.200 283.544 C 223.578 283.544,223.504 283.417,223.000 283.200 C 222.560 283.011,221.930 282.856,221.600 282.856 C 221.222 282.856,221.296 282.983,221.800 283.200 M224.800 284.275 C 225.350 284.659,226.565 285.721,227.500 286.634 C 228.435 287.547,229.200 288.176,229.200 288.031 C 229.200 287.565,225.835 284.510,224.800 284.035 L 223.800 283.577 224.800 284.275 M229.862 290.100 C 231.730 293.660,230.485 299.480,227.058 303.200 L 225.400 305.000 227.291 303.226 C 230.032 300.654,230.931 298.527,230.938 294.600 C 230.944 291.711,230.161 288.800,229.379 288.800 C 229.269 288.800,229.487 289.385,229.862 290.100 " stroke="none" fill="#ffffff" fill-rule="evenodd"></path></g></svg>